<svg width="8" height="13" viewBox="0 0 8 13" fill="none" xmlns="http://www.w3.org/2000/svg">
<path d="M6.41879 12.7508C6.591 12.9121 6.81018 13 7.06849 13C7.58513 13 8 12.6189 8 12.1353C8 11.8935 7.89041 11.6736 7.71037 11.5051L2.23092 6.49267L7.71037 1.49493C7.89041 1.32638 8 1.09921 8 0.864713C8 0.38106 7.58513 0 7.06849 0C6.81018 0 6.591 0.0879369 6.41879 0.249154L0.328767 5.81849C0.109589 6.00902 0.00782779 6.24352 0 6.5C0 6.75648 0.109589 6.97633 0.328767 7.17418L6.41879 12.7508Z" fill="#101010"/>
</svg>
