<svg width="14" height="14" viewBox="0 0 14 14" fill="none" xmlns="http://www.w3.org/2000/svg">
<path d="M2.64645 10.6464C2.45118 10.8417 2.45118 11.1583 2.64645 11.3536C2.84171 11.5488 3.15829 11.5488 3.35355 11.3536L2.64645 10.6464ZM11.3536 3.35355C11.5488 3.15829 11.5488 2.84171 11.3536 2.64645C11.1583 2.45118 10.8417 2.45118 10.6464 2.64645L11.3536 3.35355ZM10.6464 11.3536C10.8417 11.5488 11.1583 11.5488 11.3536 11.3536C11.5488 11.1583 11.5488 10.8417 11.3536 10.6464L10.6464 11.3536ZM3.35355 2.64645C3.15829 2.45118 2.84171 2.45118 2.64645 2.64645C2.45118 2.84171 2.45118 3.15829 2.64645 3.35355L3.35355 2.64645ZM3.35355 11.3536L7.35355 7.35355L6.64645 6.64645L2.64645 10.6464L3.35355 11.3536ZM7.35355 7.35355L11.3536 3.35355L10.6464 2.64645L6.64645 6.64645L7.35355 7.35355ZM6.64645 7.35355L10.6464 11.3536L11.3536 10.6464L7.35355 6.64645L6.64645 7.35355ZM11.3536 10.6464L3.35355 2.64645L2.64645 3.35355L10.6464 11.3536L11.3536 10.6464Z" fill="#F41B1B"/>
</svg>
