<svg width="25" height="16" viewBox="0 0 25 16" fill="none" xmlns="http://www.w3.org/2000/svg">
<path d="M8.78139 15.2629C7.63278 15.2629 6.5672 15.0858 5.58465 14.7316C4.61594 14.3638 3.77179 13.8461 3.05217 13.1785C2.3464 12.5109 1.79285 11.7276 1.39153 10.8284C0.990212 9.91559 0.789551 8.91424 0.789551 7.82434C0.789551 6.73444 0.990212 5.7399 1.39153 4.84073C1.79285 3.92793 2.3464 3.13775 3.05217 2.47018C3.77179 1.80262 4.61594 1.29173 5.58465 0.937506C6.5672 0.569664 7.63278 0.385742 8.78139 0.385742C10.1237 0.385742 11.3208 0.617347 12.3725 1.08056C13.4381 1.54377 14.3238 2.21133 15.0295 3.08326L12.414 5.41293C11.9435 4.86797 11.4246 4.45245 10.8572 4.16635C10.3036 3.88025 9.6809 3.7372 8.98897 3.7372C8.3939 3.7372 7.84728 3.83257 7.34908 4.0233C6.85089 4.21403 6.42189 4.49332 6.06209 4.86116C5.71612 5.21538 5.43935 5.64453 5.23177 6.14861C5.03802 6.65269 4.94115 7.21127 4.94115 7.82434C4.94115 8.43741 5.03802 8.99599 5.23177 9.50007C5.43935 10.0041 5.71612 10.4401 6.06209 10.808C6.42189 11.1622 6.85089 11.4346 7.34908 11.6254C7.84728 11.8161 8.3939 11.9115 8.98897 11.9115C9.6809 11.9115 10.3036 11.7684 10.8572 11.4823C11.4246 11.1962 11.9435 10.7807 12.414 10.2358L15.0295 12.5654C14.3238 13.4237 13.4381 14.0913 12.3725 14.5681C11.3208 15.0313 10.1237 15.2629 8.78139 15.2629Z" fill="white"/>
<path fill-rule="evenodd" clip-rule="evenodd" d="M24.7727 13.2568C24.7727 15.0697 22.5139 15.9489 21.248 14.6288L13.5306 6.58039L16.1296 4.17939L21.2036 9.47093L21.2036 0.385503L24.7727 0.385503L24.7727 13.2568Z" fill="white"/>
</svg>
