<svg width="20" height="20" viewBox="0 0 20 20" fill="none" xmlns="http://www.w3.org/2000/svg">
<path d="M19.0048 12.5033C17.4098 12.9465 15.7258 12.9582 14.1248 12.5371C12.5239 12.1161 11.0635 11.2774 9.89299 10.1069C8.72245 8.93637 7.88378 7.47597 7.46272 5.87504C7.04167 4.2741 7.05333 2.59007 7.49652 0.995117L7.49678 0.995196C5.92365 1.43283 4.49264 2.27501 3.34631 3.43784C2.19998 4.60068 1.37834 6.04359 0.96325 7.62281C0.548156 9.20204 0.554095 10.8625 0.980475 12.4387C1.40685 14.0149 2.23879 15.4519 3.39341 16.6065C4.54803 17.7611 5.98503 18.593 7.56125 19.0194C9.13747 19.4458 10.7979 19.4517 12.3771 19.0366C13.9563 18.6215 15.3992 17.7998 16.5621 16.6535C17.7249 15.5071 18.5671 14.0761 19.0047 12.503L19.0048 12.5033Z" stroke="black" stroke-linecap="round" stroke-linejoin="round"/>
</svg>
