<svg width="19" height="21" viewBox="0 0 19 21" fill="none" xmlns="http://www.w3.org/2000/svg">
<path d="M12.6448 18.2124C12.4606 19.782 11.1228 21 9.49993 21C7.87709 21 6.53925 19.782 6.35504 18.2124H2.05266C0.919124 18.2124 0 17.2975 0 16.1681C0 15.0401 0.918393 14.1238 2.0498 14.1238C2.15115 14.1238 2.23535 14.0398 2.23535 13.9374V9.47759C2.23535 6.29854 4.30258 3.53245 7.26459 2.57963V2.2304C7.26459 0.999152 8.26661 0 9.5 0C10.7351 0 11.7354 0.997095 11.7354 2.2304V2.57963C14.6972 3.53265 16.7647 6.299 16.7647 9.47759V13.9374C16.7647 14.0419 16.8468 14.1238 16.9502 14.1238C18.0798 14.1238 19 15.0398 19 16.1681C19 17.2962 18.0801 18.2124 16.9473 18.2124H12.6448ZM11.5152 18.2124H7.48465C7.6598 19.1639 8.49552 19.8849 9.49993 19.8849C10.5043 19.8849 11.34 19.1639 11.5152 18.2124ZM7.96284 3.5384C5.26933 4.22986 3.35305 6.66249 3.35305 9.47783V13.9376C3.35305 14.6558 2.7686 15.2391 2.0498 15.2391C1.53552 15.2391 1.11764 15.6563 1.11764 16.1683C1.11764 16.6814 1.53577 17.0975 2.05266 17.0975H16.9472C17.4633 17.0975 17.8822 16.6801 17.8822 16.1683C17.8822 15.6565 17.463 15.2391 16.9501 15.2391C16.2294 15.2391 15.6468 14.6581 15.6468 13.9376V9.47783C15.6468 6.66329 13.7305 4.22986 11.037 3.5384L10.6176 3.43081V2.23068C10.6176 1.61338 10.1181 1.11532 9.49988 1.11532C8.88374 1.11532 8.38218 1.61544 8.38218 2.23068V3.43081L7.96284 3.5384Z" fill="black"/>
</svg>
