<svg width="22" height="22" viewBox="0 0 22 22" fill="none" xmlns="http://www.w3.org/2000/svg">
<path d="M0 6.05003V2.75006C0 1.23368 1.23362 4.90804e-05 2.75001 4.90804e-05H6.04996C6.35362 4.90804e-05 6.59992 0.246543 6.59992 0.550002C6.59992 0.853663 6.35342 1.09996 6.04996 1.09996H2.75001C1.84 1.09996 1.0999 1.84 1.0999 2.75006V6.05003C1.0999 6.35369 0.853411 6.59998 0.549952 6.59998C0.246484 6.59998 0 6.35368 0 6.05003ZM6.05001 20.9001H2.75006C1.84005 20.9001 1.09995 20.16 1.09995 19.25V15.95C1.09995 15.6464 0.853459 15.4001 0.550001 15.4001C0.246341 15.4001 4.90803e-05 15.6466 4.90803e-05 15.95V19.25C4.90803e-05 20.7664 1.23367 22 2.75006 22H6.05001C6.35367 22 6.59996 21.7535 6.59996 21.45C6.59996 21.1464 6.35366 20.9001 6.05001 20.9001ZM21.45 15.4001C21.1464 15.4001 20.9001 15.6466 20.9001 15.95V19.25C20.9001 20.16 20.16 20.9001 19.25 20.9001H15.95C15.6464 20.9001 15.4001 21.1466 15.4001 21.45C15.4001 21.7537 15.6466 22 15.95 22H19.25C20.7664 22 22 20.7664 22 19.25V15.95C22 15.6464 21.7535 15.4001 21.45 15.4001ZM19.25 0H15.95C15.6464 0 15.4001 0.246494 15.4001 0.549953C15.4001 0.853614 15.6466 1.09991 15.95 1.09991H19.25C20.16 1.09991 20.9001 1.83995 20.9001 2.75001V6.04998C20.9001 6.35364 21.1466 6.59993 21.45 6.59993C21.7537 6.59993 22 6.35344 22 6.04998V2.75001C22 1.23363 20.7664 0 19.25 0ZM12.65 8.80004V5.50007C12.65 5.19641 12.8965 4.95012 13.1999 4.95012H16.4999C16.8035 4.95012 17.0498 5.19662 17.0498 5.50007V8.80004C17.0498 9.1037 16.8033 9.34999 16.4999 9.34999H13.1999C12.8963 9.34999 12.65 9.10369 12.65 8.80004ZM13.7499 8.25009H15.9499V6.05003H13.7499V8.25009ZM5.49986 4.95012H8.79982C9.10348 4.95012 9.34977 5.19662 9.34977 5.50007V8.80004C9.34977 9.1037 9.10328 9.34999 8.79982 9.34999H5.49986C5.1962 9.34999 4.94991 9.1035 4.94991 8.80004V5.50007C4.94991 5.19641 5.19621 4.95012 5.49986 4.95012ZM6.04982 8.25009H8.24987V6.05003H6.04982V8.25009ZM9.34977 13.2001V16.5001C9.34977 16.8037 9.10328 17.05 8.79982 17.05H5.49986C5.1962 17.05 4.94991 16.8035 4.94991 16.5001V13.2001C4.94991 12.8964 5.19641 12.6502 5.49986 12.6502H8.79982C9.10348 12.6502 9.34977 12.8965 9.34977 13.2001ZM8.24987 13.7501H6.04982V15.9501H8.24987V13.7501ZM17.0499 16.5001V13.2001C17.0499 12.8964 16.8034 12.6502 16.4999 12.6502C16.1963 12.6502 15.95 12.8966 15.95 13.2001V15.9501H13.7499V13.2001C13.7499 12.8964 13.5034 12.6502 13.2 12.6502C12.8963 12.6502 12.65 12.8966 12.65 13.2001V16.5001C12.65 16.8037 12.8965 17.05 13.2 17.05H16.4999C16.8036 17.05 17.0499 16.8037 17.0499 16.5001ZM16.4999 11.5501C16.8036 11.5501 17.0499 11.3036 17.0499 11.0001C17.0499 10.6964 16.8034 10.4501 16.4999 10.4501H11.5499V5.50012C11.5499 5.19646 11.3034 4.95017 11 4.95017C10.6963 4.95017 10.45 5.19666 10.45 5.50012V10.4501H9.90007C9.59641 10.4501 9.35012 10.6966 9.35012 11.0001C9.35012 11.3038 9.59661 11.5501 9.90007 11.5501H10.45V16.5001C10.45 16.8037 10.6965 17.05 11 17.05C11.3036 17.05 11.5499 16.8035 11.5499 16.5001V11.5501H16.4999ZM5.49991 10.4501C5.19625 10.4501 4.94996 10.6966 4.94996 11.0001C4.94996 11.3038 5.19646 11.5501 5.49991 11.5501H7.69997C8.00363 11.5501 8.24992 11.3036 8.24992 11.0001C8.24992 10.6964 8.00343 10.4501 7.69997 10.4501H5.49991Z" fill="black"/>
</svg>
