<svg width="29" height="29" viewBox="0 0 29 29" fill="none" xmlns="http://www.w3.org/2000/svg">
<path d="M16.3 12.6999C16.3 13.694 15.4941 14.4999 14.5 14.4999C13.5059 14.4999 12.7 13.694 12.7 12.6999C12.7 11.7058 13.5059 10.8999 14.5 10.8999C15.4941 10.8999 16.3 11.7058 16.3 12.6999Z" stroke="#F41B1B" stroke-miterlimit="10" stroke-linecap="round" stroke-linejoin="round"/>
<path d="M10.3771 19.2032C10.9395 17.1264 12.2884 16.0532 14.4271 16.0532C16.5596 16.0532 17.9083 17.1264 18.4771 19.2032" stroke="#F41B1B" stroke-miterlimit="10" stroke-linecap="round" stroke-linejoin="round"/>
<path d="M20.8 14.5002C20.8 17.9795 17.9795 20.8002 14.5 20.8002C11.0205 20.8002 8.2 17.9797 8.2 14.5002C8.2 11.0207 11.0205 8.2002 14.5 8.2002C17.9795 8.2002 20.8 11.0207 20.8 14.5002Z" stroke="#F41B1B" stroke-miterlimit="10" stroke-linecap="round" stroke-linejoin="round"/>
<path d="M24.2293 17.645C24.0575 18.1685 23.8531 18.6755 23.5995 19.1583L25.1699 22.9208L22.9206 25.1701L19.1581 23.5997C18.6755 23.8533 18.1602 24.0659 17.6368 24.2377L16.0908 28H12.9092L11.3632 24.2374C10.8315 24.0656 10.3245 23.853 9.84192 23.5994L6.07936 25.1699L3.8301 22.9206L5.40054 19.1581C5.14693 18.6755 4.94249 18.1683 4.77071 17.6448L1 16.0909V12.9173L4.77071 11.3632C4.9425 10.8399 5.14694 10.3327 5.40054 9.85009L3.8301 6.07937L6.07936 3.83826L9.84192 5.40871C10.3245 5.1551 10.8317 4.94249 11.3632 4.77072L12.9092 1L16.0908 1.00816L17.6368 4.77072C18.1601 4.94252 18.6755 5.15512 19.1581 5.40871L22.9206 3.83827L25.1699 6.07938L23.5995 9.8501C23.8531 10.3326 24.0575 10.8399 24.2293 11.3632L28 12.9174V16.0909L24.2293 17.645Z" stroke="#F41B1B" stroke-miterlimit="10" stroke-linecap="round" stroke-linejoin="round"/>
</svg>
