<svg width="19" height="18" viewBox="0 0 19 18" fill="none" xmlns="http://www.w3.org/2000/svg">
<path d="M1.66026 0.922852H17.4936C17.6364 0.922852 17.7762 0.963926 17.8959 1.04108C18.0155 1.11824 18.11 1.22815 18.1678 1.35747C18.2255 1.48679 18.2441 1.62994 18.2213 1.76952C18.1984 1.9091 18.1351 2.03911 18.0391 2.14374L11.9801 8.74299C11.8568 8.87734 11.7884 9.0524 11.7884 9.23397V14.4004C11.7884 14.5205 11.7585 14.6389 11.7012 14.7448C11.6439 14.8507 11.5611 14.941 11.4602 15.0077L8.51153 16.9541C8.40051 17.0274 8.27149 17.0695 8.13822 17.0758C8.00495 17.0822 7.87243 17.0527 7.75479 16.9903C7.63715 16.928 7.53881 16.8352 7.47024 16.7219C7.40168 16.6085 7.36546 16.4789 7.36546 16.3468V9.23398C7.36546 9.0524 7.29711 8.87734 7.17376 8.74299L1.1148 2.14374C1.01874 2.03911 0.955435 1.9091 0.93259 1.76952C0.909744 1.62994 0.928338 1.48679 0.986113 1.35747C1.04389 1.22815 1.13835 1.11824 1.25803 1.04108C1.37771 0.963926 1.51745 0.922852 1.66026 0.922852V0.922852Z" stroke="#101010" stroke-width="1.5" stroke-linecap="round" stroke-linejoin="round"/>
</svg>
