<svg width="28" height="28" viewBox="0 0 28 28" fill="none" xmlns="http://www.w3.org/2000/svg">
<path d="M17.1978 10.1983L22.4216 15.6468V8.34569C22.4216 7.36025 23.2205 6.56139 24.2059 6.56139V6.56139C25.1913 6.56139 25.9902 7.36025 25.9902 8.34569V19.4327C25.9902 21.2455 23.7317 22.1248 22.466 20.8047L14.6581 12.6608C13.4358 11.4784 11.7285 9.91284 10.2086 9.91284C9.6136 9.91284 9.06705 10.0082 8.56892 10.1989C8.07079 10.3897 7.64185 10.669 7.28209 11.0368C6.93617 11.391 6.65943 11.8202 6.45188 12.3243C6.25816 12.8283 6.16131 13.3869 6.16131 14C6.16131 14.6131 6.25816 15.1716 6.45188 15.6757C6.65943 16.1797 6.93617 16.6157 7.28209 16.9836C7.64185 17.3378 8.07079 17.6102 8.56892 17.801C9.06705 17.9917 9.6136 18.0871 10.2086 18.0871C10.9004 18.0871 11.5231 17.944 12.0766 17.6579C12.1382 17.6269 12.1993 17.5943 12.2598 17.5601C13.1213 17.0739 14.2382 16.9503 14.9768 17.6083V17.6083C15.6871 18.241 15.7817 19.3451 15.0185 19.9127C14.5854 20.2349 14.1098 20.5119 13.5917 20.7437C12.5401 21.2069 11.3432 21.4385 10.001 21.4385C8.85258 21.4385 7.78714 21.2614 6.80472 20.9072C5.83614 20.5394 4.99209 20.0217 4.27258 19.3541C3.5669 18.6865 3.01342 17.9032 2.61215 17.004C2.21089 16.0912 2.01025 15.0899 2.01025 14C2.01025 12.9101 2.21089 11.9155 2.61215 11.0164C3.01342 10.1036 3.5669 9.31339 4.27258 8.64582C4.99209 7.97826 5.83614 7.46737 6.80472 7.11315C7.78714 6.74531 8.85258 6.56139 10.001 6.56139C13.5449 6.56139 15.8142 8.89938 17.1978 10.1983Z" stroke="black" stroke-width="1.66"/>
</svg>
