<svg width="28" height="28" viewBox="0 0 28 28" fill="none" xmlns="http://www.w3.org/2000/svg">
<path fill-rule="evenodd" clip-rule="evenodd" d="M25.9897 19.4327C25.9897 21.2456 23.7312 22.1248 22.4655 20.8047L14.7491 12.7563L17.3478 10.3553L22.4211 15.6468L22.4211 6.56141L25.9897 6.56141L25.9897 19.4327Z" fill="black"/>
<path d="M10.0005 21.4386C8.85209 21.4386 7.78665 21.2615 6.80424 20.9073C5.83566 20.5394 4.99161 20.0217 4.27209 19.3542C3.56641 18.6866 3.01294 17.9032 2.61167 17.004C2.2104 16.0913 2.00977 15.0899 2.00977 14C2.00977 12.9101 2.2104 11.9156 2.61167 11.0164C3.01294 10.1036 3.56641 9.31341 4.27209 8.64584C4.99161 7.97828 5.83566 7.46738 6.80424 7.11317C7.78665 6.74532 8.85209 6.5614 10.0005 6.5614C11.3427 6.5614 12.5396 6.79301 13.5912 7.25622C14.6567 7.71943 15.5422 8.38699 16.2479 9.25892L13.6327 11.5886C13.1623 11.0436 12.6434 10.6281 12.0761 10.342C11.5226 10.0559 10.8999 9.91286 10.2081 9.91286C9.61312 9.91286 9.06656 10.0082 8.56844 10.199C8.07031 10.3897 7.64137 10.669 7.28161 11.0368C6.93569 11.391 6.65895 11.8202 6.4514 12.3243C6.25768 12.8284 6.16082 13.3869 6.16082 14C6.16082 14.6131 6.25768 15.1716 6.4514 15.6757C6.65895 16.1798 6.93569 16.6158 7.28161 16.9836C7.64137 17.3378 8.07031 17.6103 8.56844 17.801C9.06656 17.9918 9.61312 18.0871 10.2081 18.0871C10.8999 18.0871 11.5226 17.9441 12.0761 17.658C12.6434 17.3719 13.1623 16.9564 13.6327 16.4114L16.2479 18.7411C15.5422 19.5994 14.6567 20.2669 13.5912 20.7438C12.5396 21.207 11.3427 21.4386 10.0005 21.4386Z" fill="black"/>
</svg>
