<svg width="28" height="28" viewBox="0 0 28 28" fill="none" xmlns="http://www.w3.org/2000/svg">
<path d="M18.2539 22.417C15.6172 22.417 12.585 20.914 9.67578 18.0224C6.75781 15.122 5.25488 12.0635 5.25488 9.47947C5.25488 7.87986 5.70312 6.86033 6.74023 5.90232C6.81055 5.8408 6.88086 5.77927 6.95117 5.71775C7.53125 5.20798 8.12891 4.9531 8.69141 4.96189C9.35059 4.97068 9.96582 5.33103 10.4932 6.08689L12.3477 8.74119C12.9277 9.55857 12.9717 10.5166 12.2334 11.2549L11.583 11.9052C11.3545 12.1338 11.3369 12.3447 11.5127 12.5996C11.8555 13.1357 12.4971 13.8564 13.1211 14.4804C13.7451 15.0957 14.6416 15.8867 15.1162 16.2119C15.3799 16.3877 15.5908 16.3701 15.8105 16.1416L16.4697 15.4912C17.208 14.7529 18.166 14.7969 18.9834 15.3681L21.6025 17.1875C22.3848 17.7324 22.7363 18.3301 22.7363 18.9892C22.7363 19.5429 22.4814 20.1494 21.9629 20.7295C21.9014 20.8086 21.8398 20.8789 21.7783 20.9492C20.8379 21.9775 19.792 22.417 18.2539 22.417ZM18.2539 20.958C19.2031 20.9404 20.0293 20.6064 20.6094 19.9385C20.6621 19.8769 20.7061 19.8154 20.7588 19.7539C20.9785 19.5078 21.084 19.2353 21.084 18.998C21.084 18.7344 20.9873 18.5146 20.7236 18.3388L18.2803 16.7217C17.9727 16.5195 17.6387 16.5019 17.3486 16.8095L16.6455 17.5215C16.0039 18.1806 15.2393 18.1279 14.6416 17.6972C14 17.2314 12.9102 16.2558 12.1279 15.4824C11.3896 14.7529 10.502 13.751 10.0273 13.083C9.59668 12.4853 9.54395 11.7207 10.2031 11.0791L10.915 10.376C11.2139 10.0771 11.2051 9.74314 11.0029 9.44431L9.35059 6.9658C9.1748 6.70212 8.94629 6.59666 8.69141 6.59666C8.44531 6.59666 8.18164 6.71091 7.93555 6.92185C7.86523 6.97459 7.8125 7.01853 7.75098 7.07126C7.08301 7.66013 6.74902 8.47751 6.73145 9.42673C6.69629 11.6679 8.34863 14.5683 10.7832 16.9765C13.209 19.3847 16.0127 20.9931 18.2539 20.958Z" fill="black"/>
</svg>
