<svg width="393" height="280" viewBox="0 0 393 280" fill="none" xmlns="http://www.w3.org/2000/svg">
<g clip-path="url(#clip0_899_14501)">
<rect x="16" width="361" height="280" rx="24" fill="#0080FF" fill-opacity="0.15"/>
<path d="M88.921 84C89.587 84 90.5603 83.4877 91.3543 82.9755C105.672 73.7545 114.842 62.9456 114.842 52.0085C114.842 42.5571 108.311 36 100.14 36C95.0427 36 91.2263 38.8175 88.921 43.0181C86.667 38.8175 82.825 36 77.7279 36C69.5315 36 63 42.5571 63 52.0085C63 62.9456 72.1953 73.7545 86.4877 82.9755C87.2817 83.4877 88.2551 84 88.921 84Z" fill="white" fill-opacity="0.85"/>
<path d="M235.921 296C236.587 296 237.56 295.488 238.354 294.975C252.672 285.755 261.842 274.946 261.842 264.009C261.842 254.557 255.311 248 247.14 248C242.043 248 238.226 250.818 235.921 255.018C233.667 250.818 229.825 248 224.728 248C216.531 248 210 254.557 210 264.009C210 274.946 219.195 285.755 233.488 294.975C234.282 295.488 235.255 296 235.921 296Z" fill="white" fill-opacity="0.85"/>
<path d="M333.921 260C334.587 260 335.56 259.488 336.354 258.975C350.672 249.755 359.842 238.946 359.842 228.009C359.842 218.557 353.311 212 345.14 212C340.043 212 336.226 214.818 333.921 219.018C331.667 214.818 327.825 212 322.728 212C314.531 212 308 218.557 308 228.009C308 238.946 317.195 249.755 331.488 258.975C332.282 259.488 333.255 260 333.921 260Z" fill="white" fill-opacity="0.85"/>
<path d="M62.921 296C63.587 296 64.5603 295.488 65.3543 294.975C79.6724 285.755 88.842 274.946 88.842 264.009C88.842 254.557 82.3106 248 74.1398 248C69.0427 248 65.2263 250.818 62.921 255.018C60.667 250.818 56.825 248 51.7279 248C43.5315 248 37 254.557 37 264.009C37 274.946 46.1953 285.755 60.4877 294.975C61.2817 295.488 62.2551 296 62.921 296Z" fill="white" fill-opacity="0.85"/>
<path d="M25.921 158C26.587 158 27.5603 157.488 28.3543 156.975C42.6724 147.755 51.842 136.946 51.842 126.009C51.842 116.557 45.3106 110 37.1398 110C32.0427 110 28.2263 112.818 25.921 117.018C23.667 112.818 19.825 110 14.7279 110C6.53148 110 0 116.557 0 126.009C0 136.946 9.1953 147.755 23.4877 156.975C24.2817 157.488 25.2551 158 25.921 158Z" fill="white" fill-opacity="0.85"/>
<path d="M192.921 116C193.587 116 194.56 115.488 195.354 114.975C209.672 105.755 218.842 94.9456 218.842 84.0085C218.842 74.5571 212.311 68 204.14 68C199.043 68 195.226 70.8175 192.921 75.0181C190.667 70.8175 186.825 68 181.728 68C173.531 68 167 74.5571 167 84.0085C167 94.9456 176.195 105.755 190.488 114.975C191.282 115.488 192.255 116 192.921 116Z" fill="white" fill-opacity="0.85"/>
<path d="M140.921 206C141.587 206 142.56 205.488 143.354 204.975C157.672 195.755 166.842 184.946 166.842 174.009C166.842 164.557 160.311 158 152.14 158C147.043 158 143.226 160.818 140.921 165.018C138.667 160.818 134.825 158 129.728 158C121.531 158 115 164.557 115 174.009C115 184.946 124.195 195.755 138.488 204.975C139.282 205.488 140.255 206 140.921 206Z" fill="white" fill-opacity="0.85"/>
<path d="M307.921 60C308.587 60 309.56 59.4877 310.354 58.9755C324.672 49.7545 333.842 38.9456 333.842 28.0085C333.842 18.5571 327.311 12 319.14 12C314.043 12 310.226 14.8175 307.921 19.0181C305.667 14.8175 301.825 12 296.728 12C288.531 12 282 18.5571 282 28.0085C282 38.9456 291.195 49.7545 305.488 58.9755C306.282 59.4877 307.255 60 307.921 60Z" fill="white" fill-opacity="0.85"/>
<path d="M261.921 164C262.587 164 263.56 163.488 264.354 162.975C278.672 153.755 287.842 142.946 287.842 132.009C287.842 122.557 281.311 116 273.14 116C268.043 116 264.226 118.818 261.921 123.018C259.667 118.818 255.825 116 250.728 116C242.531 116 236 122.557 236 132.009C236 142.946 245.195 153.755 259.488 162.975C260.282 163.488 261.255 164 261.921 164Z" fill="white" fill-opacity="0.85"/>
<path d="M366.921 122C367.587 122 368.56 121.488 369.354 120.975C383.672 111.755 392.842 100.946 392.842 90.0085C392.842 80.5571 386.311 74 378.14 74C373.043 74 369.226 76.8175 366.921 81.0181C364.667 76.8175 360.825 74 355.728 74C347.531 74 341 80.5571 341 90.0085C341 100.946 350.195 111.755 364.488 120.975C365.282 121.488 366.255 122 366.921 122Z" fill="white" fill-opacity="0.85"/>
<path d="M218.921 28C219.587 28 220.56 27.4877 221.354 26.9755C235.672 17.7545 244.842 6.94557 244.842 -3.99146C244.842 -13.4429 238.311 -20 230.14 -20C225.043 -20 221.226 -17.1825 218.921 -12.9819C216.667 -17.1825 212.825 -20 207.728 -20C199.531 -20 193 -13.4429 193 -3.99146C193 6.94557 202.195 17.7545 216.488 26.9755C217.282 27.4877 218.255 28 218.921 28Z" fill="white" fill-opacity="0.85"/>
<path opacity="0.5" d="M257.96 74C257.627 74 257.141 73.7439 256.744 73.4877C249.585 68.8773 245 63.4728 245 58.0043C245 53.2785 248.266 50 252.351 50C254.9 50 256.808 51.4088 257.96 53.5091C259.087 51.4088 261.008 50 263.557 50C267.655 50 270.921 53.2785 270.921 58.0043C270.921 63.4728 266.323 68.8773 259.177 73.4877C258.78 73.7439 258.293 74 257.96 74Z" fill="white" fill-opacity="0.85"/>
<path opacity="0.5" d="M149.96 276C149.627 276 149.141 275.744 148.744 275.488C141.585 270.877 137 265.473 137 260.004C137 255.279 140.266 252 144.351 252C146.9 252 148.808 253.409 149.96 255.509C151.087 253.409 153.008 252 155.557 252C159.655 252 162.921 255.279 162.921 260.004C162.921 265.473 158.323 270.877 151.177 275.488C150.78 275.744 150.293 276 149.96 276Z" fill="white" fill-opacity="0.85"/>
<path opacity="0.5" d="M38.9604 230C38.6274 230 38.1407 229.744 37.7437 229.488C30.5847 224.877 25.9999 219.473 25.9999 214.004C25.9999 209.279 29.2656 206 33.351 206C35.8996 206 37.8078 207.409 38.9604 209.509C40.0874 207.409 42.0084 206 44.557 206C48.6552 206 51.9209 209.279 51.9209 214.004C51.9209 219.473 47.3232 224.877 40.177 229.488C39.78 229.744 39.2934 230 38.9604 230Z" fill="white" fill-opacity="0.85"/>
<path opacity="0.5" d="M364.96 40C364.627 40 364.141 39.7439 363.744 39.4877C356.585 34.8773 352 29.4728 352 24.0043C352 19.2785 355.266 16 359.351 16C361.9 16 363.808 17.4088 364.96 19.5091C366.087 17.4088 368.008 16 370.557 16C374.655 16 377.921 19.2785 377.921 24.0043C377.921 29.4728 373.323 34.8773 366.177 39.4877C365.78 39.7439 365.293 40 364.96 40Z" fill="white" fill-opacity="0.85"/>
<path opacity="0.5" d="M320.96 148C320.627 148 320.141 147.744 319.744 147.488C312.585 142.877 308 137.473 308 132.004C308 127.279 311.266 124 315.351 124C317.9 124 319.808 125.409 320.96 127.509C322.087 125.409 324.008 124 326.557 124C330.655 124 333.921 127.279 333.921 132.004C333.921 137.473 329.323 142.877 322.177 147.488C321.78 147.744 321.293 148 320.96 148Z" fill="white" fill-opacity="0.85"/>
<path opacity="0.5" d="M127.96 128C127.627 128 127.141 127.744 126.744 127.488C119.585 122.877 115 117.473 115 112.004C115 107.279 118.266 104 122.351 104C124.9 104 126.808 105.409 127.96 107.509C129.087 105.409 131.008 104 133.557 104C137.655 104 140.921 107.279 140.921 112.004C140.921 117.473 136.323 122.877 129.177 127.488C128.78 127.744 128.293 128 127.96 128Z" fill="white" fill-opacity="0.85"/>
<path opacity="0.5" d="M218.96 224C218.627 224 218.141 223.744 217.744 223.488C210.585 218.877 206 213.473 206 208.004C206 203.279 209.266 200 213.351 200C215.9 200 217.808 201.409 218.96 203.509C220.087 201.409 222.008 200 224.557 200C228.655 200 231.921 203.279 231.921 208.004C231.921 213.473 227.323 218.877 220.177 223.488C219.78 223.744 219.293 224 218.96 224Z" fill="white" fill-opacity="0.85"/>
<path opacity="0.5" d="M31.9604 52C31.6274 52 31.1407 51.7439 30.7437 51.4877C23.5847 46.8773 18.9999 41.4728 18.9999 36.0043C18.9999 31.2785 22.2656 28 26.351 28C28.8996 28 30.8078 29.4088 31.9604 31.5091C33.0874 29.4088 35.0084 28 37.557 28C41.6552 28 44.9209 31.2785 44.9209 36.0043C44.9209 41.4728 40.3232 46.8773 33.177 51.4877C32.78 51.7439 32.2934 52 31.9604 52Z" fill="white" fill-opacity="0.85"/>
<path opacity="0.5" d="M366.96 200C366.627 200 366.141 199.744 365.744 199.488C358.585 194.877 354 189.473 354 184.004C354 179.279 357.266 176 361.351 176C363.9 176 365.808 177.409 366.96 179.509C368.087 177.409 370.008 176 372.557 176C376.655 176 379.921 179.279 379.921 184.004C379.921 189.473 375.323 194.877 368.177 199.488C367.78 199.744 367.293 200 366.96 200Z" fill="white" fill-opacity="0.85"/>
<path opacity="0.5" d="M305.96 291C305.627 291 305.141 290.744 304.744 290.488C297.585 285.877 293 280.473 293 275.004C293 270.279 296.266 267 300.351 267C302.9 267 304.808 268.409 305.96 270.509C307.087 268.409 309.008 267 311.557 267C315.655 267 318.921 270.279 318.921 275.004C318.921 280.473 314.323 285.877 307.177 290.488C306.78 290.744 306.293 291 305.96 291Z" fill="white" fill-opacity="0.85"/>
<path opacity="0.5" d="M149.96 40C149.627 40 149.141 39.7439 148.744 39.4877C141.585 34.8773 137 29.4728 137 24.0043C137 19.2785 140.266 16 144.351 16C146.9 16 148.808 17.4088 149.96 19.5091C151.087 17.4088 153.008 16 155.557 16C159.655 16 162.921 19.2785 162.921 24.0043C162.921 29.4728 158.323 34.8773 151.177 39.4877C150.78 39.7439 150.293 40 149.96 40Z" fill="white" fill-opacity="0.85"/>
</g>
<defs>
<clipPath id="clip0_899_14501">
<rect x="16" width="361" height="280" rx="24" fill="white"/>
</clipPath>
</defs>
</svg>
