<svg width="393" height="318" viewBox="0 0 393 318" fill="none" xmlns="http://www.w3.org/2000/svg">
<rect x="16" width="361" height="318" rx="24" fill="#0080FF" fill-opacity="0.15"/>
<path d="M196.535 55.0796C204.252 55.0796 210.8 48.2124 210.8 39.3274C210.8 30.6549 204.216 24 196.535 24C188.818 24 182.199 30.7611 182.234 39.3982C182.234 48.2124 188.783 55.0796 196.535 55.0796ZM174.446 88H218.552C224.393 88 226.411 86.2301 226.411 82.9735C226.411 73.8761 214.871 61.3451 196.499 61.3451C178.163 61.3451 166.588 73.8761 166.588 82.9735C166.588 86.2301 168.606 88 174.446 88Z" fill="white" fill-opacity="0.85"/>
<g opacity="0.5">
<path d="M40 121C40 120.071 40 119.607 40.0385 119.216C40.4126 115.418 43.4176 112.413 47.2159 112.039C47.607 112 48.0713 112 49 112H144.333V130H49C48.0713 130 47.607 130 47.2159 129.961C43.4176 129.587 40.4126 126.582 40.0385 122.784C40 122.393 40 121.929 40 121Z" fill="white" fill-opacity="0.85"/>
<path d="M144.334 112H239.667C240.596 112 241.06 112 241.451 112.039C245.25 112.413 248.255 115.418 248.629 119.216C248.667 119.607 248.667 120.071 248.667 121C248.667 121.929 248.667 122.393 248.629 122.784C248.255 126.582 245.25 129.587 241.451 129.961C241.06 130 240.596 130 239.667 130H144.334V112Z" fill="white" fill-opacity="0.85"/>
<rect x="40" y="138" width="313" height="8" rx="4" fill="white" fill-opacity="0.85"/>
<rect x="40" y="154" width="156.5" height="8" rx="4" fill="white" fill-opacity="0.85"/>
</g>
<g opacity="0.5">
<rect x="40" y="178" width="156.5" height="18" rx="8" fill="white" fill-opacity="0.85"/>
<rect x="40" y="204" width="313" height="8" rx="4" fill="white" fill-opacity="0.85"/>
<rect x="40" y="220" width="156.5" height="8" rx="4" fill="white" fill-opacity="0.85"/>
</g>
<g opacity="0.5">
<rect x="40" y="244" width="156.5" height="18" rx="8" fill="white" fill-opacity="0.85"/>
<rect x="40" y="270" width="313" height="8" rx="4" fill="white" fill-opacity="0.85"/>
<rect x="40" y="286" width="156.5" height="8" rx="4" fill="white" fill-opacity="0.85"/>
</g>
</svg>
