<svg width="393" height="280" viewBox="0 0 393 280" fill="none" xmlns="http://www.w3.org/2000/svg">
<g opacity="0.5">
<rect x="16" width="329" height="88" rx="24" fill="#0080FF" fill-opacity="0.15"/>
<g clip-path="url(#clip0_867_18657)">
<rect x="32" y="16" width="56" height="56" rx="28" fill="white" fill-opacity="0.85"/>
<g opacity="0.1">
<path d="M60.0176 43.1504C63.8496 43.1504 67.1016 39.7402 67.1016 35.3281C67.1016 31.0215 63.832 27.7168 60.0176 27.7168C56.1855 27.7168 52.8984 31.0742 52.916 35.3633C52.916 39.7402 56.168 43.1504 60.0176 43.1504ZM49.0488 59.498H70.9512C73.8516 59.498 74.8535 58.6191 74.8535 57.002C74.8535 52.4844 69.123 46.2617 60 46.2617C50.8945 46.2617 45.1465 52.4844 45.1465 57.002C45.1465 58.6191 46.1484 59.498 49.0488 59.498Z" fill="#0080FF"/>
</g>
</g>
<g opacity="0.5">
<path d="M96 25C96 24.0713 96 23.607 96.0385 23.2159C96.4126 19.4176 99.4176 16.4126 103.216 16.0385C103.607 16 104.071 16 105 16H173.667V34H105C104.071 34 103.607 34 103.216 33.9615C99.4176 33.5874 96.4126 30.5824 96.0385 26.7841C96 26.393 96 25.9287 96 25Z" fill="white" fill-opacity="0.85"/>
<path d="M173.667 16H242.334C243.262 16 243.727 16 244.118 16.0385C247.916 16.4126 250.921 19.4176 251.295 23.2159C251.334 23.607 251.334 24.0713 251.334 25C251.334 25.9287 251.334 26.393 251.295 26.7841C250.921 30.5824 247.916 33.5874 244.118 33.9615C243.727 34 243.262 34 242.334 34H173.667V16Z" fill="white" fill-opacity="0.85"/>
<rect x="96" y="48" width="233" height="8" rx="4" fill="white" fill-opacity="0.85"/>
<rect x="96" y="64" width="116.5" height="8" rx="4" fill="white" fill-opacity="0.85"/>
</g>
</g>
<g opacity="0.75">
<rect x="32" y="96" width="329" height="88" rx="24" fill="#0080FF" fill-opacity="0.15"/>
<g clip-path="url(#clip1_867_18657)">
<rect x="48" y="112" width="56" height="56" rx="28" fill="white" fill-opacity="0.85"/>
<g opacity="0.1">
<path d="M76.0176 139.15C79.8496 139.15 83.1016 135.74 83.1016 131.328C83.1016 127.021 79.832 123.717 76.0176 123.717C72.1855 123.717 68.8984 127.074 68.916 131.363C68.916 135.74 72.168 139.15 76.0176 139.15ZM65.0488 155.498H86.9512C89.8516 155.498 90.8535 154.619 90.8535 153.002C90.8535 148.484 85.123 142.262 76 142.262C66.8945 142.262 61.1465 148.484 61.1465 153.002C61.1465 154.619 62.1484 155.498 65.0488 155.498Z" fill="#0080FF"/>
</g>
</g>
<g opacity="0.5">
<path d="M112 121C112 120.071 112 119.607 112.039 119.216C112.413 115.418 115.418 112.413 119.216 112.039C119.607 112 120.071 112 121 112H189.667V130H121C120.071 130 119.607 130 119.216 129.961C115.418 129.587 112.413 126.582 112.039 122.784C112 122.393 112 121.929 112 121Z" fill="white" fill-opacity="0.85"/>
<path d="M189.667 112H258.334C259.262 112 259.727 112 260.118 112.039C263.916 112.413 266.921 115.418 267.295 119.216C267.334 119.607 267.334 120.071 267.334 121C267.334 121.929 267.334 122.393 267.295 122.784C266.921 126.582 263.916 129.587 260.118 129.961C259.727 130 259.262 130 258.334 130H189.667V112Z" fill="white" fill-opacity="0.85"/>
<rect x="112" y="144" width="233" height="8" rx="4" fill="white" fill-opacity="0.85"/>
<rect x="112" y="160" width="116.5" height="8" rx="4" fill="white" fill-opacity="0.85"/>
</g>
</g>
<rect x="48" y="192" width="329" height="88" rx="24" fill="#0080FF" fill-opacity="0.15"/>
<g clip-path="url(#clip2_867_18657)">
<rect x="64" y="208" width="56" height="56" rx="28" fill="white" fill-opacity="0.85"/>
<g opacity="0.1">
<path d="M92.0176 235.15C95.8496 235.15 99.1016 231.74 99.1016 227.328C99.1016 223.021 95.832 219.717 92.0176 219.717C88.1855 219.717 84.8984 223.074 84.916 227.363C84.916 231.74 88.168 235.15 92.0176 235.15ZM81.0488 251.498H102.951C105.852 251.498 106.854 250.619 106.854 249.002C106.854 244.484 101.123 238.262 92 238.262C82.8945 238.262 77.1465 244.484 77.1465 249.002C77.1465 250.619 78.1484 251.498 81.0488 251.498Z" fill="#0080FF"/>
</g>
</g>
<g opacity="0.5">
<path d="M128 217C128 216.071 128 215.607 128.039 215.216C128.413 211.418 131.418 208.413 135.216 208.039C135.607 208 136.071 208 137 208H205.667V226H137C136.071 226 135.607 226 135.216 225.961C131.418 225.587 128.413 222.582 128.039 218.784C128 218.393 128 217.929 128 217Z" fill="white" fill-opacity="0.85"/>
<path d="M205.667 208H274.334C275.262 208 275.727 208 276.118 208.039C279.916 208.413 282.921 211.418 283.295 215.216C283.334 215.607 283.334 216.071 283.334 217C283.334 217.929 283.334 218.393 283.295 218.784C282.921 222.582 279.916 225.587 276.118 225.961C275.727 226 275.262 226 274.334 226H205.667V208Z" fill="white" fill-opacity="0.85"/>
<rect x="128" y="240" width="233" height="8" rx="4" fill="white" fill-opacity="0.85"/>
<rect x="128" y="256" width="116.5" height="8" rx="4" fill="white" fill-opacity="0.85"/>
</g>
<defs>
<clipPath id="clip0_867_18657">
<rect x="32" y="16" width="56" height="56" rx="28" fill="white"/>
</clipPath>
<clipPath id="clip1_867_18657">
<rect x="48" y="112" width="56" height="56" rx="28" fill="white"/>
</clipPath>
<clipPath id="clip2_867_18657">
<rect x="64" y="208" width="56" height="56" rx="28" fill="white"/>
</clipPath>
</defs>
</svg>
