<svg width="393" height="228" viewBox="0 0 393 228" fill="none" xmlns="http://www.w3.org/2000/svg">
<g clip-path="url(#clip0_899_14914)">
<rect x="16" width="361" height="110" rx="24" fill="#0080FF" fill-opacity="0.15"/>
<path d="M76.1012 32.5428L76.0932 32.5575C75.7573 33.1768 75.007 33.0627 74.2944 32.5575L59.0564 21.7519C57.5626 20.6926 56.3338 20.9876 55.2285 21.6577L50.8984 24.283C49.3278 25.2352 47.9982 24.109 47.8051 23.0077C47.6536 22.1403 48.1637 21.4305 48.8756 20.913C48.7422 21.0076 50.7848 19.5592 52.5113 18.3349L54.8072 16.7068C55.4557 16.247 56.231 16 57.0259 16H65.107C72.4457 16 77.2905 22.686 77.2905 27.9781C77.2905 30.3515 76.3475 32.0889 76.1012 32.5428Z" fill="white" fill-opacity="0.85"/>
<path d="M76.7033 18.5285H75.7635C78.2155 21.2389 79.6848 24.7045 79.6848 27.9893C79.6848 31.4478 78.1556 34.6687 75.2744 37.4502H76.072C80.3614 37.4502 83.5662 33.1931 83.5662 28.0297C83.5662 22.6882 80.588 18.5285 76.7033 18.5285Z" fill="white" fill-opacity="0.85"/>
<path d="M57.6716 23.7049L72.9247 34.521C73.4471 34.8854 73.4986 35.4091 73.0733 35.993C72.1632 37.2849 70.6459 37.6701 68.9736 36.4842L58.633 29.1483C58.1151 28.7981 57.6852 28.8595 57.462 29.1911C57.256 29.491 57.3306 29.9117 57.8353 30.2712L68.3967 37.7586C68.8921 38.1047 68.941 38.6022 68.5376 39.1569C67.6742 40.3841 66.2348 40.7501 64.6483 39.6237L55.7051 33.2803C55.1872 32.93 54.7572 32.9914 54.5339 33.323C54.328 33.6228 54.4026 34.0437 54.9073 34.4032L63.9643 40.8253C64.4687 41.1848 64.5352 41.6505 64.1142 42.237C63.2243 43.4826 61.6211 43.7257 60.1985 42.7221L51.9459 36.8652C51.4413 36.5058 51.0115 36.5672 50.7881 36.8988C50.5691 37.2078 50.6436 37.6285 51.1482 37.988L59.8048 44.1163C60.1139 44.3355 60.1732 44.6488 59.9367 44.9896C58.9811 46.3396 56.6523 46.4157 54.2705 44.7371L44.1319 37.5479C40.2675 34.8047 38.2758 31.4979 38.2758 27.9893C38.2758 22.614 43.2721 16 50.4642 16C51.0109 16 51.2383 16.3027 50.7545 16.6458L47.4702 18.9748C45.7895 20.1957 45.1807 21.8189 45.4349 23.375C45.6217 24.5183 46.2773 25.5418 47.2811 26.2573C48.6541 27.2552 50.4199 27.3738 52.1403 26.33L56.47 23.7049C56.8908 23.4497 57.2692 23.4195 57.6716 23.7049Z" fill="white" fill-opacity="0.85"/>
<path d="M38.863 18.5285H39.8027C37.3507 21.2389 35.8815 24.7045 35.8815 27.9893C35.8815 31.4478 37.4106 34.6687 40.2919 37.4502H39.4943C35.2049 37.4502 32 33.1931 32 28.0297C32 22.6882 34.9783 18.5285 38.863 18.5285Z" fill="white" fill-opacity="0.85"/>
<path d="M91.5664 31C91.5664 30.0713 91.5664 29.607 91.6049 29.2159C91.979 25.4176 94.9841 22.4126 98.7823 22.0385C99.1734 22 99.6377 22 100.566 22H181.378V40H100.566C99.6377 40 99.1734 40 98.7823 39.9615C94.9841 39.5874 91.979 36.5824 91.6049 32.7841C91.5664 32.393 91.5664 31.9287 91.5664 31Z" fill="white" fill-opacity="0.85"/>
<path d="M181.378 22H262.189C263.118 22 263.582 22 263.973 22.0385C267.772 22.4126 270.777 25.4176 271.151 29.2159C271.189 29.607 271.189 30.0713 271.189 31C271.189 31.9287 271.189 32.393 271.151 32.7841C270.777 36.5824 267.772 39.5874 263.973 39.9615C263.582 40 263.118 40 262.189 40H181.378V22Z" fill="white" fill-opacity="0.85"/>
<rect x="32" y="62" width="281" height="8" rx="4" fill="white" fill-opacity="0.85"/>
<rect x="32" y="78" width="140.5" height="8" rx="4" fill="white" fill-opacity="0.85"/>
<rect x="321" y="54" width="40" height="40" rx="20" fill="white" fill-opacity="0.85"/>
</g>
<g opacity="0.5">
<g clip-path="url(#clip1_899_14914)">
<rect x="16" y="118" width="361" height="110" rx="24" fill="#0080FF" fill-opacity="0.15"/>
<path d="M57.6716 141.705L72.9247 152.521C73.4471 152.885 73.4986 153.409 73.0733 153.993C72.1632 155.285 70.6459 155.67 68.9736 154.484L58.633 147.148C58.1151 146.798 57.6852 146.859 57.462 147.191C57.256 147.491 57.3306 147.912 57.8353 148.271L68.3967 155.759C68.8921 156.105 68.941 156.602 68.5376 157.157C67.6742 158.384 66.2348 158.75 64.6483 157.624L55.7051 151.28C55.1872 150.93 54.7572 150.991 54.5339 151.323C54.328 151.623 54.4026 152.044 54.9073 152.403L63.9643 158.825C64.4687 159.185 64.5352 159.65 64.1142 160.237C63.2243 161.483 61.6211 161.726 60.1985 160.722L51.9459 154.865C51.4413 154.506 51.0115 154.567 50.7881 154.899C50.5691 155.208 50.6436 155.629 51.1482 155.988L59.8048 162.116C60.1139 162.335 60.1732 162.649 59.9367 162.99C58.9811 164.34 56.6523 164.416 54.2705 162.737L44.1319 155.548C40.2675 152.805 38.2758 149.498 38.2758 145.989C38.2758 140.614 43.2721 134 50.4642 134C51.0109 134 51.2383 134.303 50.7545 134.646L47.4702 136.975C45.7895 138.196 45.1807 139.819 45.4349 141.375C45.6217 142.518 46.2773 143.542 47.2811 144.257C48.6541 145.255 50.4199 145.374 52.1403 144.33L56.47 141.705C56.8908 141.45 57.2692 141.42 57.6716 141.705Z" fill="white" fill-opacity="0.85"/>
<path d="M76.1009 150.543L76.093 150.557C75.757 151.177 75.0067 151.063 74.2942 150.557L59.0561 139.752C57.5623 138.693 56.3335 138.988 55.2283 139.658L50.8981 142.283C49.3276 143.235 47.9979 142.109 47.8048 141.008C47.6533 140.14 48.1634 139.431 48.8754 138.913C48.7419 139.008 50.7845 137.559 52.5111 136.335L54.807 134.707C55.4554 134.247 56.2307 134 57.0256 134H65.1067C72.4454 134 77.2902 140.686 77.2902 145.978C77.2902 148.351 76.3473 150.089 76.1009 150.543Z" fill="white" fill-opacity="0.85"/>
<path d="M76.703 136.529H75.7633C78.2153 139.239 79.6845 142.705 79.6845 145.989C79.6845 149.448 78.1554 152.669 75.2741 155.45H76.0717C80.3611 155.45 83.566 151.193 83.566 146.03C83.566 140.688 80.5877 136.529 76.703 136.529Z" fill="white" fill-opacity="0.85"/>
<path d="M38.863 136.529H39.8027C37.3507 139.239 35.8815 142.705 35.8815 145.989C35.8815 149.448 37.4106 152.669 40.2919 155.45H39.4943C35.2049 155.45 32 151.193 32 146.03C32 140.688 34.9783 136.529 38.863 136.529Z" fill="white" fill-opacity="0.85"/>
<path d="M91.5664 149C91.5664 148.071 91.5664 147.607 91.6049 147.216C91.979 143.418 94.9841 140.413 98.7823 140.039C99.1734 140 99.6377 140 100.566 140H181.378V158H100.566C99.6377 158 99.1734 158 98.7823 157.961C94.9841 157.587 91.979 154.582 91.6049 150.784C91.5664 150.393 91.5664 149.929 91.5664 149Z" fill="white" fill-opacity="0.85"/>
<path d="M181.378 140H262.189C263.118 140 263.582 140 263.973 140.039C267.772 140.413 270.777 143.418 271.151 147.216C271.189 147.607 271.189 148.071 271.189 149C271.189 149.929 271.189 150.393 271.151 150.784C270.777 154.582 267.772 157.587 263.973 157.961C263.582 158 263.118 158 262.189 158H181.378V140Z" fill="white" fill-opacity="0.85"/>
<rect x="32" y="180" width="281" height="8" rx="4" fill="white" fill-opacity="0.85"/>
<rect x="32" y="196" width="140.5" height="8" rx="4" fill="white" fill-opacity="0.85"/>
<rect x="321" y="172" width="40" height="40" rx="20" fill="white" fill-opacity="0.85"/>
</g>
</g>
<defs>
<clipPath id="clip0_899_14914">
<rect x="16" width="361" height="110" rx="24" fill="white"/>
</clipPath>
<clipPath id="clip1_899_14914">
<rect x="16" y="118" width="361" height="110" rx="24" fill="white"/>
</clipPath>
</defs>
</svg>
