<svg width="23" height="23" viewBox="0 0 23 23" fill="none" xmlns="http://www.w3.org/2000/svg">
<path d="M10.7812 11.5L19.4063 11.5" stroke="white" stroke-width="1.5" stroke-linecap="round" stroke-linejoin="round"/>
<path d="M3.59375 11.5L7.90625 11.5" stroke="white" stroke-width="1.5" stroke-linecap="round" stroke-linejoin="round"/>
<path d="M17.9688 5.03125L19.4063 5.03115" stroke="white" stroke-width="1.5" stroke-linecap="round" stroke-linejoin="round"/>
<path d="M3.59375 5.03115L15.0938 5.03125" stroke="white" stroke-width="1.5" stroke-linecap="round" stroke-linejoin="round"/>
<path d="M15.0938 2.875L15.0938 7.1875" stroke="white" stroke-width="1.5" stroke-linecap="round" stroke-linejoin="round"/>
<path d="M15.0938 17.9687L19.4062 17.9688" stroke="white" stroke-width="1.5" stroke-linecap="round" stroke-linejoin="round"/>
<path d="M3.59375 17.9688L12.2188 17.9687" stroke="white" stroke-width="1.5" stroke-linecap="round" stroke-linejoin="round"/>
<path d="M12.2188 20.125L12.2188 15.8125" stroke="white" stroke-width="1.5" stroke-linecap="round" stroke-linejoin="round"/>
<path d="M7.90625 9.34375L7.90625 13.6562" stroke="white" stroke-width="1.5" stroke-linecap="round" stroke-linejoin="round"/>
<circle cx="12" cy="18" r="3.5" fill="white" stroke="white"/>
<mask id="path-11-inside-1_1545_12567" fill="white">
<path d="M10.1704 16H13.8296C13.8626 16 13.8949 16.0102 13.9226 16.0293C13.9503 16.0484 13.9721 16.0756 13.9854 16.1076C13.9988 16.1396 14.0031 16.1751 13.9978 16.2097C13.9925 16.2442 13.9779 16.2764 13.9557 16.3023L12.5554 17.9364C12.5269 17.9697 12.5111 18.013 12.5111 18.058V19.3373C12.5111 19.367 12.5042 19.3963 12.4909 19.4226C12.4777 19.4488 12.4586 19.4712 12.4352 19.4877L11.7538 19.9696C11.7281 19.9878 11.6983 19.9982 11.6675 19.9998C11.6367 20.0014 11.6061 19.994 11.5789 19.9786C11.5517 19.9632 11.529 19.9402 11.5131 19.9121C11.4973 19.8841 11.4889 19.852 11.4889 19.8193V18.058C11.4889 18.013 11.4731 17.9697 11.4446 17.9364L10.0443 16.3023C10.0221 16.2764 10.0075 16.2442 10.0022 16.2097C9.99691 16.1751 10.0012 16.1396 10.0146 16.1076C10.0279 16.0756 10.0497 16.0484 10.0774 16.0293C10.1051 16.0102 10.1374 16 10.1704 16Z"/>
</mask>
<path d="M10.1704 16V14H10.1704L10.1704 16ZM13.8296 16L13.8296 14H13.8296V16ZM13.9557 16.3023L15.4744 17.6037L15.4744 17.6037L13.9557 16.3023ZM12.5554 17.9364L14.0741 19.2378L12.5554 17.9364ZM12.5111 18.058L10.5111 18.058V18.058H12.5111ZM12.5111 19.3373L14.5111 19.3373V19.3373H12.5111ZM12.4352 19.4877L11.2804 17.8548L11.2804 17.8548L12.4352 19.4877ZM11.7538 19.9696L12.9086 21.6025L12.9086 21.6025L11.7538 19.9696ZM11.4889 19.8193L13.4889 19.8193V19.8193H11.4889ZM11.4889 18.058H13.4889L13.4889 18.058L11.4889 18.058ZM11.4446 17.9364L9.92592 19.2378L9.92592 19.2378L11.4446 17.9364ZM10.0443 16.3023L8.52562 17.6037L8.52562 17.6037L10.0443 16.3023ZM10.1704 18H13.8296V14H10.1704V18ZM13.8296 18C13.4486 18 13.0858 17.882 12.7859 17.6749L15.0593 14.3837C14.7041 14.1383 14.2767 14 13.8296 14L13.8296 18ZM12.7859 17.6749C12.4876 17.4688 12.2687 17.1872 12.1395 16.8773L15.8314 15.3379C15.6755 14.9639 15.4129 14.628 15.0593 14.3837L12.7859 17.6749ZM12.1395 16.8773C12.0105 16.5681 11.9711 16.2326 12.0207 15.9076L15.9749 16.5117C16.0351 16.1176 15.987 15.7112 15.8314 15.3379L12.1395 16.8773ZM12.0207 15.9076C12.0704 15.5824 12.2098 15.2661 12.437 15.0009L15.4744 17.6037C15.746 17.2867 15.9146 16.906 15.9749 16.5117L12.0207 15.9076ZM12.437 15.0009L11.0367 16.635L14.0741 19.2378L15.4744 17.6037L12.437 15.0009ZM11.0367 16.635C10.6888 17.041 10.5111 17.5494 10.5111 18.058L14.5111 18.058C14.5111 18.4767 14.365 18.8983 14.0741 19.2378L11.0367 16.635ZM10.5111 18.058V19.3373H14.5111V18.058H10.5111ZM10.5111 19.3373C10.5111 19.0582 10.5758 18.7785 10.7053 18.5218L14.2766 20.3234C14.4326 20.0141 14.5111 19.6758 14.5111 19.3373L10.5111 19.3373ZM10.7053 18.5218C10.835 18.2646 11.0291 18.0325 11.2804 17.8548L13.5901 21.1206C13.888 20.9098 14.1204 20.633 14.2766 20.3234L10.7053 18.5218ZM11.2804 17.8548L10.5989 18.3368L12.9086 21.6025L13.5901 21.1206L11.2804 17.8548ZM10.5989 18.3368C10.8763 18.1406 11.2101 18.0206 11.5651 18.0024L11.7699 21.9972C12.1865 21.9758 12.58 21.835 12.9086 21.6025L10.5989 18.3368ZM11.5651 18.0024C11.9202 17.9842 12.2671 18.0695 12.5664 18.2394L10.5914 21.7178C10.9451 21.9186 11.3531 22.0185 11.7699 21.9972L11.5651 18.0024ZM12.5664 18.2394C12.8644 18.4086 13.0981 18.6514 13.2547 18.9288L9.77156 20.8955C9.95987 21.229 10.239 21.5177 10.5914 21.7178L12.5664 18.2394ZM13.2547 18.9288C13.4109 19.2055 13.4889 19.5128 13.4889 19.8193L9.4889 19.8193C9.4889 20.1911 9.58365 20.5627 9.77156 20.8955L13.2547 18.9288ZM13.4889 19.8193V18.058H9.4889V19.8193H13.4889ZM13.4889 18.058C13.4889 17.5494 13.3112 17.041 12.9633 16.635L9.92592 19.2378C9.63503 18.8983 9.4889 18.4767 9.4889 18.058L13.4889 18.058ZM12.9633 16.635L11.563 15.0009L8.52562 17.6037L9.92592 19.2378L12.9633 16.635ZM11.563 15.0009C11.7902 15.2661 11.9296 15.5824 11.9793 15.9076L8.02513 16.5117C8.08537 16.906 8.254 17.2867 8.52562 17.6037L11.563 15.0009ZM11.9793 15.9076C12.0289 16.2326 11.9895 16.5681 11.8605 16.8773L8.16862 15.3379C8.01297 15.7112 7.96493 16.1176 8.02513 16.5117L11.9793 15.9076ZM11.8605 16.8773C11.7313 17.1873 11.5124 17.4688 11.2141 17.6749L8.94072 14.3837C8.58706 14.628 8.32455 14.9639 8.16862 15.3379L11.8605 16.8773ZM11.2141 17.6749C10.9142 17.882 10.5514 18 10.1704 18L10.1704 14C9.72332 14 9.29591 14.1383 8.94072 14.3837L11.2141 17.6749Z" fill="#101010" mask="url(#path-11-inside-1_1545_12567)"/>
</svg>
