<svg width="23" height="15" viewBox="0 0 23 15" fill="none" xmlns="http://www.w3.org/2000/svg">
<path opacity="0.3" d="M22.7725 6.88758C22.6309 6.73741 20.2674 4.26776 16.7939 2.73613L18.2717 1.25842C18.4786 1.05183 18.4786 0.716662 18.2717 0.509919C18.0651 0.303334 17.7299 0.303334 17.5233 0.509919L15.7228 2.31043C14.5079 1.87766 13.1844 1.58469 11.7918 1.5432C11.6899 1.53785 11.5874 1.53483 11.4845 1.53483C11.4799 1.53483 11.4758 1.535 11.4716 1.535C11.4672 1.535 11.4629 1.53483 11.4587 1.53483C5.26539 1.53483 0.350964 6.66912 0.144392 6.88769C-0.0481307 7.09143 -0.0481307 7.41016 0.144392 7.6139C0.287359 7.76558 2.69624 10.2806 6.22496 11.8089L4.64512 13.3887C4.43854 13.5953 4.43854 13.9307 4.64512 14.1371C4.74824 14.2407 4.88385 14.2921 5.01929 14.2921C5.15472 14.2921 5.29032 14.2405 5.39345 14.1371L7.30244 12.2284C8.58532 12.674 9.98486 12.9668 11.4587 12.9668C11.4631 12.9668 11.4674 12.9667 11.4716 12.9667C11.476 12.9667 11.4803 12.9668 11.4845 12.9668C11.5876 12.9668 11.6899 12.9637 11.7919 12.9585C17.827 12.7797 22.5696 7.82848 22.7723 7.61376C22.965 7.40952 22.965 7.09112 22.7723 6.88738L22.7725 6.88758ZM11.6802 11.9031C11.6111 11.9047 11.5423 11.9077 11.4728 11.9077C10.3955 11.9048 9.40379 11.5338 8.61544 10.9149L10.0302 9.50012C10.4498 9.7725 10.9487 9.93238 11.4849 9.93238C12.9638 9.93238 14.1668 8.72921 14.1668 7.25064C14.1668 6.71424 14.0069 6.21555 13.7345 5.79585L15.1497 4.38071C15.7706 5.17241 16.1426 6.1685 16.1426 7.25047C16.1422 9.75324 14.1582 11.8006 11.6803 11.903L11.6802 11.9031ZM9.86197 7.25058C9.86197 6.35559 10.5899 5.62753 11.4848 5.62753C11.7517 5.62753 12.003 5.69349 12.2258 5.808L10.0427 7.99089C9.9279 7.7684 9.86194 7.51744 9.86194 7.25061L9.86197 7.25058ZM13.1082 7.25058C13.1082 8.14556 12.38 8.87362 11.4848 8.87362C11.2426 8.87362 11.0138 8.81871 10.8068 8.72312L12.9578 6.57255C13.0535 6.77896 13.1083 7.00832 13.1083 7.25055L13.1082 7.25058ZM12.9961 5.03722C12.5655 4.74224 12.045 4.56896 11.4848 4.56896C10.0064 4.56896 8.80361 5.77179 8.80361 7.25053C8.80361 7.81068 8.97688 8.331 9.27186 8.76176L7.8616 10.1717C7.21575 9.3723 6.82768 8.35612 6.82768 7.25036C6.82768 4.68613 8.91045 2.5995 11.473 2.59308C11.5439 2.59308 11.6143 2.59642 11.6851 2.59793C12.7133 2.64162 13.6555 3.02014 14.4067 3.62684L12.9961 5.03722ZM1.2862 7.25006C2.13298 6.4542 4.35718 4.54188 7.23649 3.43128C6.32492 4.44429 5.76898 5.78375 5.76898 7.25058C5.76898 8.64828 6.27388 9.92966 7.10993 10.9236L7.04314 10.9905C4.26076 9.86955 2.11456 8.02734 1.28613 7.25008L1.2862 7.25006ZM15.7603 11.0387C16.6555 10.0292 17.2011 8.70283 17.2011 7.25036C17.2011 5.8764 16.7136 4.61413 15.903 3.62726L15.9778 3.55193C18.7103 4.67641 20.8138 6.48314 21.6315 7.25088C20.7926 8.03937 18.6009 9.92375 15.7605 11.0387L15.7603 11.0387Z" fill="white"/>
</svg>
