<svg width="34" height="30" viewBox="0 0 34 30" fill="none" xmlns="http://www.w3.org/2000/svg">
<path d="M6 10.05V6.75006C6 5.23368 7.23362 4.00005 8.75001 4.00005H12.05C12.3536 4.00005 12.5999 4.24654 12.5999 4.55C12.5999 4.85366 12.3534 5.09996 12.05 5.09996H8.75001C7.84 5.09996 7.0999 5.84 7.0999 6.75006V10.05C7.0999 10.3537 6.85341 10.6 6.54995 10.6C6.24648 10.6 6 10.3537 6 10.05ZM12.05 24.9001H8.75006C7.84005 24.9001 7.09995 24.16 7.09995 23.25V19.95C7.09995 19.6464 6.85346 19.4001 6.55 19.4001C6.24634 19.4001 6.00005 19.6466 6.00005 19.95V23.25C6.00005 24.7664 7.23367 26 8.75006 26H12.05C12.3537 26 12.6 25.7535 12.6 25.45C12.6 25.1464 12.3537 24.9001 12.05 24.9001ZM27.45 19.4001C27.1464 19.4001 26.9001 19.6466 26.9001 19.95V23.25C26.9001 24.16 26.16 24.9001 25.25 24.9001H21.95C21.6464 24.9001 21.4001 25.1466 21.4001 25.45C21.4001 25.7537 21.6466 26 21.95 26H25.25C26.7664 26 28 24.7664 28 23.25V19.95C28 19.6464 27.7535 19.4001 27.45 19.4001ZM25.25 4H21.95C21.6464 4 21.4001 4.24649 21.4001 4.54995C21.4001 4.85361 21.6466 5.09991 21.95 5.09991H25.25C26.16 5.09991 26.9001 5.83995 26.9001 6.75001V10.05C26.9001 10.3536 27.1466 10.5999 27.45 10.5999C27.7537 10.5999 28 10.3534 28 10.05V6.75001C28 5.23363 26.7664 4 25.25 4ZM18.65 12.8V9.50007C18.65 9.19641 18.8965 8.95012 19.1999 8.95012H22.4999C22.8035 8.95012 23.0498 9.19662 23.0498 9.50007V12.8C23.0498 13.1037 22.8033 13.35 22.4999 13.35H19.1999C18.8963 13.35 18.65 13.1037 18.65 12.8ZM19.7499 12.2501H21.9499V10.05H19.7499V12.2501ZM11.4999 8.95012H14.7998C15.1035 8.95012 15.3498 9.19662 15.3498 9.50007V12.8C15.3498 13.1037 15.1033 13.35 14.7998 13.35H11.4999C11.1962 13.35 10.9499 13.1035 10.9499 12.8V9.50007C10.9499 9.19641 11.1962 8.95012 11.4999 8.95012ZM12.0498 12.2501H14.2499V10.05H12.0498V12.2501ZM15.3498 17.2001V20.5001C15.3498 20.8037 15.1033 21.05 14.7998 21.05H11.4999C11.1962 21.05 10.9499 20.8035 10.9499 20.5001V17.2001C10.9499 16.8964 11.1964 16.6502 11.4999 16.6502H14.7998C15.1035 16.6502 15.3498 16.8965 15.3498 17.2001ZM14.2499 17.7501H12.0498V19.9501H14.2499V17.7501ZM23.0499 20.5001V17.2001C23.0499 16.8964 22.8034 16.6502 22.4999 16.6502C22.1963 16.6502 21.95 16.8966 21.95 17.2001V19.9501H19.7499V17.2001C19.7499 16.8964 19.5034 16.6502 19.2 16.6502C18.8963 16.6502 18.65 16.8966 18.65 17.2001V20.5001C18.65 20.8037 18.8965 21.05 19.2 21.05H22.4999C22.8036 21.05 23.0499 20.8037 23.0499 20.5001ZM22.4999 15.5501C22.8036 15.5501 23.0499 15.3036 23.0499 15.0001C23.0499 14.6964 22.8034 14.4501 22.4999 14.4501H17.5499V9.50012C17.5499 9.19646 17.3034 8.95017 17 8.95017C16.6963 8.95017 16.45 9.19666 16.45 9.50012V14.4501H15.9001C15.5964 14.4501 15.3501 14.6966 15.3501 15.0001C15.3501 15.3038 15.5966 15.5501 15.9001 15.5501H16.45V20.5001C16.45 20.8037 16.6965 21.05 17 21.05C17.3036 21.05 17.5499 20.8035 17.5499 20.5001V15.5501H22.4999ZM11.4999 14.4501C11.1963 14.4501 10.95 14.6966 10.95 15.0001C10.95 15.3038 11.1965 15.5501 11.4999 15.5501H13.7C14.0036 15.5501 14.2499 15.3036 14.2499 15.0001C14.2499 14.6964 14.0034 14.4501 13.7 14.4501H11.4999Z" fill="white"/>
</svg>
