<svg width="19" height="19" viewBox="0 0 19 19" fill="none" xmlns="http://www.w3.org/2000/svg">
<path d="M10.428 9.18711C11.1082 9.73087 11.9458 10.0277 12.8295 10.0277C13.8597 10.0277 14.8286 9.62648 15.5572 8.89818L17.8719 6.58383C19.376 5.07987 19.376 2.63308 17.8719 1.12955C17.1432 0.400941 16.1743 0 15.1443 0C14.1139 0 13.1452 0.401252 12.4168 1.12955L10.1019 3.44375C9.37313 4.17236 8.97165 5.14075 8.97165 6.1712C8.97165 7.0549 9.26885 7.89186 9.81273 8.57207L8.57168 9.81258C7.8912 9.26882 7.05408 8.97196 6.17021 8.97196C5.13985 8.97196 4.17115 9.37321 3.44257 10.1018L1.12794 12.4159C-0.375981 13.9195 -0.375981 16.3662 1.12794 17.8701C1.85669 18.5987 2.82527 19 3.8559 19C4.88626 19 5.85495 18.5986 6.58354 17.8701L8.89848 15.5555C10.2983 14.1556 10.3936 11.9402 9.18763 10.4275L10.428 9.18711ZM9.84214 6.171C9.84214 5.3732 10.1532 4.62318 10.7173 4.0591L13.0321 1.74476C13.5963 1.18064 14.3463 0.869833 15.1443 0.869833C15.9421 0.869833 16.6924 1.18049 17.2565 1.74476C18.4214 2.90923 18.4214 4.80395 17.2565 5.96863L14.9418 8.28298C14.3775 8.84709 13.6273 9.1579 12.8295 9.1579C12.1789 9.1579 11.5617 8.94817 11.0494 8.56589L12.7537 6.86193C12.9237 6.69195 12.9237 6.4165 12.7537 6.24668C12.5837 6.07671 12.3082 6.07671 12.1383 6.24668L10.4341 7.95064C10.0519 7.43843 9.84211 6.82168 9.84211 6.17108L9.84214 6.171ZM8.28265 14.94L5.96788 17.2547C5.40366 17.8188 4.65338 18.1296 3.85559 18.1296C3.05764 18.1296 2.30748 17.8187 1.7433 17.2547C0.578607 16.0901 0.578607 14.1953 1.7433 13.0308L4.05823 10.7166C4.62245 10.1525 5.37273 9.84171 6.17052 9.84171C6.82108 9.84171 7.43811 10.0514 7.95026 10.4334L6.24614 12.1372C6.07613 12.3072 6.07613 12.5826 6.24614 12.7525C6.33099 12.8376 6.4424 12.8799 6.55382 12.8799C6.66523 12.8799 6.77649 12.8374 6.8615 12.7525L8.56535 11.0491C9.43448 12.2176 9.34251 13.8802 8.28271 14.94L8.28265 14.94Z" fill="white"/>
</svg>
