<svg width="20" height="20" viewBox="0 0 20 20" fill="none" xmlns="http://www.w3.org/2000/svg">
<path d="M10 4.83419C8.9783 4.83419 7.97954 5.13716 7.13003 5.70479C6.28052 6.27242 5.61841 7.0792 5.22742 8.02313C4.83643 8.96706 4.73413 10.0057 4.93345 11.0078C5.13278 12.0099 5.62477 12.9303 6.34722 13.6528C7.06967 14.3752 7.99013 14.8672 8.9922 15.0665C9.99427 15.2659 11.0329 15.1636 11.9769 14.7726C12.9208 14.3816 13.7276 13.7195 14.2952 12.87C14.8628 12.0205 15.1658 11.0217 15.1658 10C15.1658 8.62994 14.6216 7.316 13.6528 6.34722C12.684 5.37845 11.3701 4.83419 10 4.83419V4.83419ZM10 13.6899C9.27021 13.6899 8.55682 13.4735 7.95002 13.068C7.34323 12.6626 6.87029 12.0863 6.59101 11.412C6.31174 10.7378 6.23866 9.99591 6.38104 9.28014C6.52341 8.56438 6.87484 7.90691 7.39087 7.39087C7.90691 6.87484 8.56438 6.52341 9.28014 6.38104C9.99591 6.23866 10.7378 6.31174 11.412 6.59101C12.0863 6.87029 12.6626 7.34323 13.068 7.95002C13.4735 8.55682 13.6899 9.27021 13.6899 10C13.6899 10.9786 13.3011 11.9171 12.6091 12.6091C11.9171 13.3011 10.9786 13.6899 10 13.6899ZM19.8519 12.0663L18.4775 10.2398C18.4867 10.0738 18.4775 9.89853 18.4775 9.76938L19.8519 7.93368C19.9203 7.84434 19.9667 7.74022 19.9876 7.62968C20.0084 7.51914 20.003 7.40526 19.9719 7.29718C19.7394 6.44672 19.4016 5.62862 18.9664 4.86187C18.9102 4.76447 18.833 4.68081 18.7405 4.61698C18.6479 4.55315 18.5423 4.51076 18.4313 4.49288L16.1713 4.17002L15.83 3.82871L15.5071 1.56867C15.4892 1.45767 15.4468 1.35205 15.383 1.2595C15.3192 1.16695 15.2355 1.08979 15.1381 1.03364C14.3714 0.598405 13.5533 0.260629 12.7028 0.0281494C12.5947 -0.00300586 12.4809 -0.00838615 12.3703 0.0124402C12.2598 0.0332666 12.1557 0.0797195 12.0663 0.14807L10.2398 1.51332H9.76016L7.93368 0.14807C7.84434 0.0797195 7.74022 0.0332666 7.62968 0.0124402C7.51914 -0.00838615 7.40526 -0.00300586 7.29718 0.0281494C6.44672 0.260629 5.62862 0.598405 4.86187 1.03364C4.76447 1.08979 4.68081 1.16695 4.61698 1.2595C4.55315 1.35205 4.51076 1.45767 4.49288 1.56867L4.17002 3.82871L3.82871 4.17002L1.56867 4.49288C1.45767 4.51076 1.35205 4.55315 1.2595 4.61698C1.16695 4.68081 1.08979 4.76447 1.03364 4.86187C0.598405 5.62862 0.260629 6.44672 0.0281494 7.29718C-0.00300586 7.40526 -0.00838615 7.51914 0.0124402 7.62968C0.0332666 7.74022 0.0797195 7.84434 0.14807 7.93368L1.52254 9.76016V10.2306L0.14807 12.0663C0.0797195 12.1557 0.0332666 12.2598 0.0124402 12.3703C-0.00838615 12.4809 -0.00300586 12.5947 0.0281494 12.7028C0.260629 13.5533 0.598405 14.3714 1.03364 15.1381C1.08979 15.2355 1.16695 15.3192 1.2595 15.383C1.35205 15.4468 1.45767 15.4892 1.56867 15.5071L3.82871 15.83L4.17002 16.1713L4.49288 18.4313C4.51076 18.5423 4.55315 18.6479 4.61698 18.7405C4.68081 18.833 4.76447 18.9102 4.86187 18.9664C5.62862 19.4016 6.44672 19.7394 7.29718 19.9719C7.36014 19.9901 7.42535 19.9994 7.49089 19.9995C7.6509 20.0016 7.80692 19.9496 7.93368 19.8519L9.76016 18.4867H10.2398L12.0663 19.8519C12.1557 19.9203 12.2598 19.9667 12.3703 19.9876C12.4809 20.0084 12.5947 20.003 12.7028 19.9719C13.5533 19.7394 14.3714 19.4016 15.1381 18.9664C15.2355 18.9102 15.3192 18.833 15.383 18.7405C15.4468 18.6479 15.4892 18.5423 15.5071 18.4313L15.83 16.1621C15.9407 16.0514 16.0698 15.9315 16.1621 15.83L18.4313 15.5071C18.5423 15.4892 18.6479 15.4468 18.7405 15.383C18.833 15.3192 18.9102 15.2355 18.9664 15.1381C19.4016 14.3714 19.7394 13.5533 19.9719 12.7028C20.003 12.5947 20.0084 12.4809 19.9876 12.3703C19.9667 12.2598 19.9203 12.1557 19.8519 12.0663V12.0663ZM17.8502 14.0957L15.7008 14.4002C15.5349 14.4273 15.3826 14.5084 15.2673 14.6308C15.1566 14.7507 14.8153 15.1012 14.6492 15.2488C14.5145 15.3646 14.4261 15.5251 14.4002 15.7008L14.0957 17.8502C13.6363 18.0954 13.1544 18.2962 12.6567 18.4498L10.9132 17.1399C10.7729 17.0351 10.5988 16.9858 10.4243 17.0015H9.57567C9.40121 16.9858 9.22709 17.0351 9.08676 17.1399L7.3433 18.4498C6.84561 18.2962 6.36373 18.0954 5.90425 17.8502L5.59984 15.7008C5.57393 15.5251 5.48549 15.3646 5.35077 15.2488C5.13732 15.063 4.93697 14.8627 4.75117 14.6492C4.63539 14.5145 4.4749 14.4261 4.29916 14.4002L2.14982 14.0957C1.90842 13.6344 1.70779 13.1529 1.55022 12.6567L2.86012 10.9132C2.9551 10.7781 3.00659 10.6172 3.00771 10.452C2.99849 10.286 2.98926 9.80628 2.99849 9.57567C3.01423 9.40121 2.96495 9.22709 2.86012 9.08676L1.55022 7.3433C1.70779 6.84707 1.90842 6.36556 2.14982 5.90425L4.29916 5.59984C4.4749 5.57393 4.63539 5.48549 4.75117 5.35077C4.93697 5.13732 5.13732 4.93697 5.35077 4.75117C5.48549 4.63539 5.57393 4.4749 5.59984 4.29916L5.90425 2.14982C6.36556 1.90842 6.84707 1.70779 7.3433 1.55022L9.08676 2.86012C9.22709 2.96495 9.40121 3.01423 9.57567 2.99849C9.85241 2.98926 10.1476 2.98926 10.4243 2.99849C10.5988 3.01423 10.7729 2.96495 10.9132 2.86012L12.6567 1.55022C13.1544 1.70378 13.6363 1.90456 14.0957 2.14982L14.4002 4.29916C14.4261 4.4749 14.5145 4.63539 14.6492 4.75117C14.8627 4.93697 15.063 5.13732 15.2488 5.35077C15.3646 5.48549 15.5251 5.57393 15.7008 5.59984L17.8502 5.90425C18.0954 6.36373 18.2962 6.84561 18.4498 7.3433L17.1399 9.08676C17.0449 9.22191 16.9934 9.38281 16.9923 9.54799C17.0015 9.71404 17.0107 10.1937 17.0015 10.4243C16.9858 10.5988 17.0351 10.7729 17.1399 10.9132L18.4498 12.6567C18.2962 13.1544 18.0954 13.6363 17.8502 14.0957V14.0957Z" fill="#F6F6F6"/>
</svg>
