<svg width="28" height="28" viewBox="0 0 28 28" fill="none" xmlns="http://www.w3.org/2000/svg">
<path d="M4.48145 16.9766C4.48145 20.0615 6.45898 22.6016 8.99023 22.6016H11.8818C13.0684 23.208 14.4746 23.5596 16.0303 23.5596H17.252C18.3945 23.5596 19.3701 23.4893 20.0029 23.3311C21.2861 23.0146 22.0947 22.1006 22.0947 20.958C22.0947 20.7471 22.0684 20.5625 22.0068 20.3691C22.6133 19.9033 22.9561 19.209 22.9561 18.4619C22.9561 18.1104 22.8857 17.7588 22.7627 17.4775C23.167 17.0469 23.4043 16.4229 23.4043 15.7812C23.4043 15.3594 23.2988 14.9287 23.123 14.6035C23.3691 14.2256 23.5098 13.7246 23.5098 13.1797C23.5098 11.7822 22.4463 10.7012 21.0576 10.7012H17.7881C17.5947 10.7012 17.4717 10.6133 17.4805 10.4463C17.5244 9.53223 18.957 7.35254 18.957 5.56836C18.957 4.26758 18.0342 3.31836 16.7773 3.31836C15.8545 3.31836 15.2217 3.79297 14.624 4.94434C13.5342 7.04492 12.207 8.89062 10.2383 11.3164H8.65625C6.29199 11.3164 4.48145 13.8389 4.48145 16.9766ZM9.92188 16.9062C9.92188 15.043 10.3438 13.8477 11.5303 12.2568C12.8662 10.4727 14.7031 8.33691 16.0391 5.68262C16.3203 5.12012 16.5137 4.97949 16.7949 4.97949C17.1377 4.97949 17.3574 5.22559 17.3574 5.65625C17.3574 6.97461 15.8721 9.14551 15.8721 10.5693C15.8721 11.624 16.7246 12.3008 17.8672 12.3008H21.0225C21.541 12.3008 21.9189 12.6875 21.9189 13.1973C21.9189 13.5664 21.7959 13.8125 21.4883 14.1113C21.2686 14.3398 21.2422 14.6562 21.4355 14.876C21.6904 15.2451 21.8047 15.4824 21.8047 15.7812C21.8047 16.1504 21.6289 16.458 21.2686 16.7305C20.9785 16.9414 20.873 17.2842 21.0488 17.6182C21.2334 17.9873 21.3301 18.1631 21.3301 18.4443C21.3301 18.875 21.0576 19.2002 20.5039 19.4902C20.2227 19.6484 20.1436 19.9473 20.2666 20.2109C20.4512 20.668 20.4775 20.7471 20.4775 20.9492C20.4775 21.3271 20.1963 21.6348 19.5986 21.7842C19.0801 21.916 18.2539 21.9688 17.1729 21.96L16.0391 21.9512C12.3916 21.916 9.92188 19.8682 9.92188 16.9062ZM6.05469 16.9766C6.05469 14.7441 7.20605 12.9512 8.5332 12.8984C8.76172 12.8984 8.99902 12.8984 9.22754 12.8984C8.60352 14.1113 8.32227 15.3857 8.32227 16.9062C8.32227 18.5234 8.89355 19.9473 9.92188 21.0635C9.58789 21.0635 9.23633 21.0547 8.90234 21.0547C7.36426 21.002 6.05469 19.1914 6.05469 16.9766Z" fill="black"/>
</svg>
