<svg width="28" height="28" viewBox="0 0 28 28" fill="none" xmlns="http://www.w3.org/2000/svg">
<g clip-path="url(#clip0_1037_22549)">
<path d="M9.19238 22.0039C8.68262 22.0039 8.23438 21.9951 7.8916 21.9248C7.46973 21.8457 7.03027 21.5732 7.03027 20.9932C7.03027 20.4307 7.42578 20.0791 7.97949 20.0791C8.31348 20.0791 8.65625 20.1055 9.13086 20.1055C11.9697 20.1055 13.2178 19.1211 13.209 16.2383L13.2002 10.5781L13.2793 8.27539L11.6885 10.0332L8.96387 12.7754C8.78809 12.9424 8.55078 13.0566 8.27832 13.0566C7.75098 13.0566 7.35547 12.6523 7.35547 12.1074C7.35547 11.8613 7.45215 11.6328 7.6543 11.4219L13.4463 5.62109C13.6396 5.42773 13.8945 5.31348 14.1582 5.31348C14.4219 5.31348 14.6855 5.42773 14.8701 5.62109L20.6709 11.4219C20.873 11.6328 20.9697 11.8613 20.9697 12.1074C20.9697 12.6523 20.5742 13.0566 20.0469 13.0566C19.7744 13.0566 19.5371 12.9424 19.3613 12.7754L16.6279 10.0332L15.0459 8.28418L15.125 10.5781V16.3613C15.125 20.3604 13.1738 22.0039 9.19238 22.0039Z" fill="black"/>
</g>
<defs>
<clipPath id="clip0_1037_22549">
<rect width="28" height="28" fill="white"/>
</clipPath>
</defs>
</svg>
