<svg width="28" height="28" viewBox="0 0 28 28" fill="none" xmlns="http://www.w3.org/2000/svg">
<g clip-path="url(#clip0_1037_22547)">
<path d="M14 22.0039C13.4375 22.0039 13.042 21.6084 13.042 21.0283V10.1123L13.1123 8.21387L10.792 10.8066L8.79688 12.7754C8.62988 12.9424 8.38379 13.0566 8.12012 13.0566C7.59277 13.0566 7.19727 12.6523 7.19727 12.1162C7.19727 11.8613 7.29395 11.6328 7.49609 11.4219L13.2881 5.62109C13.4814 5.42773 13.7363 5.31348 14 5.31348C14.2637 5.31348 14.5186 5.42773 14.7119 5.62109L20.5039 11.4219C20.7061 11.6328 20.8027 11.8613 20.8027 12.1162C20.8027 12.6523 20.416 13.0566 19.8887 13.0566C19.6162 13.0566 19.3789 12.9424 19.2031 12.7754L17.208 10.8066L14.8877 8.22266L14.958 10.1123V21.0283C14.958 21.6084 14.5713 22.0039 14 22.0039Z" fill="black"/>
</g>
<defs>
<clipPath id="clip0_1037_22547">
<rect width="28" height="28" fill="white"/>
</clipPath>
</defs>
</svg>
