<svg width="28" height="28" viewBox="0 0 28 28" fill="none" xmlns="http://www.w3.org/2000/svg">
<g clip-path="url(#clip0_1037_22551)">
<path d="M18.8076 22.0039C14.8262 22.0039 12.875 20.3604 12.875 16.3613V10.5781L12.9453 8.28418L11.3633 10.0332L8.62988 12.7754C8.46289 12.9424 8.2168 13.0566 7.95312 13.0566C7.42578 13.0566 7.03027 12.6523 7.03027 12.1074C7.03027 11.8613 7.12695 11.6328 7.3291 11.4219L13.1211 5.62109C13.3145 5.42773 13.5693 5.31348 13.833 5.31348C14.0967 5.31348 14.3604 5.42773 14.5537 5.62109L20.3369 11.4219C20.5391 11.6328 20.6357 11.8613 20.6357 12.1074C20.6357 12.6523 20.249 13.0566 19.7217 13.0566C19.4492 13.0566 19.2119 12.9424 19.0361 12.7754L16.3027 10.0332L14.7207 8.27539L14.7998 10.5781L14.791 16.2383C14.7822 19.1211 16.0303 20.1055 18.8691 20.1055C19.3438 20.1055 19.6865 20.0791 20.0117 20.0791C20.5742 20.0791 20.9697 20.4307 20.9697 20.9932C20.9697 21.5732 20.5215 21.8457 20.1084 21.9248C19.7568 21.9951 19.3086 22.0039 18.8076 22.0039Z" fill="black"/>
</g>
<defs>
<clipPath id="clip0_1037_22551">
<rect width="28" height="28" fill="white"/>
</clipPath>
</defs>
</svg>
