<svg width="28" height="28" viewBox="0 0 28 28" fill="none" xmlns="http://www.w3.org/2000/svg">
<path d="M6.01953 21.8721C4.12109 21.8721 3.13672 20.8877 3.13672 19.0156V9.7959C3.13672 7.92383 4.12109 6.93945 6.01953 6.93945H8.33105C9.00781 6.93945 9.23633 6.81641 9.6582 6.37695L10.3525 5.62109C10.8096 5.14648 11.2754 4.90039 12.1719 4.90039H15.7754C16.6719 4.90039 17.1377 5.14648 17.5947 5.62109L18.2891 6.37695C18.7109 6.8252 18.9307 6.93945 19.6162 6.93945H21.9717C23.8701 6.93945 24.8545 7.92383 24.8545 9.7959V19.0156C24.8545 20.8877 23.8701 21.8721 21.9717 21.8721H6.01953ZM10.8887 11.123C11.1963 11.4746 11.6182 11.4922 12.0137 11.2109C12.6113 10.7363 13.2178 10.5078 14 10.5078C15.6436 10.5078 16.9971 11.5889 17.3926 13.0479H16.5049C16.0654 13.0479 15.9512 13.4697 16.2061 13.8125L17.6387 15.7725C17.8848 16.1152 18.3154 16.1328 18.5791 15.7725L19.9941 13.8125C20.2402 13.4697 20.1348 13.0479 19.6953 13.0479H18.8691C18.4385 10.6572 16.4785 8.99609 14 8.99609C12.9189 8.99609 11.873 9.35645 11.1436 9.9541C10.6865 10.2969 10.5898 10.7715 10.8887 11.123ZM7.97949 13.9707C7.72461 14.3135 7.83887 14.7354 8.27832 14.7354H9.14844C9.5791 17.126 11.5391 18.7783 14.0176 18.7783C15.0898 18.7783 16.1357 18.418 16.874 17.8291C17.3223 17.4951 17.4277 17.0029 17.1289 16.6602C16.8301 16.3086 16.3994 16.291 15.9951 16.5723C15.3975 17.0381 14.7998 17.2754 14.0176 17.2754C12.374 17.2754 11.0117 16.1943 10.6162 14.7354H11.46C11.8994 14.7354 12.0225 14.3047 11.7676 13.9707L10.335 12.0107C10.0801 11.668 9.64941 11.6504 9.38574 12.0107L7.97949 13.9707Z" fill="black"/>
</svg>
