<svg width="28" height="28" viewBox="0 0 28 28" fill="none" xmlns="http://www.w3.org/2000/svg">
<g clip-path="url(#clip0_1022_15345)">
<path d="M21.2773 20.7031C20.7148 20.7031 20.3281 20.3076 20.3281 19.7451C20.3281 19.4111 20.3633 19.0684 20.3633 18.585C20.3633 15.6318 19.3174 14.4365 16.3906 14.4365H10.6953L8.58594 14.3047L11.2139 16.6953L13.165 18.6729C13.3408 18.8486 13.4463 19.0859 13.4463 19.3584C13.4463 19.8857 13.0508 20.2812 12.5059 20.2812C12.2598 20.2812 12.0225 20.1846 11.8203 19.9824L6.01953 14.1904C5.81738 13.9971 5.70312 13.7334 5.70312 13.4697C5.70312 13.2061 5.81738 12.9512 6.01953 12.749L11.8027 6.97461C12.0225 6.76367 12.2598 6.6582 12.5059 6.6582C13.0508 6.6582 13.4463 7.05371 13.4463 7.58105C13.4463 7.85352 13.3408 8.09082 13.165 8.2666L11.2139 10.2529L8.59473 12.6348L10.6953 12.5117H16.5137C20.5918 12.5117 22.2969 14.3838 22.2969 18.5234C22.2969 19.042 22.2793 19.4902 22.2178 19.8418C22.1299 20.2637 21.8662 20.7031 21.2773 20.7031Z" fill="black"/>
</g>
<defs>
<clipPath id="clip0_1022_15345">
<rect width="28" height="28" fill="white"/>
</clipPath>
</defs>
</svg>
