<svg width="28" height="28" viewBox="0 0 28 28" fill="none" xmlns="http://www.w3.org/2000/svg">
<path d="M6.01953 21.8721C4.12109 21.8721 3.13672 20.8877 3.13672 19.0156V9.7959C3.13672 7.92383 4.12109 6.93945 6.01953 6.93945H8.38379C9.06934 6.93945 9.29785 6.81641 9.71094 6.37695L10.4141 5.62109C10.8711 5.14648 11.3281 4.90039 12.2246 4.90039H15.7227C16.6191 4.90039 17.0762 5.14648 17.5332 5.62109L18.2363 6.37695C18.6582 6.8252 18.8779 6.93945 19.5635 6.93945H21.9717C23.8701 6.93945 24.8545 7.92383 24.8545 9.7959V19.0156C24.8545 20.8877 23.8701 21.8721 21.9717 21.8721H6.01953ZM6.125 20.1494H21.875C22.6836 20.1494 23.1318 19.7188 23.1318 18.8662V9.94531C23.1318 9.09277 22.6836 8.66211 21.875 8.66211H19.0625C18.2803 8.66211 17.8672 8.52148 17.4277 8.03809L16.751 7.29102C16.2588 6.76367 15.9951 6.62305 15.2217 6.62305H12.7256C11.9521 6.62305 11.6885 6.76367 11.1963 7.2998L10.5195 8.03809C10.0801 8.53027 9.66699 8.66211 8.88477 8.66211H6.125C5.31641 8.66211 4.85938 9.09277 4.85938 9.94531V18.8662C4.85938 19.7188 5.31641 20.1494 6.125 20.1494ZM11.0029 11.2285C10.7129 10.8945 10.8096 10.4375 11.2402 10.1035C11.9521 9.53223 12.9629 9.18066 14 9.18066C16.3818 9.18066 18.2627 10.7891 18.6846 13.0742H19.4756C19.8975 13.0742 20.0029 13.4785 19.7656 13.8125L18.4033 15.6934C18.1572 16.0449 17.7354 16.0273 17.498 15.6934L16.127 13.8125C15.8809 13.4873 15.9951 13.0742 16.417 13.0742H17.2783C16.8916 11.668 15.582 10.6221 14 10.6221C13.2441 10.6221 12.6553 10.8506 12.0752 11.2988C11.6973 11.5713 11.293 11.5625 11.0029 11.2285ZM8.19922 13.9707L9.56152 12.0811C9.80762 11.7295 10.2295 11.7471 10.4668 12.0811L11.8379 13.9707C12.084 14.2959 11.9697 14.7002 11.5479 14.7002H10.7305C11.1084 16.1064 12.4268 17.1523 14.0088 17.1523C14.7646 17.1523 15.3447 16.9238 15.9248 16.4756C16.3115 16.2031 16.7158 16.2119 17.0059 16.5459C17.2959 16.8887 17.1992 17.3457 16.7686 17.6709C16.0566 18.251 15.0459 18.5938 14.0088 18.5938C11.6357 18.5938 9.74609 16.9941 9.31543 14.7002H8.48926C8.06738 14.7002 7.96191 14.2959 8.19922 13.9707Z" fill="black"/>
</svg>
