<svg width="28" height="28" viewBox="0 0 28 28" fill="none" xmlns="http://www.w3.org/2000/svg">
<g clip-path="url(#clip0_863_12429)">
<path d="M7.95312 21.8721C6.05469 21.8721 5.07031 20.8965 5.07031 19.0156V8.31934C5.07031 6.43848 6.05469 5.46289 7.95312 5.46289H20.0469C21.9453 5.46289 22.9297 6.43848 22.9297 8.31934V19.0156C22.9297 20.8877 21.9453 21.8721 20.0469 21.8721H7.95312ZM7.92676 20.1494H20.0557C20.7939 20.1494 21.207 19.7627 21.207 18.998V10.877C21.207 10.1035 20.7939 9.72559 20.0557 9.72559H7.92676C7.19727 9.72559 6.79297 10.1035 6.79297 10.877V18.998C6.79297 19.7627 7.19727 20.1494 7.92676 20.1494ZM12.3037 12.7754C11.9961 12.7754 11.8906 12.6787 11.8906 12.3623V11.8525C11.8906 11.5361 11.9961 11.4395 12.3037 11.4395H12.8223C13.1387 11.4395 13.2441 11.5361 13.2441 11.8525V12.3623C13.2441 12.6787 13.1387 12.7754 12.8223 12.7754H12.3037ZM15.1865 12.7754C14.8701 12.7754 14.7646 12.6787 14.7646 12.3623V11.8525C14.7646 11.5361 14.8701 11.4395 15.1865 11.4395H15.6963C16.0127 11.4395 16.1182 11.5361 16.1182 11.8525V12.3623C16.1182 12.6787 16.0127 12.7754 15.6963 12.7754H15.1865ZM18.0605 12.7754C17.7441 12.7754 17.6387 12.6787 17.6387 12.3623V11.8525C17.6387 11.5361 17.7441 11.4395 18.0605 11.4395H18.5703C18.8867 11.4395 18.9922 11.5361 18.9922 11.8525V12.3623C18.9922 12.6787 18.8867 12.7754 18.5703 12.7754H18.0605ZM9.42969 15.6055C9.12207 15.6055 9.0166 15.5088 9.0166 15.1924V14.6826C9.0166 14.3662 9.12207 14.2695 9.42969 14.2695H9.94824C10.2646 14.2695 10.3701 14.3662 10.3701 14.6826V15.1924C10.3701 15.5088 10.2646 15.6055 9.94824 15.6055H9.42969ZM12.3037 15.6055C11.9961 15.6055 11.8906 15.5088 11.8906 15.1924V14.6826C11.8906 14.3662 11.9961 14.2695 12.3037 14.2695H12.8223C13.1387 14.2695 13.2441 14.3662 13.2441 14.6826V15.1924C13.2441 15.5088 13.1387 15.6055 12.8223 15.6055H12.3037ZM15.1865 15.6055C14.8701 15.6055 14.7646 15.5088 14.7646 15.1924V14.6826C14.7646 14.3662 14.8701 14.2695 15.1865 14.2695H15.6963C16.0127 14.2695 16.1182 14.3662 16.1182 14.6826V15.1924C16.1182 15.5088 16.0127 15.6055 15.6963 15.6055H15.1865ZM18.0605 15.6055C17.7441 15.6055 17.6387 15.5088 17.6387 15.1924V14.6826C17.6387 14.3662 17.7441 14.2695 18.0605 14.2695H18.5703C18.8867 14.2695 18.9922 14.3662 18.9922 14.6826V15.1924C18.9922 15.5088 18.8867 15.6055 18.5703 15.6055H18.0605ZM9.42969 18.4355C9.12207 18.4355 9.0166 18.3389 9.0166 18.0225V17.5127C9.0166 17.1963 9.12207 17.0996 9.42969 17.0996H9.94824C10.2646 17.0996 10.3701 17.1963 10.3701 17.5127V18.0225C10.3701 18.3389 10.2646 18.4355 9.94824 18.4355H9.42969ZM12.3037 18.4355C11.9961 18.4355 11.8906 18.3389 11.8906 18.0225V17.5127C11.8906 17.1963 11.9961 17.0996 12.3037 17.0996H12.8223C13.1387 17.0996 13.2441 17.1963 13.2441 17.5127V18.0225C13.2441 18.3389 13.1387 18.4355 12.8223 18.4355H12.3037ZM15.1865 18.4355C14.8701 18.4355 14.7646 18.3389 14.7646 18.0225V17.5127C14.7646 17.1963 14.8701 17.0996 15.1865 17.0996H15.6963C16.0127 17.0996 16.1182 17.1963 16.1182 17.5127V18.0225C16.1182 18.3389 16.0127 18.4355 15.6963 18.4355H15.1865Z" fill="black"/>
</g>
<defs>
<clipPath id="clip0_863_12429">
<rect width="28" height="28" fill="white"/>
</clipPath>
</defs>
</svg>
