<svg width="28" height="28" viewBox="0 0 28 28" fill="none" xmlns="http://www.w3.org/2000/svg">
<path d="M4.85938 21.9424C4.85938 23.8408 5.83496 24.8252 7.71582 24.8252H15.9424C17.8232 24.8252 18.79 23.832 18.79 21.9424V20.3164H20.2842C22.165 20.3164 23.1406 19.332 23.1406 17.4336V10.4727C23.1406 9.32129 22.9033 8.58301 22.209 7.87109L17.8232 3.40625C17.1641 2.72949 16.3818 2.47461 15.3711 2.47461H12.0576C10.1855 2.47461 9.20117 3.45898 9.20117 5.35742V6.97461H7.71582C5.83496 6.97461 4.85938 7.96777 4.85938 9.85742V21.9424ZM17.9111 12.7051L13.1475 7.8623C12.4707 7.17676 11.8994 6.99219 10.9238 6.9834V5.4541C10.9238 4.64551 11.3545 4.19727 12.207 4.19727H15.8809V8.39844C15.8809 9.48828 16.4609 10.0508 17.542 10.0508H21.418V17.3281C21.418 18.1455 20.9961 18.5938 20.1348 18.5938H18.79V15.1836C18.79 13.9971 18.6494 13.4521 17.9111 12.7051ZM17.3223 8.17871V4.90918L20.9697 8.60938H17.7529C17.4541 8.60938 17.3223 8.48633 17.3223 8.17871ZM6.58203 21.8369V9.96289C6.58203 9.1543 7.00391 8.69727 7.85645 8.69727H10.5547V13.5137C10.5547 14.7705 11.1787 15.3857 12.4268 15.3857H17.0674V21.8369C17.0674 22.6543 16.6455 23.1025 15.793 23.1025H7.85645C7.00391 23.1025 6.58203 22.6543 6.58203 21.8369ZM12.5938 13.8652C12.2334 13.8652 12.0752 13.707 12.0752 13.3467V9.03125L16.8301 13.8652H12.5938Z" fill="black"/>
</svg>
