<svg width="28" height="28" viewBox="0 0 28 28" fill="none" xmlns="http://www.w3.org/2000/svg">
<g clip-path="url(#clip0_618_3722)">
<path d="M22.707 16.209C23.9375 16.209 24.9336 15.2246 24.9336 13.9941C24.9336 12.7637 23.9375 11.7676 22.707 11.7676C21.4766 11.7676 20.4805 12.7637 20.4805 13.9941C20.4805 15.2246 21.4766 16.209 22.707 16.209Z" fill="black"/>
<path d="M14 16.209C15.2305 16.209 16.2148 15.2246 16.2148 13.9941C16.2148 12.7637 15.2305 11.7676 14 11.7676C12.7695 11.7676 11.7734 12.7637 11.7734 13.9941C11.7734 15.2246 12.7695 16.209 14 16.209Z" fill="black"/>
<path d="M5.29297 16.209C6.52344 16.209 7.50782 15.2246 7.50782 13.9941C7.50782 12.7637 6.52344 11.7676 5.29297 11.7676C4.0625 11.7676 3.06641 12.7637 3.06641 13.9941C3.06641 15.2246 4.0625 16.209 5.29297 16.209Z" fill="black"/>
</g>
<defs>
<clipPath id="clip0_618_3722">
<rect width="21.8672" height="4.46484" fill="white" transform="translate(3.06641 11.7676)"/>
</clipPath>
</defs>
</svg>
