<svg width="28" height="28" viewBox="0 0 28 28" fill="none" xmlns="http://www.w3.org/2000/svg">
<path d="M14.0088 14.5859C14.3867 14.5859 14.7207 14.4102 15.1162 14.0234L22.7803 6.41211C22.4375 6.11328 21.8311 5.95508 20.9697 5.95508H6.80176C6.0459 5.95508 5.50977 6.0957 5.20215 6.38574L12.9014 14.0234C13.2969 14.4102 13.6396 14.5859 14.0088 14.5859ZM4.37598 19.8945L10.6777 13.6367L4.38477 7.42285C4.22656 7.69531 4.13867 8.16113 4.13867 8.81152V18.5234C4.13867 19.165 4.21777 19.6221 4.37598 19.8945ZM23.6328 19.877C23.7822 19.6045 23.8525 19.1562 23.8525 18.5234V8.81152C23.8525 8.16992 23.7734 7.71289 23.6152 7.44043L17.3398 13.6367L23.6328 19.877ZM7.02148 21.3711H21.1982C21.9629 21.3711 22.5078 21.2217 22.8242 20.9316L16.3994 14.5596L15.8457 15.1045C15.2393 15.6934 14.6592 15.9658 14.0088 15.9658C13.3584 15.9658 12.7783 15.6934 12.1631 15.1045L11.6182 14.5596L5.21094 20.9229C5.55371 21.2217 6.16016 21.3711 7.02148 21.3711Z" fill="black"/>
</svg>
