<svg width="28" height="28" viewBox="0 0 28 28" fill="none" xmlns="http://www.w3.org/2000/svg">
<path d="M14 23.0791C9.03418 23.0791 4.9209 18.9746 4.9209 14C4.9209 9.03418 9.02539 4.9209 13.9912 4.9209C18.9658 4.9209 23.0791 9.03418 23.0791 14C23.0791 18.9746 18.9658 23.0791 14 23.0791ZM14 21.2949C18.043 21.2949 21.2949 18.043 21.2949 14C21.2949 9.95703 18.0342 6.71387 13.9912 6.71387C9.94824 6.71387 6.71387 9.95703 6.71387 14C6.71387 18.043 9.95703 21.2949 14 21.2949ZM13.9912 15.4678C13.499 15.4678 13.2266 15.1865 13.209 14.6943L13.0859 10.4141C13.0684 9.9043 13.4375 9.53516 13.9824 9.53516C14.5186 9.53516 14.9053 9.9043 14.8877 10.4229L14.7559 14.6943C14.7383 15.1953 14.4658 15.4678 13.9912 15.4678ZM13.9912 18.377C13.4287 18.377 12.9629 17.9639 12.9629 17.4102C12.9629 16.8652 13.4199 16.4521 13.9912 16.4521C14.5625 16.4521 15.0195 16.8564 15.0195 17.4102C15.0195 17.9727 14.5537 18.377 13.9912 18.377Z" fill="black"/>
</svg>
