<svg width="28" height="28" viewBox="0 0 28 28" fill="none" xmlns="http://www.w3.org/2000/svg">
<path d="M14 23.0791C9.03418 23.0791 4.9209 18.9746 4.9209 14C4.9209 9.03418 9.02539 4.9209 13.9912 4.9209C18.9658 4.9209 23.0791 9.03418 23.0791 14C23.0791 18.9746 18.9658 23.0791 14 23.0791ZM14 15.5205C14.501 15.5205 14.791 15.2393 14.8086 14.7119L14.9404 10.291C14.958 9.75488 14.5537 9.36816 13.9912 9.36816C13.4287 9.36816 13.0332 9.74609 13.0508 10.2822L13.1826 14.7119C13.2002 15.2305 13.4902 15.5205 14 15.5205ZM14 18.5439C14.5889 18.5439 15.0723 18.1309 15.0723 17.542C15.0723 16.9707 14.5977 16.54 14 16.54C13.4111 16.54 12.9277 16.9707 12.9277 17.542C12.9277 18.1221 13.4199 18.5439 14 18.5439Z" fill="black"/>
</svg>
