<svg width="28" height="28" viewBox="0 0 28 28" fill="none" xmlns="http://www.w3.org/2000/svg">
<path d="M14 21.2744C21.207 21.2744 26.0674 15.4648 26.0674 13.6631C26.0674 11.8613 21.1982 6.06055 14 6.06055C6.89844 6.06055 1.92383 11.8613 1.92383 13.6631C1.92383 15.4648 6.88965 21.2744 14 21.2744ZM14 19.5869C8.38379 19.5869 3.91895 14.8936 3.91895 13.6631C3.91895 12.6348 8.38379 7.74805 14 7.74805C19.6074 7.74805 24.0811 12.6348 24.0811 13.6631C24.0811 14.8936 19.6074 19.5869 14 19.5869ZM14 18.4004C16.6367 18.4004 18.7461 16.2471 18.7461 13.6631C18.7461 11.0176 16.6367 8.93457 14 8.93457C11.3545 8.93457 9.23633 11.0176 9.24512 13.6631C9.2627 16.2471 11.3545 18.4004 14 18.4004ZM14 15.1924C13.1475 15.1924 12.4531 14.5068 12.4531 13.6631C12.4531 12.8193 13.1475 12.1338 14 12.1338C14.8525 12.1338 15.5381 12.8193 15.5381 13.6631C15.5381 14.5068 14.8525 15.1924 14 15.1924Z" fill="black"/>
</svg>
