<svg width="28" height="28" viewBox="0 0 28 28" fill="none" xmlns="http://www.w3.org/2000/svg">
<path d="M20.9258 21.4238C21.207 21.6963 21.6377 21.7139 21.9189 21.4238C22.209 21.125 22.1914 20.7031 21.9189 20.4307L7.03027 5.55958C6.7666 5.28712 6.30957 5.27833 6.03711 5.55958C5.77344 5.82326 5.77344 6.28029 6.03711 6.54396L20.9258 21.4238ZM21.752 18.752C24.3184 17.0293 25.9531 14.7002 25.9531 13.6631C25.9531 11.8877 21.1191 6.13966 14 6.13966C12.5059 6.13966 11.1084 6.38576 9.84277 6.80763L12.2422 9.20704C12.7783 8.98732 13.376 8.85548 14 8.85548C16.6719 8.85548 18.834 10.9824 18.834 13.6719C18.834 14.2871 18.7021 14.8936 18.4648 15.4297L21.752 18.752ZM14 21.1953C15.6084 21.1953 17.1025 20.9053 18.4209 20.4219L16.0039 18.0137C15.4062 18.3125 14.7207 18.4707 14 18.4707C11.3193 18.4707 9.1748 16.2822 9.16602 13.6719C9.16602 12.9336 9.33301 12.2481 9.62305 11.6328L6.46777 8.45997C3.72559 10.2178 2.04688 12.626 2.04688 13.6631C2.04688 15.4473 6.96875 21.1953 14 21.1953ZM16.8213 13.4873C16.8213 11.9492 15.5732 10.7012 14.0264 10.7012C13.9297 10.7012 13.833 10.71 13.7451 10.7188L16.7949 13.7686C16.8037 13.6807 16.8213 13.584 16.8213 13.4873ZM11.1699 13.5137C11.1699 15.0518 12.4443 16.2998 13.9736 16.2998C14.0791 16.2998 14.1758 16.291 14.2812 16.2822L11.1875 13.1973C11.1787 13.3027 11.1699 13.4082 11.1699 13.5137Z" fill="black"/>
</svg>
