<svg width="28" height="28" viewBox="0 0 28 28" fill="none" xmlns="http://www.w3.org/2000/svg">
<path d="M20.9258 21.4238C21.207 21.6963 21.6377 21.7139 21.9189 21.4238C22.209 21.125 22.1914 20.7031 21.9189 20.4307L7.03027 5.55958C6.7666 5.28712 6.30957 5.27833 6.03711 5.55958C5.77344 5.82326 5.77344 6.28029 6.03711 6.54396L20.9258 21.4238ZM14 6.06056C12.4707 6.06056 11.082 6.32423 9.79004 6.74611L11.1963 8.15236C12.084 7.89747 13.0068 7.74806 14 7.74806C19.6162 7.74806 24.0811 12.6348 24.0811 13.6631C24.0811 14.3574 22.6572 16.1504 20.3984 17.5654L21.6992 18.875C24.459 17.0645 26.0674 14.7002 26.0674 13.6631C26.0674 11.8613 21.207 6.06056 14 6.06056ZM14 21.2744C15.626 21.2744 17.1113 20.9932 18.4561 20.5274L17.0586 19.1299C16.1006 19.4111 15.0898 19.5869 14 19.5869C8.38379 19.5869 3.91895 14.8936 3.91895 13.6631C3.91895 13.0742 5.41309 11.167 7.82129 9.69044L6.49414 8.36329C3.62012 10.1914 1.92383 12.6084 1.92383 13.6631C1.92383 15.4649 6.88965 21.2744 14 21.2744ZM18.3857 15.3594C18.6143 14.8408 18.7461 14.2608 18.7461 13.6631C18.7461 11.0176 16.6367 8.93458 14 8.93458C13.3936 8.93458 12.8223 9.04884 12.2949 9.26857L18.3857 15.3594ZM14 18.4004C14.6855 18.4004 15.3271 18.2422 15.8984 17.9697L9.68457 11.7471C9.40332 12.3272 9.24512 12.9688 9.24512 13.6719C9.25391 16.2471 11.3545 18.4004 14 18.4004Z" fill="black"/>
</svg>
