<svg width="28" height="28" viewBox="0 0 28 28" fill="none" xmlns="http://www.w3.org/2000/svg">
<path d="M14 21.1953C21.1279 21.1953 25.9531 15.4473 25.9531 13.6631C25.9531 11.8877 21.1191 6.13965 14 6.13965C6.96875 6.13965 2.04688 11.8877 2.04688 13.6631C2.04688 15.4473 6.96875 21.1953 14 21.1953ZM14 18.4707C11.3193 18.4707 9.18359 16.2822 9.16602 13.6719C9.15723 10.9824 11.3193 8.85547 14 8.85547C16.6719 8.85547 18.834 10.9824 18.834 13.6719C18.834 16.2822 16.6719 18.4707 14 18.4707ZM14 15.4561C14.9932 15.4561 15.8018 14.6475 15.8018 13.6719C15.8018 12.6875 14.9932 11.8701 14 11.8701C13.0068 11.8701 12.1982 12.6875 12.1982 13.6719C12.1982 14.6475 13.0068 15.4561 14 15.4561Z" fill="black"/>
</svg>
