<svg width="28" height="28" viewBox="0 0 28 28" fill="none" xmlns="http://www.w3.org/2000/svg">
<g clip-path="url(#clip0_974_20957)">
<path d="M14 22.7334C9.03418 22.7334 4.9209 18.6289 4.9209 13.6543C4.9209 8.68848 9.02539 4.5752 13.9912 4.5752C18.9658 4.5752 23.0791 8.68848 23.0791 13.6543C23.0791 18.6289 18.9658 22.7334 14 22.7334ZM8.70898 8.12598C9.14844 8.4248 9.67578 8.67969 10.291 8.87305C10.6865 7.80078 11.2139 6.92188 11.8379 6.29785C10.6514 6.64941 9.58789 7.29102 8.70898 8.12598ZM16.1709 6.30664C16.7861 6.92188 17.3135 7.80078 17.709 8.88184C18.3242 8.67969 18.8516 8.43359 19.2822 8.12598C18.4121 7.29102 17.3486 6.6582 16.1709 6.30664ZM14.6152 6.58789V9.37402C15.2832 9.34766 15.9072 9.28613 16.4873 9.18066C16.0127 7.88867 15.3447 6.93945 14.6152 6.58789ZM11.5127 9.18066C12.0928 9.28613 12.7168 9.34766 13.3848 9.37402V6.58789C12.6553 6.93945 11.9961 7.88867 11.5127 9.18066ZM6.35352 13.0391H9.51758C9.56152 11.958 9.71094 10.9385 9.93945 10.0244C9.13086 9.76953 8.43652 9.42676 7.90039 9.03125C7.03906 10.165 6.47656 11.5449 6.35352 13.0391ZM18.4824 13.0391H21.6465C21.5234 11.5449 20.9609 10.165 20.0908 9.03125C19.5635 9.43555 18.8691 9.76953 18.0605 10.0244C18.2891 10.9385 18.4385 11.958 18.4824 13.0391ZM10.7744 13.0391H13.3848V10.6045C12.6025 10.5693 11.8555 10.4814 11.1523 10.3408C10.9502 11.167 10.8184 12.0811 10.7744 13.0391ZM14.6152 13.0391H17.2256C17.1816 12.0811 17.0498 11.167 16.8477 10.3408C16.1445 10.4814 15.3975 10.5693 14.6152 10.6045V13.0391ZM6.35352 14.2695C6.47656 15.7725 7.04785 17.1611 7.92676 18.3037C8.4541 17.9082 9.13965 17.5742 9.93945 17.3193C9.71094 16.3965 9.56152 15.3682 9.51758 14.2695H6.35352ZM10.7744 14.2695C10.8096 15.2363 10.9502 16.168 11.1611 17.0029C11.8555 16.8711 12.6113 16.7832 13.3848 16.748V14.2695H10.7744ZM14.6152 16.748C15.3975 16.7832 16.1445 16.8711 16.8389 17.0029C17.0498 16.168 17.1904 15.2363 17.2256 14.2695H14.6152V16.748ZM18.0605 17.3193C18.8604 17.5742 19.5459 17.9082 20.0732 18.3037C20.9521 17.1611 21.5234 15.7725 21.6465 14.2695H18.4824C18.4385 15.3682 18.2979 16.3965 18.0605 17.3193ZM14.6152 17.9785V20.7207C15.3359 20.3779 15.9951 19.4375 16.4697 18.1719C15.8984 18.0664 15.2744 18.0049 14.6152 17.9785ZM11.5303 18.1719C12.0049 19.4375 12.6641 20.3779 13.3848 20.7207V17.9785C12.7256 18.0049 12.1016 18.0664 11.5303 18.1719ZM8.73535 19.209C9.60547 20.0264 10.6602 20.6504 11.8203 21.002C11.2139 20.3867 10.6953 19.5254 10.2998 18.4707C9.69336 18.6641 9.16602 18.9102 8.73535 19.209ZM17.7002 18.4707C17.3047 19.5254 16.7861 20.3867 16.1797 21.002C17.3398 20.6504 18.3945 20.0264 19.2646 19.209C18.834 18.9102 18.3066 18.6641 17.7002 18.4707Z" fill="black"/>
</g>
<defs>
<clipPath id="clip0_974_20957">
<rect width="28" height="28" fill="white"/>
</clipPath>
</defs>
</svg>
