<svg width="28" height="28" viewBox="0 0 28 28" fill="none" xmlns="http://www.w3.org/2000/svg">
<path d="M19.3761 20.7476C22.6792 18.6054 23.2123 15.3253 20.9205 11.8042L19.9686 10.3371C19.1122 9.01031 17.9218 8.58147 17.1603 9.07289C16.9811 9.19543 16.9396 9.36737 17.0516 9.54L17.4686 10.1744C17.6511 10.457 17.6043 10.6842 17.4402 10.7942C17.2611 10.9167 17.0232 10.8635 16.8408 10.5808L16.5733 10.1644C16.0569 9.37261 15.1992 9.17365 14.5001 9.62359C14.1701 9.83504 14.1101 10.0834 14.2926 10.366L14.8526 11.229C15.0436 11.5096 14.9968 11.7369 14.8243 11.8489C14.645 11.9714 14.4158 11.9161 14.2333 11.6335L13.7148 10.833C13.1405 9.94635 12.3407 9.84226 11.6503 10.2902C11.3354 10.4892 11.2689 10.748 11.4408 11.024L12.5462 12.7264C12.7286 13.009 12.6819 13.2362 12.5179 13.3462C12.3386 13.4688 12.1094 13.4135 11.9269 13.1308L8.26231 7.49104C7.88683 6.91922 7.25835 6.7756 6.76428 7.09707C6.23134 7.44555 6.11342 8.06808 6.49088 8.64847L11.8083 16.8384C11.9328 17.0261 11.8827 17.2 11.7661 17.2811C11.6476 17.3535 11.5112 17.349 11.3175 17.2132L8.58365 15.3726C8.15615 15.0833 7.76022 15.0484 7.37614 15.2994C6.83463 15.6498 6.71274 16.2552 7.01973 16.7257C7.13369 16.9068 7.26347 17.0392 7.3939 17.1354L11.0303 19.9945C14.0631 22.3885 16.9058 22.355 19.3761 20.7476Z" fill="black"/>
<path d="M8.8672 6.25324C11.7554 4.30451 15.0635 3.89044 17.9458 5.11408C18.2735 5.25372 18.4263 5.63214 18.2871 5.96027C18.148 6.28742 17.771 6.44171 17.4409 6.30158C14.9702 5.25128 12.1079 5.62384 9.58888 7.32257L8.8672 6.25324Z" fill="black"/>
</svg>
