<svg width="28" height="28" viewBox="0 0 28 28" fill="none" xmlns="http://www.w3.org/2000/svg">
<path d="M19.8447 22.0127C23.5273 20.6679 25.0479 17.3808 23.5801 13.3642L22.8682 11.3955C22.1562 9.44431 20.7764 8.61814 19.168 9.16306C18.7285 8.62693 18.0518 8.44236 17.3311 8.70603C17.0938 8.79392 16.8828 8.91697 16.6895 9.06638C16.2061 8.47751 15.4941 8.26658 14.7646 8.53904C14.5977 8.60056 14.4395 8.67966 14.2988 8.79392L13.3848 6.28904C12.9717 5.15525 11.9521 4.68064 10.8887 5.06736C9.80762 5.46287 9.32422 6.49119 9.72852 7.62497L12.1191 14.1816C12.1367 14.2256 12.1279 14.2607 12.084 14.2783C12.0576 14.2871 12.0312 14.2783 12.0049 14.2519L11.1348 13.3115C10.6074 12.8105 9.99219 12.6611 9.38574 12.8808C8.48926 13.206 7.95312 14.0586 8.31348 15.0342C8.41016 15.3154 8.59473 15.6406 8.80566 15.9043L11.7852 19.499C14.0791 22.2588 16.8125 23.1113 19.8447 22.0127ZM19.3789 20.5976C17.041 21.4414 14.9053 20.9668 12.8838 18.5761L9.87793 15.0342C9.79883 14.9375 9.74609 14.8496 9.69336 14.7265C9.60547 14.4717 9.71094 14.1904 10.0098 14.0761C10.2559 13.9883 10.458 14.0761 10.6514 14.2871L12.7432 16.3877C13.0947 16.7392 13.4287 16.7832 13.7451 16.6689C14.123 16.5283 14.3076 16.124 14.1494 15.6845L11.0117 7.06247C10.8975 6.74607 11.0381 6.44724 11.3369 6.33298C11.6445 6.22751 11.9346 6.36814 12.0488 6.68454L14.2549 12.749C14.3779 13.083 14.7471 13.2324 15.0811 13.1181C15.3975 12.9951 15.5732 12.6435 15.459 12.3095L14.6768 10.165C14.7822 10.0595 14.9404 9.95408 15.0898 9.90134C15.4502 9.76951 15.7666 9.92771 15.8984 10.3144L16.6104 12.2656C16.7334 12.6084 17.1025 12.749 17.4277 12.626C17.7441 12.5117 17.9287 12.1689 17.8057 11.8349L17.252 10.3232C17.3662 10.2177 17.5244 10.1211 17.665 10.0683C18.0342 9.9365 18.3418 10.0947 18.4824 10.4726L18.957 11.7734C19.0801 12.1162 19.458 12.2568 19.7832 12.1426C20.0996 12.0283 20.2842 11.6767 20.1611 11.334L19.8535 10.499C20.5215 10.2529 21.1367 10.7802 21.5586 11.9492L22.2002 13.707C23.4043 17.0029 22.3145 19.5254 19.3789 20.5976ZM8.19043 7.124C5.5625 8.72361 3.85742 11.6855 3.85742 15.2978C3.85742 15.6582 4.16504 15.9658 4.49902 15.957C4.85059 15.9482 5.10547 15.6758 5.11426 15.3242C5.19336 12.2041 6.51172 9.75193 8.63867 8.34568L8.19043 7.124Z" fill="black"/>
</svg>
