<svg width="28" height="28" viewBox="0 0 28 28" fill="none" xmlns="http://www.w3.org/2000/svg">
<path d="M23.8252 7.33527H21.7899C20.8539 6.70404 19.6575 6.22809 18.1713 6.22809H12.6131C12.2631 6.22809 11.9207 6.33008 11.6277 6.52161L9.90442 7.64807C9.90442 7.64807 8.46643 8.58807 7.80048 9.12116C7.5307 9.34277 7.3111 9.55066 7.20587 9.71106C6.6972 10.4495 6.88281 11.2972 7.40784 11.8223C8.25531 12.6697 9.25336 12.2231 9.51471 12.0767L11.7365 10.7956C11.9354 10.6842 12.0843 10.6931 12.2605 10.818L20.5856 16.7227C20.8595 16.918 20.9137 17.2437 20.7328 17.5076C20.5398 17.7693 20.2213 17.8186 19.9474 17.6233L14.2342 13.5702C13.9431 13.3654 13.5544 13.4525 13.3519 13.7314C13.1544 14.0175 13.2098 14.4066 13.4936 14.6164L18.762 18.3516C18.7353 18.4982 18.6652 18.675 18.5794 18.7984C18.3508 19.1167 18.0005 19.1666 17.6722 18.9233L12.5715 15.3073C12.2755 15.0953 11.8918 15.1896 11.6943 15.4757C11.4991 15.7496 11.5421 16.1366 11.8332 16.3412L16.5538 19.6859C16.5198 19.8375 16.4447 20.007 16.359 20.1303C16.1302 20.4487 15.7873 20.4936 15.4567 20.2626L10.9212 17.0466C10.6249 16.8347 10.2342 16.9339 10.0317 17.2128C9.84357 17.4818 9.8844 17.8808 10.1806 18.0928L14.3139 21.0207C13.9044 21.603 13.0984 21.519 12.0867 20.7974L7.15387 17.3004C6.51501 16.8485 4.51227 15.359 4.51227 12.9976C4.51227 10.772 5.599 8.83276 9.23315 6.56995L9.776 6.23193C8.31604 6.24341 7.13715 6.71344 6.21234 7.33527H4.1748C1.81055 7.33527 0 9.85773 0 12.9954C0 16.0803 1.97754 18.6204 4.50879 18.6204H6.56989L11.3238 21.9976C13.0189 23.1978 14.6238 23.0926 15.6369 21.7297C16.3033 21.9208 16.9721 21.6828 17.4078 21.0611C17.553 20.8539 17.6566 20.6327 17.7307 20.3998C18.4631 20.6093 19.1688 20.3779 19.6138 19.739C19.7543 19.5392 19.8574 19.319 19.8887 19.0591C20.5609 19.2108 21.2104 18.9901 21.6832 18.4407C22.1532 17.8944 22.3315 16.9404 21.9977 16.3018C21.8486 16.0165 21.6287 15.7513 21.3212 15.5302L13.217 9.78931L12.3875 9.20166C12.19 9.06177 11.9795 9.06531 11.7511 9.2016L8.84705 11.0183C8.54712 11.2146 8.24756 11.162 8.0791 10.9937C7.86688 10.7814 7.87286 10.4052 8.28192 10.1035L11.4998 7.83197C11.662 7.71674 11.8687 7.64807 12.0676 7.64807H18.1719C20.1068 7.64807 21.739 9.03003 22.445 10.028C23.6958 11.796 23.7888 13.6264 22.7899 15.2609C23.9787 16.8359 23.0653 18.5499 23.0298 18.6204H23.4912C26.0225 18.6204 28 16.0803 28 12.9954C28 9.85773 26.1895 7.33527 23.8252 7.33527ZM4.4209 17.0735C2.88281 17.0209 1.57324 15.2103 1.57324 12.9954C1.57324 10.7629 2.72461 8.97003 4.05176 8.91724H4.5318C4.47791 8.98773 4.41632 9.0603 4.3678 9.12891C3.47778 10.3867 3.03308 11.7013 3.03308 12.9837C3.03308 14.3358 3.53625 15.7675 4.73456 17.0762C4.62952 17.0751 4.52362 17.0735 4.4209 17.0735ZM24.7739 16.6458C24.7321 16.1799 24.6201 15.7289 24.4346 15.3094C25.3298 13.3516 25.0747 11.1675 23.6322 9.12891C23.5837 9.06036 23.522 8.98773 23.4682 8.91724H23.9482C25.2754 8.97003 26.4268 10.7629 26.4268 12.9954C26.4268 14.5987 25.7363 15.9797 24.7739 16.6458Z" fill="black"/>
</svg>
