<svg width="28" height="28" viewBox="0 0 28 28" fill="none" xmlns="http://www.w3.org/2000/svg">
<path d="M9.33301 16.9326C9.28027 20.3779 12.0752 22.9619 16.4082 22.9971L17.665 23.0059C18.8516 23.0146 19.7568 22.9268 20.2754 22.7949C21.0576 22.5928 21.7607 22.1094 21.7607 21.2217C21.7607 20.8701 21.6729 20.6152 21.5586 20.4131C21.4971 20.3076 21.5059 20.2197 21.6025 20.1758C22.2002 19.9121 22.6572 19.3584 22.6572 18.6289C22.6572 18.2246 22.5342 17.8467 22.3408 17.583C22.2529 17.46 22.2705 17.3545 22.4111 17.2666C22.833 17.0029 23.1143 16.4756 23.1143 15.8604C23.1143 15.4209 22.9824 14.9639 22.7363 14.7266C22.6133 14.6123 22.6396 14.5244 22.7715 14.4102C23.0615 14.1553 23.2373 13.7158 23.2373 13.1973C23.2373 12.2568 22.5078 11.501 21.5498 11.501H18.2891C17.4893 11.501 16.9707 11.0967 16.9707 10.4639C16.9707 9.2334 18.5352 6.95703 18.5352 5.2959C18.5352 4.39941 17.9551 3.85449 17.1816 3.85449C16.5049 3.85449 16.1533 4.30273 15.7666 5.0498C14.3867 7.72168 12.5586 9.90137 11.1523 11.7646C9.93066 13.3818 9.36816 14.7529 9.33301 16.9326ZM4.7627 17.0029C4.7627 19.8066 6.50293 22.1182 8.83203 22.1182H10.4141C8.7793 20.8789 7.99707 19.0244 8.03223 16.9062C8.06738 14.6299 8.89355 12.9775 9.74609 11.8438H8.48926C6.37988 11.8438 4.7627 14.1025 4.7627 17.0029Z" fill="black"/>
</svg>
