<svg width="28" height="28" viewBox="0 0 28 28" fill="none" xmlns="http://www.w3.org/2000/svg">
<path d="M9.93945 2.03516C7.34668 2.03516 5.24609 4.13574 5.24609 6.71973C5.24609 7.77441 5.61523 8.81152 6.22168 9.59375C6.38867 9.83105 6.6084 9.91895 6.81934 9.91895C7.33789 9.91895 7.75098 9.32129 7.34668 8.80273C6.88965 8.24023 6.61719 7.50195 6.61719 6.71973C6.61719 4.8916 8.10254 3.40625 9.93945 3.40625C11.7061 3.40625 13.1562 4.80371 13.2266 6.56152C13.2266 6.61426 13.2354 6.66699 13.2354 6.74609C13.2705 7.15918 13.543 7.37891 13.8857 7.37891C14.2549 7.37891 14.5625 7.13281 14.5889 6.76367C14.5977 6.68457 14.5889 6.5791 14.5801 6.46484C14.4658 3.97754 12.4092 2.03516 9.93945 2.03516ZM18.6582 21.582C22.3584 20.2373 23.6064 17.1611 22.1738 13.2148L21.5762 11.5713C21.04 10.0859 19.9766 9.40039 19.124 9.70801C18.9131 9.78711 18.8428 9.94531 18.9131 10.1387L19.1768 10.8506C19.291 11.167 19.1943 11.3779 19.001 11.4482C18.7988 11.5273 18.5879 11.4219 18.4736 11.1055L18.3066 10.6396C17.9814 9.75195 17.1904 9.36523 16.4082 9.64648C16.0391 9.77832 15.9248 10.0068 16.0391 10.3232L16.3906 11.29C16.5137 11.6064 16.417 11.8174 16.2236 11.8877C16.0215 11.9668 15.8105 11.8613 15.6963 11.5449L15.3711 10.6484C15.0107 9.65527 14.2549 9.37402 13.4814 9.65527C13.1299 9.77832 12.998 10.0156 13.1123 10.3232L13.8066 12.2305C13.9209 12.5469 13.8242 12.7578 13.6396 12.8281C13.4375 12.9072 13.2266 12.8018 13.1123 12.4854L10.8096 6.16602C10.5723 5.52441 9.99219 5.24316 9.43848 5.44531C8.84082 5.66504 8.58594 6.24512 8.82324 6.89551L12.1631 16.0713C12.2422 16.2822 12.1543 16.4404 12.0137 16.4932C11.8906 16.5371 11.7588 16.502 11.5918 16.3262L9.35059 13.918C8.99902 13.54 8.62109 13.417 8.19043 13.5752C7.5752 13.7949 7.32031 14.3574 7.51367 14.8848C7.59277 15.0869 7.68945 15.2451 7.79492 15.3682L10.6865 18.9717C13.1123 21.9863 15.8896 22.5928 18.6582 21.582Z" fill="black"/>
</svg>
