<svg width="28" height="28" viewBox="0 0 28 28" fill="none" xmlns="http://www.w3.org/2000/svg">
<path d="M19.3506 21.2446C22.6005 19.0519 23.284 15.4952 20.8914 11.9507L19.726 10.2117C18.5647 8.48961 17.0265 8.02036 15.5968 8.93688C15.041 8.52248 14.3398 8.50645 13.7039 8.93605C13.4948 9.07855 13.3197 9.24883 13.1681 9.44042C12.557 8.98542 11.8151 8.95232 11.1728 9.39257C11.0257 9.49251 10.8912 9.6074 10.7822 9.75221L9.2914 7.54147C8.61721 6.54067 7.51327 6.3258 6.57443 6.95742C5.62055 7.60183 5.39925 8.71635 6.0649 9.71926L9.9653 15.5064C9.99298 15.5449 9.99291 15.5811 9.95454 15.6087C9.93104 15.6236 9.9033 15.6214 9.87141 15.6022L8.8003 14.8992C8.1677 14.5401 7.53462 14.5434 6.999 14.9028C6.20733 15.4344 5.89249 16.3911 6.47737 17.2511C6.63897 17.5007 6.89648 17.7719 7.16475 17.9769L10.9229 20.7475C13.8143 22.8731 16.6726 23.0416 19.3506 21.2446ZM18.5575 19.9835C16.4919 21.3659 14.3047 21.42 11.7666 19.5871L7.9957 16.874C7.89562 16.7993 7.82325 16.7267 7.7424 16.6199C7.59569 16.3938 7.63025 16.0954 7.89275 15.9124C8.11044 15.7679 8.32774 15.8044 8.56629 15.9626L11.1027 17.4971C11.5286 17.7535 11.8633 17.7157 12.1429 17.5285C12.4757 17.3009 12.5574 16.8641 12.298 16.4757L7.17467 8.86407C6.98758 8.58452 7.05201 8.26061 7.31446 8.0777C7.58757 7.9012 7.90302 7.96777 8.09011 8.24731L11.6928 13.6013C11.8927 13.8958 12.287 13.9518 12.5837 13.7604C12.8611 13.5647 12.9469 13.1811 12.7555 12.8845L11.4795 10.9918C11.5564 10.864 11.6845 10.7235 11.8168 10.6363C12.1348 10.4215 12.48 10.4988 12.7011 10.8423L13.8624 12.5644C14.0644 12.8674 14.4565 12.9149 14.7425 12.7172C15.022 12.53 15.1185 12.1528 14.9186 11.8583L14.0169 10.5246C14.1023 10.3947 14.2326 10.2628 14.3563 10.1777C14.6829 9.96079 15.0195 10.0402 15.2471 10.3731L16.0212 11.5211C16.2233 11.8241 16.6239 11.8695 16.912 11.6803C17.1915 11.4931 17.2859 11.1074 17.0839 10.8045L16.5841 10.0682C17.1731 9.66836 17.8972 10.0318 18.5885 11.0647L19.6348 12.616C21.5978 15.5245 21.1481 18.2354 18.5575 19.9835Z" fill="black"/>
<path d="M19.4294 4.79242C18.3475 4.33264 17.1996 4.09949 16.0177 4.09949C14.0827 4.09961 12.1228 4.73083 10.35 5.92493L10.3334 5.9361L11.0545 7.0061L11.0711 6.99493C12.6285 5.94543 14.3399 5.39075 16.0204 5.39081C17.0294 5.39087 18.0063 5.58899 18.9239 5.97968C19.0042 6.01355 19.0887 6.0307 19.1753 6.0307C19.435 6.0307 19.6686 5.87689 19.7704 5.63879C19.9094 5.31183 19.7565 4.93219 19.4294 4.79242Z" fill="black"/>
</svg>
