<svg width="28" height="28" viewBox="0 0 28 28" fill="none" xmlns="http://www.w3.org/2000/svg">
<path d="M18.6758 10.9824C18.7285 7.5371 15.9248 4.95312 11.6006 4.91796L10.335 4.90917C9.14844 4.90038 8.25195 4.98828 7.72461 5.12011C6.94238 5.32226 6.23926 5.80566 6.23926 6.70214C6.23926 7.04492 6.32715 7.2998 6.44141 7.51074C6.50293 7.60742 6.49414 7.69531 6.39746 7.73925C5.80859 8.00292 5.35156 8.55663 5.35156 9.28613C5.35156 9.69921 5.46582 10.0684 5.65918 10.3408C5.74707 10.4551 5.73828 10.5605 5.58887 10.6484C5.17578 10.9121 4.88574 11.4482 4.88574 12.0547C4.88574 12.4941 5.01758 12.9512 5.26367 13.1885C5.38672 13.3115 5.36914 13.3906 5.22852 13.5049C4.93848 13.7598 4.7627 14.1992 4.7627 14.7178C4.7627 15.6582 5.49219 16.4141 6.4502 16.4141H9.71973C10.5107 16.4141 11.0293 16.8184 11.0293 17.4512C11.0293 18.6816 9.47363 20.9668 9.47363 22.6191C9.47363 23.5156 10.0537 24.0605 10.8271 24.0605C11.4951 24.0605 11.8555 23.6123 12.2422 22.8652C13.6133 20.1934 15.4502 18.0137 16.8564 16.1504C18.0693 14.542 18.6406 13.1621 18.6758 10.9824ZM23.2373 10.9121C23.2373 8.10839 21.4971 5.79687 19.168 5.79687H17.5947C19.2295 7.03613 20.0029 8.89062 19.9678 11.0088C19.9326 13.2939 19.1152 14.9375 18.2539 16.0713H19.5107C21.6289 16.0713 23.2373 13.8125 23.2373 10.9121Z" fill="black"/>
</svg>
