<svg width="28" height="28" viewBox="0 0 28 28" fill="none" xmlns="http://www.w3.org/2000/svg">
<path d="M19.6689 21.582C23.3691 20.2373 24.626 17.1611 23.1846 13.2148L22.5869 11.5713C22.0508 10.0859 20.9873 9.40039 20.1348 9.70801C19.9326 9.78711 19.8535 9.94531 19.9238 10.1387L20.1875 10.8506C20.3018 11.167 20.2051 11.3779 20.0205 11.4482C19.8184 11.5273 19.5986 11.4219 19.4844 11.1055L19.3174 10.6396C18.9922 9.75195 18.2012 9.36523 17.4189 9.64648C17.0498 9.77832 16.9355 10.0068 17.0498 10.3232L17.4014 11.29C17.5244 11.6064 17.4277 11.8174 17.2344 11.8877C17.0322 11.9668 16.8213 11.8613 16.707 11.5449L16.3818 10.6484C16.0215 9.65527 15.2656 9.37402 14.4922 9.65527C14.1406 9.77832 14.0176 10.0156 14.123 10.3232L14.8174 12.2305C14.9316 12.5469 14.835 12.7578 14.6504 12.8281C14.4482 12.9072 14.2373 12.8018 14.123 12.4853L11.8203 6.16601C11.583 5.52441 11.0029 5.24316 10.4492 5.44531C9.85156 5.66504 9.59668 6.24512 9.83398 6.89551L13.1738 16.0713C13.2529 16.2822 13.165 16.4404 13.0332 16.4932C12.9014 16.5371 12.7695 16.502 12.6113 16.3262L10.3613 13.918C10.0098 13.54 9.63184 13.417 9.20117 13.5752C8.59473 13.7949 8.33984 14.3574 8.5332 14.8848C8.60352 15.0869 8.7002 15.2451 8.80566 15.3682L11.7061 18.9717C14.123 21.9863 16.9004 22.5928 19.6689 21.582ZM8.55957 7.12402C5.93164 8.72363 4.22656 11.6855 4.22656 15.2978C4.22656 15.6582 4.53418 15.9658 4.86816 15.957C5.21973 15.9482 5.47461 15.6758 5.4834 15.3242C5.5625 12.2041 6.88086 9.75195 9.00781 8.3457L8.55957 7.12402Z" fill="black"/>
</svg>
