<svg width="28" height="28" viewBox="0 0 28 28" fill="none" xmlns="http://www.w3.org/2000/svg">
<path d="M13.9395 10.6381L22.2219 16.5112C22.5055 16.709 22.5334 16.9934 22.3026 17.3105C21.8083 18.012 20.9845 18.2211 20.0764 17.5772L14.4615 13.5939C14.1804 13.4037 13.9469 13.437 13.8257 13.6171C13.7139 13.7799 13.7543 14.0084 14.0284 14.2036L19.7632 18.2692C20.0322 18.4571 20.0587 18.7272 19.8397 19.0284C19.3708 19.6948 18.5893 19.8936 17.7278 19.2819L12.8717 15.8375C12.5905 15.6473 12.357 15.6806 12.2358 15.8607C12.124 16.0235 12.1645 16.252 12.4385 16.4472L17.3564 19.9344C17.6303 20.1296 17.6664 20.3824 17.4378 20.7009C16.9546 21.3773 16.084 21.5093 15.3116 20.9644L10.8305 17.7841C10.5565 17.5889 10.3231 17.6223 10.2018 17.8023C10.0829 17.9701 10.1234 18.1985 10.3973 18.3937L15.0978 21.7214C15.2657 21.8404 15.2979 22.0105 15.1694 22.1956C14.6506 22.9286 13.386 22.9699 12.0927 22.0585L6.58752 18.1548C4.4892 16.6652 3.40771 14.8697 3.40771 12.9645C3.40771 10.0458 6.12067 6.45441 10.0259 6.45441C10.3228 6.45441 10.4463 6.61877 10.1836 6.80505L8.40021 8.0697C7.48761 8.73267 7.15704 9.61401 7.29504 10.459C7.39648 11.0798 7.7525 11.6356 8.29755 12.024C9.04309 12.5659 10.0019 12.6303 10.936 12.0635L13.287 10.6381C13.5156 10.4996 13.721 10.4832 13.9395 10.6381Z" fill="black"/>
<path d="M23.9465 15.4371L23.9422 15.445C23.7598 15.7813 23.3524 15.7194 22.9655 15.445L14.6913 9.57764C13.8802 9.00244 13.213 9.16266 12.6128 9.52649L10.2615 10.952C9.40876 11.4691 8.68677 10.8575 8.58191 10.2595C8.49964 9.78857 8.77662 9.40314 9.16321 9.12213C9.09075 9.17352 10.1999 8.38702 11.1374 7.72222L12.384 6.8382C12.7361 6.5885 13.1571 6.45441 13.5887 6.45441H17.9767C21.9616 6.45441 24.5923 10.0848 24.5923 12.9584C24.5923 14.2472 24.0803 15.1906 23.9465 15.4371Z" fill="black"/>
<path d="M24.2734 7.82739H23.7632C25.0946 9.29907 25.8924 11.1809 25.8924 12.9645C25.8924 14.8425 25.0621 16.5914 23.4976 18.1017H23.9307C26.2598 18.1017 28 15.7902 28 12.9865C28 10.0861 26.3828 7.82739 24.2734 7.82739Z" fill="black"/>
<path d="M3.72656 7.82739H4.23682C2.9054 9.29907 2.1076 11.1809 2.1076 12.9645C2.1076 14.8425 2.93793 16.5914 4.50244 18.1017H4.06934C1.74023 18.1017 0 15.7902 0 12.9865C0 10.0861 1.61719 7.82739 3.72656 7.82739Z" fill="black"/>
</svg>
