<svg width="28" height="28" viewBox="0 0 28 28" fill="none" xmlns="http://www.w3.org/2000/svg">
<path d="M10.001 2.03516C7.4082 2.03516 5.30762 4.13574 5.30762 6.71973C5.30762 7.77441 5.67676 8.81152 6.2832 9.59375C6.4502 9.83105 6.66992 9.91895 6.88086 9.91895C7.39941 9.91895 7.8125 9.32129 7.4082 8.80273C6.95117 8.24023 6.67871 7.50195 6.67871 6.71973C6.67871 4.8916 8.16406 3.40625 10.001 3.40625C11.7676 3.40625 13.2178 4.80371 13.2881 6.56152C13.2881 6.61426 13.2969 6.66699 13.2969 6.74609C13.332 7.15918 13.6045 7.37891 13.9473 7.37891C14.3164 7.37891 14.624 7.13281 14.6504 6.76367C14.6592 6.68457 14.6504 6.5791 14.6416 6.46484C14.5273 3.97754 12.4707 2.03516 10.001 2.03516ZM18.3857 22.0127C22.0771 20.668 23.5889 17.3809 22.1299 13.3643L21.4092 11.3955C20.6973 9.44434 19.3262 8.61816 17.709 9.16309C17.2695 8.62695 16.5928 8.44238 15.8809 8.70605C15.6436 8.79395 15.4326 8.91699 15.2393 9.06641C14.7471 8.47754 14.0439 8.2666 13.3057 8.53906C13.1475 8.60059 12.9893 8.67969 12.8398 8.79395L11.9346 6.28906C11.5215 5.15527 10.502 4.68066 9.42969 5.06738C8.34863 5.46289 7.86523 6.49121 8.27832 7.625L10.6689 14.1816C10.6777 14.2256 10.6689 14.2607 10.6338 14.2783C10.5986 14.2871 10.5723 14.2783 10.5459 14.252L9.67578 13.3115C9.15723 12.8105 8.5332 12.6611 7.93555 12.8809C7.03906 13.2061 6.50293 14.0586 6.85449 15.0342C6.95117 15.3154 7.13574 15.6406 7.35547 15.9043L10.335 19.499C12.6289 22.2588 15.3623 23.1113 18.3857 22.0127ZM17.9199 20.5977C15.5908 21.4414 13.4463 20.9668 11.4248 18.5762L8.42773 15.0342C8.33984 14.9375 8.28711 14.8496 8.24316 14.7266C8.14648 14.4717 8.25195 14.1904 8.55957 14.0762C8.79688 13.9883 8.99902 14.0762 9.19238 14.2871L11.293 16.3877C11.6445 16.7393 11.9697 16.7832 12.2861 16.6689C12.6729 16.5283 12.8574 16.124 12.6992 15.6846L9.56152 7.0625C9.44727 6.74609 9.5791 6.44727 9.88672 6.33301C10.1855 6.22754 10.4756 6.36816 10.5898 6.68457L12.8047 12.749C12.9189 13.083 13.2969 13.2324 13.6221 13.1182C13.9473 12.9951 14.123 12.6436 14 12.3096L13.2178 10.165C13.332 10.0596 13.4814 9.9541 13.6309 9.90137C14 9.76953 14.3076 9.92773 14.4482 10.3145L15.1602 12.2656C15.2832 12.6084 15.6523 12.749 15.9688 12.626C16.2852 12.5117 16.4697 12.1689 16.3467 11.835L15.8018 10.3232C15.9072 10.2178 16.0654 10.1211 16.2148 10.0684C16.5752 9.93652 16.8916 10.0947 17.0322 10.4727L17.498 11.7734C17.6299 12.1162 17.999 12.2568 18.3242 12.1426C18.6406 12.0283 18.834 11.6768 18.7021 11.334L18.4033 10.499C19.0713 10.2529 19.6777 10.7803 20.1084 11.9492L20.75 13.707C21.9453 17.0029 20.8555 19.5254 17.9199 20.5977Z" fill="black"/>
</svg>
