<svg width="28" height="28" viewBox="0 0 28 28" fill="none" xmlns="http://www.w3.org/2000/svg">
<path d="M23.5098 10.9385C23.5098 7.85352 21.5322 5.31348 19.001 5.31348H16.1094C14.9229 4.71582 13.5166 4.36426 11.9697 4.36426H10.7393C9.59668 4.36426 8.62988 4.42578 7.99707 4.59277C6.70508 4.90039 5.89648 5.81445 5.89648 6.96582C5.89648 7.16797 5.93164 7.36133 5.98438 7.55469C5.38672 8.02051 5.03516 8.70605 5.03516 9.46191C5.03516 9.81348 5.10547 10.1562 5.22852 10.4463C4.82422 10.877 4.5957 11.4922 4.5957 12.1338C4.5957 12.5645 4.69238 12.9863 4.87695 13.3203C4.62207 13.6895 4.48145 14.1904 4.48145 14.7441C4.48145 16.1328 5.54492 17.2227 6.93359 17.2227H10.2119C10.3965 17.2227 10.5195 17.3018 10.5107 17.4688C10.4668 18.3828 9.04297 20.5625 9.04297 22.3467C9.04297 23.6562 9.95703 24.6055 11.2139 24.6055C12.1367 24.6055 12.7695 24.1221 13.3672 22.9795C14.4658 20.8701 15.7842 19.0244 17.7617 16.5986H19.335C21.6992 16.5986 23.5098 14.0762 23.5098 10.9385ZM18.0693 11.0088C18.0693 12.8809 17.6562 14.0674 16.4609 15.667C15.1338 17.4424 13.2881 19.5869 11.9609 22.2324C11.6709 22.8037 11.4775 22.9355 11.1963 22.9355C10.8535 22.9355 10.6338 22.6982 10.6338 22.2676C10.6338 20.9492 12.1279 18.7695 12.1279 17.3457C12.1279 16.291 11.2754 15.623 10.1328 15.623H6.96875C6.45898 15.623 6.07227 15.2363 6.07227 14.7178C6.07227 14.3486 6.19531 14.1113 6.50293 13.8037C6.72266 13.584 6.75781 13.2676 6.55566 13.0391C6.30078 12.6787 6.19531 12.4414 6.19531 12.1338C6.19531 11.7734 6.3623 11.457 6.72266 11.1934C7.0127 10.9824 7.11816 10.6396 6.95117 10.2969C6.75781 9.93652 6.66113 9.75195 6.66113 9.4707C6.66113 9.04883 6.93359 8.72363 7.49609 8.4248C7.76855 8.27539 7.84766 7.97656 7.7334 7.7041C7.54004 7.24707 7.51367 7.16797 7.51367 6.96582C7.51367 6.58789 7.79492 6.28027 8.39258 6.13086C8.91113 6.00781 9.7373 5.94629 10.8184 5.95508L11.9521 5.97266C15.5996 5.99902 18.0693 8.04688 18.0693 11.0088ZM21.9365 10.9385C21.9365 13.1709 20.7852 14.9639 19.4668 15.0166C19.2295 15.0166 18.9922 15.0254 18.7637 15.0254C19.3965 13.8037 19.6689 12.5293 19.6689 11.0088C19.6689 9.3916 19.0977 7.96777 18.0781 6.86035C18.4033 6.86035 18.7549 6.86035 19.0889 6.86035C20.627 6.91309 21.9365 8.73242 21.9365 10.9385Z" fill="black"/>
</svg>
