<svg width="28" height="28" viewBox="0 0 28 28" fill="none" xmlns="http://www.w3.org/2000/svg">
<path d="M14 5.30176C10.134 5.30176 7 8.43579 7 12.3018C7 16.2797 10.7159 19.3484 12.8794 22.6865C13.187 23.1611 13.5737 23.3984 14.0044 23.3984C14.4263 23.3984 14.813 23.1611 15.1206 22.6865C17.2841 19.3484 21 16.2797 21 12.3018C21 8.43579 17.866 5.30176 14 5.30176ZM14.0088 15.7559C12.0928 15.7559 10.5459 14.209 10.5459 12.293C10.5459 10.3946 12.0928 8.84766 14.0088 8.84766C15.9072 8.84766 17.4541 10.3946 17.4541 12.293C17.4541 14.209 15.9072 15.7559 14.0088 15.7559Z" fill="black"/>
</svg>
