<svg width="28" height="28" viewBox="0 0 28 28" fill="none" xmlns="http://www.w3.org/2000/svg">
<path d="M14.0088 8.84766C12.0928 8.84766 10.5459 10.3946 10.5459 12.293C10.5459 14.209 12.0928 15.7559 14.0088 15.7559C15.9072 15.7559 17.4541 14.209 17.4541 12.293C17.4541 10.3946 15.9072 8.84766 14.0088 8.84766Z" fill="black"/>
<path d="M14 5.30182C10.134 5.30182 7 8.43579 7 12.3018C7 16.2161 10.5192 19.3154 12.6773 22.5811C13.02 23.0996 13.4243 23.3984 14.0045 23.3984C14.5757 23.3984 14.98 23.0996 15.3228 22.5811C17.4814 19.3157 21 16.2161 21 12.3018C21 8.43579 17.866 5.30182 14 5.30182ZM14.0001 21.3223C13.4347 20.4939 12.8036 19.6863 12.1914 18.9028C10.4473 16.6708 8.79999 14.5627 8.79999 12.3018C8.79999 9.43451 11.1328 7.10181 14 7.10181C16.8673 7.10181 19.2 9.43451 19.2 12.3018C19.2 14.5633 17.5522 16.6719 15.8078 18.9044C15.1959 19.6874 14.5652 20.4945 14.0001 21.3223Z" fill="black"/>
</svg>
