<svg width="28" height="28" viewBox="0 0 28 28" fill="none" xmlns="http://www.w3.org/2000/svg">
<path fill-rule="evenodd" clip-rule="evenodd" d="M12.2554 10.4316H7.56201C6.74463 10.4316 6.34033 10.8271 6.34033 11.6269V16.373C6.34033 17.1816 6.74463 17.5771 7.56201 17.5771H12.2554C13.0903 17.5771 13.4858 17.1728 13.4858 16.373V11.6269C13.4858 10.8271 13.0903 10.4316 12.2554 10.4316ZM9.91748 11.8027C10.6558 11.8027 11.2446 12.4355 11.2446 13.2178C11.2446 14.0439 10.6558 14.6767 9.91748 14.6767C9.17041 14.6767 8.58154 14.0439 8.58154 13.2178C8.58154 12.4355 9.17041 11.8027 9.91748 11.8027ZM7.36865 16.7246C7.64111 15.9687 8.59912 15.3008 9.91748 15.3008C11.2358 15.3008 12.1851 15.9687 12.4575 16.7246H7.36865Z" fill="black"/>
<path fill-rule="evenodd" clip-rule="evenodd" d="M15.7358 10.4316H20.4292C21.2642 10.4316 21.6597 10.8271 21.6597 11.6269V16.373C21.6597 17.1728 21.2642 17.5771 20.4292 17.5771H15.7358C14.9185 17.5771 14.5142 17.1816 14.5142 16.373V11.6269C14.5142 10.8271 14.9185 10.4316 15.7358 10.4316ZM19.4185 13.2178C19.4185 12.4355 18.8296 11.8027 18.0913 11.8027C17.3442 11.8027 16.7554 12.4355 16.7554 13.2178C16.7554 14.0439 17.3442 14.6767 18.0913 14.6767C18.8296 14.6767 19.4185 14.0439 19.4185 13.2178ZM18.0913 15.3008C16.7729 15.3008 15.8149 15.9687 15.5425 16.7246H20.6313C20.3589 15.9687 19.4097 15.3008 18.0913 15.3008Z" fill="black"/>
<path fill-rule="evenodd" clip-rule="evenodd" d="M21.5278 5.7998H6.47217C4.57373 5.7998 3.58936 6.7666 3.58936 8.64746V19.3525C3.58936 21.2246 4.57373 22.2002 6.47217 22.2002H21.5278C23.4263 22.2002 24.4106 21.2246 24.4106 19.3525V8.64746C24.4106 6.77539 23.4263 5.7998 21.5278 5.7998ZM22.688 19.2031C22.688 20.0557 22.231 20.4775 21.4224 20.4775H6.57764C5.76025 20.4775 5.31201 20.0557 5.31201 19.2031V8.79688C5.31201 7.94434 5.76025 7.51367 6.57764 7.51367H21.4224C22.231 7.51367 22.688 7.94434 22.688 8.79688V19.2031Z" fill="black"/>
</svg>
