<svg width="28" height="28" viewBox="0 0 28 28" fill="none" xmlns="http://www.w3.org/2000/svg">
<path d="M21.6244 5.7998H6.37549C4.53857 5.7998 3.58936 6.74023 3.58936 8.55957V19.4405C3.58936 21.251 4.53857 22.2002 6.37549 22.2002H21.6244C23.4526 22.2002 24.4106 21.251 24.4106 19.4405V8.55957C24.4106 6.74902 23.4526 5.7998 21.6244 5.7998ZM14.007 9.60114C15.4837 9.60114 16.6438 10.8755 16.6438 12.4223C16.6438 14.0571 15.4923 15.314 14.007 15.2964C12.5393 15.2788 11.3878 14.0571 11.3792 12.4223C11.3792 10.8755 12.5393 9.60114 14.007 9.60114ZM8.76663 20.5391C9.00668 18.2507 11.2426 16.5181 14.007 16.5181C16.7819 16.5181 19.0158 18.2507 19.2564 20.5391H8.76663Z" fill="black"/>
</svg>
