<svg width="28" height="28" viewBox="0 0 28 28" fill="none" xmlns="http://www.w3.org/2000/svg">
<path d="M11.293 12.4883C11.2842 10.8887 12.4883 9.57031 14.0001 9.57031C15.5206 9.57031 16.7159 10.8887 16.7159 12.4883C16.7159 14.167 15.5294 15.4678 14.0001 15.4502C12.4795 15.4326 11.293 14.167 11.293 12.4883Z" fill="black"/>
<path fill-rule="evenodd" clip-rule="evenodd" d="M6.47217 5.7998H21.5278C23.4175 5.7998 24.4106 6.77539 24.4106 8.65625V19.3438C24.4106 21.2158 23.4175 22.2002 21.5278 22.2002H6.47217C4.57379 22.2002 3.58936 21.2245 3.58936 19.3438V8.65625C3.58936 6.77539 4.57379 5.7998 6.47217 5.7998ZM21.4224 20.4776C22.231 20.4776 22.688 20.0469 22.688 19.1944V8.79681C22.688 7.94434 22.231 7.5224 21.4224 7.5224H6.57764C5.76025 7.5224 5.31207 7.94434 5.31207 8.79681V19.1944C5.31207 20.0469 5.76025 20.4776 6.57764 20.4776H8.6412C9.10886 18.2864 11.3101 16.7158 14 16.7158C16.6999 16.7158 18.8997 18.2864 19.354 20.4776H21.4224Z" fill="black"/>
</svg>
