<svg width="28" height="28" viewBox="0 0 28 28" fill="none" xmlns="http://www.w3.org/2000/svg">
<path d="M9.70654 14.7207C10.4888 14.7207 11.1129 14.0439 11.1129 13.1738C11.1129 12.3476 10.4888 11.6709 9.70654 11.6709C8.91553 11.6709 8.30029 12.3476 8.30029 13.1738C8.30029 14.0439 8.91553 14.7207 9.70654 14.7207Z" fill="black"/>
<path d="M7.02588 16.8652C7.31592 16.0742 8.31793 15.3711 9.70654 15.3711C11.0864 15.3711 12.0972 16.0742 12.3873 16.8652H7.02588Z" fill="black"/>
<path d="M18.2935 14.7207C19.0757 14.7207 19.6997 14.0439 19.6997 13.1738C19.6997 12.3476 19.0757 11.6709 18.2935 11.6709C17.5024 11.6709 16.8872 12.3476 16.8872 13.1738C16.8872 14.0439 17.5024 14.7207 18.2935 14.7207Z" fill="black"/>
<path d="M15.6128 16.8652C15.9028 16.0742 16.9048 15.3711 18.2935 15.3711C19.6733 15.3711 20.6841 16.0742 20.9741 16.8652H15.6128Z" fill="black"/>
<path fill-rule="evenodd" clip-rule="evenodd" d="M21.5278 5.7998H6.47217C4.57379 5.7998 3.58936 6.7666 3.58936 8.64746V19.3525C3.58936 21.2246 4.57379 22.2002 6.47217 22.2002H21.5278C23.4263 22.2002 24.4106 21.2246 24.4106 19.3525V8.64746C24.4106 6.77539 23.4263 5.7998 21.5278 5.7998ZM13.4858 16.5049C13.4858 17.3574 13.0552 17.7793 12.1763 17.7793H7.21924C6.35797 17.7793 5.92725 17.3574 5.92725 16.5049V11.5039C5.92725 10.6514 6.35797 10.2207 7.21924 10.2207H12.1763C13.0552 10.2207 13.4858 10.6514 13.4858 11.5039V16.5049ZM22.0728 16.5049C22.0728 17.3574 21.6422 17.7793 20.7632 17.7793H15.8062C14.9448 17.7793 14.5142 17.3574 14.5142 16.5049V11.5039C14.5142 10.6514 14.9448 10.2207 15.8062 10.2207H20.7632C21.6422 10.2207 22.0728 10.6514 22.0728 11.5039V16.5049Z" fill="black"/>
</svg>
