<svg width="28" height="28" viewBox="0 0 28 28" fill="none" xmlns="http://www.w3.org/2000/svg">
<path d="M10.2646 17.6885C7.67188 15.0957 5.70312 11.9844 5.70312 9.41797C5.70312 8.27539 6.08984 7.25586 6.95996 6.42969C7.4873 5.92871 8.08496 5.66504 8.67383 5.66504C9.1748 5.66504 9.64062 5.8584 9.95703 6.30664L11.8555 8.97852C12.1631 9.40918 12.3037 9.76074 12.3037 10.0771C12.3037 10.4902 12.0664 10.8506 11.6621 11.2637L11.0381 11.9053C10.9326 12.002 10.8975 12.125 10.8975 12.2393C10.8975 12.3711 10.9502 12.5029 11.0029 12.5996C11.293 13.1533 12.1104 14.0938 12.9805 14.9727C13.8594 15.8428 14.8086 16.6602 15.3535 16.959C15.4502 17.0029 15.582 17.0557 15.7227 17.0557C15.8369 17.0557 15.96 17.0205 16.0566 16.9238L16.6982 16.291C17.1025 15.8867 17.4629 15.6582 17.876 15.6582C18.1924 15.6582 18.5527 15.7988 18.9746 16.0977L21.6729 18.0137C22.1211 18.3301 22.2969 18.7783 22.2969 19.2441C22.2969 19.8506 22.0068 20.457 21.541 20.9844C20.7324 21.8809 19.7217 22.2764 18.5703 22.2764C16.0039 22.2764 12.8574 20.2812 10.2646 17.6885Z" fill="black"/>
</svg>
