<svg width="28" height="28" viewBox="0 0 28 28" fill="none" xmlns="http://www.w3.org/2000/svg">
<path d="M5.78223 18.5938C3.88379 18.5938 2.89941 17.6182 2.89941 15.7461V7.39648C2.89941 5.51562 3.88379 4.54004 5.78223 4.54004H17.7793C19.6689 4.54004 20.6621 5.51562 20.6621 7.39648V8.71484H22.2178C24.1162 8.71484 25.1006 9.69043 25.1006 11.5713V19.9209C25.1006 21.793 24.1162 22.7686 22.2178 22.7686H10.2207C8.32227 22.7686 7.33789 21.8018 7.33789 19.9209V18.5938H5.78223ZM5.8877 16.8711H7.33789V11.5713C7.33789 9.69043 8.32227 8.71484 10.2207 8.71484H18.9395V7.53711C18.9395 6.68457 18.4824 6.2627 17.6738 6.2627H5.8877C5.07031 6.2627 4.62207 6.68457 4.62207 7.53711V15.5967C4.62207 16.4492 5.07031 16.8711 5.8877 16.8711ZM10.3262 21.0547H22.1123C22.9209 21.0547 23.3779 20.624 23.3779 19.7715V11.7207C23.3779 10.8682 22.9209 10.4375 22.1123 10.4375H10.3262C9.50879 10.4375 9.06055 10.8682 9.06055 11.7207V19.7715C9.06055 20.624 9.50879 21.0547 10.3262 21.0547ZM13.8154 18.7783V12.7139C13.8154 12.3096 14.2461 12.1514 14.5801 12.3447L19.6777 15.333C19.9941 15.5264 20.0029 15.9658 19.6865 16.1592L14.5801 19.1475C14.2461 19.3408 13.8154 19.1738 13.8154 18.7783Z" fill="black"/>
</svg>
