<svg width="28" height="28" viewBox="0 0 28 28" fill="none" xmlns="http://www.w3.org/2000/svg">
<path d="M10.2207 7.43164C7.61914 7.43164 6.05469 8.97852 6.05469 11.5713V18.5938H5.73828C3.86621 18.5762 2.89941 17.6094 2.89941 15.7461V7.39648C2.89941 5.51562 3.88379 4.54004 5.78223 4.54004H17.7793C19.6426 4.54004 20.627 5.48926 20.6533 7.31738V7.43164H10.2207ZM10.2207 22.7686C8.32227 22.7686 7.33789 21.8018 7.33789 19.9209V11.5713C7.33789 9.69043 8.32227 8.71484 10.2207 8.71484H22.2178C24.1162 8.71484 25.1006 9.69043 25.1006 11.5713V19.9209C25.1006 21.793 24.1162 22.7686 22.2178 22.7686H10.2207ZM13.7012 18.8926C13.7012 19.3057 14.1494 19.4814 14.4922 19.2793L19.792 16.1768C20.126 15.9746 20.1172 15.5176 19.7832 15.3242L14.4922 12.2129C14.1494 12.002 13.7012 12.1777 13.7012 12.5996V18.8926Z" fill="black"/>
</svg>
