<svg width="28" height="28" viewBox="0 0 28 28" fill="none" xmlns="http://www.w3.org/2000/svg">
<path d="M21.5278 5.7998H6.47217C4.57373 5.7998 3.58936 6.7666 3.58936 8.64746V19.3525C3.58936 21.2246 4.57373 22.2002 6.47217 22.2002H21.5278C23.4263 22.2002 24.4106 21.2246 24.4106 19.3525V8.64746C24.4106 6.77539 23.4263 5.7998 21.5278 5.7998ZM21.396 17.3164C21.396 17.6943 21.1499 17.9404 20.7632 17.9404H7.23682C6.8501 17.9404 6.604 17.6943 6.604 17.3164V15.8838C6.604 15.5059 6.8501 15.2686 7.23682 15.2686H20.7632C21.1499 15.2686 21.396 15.5059 21.396 15.8838V17.3164ZM21.396 12.0986C21.396 12.4765 21.1499 12.7226 20.7632 12.7226H7.23682C6.8501 12.7226 6.604 12.4765 6.604 12.0986V10.666C6.604 10.288 6.8501 10.0507 7.23682 10.0507H20.7632C21.1499 10.0507 21.396 10.288 21.396 10.666V12.0986Z" fill="black"/>
</svg>
