<svg width="28" height="28" viewBox="0 0 28 28" fill="none" xmlns="http://www.w3.org/2000/svg">
<path d="M13.7979 17.1348C13.6133 17.4248 13.3408 17.583 13.0156 17.583C12.6904 17.583 12.4355 17.4424 12.1982 17.1436L10.124 14.6211C9.97461 14.4277 9.89551 14.2344 9.89551 14.0234C9.89551 13.584 10.2383 13.2324 10.6777 13.2324C10.9326 13.2324 11.1436 13.3291 11.3545 13.6016L12.9893 15.667L16.4873 10.0859C16.6719 9.78711 16.9092 9.6377 17.1729 9.6377C17.5947 9.6377 17.9814 9.92773 17.9814 10.3672C17.9814 10.5693 17.8848 10.7803 17.7617 10.9648L13.7979 17.1348Z" fill="black"/>
<path fill-rule="evenodd" clip-rule="evenodd" d="M10.5721 21.3447H8.69129C7.06531 21.3447 6.30945 20.5801 6.30945 18.9629V17.082C6.30945 16.915 6.26551 16.792 6.14246 16.6689L4.81531 15.333C3.67273 14.1904 3.66394 13.1182 4.81531 11.9756L6.14246 10.6397C6.26551 10.5078 6.30945 10.3936 6.30945 10.2178V8.33692C6.30945 6.71094 7.06531 5.96387 8.69129 5.96387H10.5721C10.7391 5.96387 10.8622 5.91114 10.9852 5.78809L12.3212 4.46094C13.4725 3.31836 14.536 3.30957 15.6786 4.46094L17.0145 5.78809C17.1376 5.91114 17.2606 5.96387 17.4276 5.96387H19.3085C20.9345 5.96387 21.6903 6.72852 21.6903 8.33692V10.2178C21.6903 10.3936 21.7343 10.5078 21.8573 10.6397L23.1845 11.9756C24.327 13.1182 24.3358 14.1904 23.1845 15.333L21.8573 16.6689C21.743 16.792 21.6903 16.915 21.6903 17.082V18.9629C21.6903 20.5801 20.9257 21.3447 19.3085 21.3447H17.4276C17.2606 21.3447 17.1376 21.3887 17.0145 21.5117L15.6786 22.8389C14.536 23.9814 13.4637 23.9902 12.3212 22.8389L10.9852 21.5117C10.8622 21.3887 10.7391 21.3447 10.5721 21.3447ZM7.90906 18.8486C7.90906 19.6221 8.03211 19.7451 8.80555 19.7451H11.1083C11.3632 19.7451 11.5653 19.8154 11.7499 20.0176L13.3671 21.6348C13.9208 22.1885 14.079 22.1885 14.6327 21.6348L16.2499 20.0176C16.4345 19.8154 16.6366 19.7451 16.9003 19.7451H19.1942C19.9677 19.7451 20.0907 19.6221 20.0907 18.8486L20.0995 16.5459C20.0995 16.2822 20.1786 16.0889 20.3632 15.9043L21.9804 14.2871C22.5341 13.7334 22.5341 13.5752 21.9804 13.0215L20.3632 11.4043C20.1786 11.2197 20.0995 11.0176 20.0907 10.7539V8.45996C20.0907 7.68653 19.9677 7.56348 19.1942 7.56348L16.9003 7.55469C16.6366 7.55469 16.4345 7.48438 16.2499 7.29102L14.6327 5.67383C14.079 5.12012 13.9208 5.12012 13.3671 5.67383L11.7499 7.29102C11.5653 7.48438 11.3632 7.55469 11.1083 7.55469L8.80555 7.56348C8.02332 7.56348 7.90906 7.66895 7.90906 8.45996V10.7539C7.90906 11.0176 7.82117 11.2197 7.6366 11.4043L6.01941 13.0215C5.4657 13.5752 5.4657 13.7334 6.01941 14.2871L7.6366 15.9043C7.82117 16.0889 7.90906 16.2822 7.90906 16.5459V18.8486Z" fill="black"/>
</svg>
