<svg width="28" height="28" viewBox="0 0 28 28" fill="none" xmlns="http://www.w3.org/2000/svg">
<path fill-rule="evenodd" clip-rule="evenodd" d="M10.5721 21.3447H8.69129C7.0741 21.3447 6.30945 20.5801 6.30945 18.9629V17.082C6.30945 16.9151 6.26551 16.792 6.14246 16.669L4.81531 15.333C3.67273 14.1904 3.66394 13.1182 4.81531 11.9756L6.14246 10.6397C6.26551 10.5166 6.30945 10.3936 6.30945 10.2266V8.34572C6.30945 6.71095 7.06531 5.96388 8.69129 5.96388H10.5721C10.7391 5.96388 10.8622 5.91115 10.9852 5.79689L12.3212 4.46974C13.4637 3.31837 14.536 3.30958 15.6786 4.46095L17.0145 5.79689C17.1376 5.91993 17.2606 5.96388 17.4364 5.96388H19.3173C20.9345 5.96388 21.6903 6.72853 21.6903 8.34572V10.2266C21.6903 10.3936 21.7343 10.5078 21.8661 10.6397L23.1932 11.9756C24.3358 13.1182 24.3446 14.1904 23.1932 15.333L21.8661 16.669C21.743 16.792 21.6903 16.9151 21.6903 17.082V18.9629C21.6903 20.5801 20.9257 21.3447 19.3173 21.3447H17.4364C17.2606 21.3447 17.1464 21.3887 17.0145 21.5117L15.6786 22.8389C14.536 23.9815 13.4637 23.9902 12.3212 22.8389L10.9852 21.5117C10.8622 21.3887 10.7391 21.3447 10.5721 21.3447ZM12.1279 17.2842C12.374 17.6006 12.6465 17.7412 12.9805 17.7412C13.3145 17.7412 13.5957 17.583 13.7979 17.2754L17.9199 10.877C18.043 10.6748 18.1484 10.4551 18.1484 10.2529C18.1484 9.78711 17.7354 9.47949 17.2959 9.47949C17.0146 9.47949 16.7686 9.6377 16.5752 9.94531L12.9541 15.7373L11.2666 13.6016C11.0381 13.3203 10.8271 13.2148 10.5459 13.2148C10.0977 13.2148 9.7373 13.584 9.7373 14.041C9.7373 14.2607 9.81641 14.4717 9.97461 14.6738L12.1279 17.2842Z" fill="black"/>
</svg>
