<svg width="28" height="28" viewBox="0 0 28 28" fill="none" xmlns="http://www.w3.org/2000/svg">
<path d="M18.509 15.7988V6.97461C18.509 6.31543 18.0168 5.78809 17.3489 5.78809C16.8918 5.78809 16.5754 5.99023 16.0833 6.43848L12.4182 9.69043L13.5432 10.8242L16.5579 8.08203C16.6018 8.04688 16.6458 8.02051 16.7073 8.02051C16.7688 8.02051 16.8215 8.06445 16.8215 8.14355V14.1113L18.509 15.7988ZM21.4358 22.3818C21.7083 22.6455 22.1565 22.6543 22.4202 22.3818C22.6926 22.1006 22.7014 21.6611 22.4202 21.3887L7.02173 5.99902C6.74927 5.72656 6.30103 5.71777 6.02856 5.99902C5.7561 6.2627 5.7561 6.71973 6.02856 6.9834L21.4358 22.3818ZM9.54419 17.416H12.0403C12.1106 17.416 12.1809 17.4336 12.2336 17.4863L16.092 20.9316C16.5491 21.3447 16.9006 21.5381 17.3665 21.5381C17.7795 21.5381 18.1311 21.3271 18.342 20.9844L16.8567 19.5078L13.0247 16.0449C12.8401 15.8779 12.717 15.8428 12.4797 15.8428H9.70239C9.41235 15.8428 9.27173 15.7021 9.27173 15.4121V11.9141L7.97095 10.6221C7.72485 10.9297 7.58423 11.3867 7.58423 11.9844V15.3594C7.58423 16.7393 8.2522 17.416 9.54419 17.416Z" fill="black"/>
</svg>
