<svg width="28" height="28" viewBox="0 0 28 28" fill="none" xmlns="http://www.w3.org/2000/svg">
<path d="M10.9 7.19999C11.1 7.19999 11.3 7.09999 11.5 6.99999L12.8 5.59999L13.3 4.99999L13.2 6.29999V15.2C13.2 15.6 13.6 16 14 16C14.4 16 14.8 15.6 14.8 15.2V6.29999L14.7 4.99999L15.1 5.49999L16.5 6.99999C16.6 7.19999 16.8 7.19999 17 7.19999C17.4 7.19999 17.7 6.89999 17.7 6.49999C17.7 6.29999 17.6 6.09999 17.5 5.99999L14.5 3.19999C14.3 2.99999 14.1 2.89999 13.9 2.89999C13.7 2.89999 13.5 2.99999 13.3 3.19999L10.3 5.99999C10.2 6.09999 10.1 6.29999 10.1 6.49999C10.2 6.89999 10.5 7.19999 10.9 7.19999Z" fill="black"/>
<path d="M19.1 8.59999H16.7V10.3H19C19.8 10.3 20.3 10.7 20.3 11.6V20C20.3 20.9 19.9 21.3 19 21.3H9C8.2 21.3 7.7 20.9 7.7 20V11.6C7.7 10.7 8.1 10.3 9 10.3H11.3V8.59999H8.9C7 8.59999 6 9.59999 6 11.4V20.1C6.1 22 7 23 8.9 23H19C20.9 23 21.9 22 21.9 20.2V11.5C21.9 9.59999 21 8.59999 19.1 8.59999Z" fill="black"/>
</svg>
