<svg width="28" height="28" viewBox="0 0 28 28" fill="none" xmlns="http://www.w3.org/2000/svg">
<path d="M8.67822 22.2046C6.77979 22.2046 5.79541 21.229 5.79541 19.3481V8.65186C5.79541 6.771 6.77979 5.79541 8.67822 5.79541H19.3218C21.2202 5.79541 22.2046 6.771 22.2046 8.65186V19.3481C22.2046 21.2202 21.2202 22.2046 19.3218 22.2046H8.67822ZM8.78369 20.4819H19.2163C20.0249 20.4819 20.4819 20.0513 20.4819 19.1987V8.79248C20.4819 7.93994 20.0249 7.51807 19.2163 7.51807H8.78369C7.96631 7.51807 7.51807 7.93994 7.51807 8.79248V19.1987C7.51807 20.0513 7.96631 20.4819 8.78369 20.4819Z" fill="black"/>
</svg>
