<svg width="361" height="226" viewBox="0 0 361 226" fill="none" xmlns="http://www.w3.org/2000/svg">
<rect width="115" height="200" rx="20" fill="#D9D9D9"/>
<rect width="115" height="64" transform="translate(0 68)" fill="white"/>
<rect width="115" height="64" transform="translate(0 68)" fill="#0080FF" fill-opacity="0.15"/>
<g clip-path="url(#clip0_816_12595)">
<path d="M56.9456 99.0533C41.2204 99.1702 32.2493 118.908 39.4498 132H73.2686L74.4463 132C81.6956 118.806 72.6902 99.3607 56.9456 99.0533Z" fill="#0080FF" fill-opacity="0.15"/>
<path d="M56.9599 77.1429C51.944 77.1429 47.823 81.472 47.8438 86.8209C47.8648 92.2531 51.923 96.6656 56.9599 96.6656C61.976 96.6656 66.0552 92.2323 66.0552 86.7793C66.0552 81.4304 61.9965 77.1429 56.9599 77.1429Z" fill="#0080FF" fill-opacity="0.15"/>
</g>
<rect x="37.5" y="8" width="40" height="10" rx="5" fill="white"/>
<path d="M30.2979 222.232C27.6182 222.232 25.9434 220.25 25.9434 217.078V217.064C25.9434 213.886 27.6113 211.903 30.291 211.903C32.3691 211.903 33.9893 213.209 34.2832 215.103L34.2764 215.116H33.0391L33.0322 215.103C32.7041 213.838 31.6514 213.038 30.291 213.038C28.3975 213.038 27.208 214.597 27.208 217.064V217.078C27.208 219.546 28.3975 221.098 30.2979 221.098C31.6719 221.098 32.7178 220.394 33.0254 219.259L33.0391 219.245H34.2832V219.259C33.9551 221.063 32.3965 222.232 30.2979 222.232ZM39.9846 222V214.631H45.9456V222H44.7561V215.615H41.1741V222H39.9846ZM51.1786 222.13C49.08 222.13 47.7812 220.681 47.7812 218.322V218.309C47.7812 215.943 49.08 214.501 51.1786 214.501C53.2773 214.501 54.5761 215.943 54.5761 218.309V218.322C54.5761 220.681 53.2773 222.13 51.1786 222.13ZM51.1786 221.077C52.5732 221.077 53.3593 220.059 53.3593 218.322V218.309C53.3593 216.565 52.5732 215.554 51.1786 215.554C49.7841 215.554 48.998 216.565 48.998 218.309V218.322C48.998 220.059 49.7841 221.077 51.1786 221.077ZM58.0728 219.115C57.9156 221.146 57.2867 222.068 56.0562 222.068C55.8033 222.068 55.6119 222.027 55.5162 221.993V220.92C55.5777 220.94 55.7623 220.968 55.94 220.968C56.6168 220.968 56.8902 220.113 56.9654 219.02L57.2798 214.631H62.0992V222H60.9097V215.615H58.3463L58.0728 219.115ZM68.2072 222V219.361H66.9562L65.0764 222H63.675L65.7326 219.143C64.6936 218.849 64.0646 218.083 64.0646 217.078V217.064C64.0646 215.554 65.1447 214.631 66.8332 214.631H69.3967V222H68.2072ZM66.8332 218.377H68.2072V215.615H66.8332C65.8625 215.615 65.2814 216.148 65.2814 217.037V217.051C65.2814 217.823 65.8693 218.377 66.8332 218.377ZM72.784 222H71.5946V214.631H73.037L75.662 220.346H75.7713L78.41 214.631H79.7909V222H78.6014V216.757H78.4715L76.1473 221.795H75.2313L72.9139 216.757H72.784V222ZM81.9956 222V214.631H83.185V220.127H83.2944L86.938 214.631H88.1274V222H86.938V216.504H86.8286L83.185 222H81.9956Z" fill="#F5A021"/>
<rect x="123" width="115" height="200" rx="20" fill="#D9D9D9"/>
<rect width="115" height="115" transform="translate(123 42.5)" fill="white"/>
<g clip-path="url(#clip1_816_12595)">
<rect width="115" height="115" transform="translate(123 42.5)" fill="#0080FF" fill-opacity="0.15"/>
<g clip-path="url(#clip2_816_12595)">
<path d="M179.501 98.2988C151.245 98.5089 135.125 133.976 148.063 157.5H208.832L210.948 157.5C223.974 133.792 207.792 98.8512 179.501 98.2988Z" fill="#0080FF" fill-opacity="0.15"/>
<path d="M179.529 58.9286C170.516 58.9286 163.111 66.7074 163.149 76.3188C163.186 86.0797 170.478 94.0084 179.529 94.0084C188.542 94.0084 195.872 86.0423 195.872 76.244C195.872 66.6326 188.579 58.9286 179.529 58.9286Z" fill="#0080FF" fill-opacity="0.15"/>
</g>
</g>
<rect x="160.5" y="8" width="40" height="10" rx="5" fill="white"/>
<path d="M153.298 222.232C150.618 222.232 148.943 220.25 148.943 217.078V217.064C148.943 213.886 150.611 211.903 153.291 211.903C155.369 211.903 156.989 213.209 157.283 215.103L157.276 215.116H156.039L156.032 215.103C155.704 213.838 154.651 213.038 153.291 213.038C151.397 213.038 150.208 214.597 150.208 217.064V217.078C150.208 219.546 151.397 221.098 153.298 221.098C154.672 221.098 155.718 220.394 156.025 219.259L156.039 219.245H157.283V219.259C156.955 221.063 155.396 222.232 153.298 222.232ZM162.985 222V214.631H168.946V222H167.756V215.615H164.174V222H162.985ZM174.179 222.13C172.08 222.13 170.781 220.681 170.781 218.322V218.309C170.781 215.943 172.08 214.501 174.179 214.501C176.277 214.501 177.576 215.943 177.576 218.309V218.322C177.576 220.681 176.277 222.13 174.179 222.13ZM174.179 221.077C175.573 221.077 176.359 220.059 176.359 218.322V218.309C176.359 216.565 175.573 215.554 174.179 215.554C172.784 215.554 171.998 216.565 171.998 218.309V218.322C171.998 220.059 172.784 221.077 174.179 221.077ZM181.073 219.115C180.916 221.146 180.287 222.068 179.056 222.068C178.803 222.068 178.612 222.027 178.516 221.993V220.92C178.578 220.94 178.762 220.968 178.94 220.968C179.617 220.968 179.89 220.113 179.965 219.02L180.28 214.631H185.099V222H183.91V215.615H181.346L181.073 219.115ZM191.207 222V219.361H189.956L188.076 222H186.675L188.733 219.143C187.694 218.849 187.065 218.083 187.065 217.078V217.064C187.065 215.554 188.145 214.631 189.833 214.631H192.397V222H191.207ZM189.833 218.377H191.207V215.615H189.833C188.862 215.615 188.281 216.148 188.281 217.037V217.051C188.281 217.823 188.869 218.377 189.833 218.377ZM195.784 222H194.595V214.631H196.037L198.662 220.346H198.771L201.41 214.631H202.791V222H201.601V216.757H201.472L199.147 221.795H198.231L195.914 216.757H195.784V222ZM204.996 222V214.631H206.185V220.127H206.294L209.938 214.631H211.127V222H209.938V216.504H209.829L206.185 222H204.996Z" fill="#F5A021"/>
<g clip-path="url(#clip3_816_12595)">
<rect x="246" width="115" height="200" rx="20" fill="#D9D9D9"/>
<rect width="115" height="200" transform="translate(246)" fill="white"/>
<g clip-path="url(#clip4_816_12595)">
<rect width="115" height="200" transform="translate(246)" fill="#0080FF" fill-opacity="0.15"/>
<g clip-path="url(#clip5_816_12595)">
<path d="M301.765 97.0414C252.623 97.4068 224.589 159.088 247.09 200H352.774L356.454 200C379.108 158.768 350.966 98.0021 301.765 97.0414Z" fill="#0080FF" fill-opacity="0.15"/>
<path d="M301.812 28.5714C286.137 28.5714 273.259 42.0998 273.324 58.8152C273.39 75.7908 286.072 89.5798 301.812 89.5798C317.487 89.5798 330.235 75.7257 330.235 58.6851C330.235 41.9697 317.552 28.5714 301.812 28.5714Z" fill="#0080FF" fill-opacity="0.15"/>
</g>
</g>
<rect x="283.5" y="8" width="40" height="10" rx="5" fill="white"/>
</g>
<path d="M265.651 223.105C265.939 223.105 266.167 222.978 266.328 222.73L272.656 212.766C272.776 212.571 272.823 212.424 272.823 212.27C272.823 211.902 272.582 211.661 272.214 211.661C271.946 211.661 271.799 211.748 271.638 212.002L265.624 221.585L262.504 217.5C262.336 217.266 262.169 217.172 261.928 217.172C261.546 217.172 261.285 217.433 261.285 217.801C261.285 217.955 261.352 218.129 261.479 218.29L264.955 222.717C265.156 222.978 265.363 223.105 265.651 223.105Z" fill="#00BC35"/>
<path d="M280.326 222V212.136H286.089V213.243H281.557V216.066H283.901C285.754 216.066 287.073 217.29 287.073 219.033V219.047C287.066 220.79 285.761 222 283.915 222H280.326ZM281.557 220.893H283.594C285.002 220.893 285.802 220.236 285.809 219.047V219.033C285.809 217.844 285.002 217.174 283.594 217.174H281.557V220.893ZM291.944 222.13C289.839 222.13 288.567 220.653 288.567 218.343V218.336C288.567 216.06 289.866 214.501 291.869 214.501C293.872 214.501 295.089 215.991 295.089 218.192V218.657H289.784C289.818 220.182 290.659 221.07 291.971 221.07C292.969 221.07 293.585 220.599 293.783 220.154L293.81 220.093H295L294.986 220.147C294.733 221.146 293.68 222.13 291.944 222.13ZM291.862 215.561C290.768 215.561 289.934 216.306 289.804 217.707H293.879C293.756 216.251 292.949 215.561 291.862 215.561ZM299.433 222.137C297.861 222.137 296.664 221.357 296.514 220.168L296.507 220.113H297.717L297.731 220.168C297.881 220.77 298.537 221.152 299.433 221.152C300.52 221.152 301.162 220.626 301.162 219.895V219.881C301.162 219.081 300.561 218.712 299.433 218.712H298.284V217.728H299.433C300.376 217.728 300.903 217.352 300.903 216.586V216.572C300.903 215.943 300.417 215.479 299.474 215.479C298.633 215.479 297.997 215.854 297.881 216.442L297.874 216.477H296.712L296.719 216.429C296.89 215.246 297.97 214.494 299.474 214.494C301.121 214.494 302.065 215.308 302.065 216.483V216.497C302.065 217.242 301.579 217.919 300.848 218.09V218.199C301.819 218.411 302.331 218.999 302.331 219.819V219.833C302.331 221.2 301.149 222.137 299.433 222.137ZM307.964 222V214.631H313.925V222H312.736V215.615H309.154V222H307.964ZM319.158 222.13C317.06 222.13 315.761 220.681 315.761 218.322V218.309C315.761 215.943 317.06 214.501 319.158 214.501C321.257 214.501 322.556 215.943 322.556 218.309V218.322C322.556 220.681 321.257 222.13 319.158 222.13ZM319.158 221.077C320.553 221.077 321.339 220.059 321.339 218.322V218.309C321.339 216.565 320.553 215.554 319.158 215.554C317.764 215.554 316.978 216.565 316.978 218.309V218.322C316.978 220.059 317.764 221.077 319.158 221.077ZM326.053 219.115C325.895 221.146 325.266 222.068 324.036 222.068C323.783 222.068 323.592 222.027 323.496 221.993V220.92C323.557 220.94 323.742 220.968 323.92 220.968C324.597 220.968 324.87 220.113 324.945 219.02L325.26 214.631H330.079V222H328.889V215.615H326.326L326.053 219.115ZM335.291 222.13C333.186 222.13 331.915 220.653 331.915 218.343V218.336C331.915 216.06 333.213 214.501 335.216 214.501C337.219 214.501 338.436 215.991 338.436 218.192V218.657H333.131C333.166 220.182 334.006 221.07 335.319 221.07C336.317 221.07 336.932 220.599 337.13 220.154L337.158 220.093H338.347L338.333 220.147C338.081 221.146 337.028 222.13 335.291 222.13ZM335.209 215.561C334.116 215.561 333.282 216.306 333.152 217.707H337.226C337.103 216.251 336.296 215.561 335.209 215.561ZM343.341 213.605C341.933 213.605 340.996 212.635 340.996 211.363H342.063C342.063 212.108 342.548 212.799 343.341 212.799C344.148 212.799 344.619 212.108 344.619 211.363H345.686C345.686 212.635 344.749 213.605 343.341 213.605ZM340.272 222V214.631H341.461V220.127H341.57L345.214 214.631H346.403V222H345.214V216.504H345.105L341.461 222H340.272Z" fill="#00BC35"/>
<defs>
<clipPath id="clip0_816_12595">
<rect width="41.1429" height="64" fill="white" transform="translate(36.9297 68)"/>
</clipPath>
<clipPath id="clip1_816_12595">
<rect width="115" height="115" fill="white" transform="translate(123 42.5)"/>
</clipPath>
<clipPath id="clip2_816_12595">
<rect width="73.9286" height="115" fill="white" transform="translate(143.535 42.5)"/>
</clipPath>
<clipPath id="clip3_816_12595">
<rect x="246" width="115" height="200" rx="20" fill="white"/>
</clipPath>
<clipPath id="clip4_816_12595">
<rect width="115" height="200" fill="white" transform="translate(246)"/>
</clipPath>
<clipPath id="clip5_816_12595">
<rect width="128.571" height="200" fill="white" transform="translate(239.215)"/>
</clipPath>
</defs>
</svg>
