<svg width="363" height="346" viewBox="0 0 363 346" fill="none" xmlns="http://www.w3.org/2000/svg">
<path d="M89.4086 21.7832H87.7777V17.418H88.8227C89.848 16.8711 90.2289 15.6211 90.3363 13.7754L90.8734 4.9082H99.7895V17.418H101.547V21.7832H99.9164V19H89.4086V21.7832ZM91.9867 13.8145C91.8891 15.4062 91.6937 16.4707 91.0004 17.3008V17.418H98.0316V6.49023H92.4457L91.9867 13.8145ZM108.037 19.1855C105.039 19.1855 103.183 17.1152 103.183 13.7461V13.7266C103.183 10.3477 105.039 8.28711 108.037 8.28711C111.035 8.28711 112.89 10.3477 112.89 13.7266V13.7461C112.89 17.1152 111.035 19.1855 108.037 19.1855ZM108.037 17.6816C110.029 17.6816 111.152 16.2266 111.152 13.7461V13.7266C111.152 11.2363 110.029 9.79102 108.037 9.79102C106.045 9.79102 104.921 11.2363 104.921 13.7266V13.7461C104.921 16.2266 106.045 17.6816 108.037 17.6816ZM119.897 19.1953C116.675 19.1953 114.995 16.998 114.995 12.7793V12.7598C114.995 7.17383 116.548 4.79102 120.307 4.61523L121.362 4.56641C122.202 4.52734 123.198 4.37109 124.106 4V5.50391C123.774 5.81641 122.661 6.07031 121.44 6.12891L120.366 6.17773C117.915 6.28516 116.85 7.42773 116.46 10.2988L116.43 10.5137H116.587C117.3 9.25391 118.559 8.57031 120.151 8.57031C122.983 8.57031 124.8 10.5918 124.8 13.7656V13.7852C124.8 17.125 122.934 19.1953 119.897 19.1953ZM119.897 17.6914C121.909 17.6914 123.061 16.2559 123.061 13.7852V13.7656C123.061 11.4121 121.909 10.0742 119.897 10.0742C117.886 10.0742 116.733 11.4121 116.733 13.7656V13.7852C116.733 16.2559 117.886 17.6914 119.897 17.6914ZM127.432 22.5156V8.47266H129.131V10.1523H129.287C129.932 8.98047 131.104 8.28711 132.568 8.28711C135.234 8.28711 136.982 10.4453 136.982 13.7266V13.7461C136.982 17.0469 135.244 19.1855 132.568 19.1855C131.123 19.1855 129.863 18.4629 129.287 17.3398H129.131V22.5156H127.432ZM132.178 17.6816C134.102 17.6816 135.244 16.1973 135.244 13.7461V13.7266C135.244 11.2754 134.102 9.79102 132.178 9.79102C130.264 9.79102 129.092 11.2949 129.092 13.7266V13.7461C129.092 16.1777 130.264 17.6816 132.178 17.6816ZM143.96 19.1855C140.962 19.1855 139.107 17.1152 139.107 13.7461V13.7266C139.107 10.3477 140.962 8.28711 143.96 8.28711C146.958 8.28711 148.814 10.3477 148.814 13.7266V13.7461C148.814 17.1152 146.958 19.1855 143.96 19.1855ZM143.96 17.6816C145.952 17.6816 147.075 16.2266 147.075 13.7461V13.7266C147.075 11.2363 145.952 9.79102 143.96 9.79102C141.968 9.79102 140.845 11.2363 140.845 13.7266V13.7461C140.845 16.2266 141.968 17.6816 143.96 17.6816ZM156.861 19V8.47266H165.377V19H163.677V9.87891H158.56V19H156.861ZM172.852 19.1855C169.854 19.1855 167.999 17.1152 167.999 13.7461V13.7266C167.999 10.3477 169.854 8.28711 172.852 8.28711C175.85 8.28711 177.706 10.3477 177.706 13.7266V13.7461C177.706 17.1152 175.85 19.1855 172.852 19.1855ZM172.852 17.6816C174.845 17.6816 175.968 16.2266 175.968 13.7461V13.7266C175.968 11.2363 174.845 9.79102 172.852 9.79102C170.86 9.79102 169.737 11.2363 169.737 13.7266V13.7461C169.737 16.2266 170.86 17.6816 172.852 17.6816ZM180.777 19H178.678L183.219 13.4531L178.834 8.47266H180.875L184.557 12.9062H185.182V8.47266H186.822V12.9062H187.447L191.129 8.47266H193.141L188.785 13.4141L193.355 19H191.227L187.447 14.1758H186.822V19H185.182V14.1758H184.557L180.777 19ZM197.95 19.1855C195.948 19.1855 194.435 17.9746 194.435 16.0605V16.041C194.435 14.166 195.821 13.082 198.273 12.9355L201.29 12.75V11.793C201.29 10.4941 200.499 9.79102 198.927 9.79102C197.667 9.79102 196.837 10.2598 196.564 11.0801L196.554 11.1094H194.855L194.864 11.0508C195.138 9.40039 196.739 8.28711 198.986 8.28711C201.554 8.28711 202.989 9.60547 202.989 11.793V19H201.29V17.4473H201.134C200.47 18.5703 199.366 19.1855 197.95 19.1855ZM196.173 16.0215C196.173 17.0859 197.081 17.7109 198.302 17.7109C200.03 17.7109 201.29 16.5781 201.29 15.0742V14.1172L198.478 14.293C196.876 14.3906 196.173 14.957 196.173 16.002V16.0215ZM208.551 14.8789C208.327 17.7793 207.428 19.0977 205.67 19.0977C205.309 19.0977 205.036 19.0391 204.899 18.9902V17.457C204.987 17.4863 205.25 17.5254 205.504 17.5254C206.471 17.5254 206.862 16.3047 206.969 14.7422L207.418 8.47266H214.303V19H212.604V9.87891H208.942L208.551 14.8789ZM221.779 19.1855C218.781 19.1855 216.925 17.1152 216.925 13.7461V13.7266C216.925 10.3477 218.781 8.28711 221.779 8.28711C224.777 8.28711 226.632 10.3477 226.632 13.7266V13.7461C226.632 17.1152 224.777 19.1855 221.779 19.1855ZM221.779 17.6816C223.771 17.6816 224.894 16.2266 224.894 13.7461V13.7266C224.894 11.2363 223.771 9.79102 221.779 9.79102C219.787 9.79102 218.664 11.2363 218.664 13.7266V13.7461C218.664 16.2266 219.787 17.6816 221.779 17.6816ZM229.255 19V8.47266H233.718C235.71 8.47266 236.872 9.55664 236.872 11.207V11.2266C236.872 12.2715 236.139 13.2578 235.153 13.4629V13.6191C236.491 13.8047 237.341 14.7422 237.341 15.9629V15.9824C237.341 17.8086 236.003 19 233.737 19H229.255ZM230.954 12.9258H233.2C234.567 12.9258 235.182 12.3984 235.182 11.4023V11.3828C235.182 10.4844 234.655 9.87891 233.473 9.87891H230.954V12.9258ZM230.954 17.5938H233.669C234.958 17.5938 235.612 17.0078 235.612 15.9531V15.9336C235.612 14.8203 234.86 14.332 233.346 14.332H230.954V17.5938ZM242.912 19.1855C240.91 19.1855 239.396 17.9746 239.396 16.0605V16.041C239.396 14.166 240.783 13.082 243.234 12.9355L246.252 12.75V11.793C246.252 10.4941 245.461 9.79102 243.889 9.79102C242.629 9.79102 241.799 10.2598 241.525 11.0801L241.516 11.1094H239.816L239.826 11.0508C240.1 9.40039 241.701 8.28711 243.947 8.28711C246.516 8.28711 247.951 9.60547 247.951 11.793V19H246.252V17.4473H246.096C245.432 18.5703 244.328 19.1855 242.912 19.1855ZM241.135 16.0215C241.135 17.0859 242.043 17.7109 243.264 17.7109C244.992 17.7109 246.252 16.5781 246.252 15.0742V14.1172L243.439 14.293C241.838 14.3906 241.135 14.957 241.135 16.002V16.0215ZM258.669 8.47266V9.87891H255.261V19H253.562V9.87891H250.154V8.47266H258.669ZM260.92 19V8.47266H262.62V11.8516H264.68C267.092 11.8516 268.635 13.2383 268.635 15.416V15.4355C268.635 17.6133 267.092 19 264.68 19H260.92ZM264.68 13.2578H262.62V17.5938H264.68C266.067 17.5938 266.936 16.7344 266.936 15.4355V15.416C266.936 14.1074 266.057 13.2578 264.68 13.2578ZM271.677 14.3125L271.511 4.89844H273.464L273.298 14.3125H271.677ZM272.498 19.1758C271.707 19.1758 271.14 18.6094 271.14 17.8184C271.14 17.0176 271.707 16.4512 272.498 16.4512C273.289 16.4512 273.845 17.0176 273.845 17.8184C273.845 18.6094 273.289 19.1758 272.498 19.1758Z" fill="black"/>
<path d="M7.64062 73.2822C4.2041 73.2822 2.14551 70.8418 2.14551 67.0151V66.9985C2.14551 63.1553 4.25391 60.7397 7.64062 60.7397C11.0439 60.7397 13.1357 63.1636 13.1357 66.9985V67.0151C13.1357 70.8335 11.0605 73.2822 7.64062 73.2822ZM7.64062 71.9043C10.0977 71.9043 11.6084 69.9785 11.6084 67.0151V66.9985C11.6084 64.0103 10.0894 62.1177 7.64062 62.1177C5.2002 62.1177 3.67285 64.0103 3.67285 66.9985V67.0151C3.67285 69.9785 5.15039 71.9043 7.64062 71.9043ZM19.1996 73.1577C16.6928 73.1577 15.0907 71.3398 15.0907 68.501V68.4844C15.0907 65.7036 16.6845 63.894 19.1913 63.894C21.3661 63.894 22.6694 65.1475 22.935 66.7412L22.9433 66.791H21.5072L21.4989 66.7661C21.2748 65.8862 20.4779 65.1724 19.1913 65.1724C17.581 65.1724 16.5683 66.4673 16.5683 68.4844V68.501C16.5683 70.5596 17.5976 71.8794 19.1913 71.8794C20.3949 71.8794 21.1586 71.3481 21.4906 70.3521L21.5072 70.3022L22.935 70.2939L22.9184 70.3853C22.5531 72.0039 21.3495 73.1577 19.1996 73.1577ZM30.9163 73V68.9492H26.4837V73H25.0394V64.0518H26.4837V67.7539H30.9163V64.0518H32.3607V73H30.9163ZM38.7151 73.1577C36.1668 73.1577 34.5896 71.3979 34.5896 68.5342V68.5176C34.5896 65.6455 36.1668 63.894 38.7151 63.894C41.2634 63.894 42.8406 65.6455 42.8406 68.5176V68.5342C42.8406 71.3979 41.2634 73.1577 38.7151 73.1577ZM38.7151 71.8794C40.4085 71.8794 41.363 70.6426 41.363 68.5342V68.5176C41.363 66.4009 40.4085 65.1724 38.7151 65.1724C37.0217 65.1724 36.0672 66.4009 36.0672 68.5176V68.5342C36.0672 70.6426 37.0217 71.8794 38.7151 71.8794ZM45.0695 73V64.0518H48.863C50.5563 64.0518 51.5441 64.9731 51.5441 66.376V66.3926C51.5441 67.2808 50.9216 68.1191 50.0832 68.2935V68.4263C51.2204 68.584 51.9426 69.3809 51.9426 70.4185V70.4351C51.9426 71.9873 50.8054 73 48.8796 73H45.0695ZM46.5138 67.8369H48.423C49.5851 67.8369 50.1081 67.3887 50.1081 66.542V66.5254C50.1081 65.7617 49.6598 65.2471 48.6554 65.2471H46.5138V67.8369ZM46.5138 71.8047H48.8215C49.9172 71.8047 50.4733 71.3066 50.4733 70.4102V70.3936C50.4733 69.4473 49.8342 69.0322 48.5475 69.0322H46.5138V71.8047ZM60.0899 73V68.9492H55.6573V73H54.213V64.0518H55.6573V67.7539H60.0899V64.0518H61.5343V73H60.0899ZM64.2031 73V64.0518H65.6475V66.9238H67.3989C69.4492 66.9238 70.7608 68.1025 70.7608 69.9536V69.9702C70.7608 71.8213 69.4492 73 67.3989 73H64.2031ZM72.3213 73V64.0518H73.7656V73H72.3213ZM67.3989 68.1191H65.6475V71.8047H67.3989C68.5777 71.8047 69.3164 71.0742 69.3164 69.9702V69.9536C69.3164 68.8413 68.5694 68.1191 67.3989 68.1191ZM80.0952 73.1577C77.5385 73.1577 75.9946 71.3647 75.9946 68.5591V68.5508C75.9946 65.7866 77.5717 63.894 80.0038 63.894C82.436 63.894 83.9135 65.7036 83.9135 68.3765V68.9409H77.4721C77.5136 70.792 78.5346 71.8711 80.1284 71.8711C81.3403 71.8711 82.0873 71.2983 82.3281 70.7588L82.3613 70.6841H83.8056L83.789 70.7505C83.4819 71.9624 82.2036 73.1577 80.0952 73.1577ZM79.9955 65.1807C78.6674 65.1807 77.6547 66.0854 77.497 67.7871H82.4443C82.2949 66.019 81.3154 65.1807 79.9955 65.1807ZM94.929 75.9883V73.1079C92.1565 73.0581 90.3138 71.2817 90.3138 68.5342V68.5176C90.3138 65.7617 92.1565 63.9854 94.929 63.9438V61.022H96.3235V63.9438C99.0877 63.9937 100.93 65.7617 100.93 68.5176V68.5342C100.93 71.29 99.0877 73.0664 96.3235 73.1079V75.9883H94.929ZM94.929 71.8711V65.1807C92.9949 65.2222 91.7664 66.4839 91.7664 68.5176V68.5342C91.7664 70.5596 92.9949 71.8213 94.929 71.8711ZM96.3235 71.8711C98.2493 71.8296 99.4778 70.5679 99.4778 68.5342V68.5176C99.4778 66.4922 98.2493 65.2305 96.3235 65.1807V71.8711ZM103.608 76.1377C103.417 76.1377 103.168 76.1211 102.968 76.0879V74.9009C103.143 74.9341 103.367 74.9424 103.566 74.9424C104.388 74.9424 104.886 74.5688 105.21 73.5396L105.376 73.0083L102.064 64.0518H103.608L106.065 71.4146H106.197L108.646 64.0518H110.165L106.671 73.5479C105.932 75.5566 105.193 76.1377 103.608 76.1377ZM117.939 73V68.9492H113.506V73H112.062V64.0518H113.506V67.7539H117.939V64.0518H119.383V73H117.939ZM123.953 68.9243H123.497V73H122.052V64.0518H123.497V67.7954H123.953L127.415 64.0518H129.149L125.124 68.2686L129.307 73H127.456L123.953 68.9243ZM138.417 75.3657V73H131.129V64.0518H132.574V71.8047H136.923V64.0518H138.368V71.8047H139.795V75.3657H138.417ZM141.501 73V64.0518H142.946V70.7256H143.078L147.503 64.0518H148.947V73H147.503V66.3262H147.37L142.946 73H141.501ZM151.624 73V64.0518H153.069V70.7256H153.201L157.626 64.0518H159.07V73H157.626V66.3262H157.493L153.069 73H151.624ZM168.459 69.4971C168.268 71.9624 167.504 73.083 166.01 73.083C165.703 73.083 165.47 73.0332 165.354 72.9917V71.6885C165.429 71.7134 165.653 71.7466 165.869 71.7466C166.691 71.7466 167.023 70.709 167.114 69.3809L167.496 64.0518H173.348V73H171.903V65.2471H168.791L168.459 69.4971ZM179.677 73.1577C177.121 73.1577 175.577 71.3647 175.577 68.5591V68.5508C175.577 65.7866 177.154 63.894 179.586 63.894C182.018 63.894 183.496 65.7036 183.496 68.3765V68.9409H177.054C177.096 70.792 178.117 71.8711 179.711 71.8711C180.922 71.8711 181.669 71.2983 181.91 70.7588L181.943 70.6841H183.388L183.371 70.7505C183.064 71.9624 181.786 73.1577 179.677 73.1577ZM179.578 65.1807C178.25 65.1807 177.237 66.0854 177.079 67.7871H182.026C181.877 66.019 180.898 65.1807 179.578 65.1807ZM191.452 65.2471H187.169V73H185.725V64.0518H191.452V65.2471ZM195.358 68.9243H194.901V73H193.457V64.0518H194.901V67.7954H195.358L198.819 64.0518H200.554L196.528 68.2686L200.712 73H198.861L195.358 68.9243ZM205.805 73.1577C203.256 73.1577 201.679 71.3979 201.679 68.5342V68.5176C201.679 65.6455 203.256 63.894 205.805 63.894C208.353 63.894 209.93 65.6455 209.93 68.5176V68.5342C209.93 71.3979 208.353 73.1577 205.805 73.1577ZM205.805 71.8794C207.498 71.8794 208.452 70.6426 208.452 68.5342V68.5176C208.452 66.4009 207.498 65.1724 205.805 65.1724C204.111 65.1724 203.157 66.4009 203.157 68.5176V68.5342C203.157 70.6426 204.111 71.8794 205.805 71.8794ZM222.647 73V68.9492H218.215V73H216.77V64.0518H218.215V67.7539H222.647V64.0518H224.091V73H222.647ZM229.226 73.1577C227.524 73.1577 226.237 72.1284 226.237 70.5015V70.4849C226.237 68.8911 227.416 67.9697 229.5 67.8452L232.065 67.6875V66.874C232.065 65.77 231.392 65.1724 230.056 65.1724C228.985 65.1724 228.279 65.5708 228.047 66.2681L228.039 66.293H226.594L226.603 66.2432C226.835 64.8403 228.196 63.894 230.106 63.894C232.289 63.894 233.509 65.0146 233.509 66.874V73H232.065V71.6802H231.932C231.367 72.6348 230.429 73.1577 229.226 73.1577ZM227.715 70.4683C227.715 71.373 228.487 71.9043 229.524 71.9043C230.994 71.9043 232.065 70.9414 232.065 69.6631V68.8496L229.674 68.999C228.313 69.082 227.715 69.5635 227.715 70.4517V70.4683ZM239.863 62.8066C238.153 62.8066 237.016 61.6279 237.016 60.084H238.311C238.311 60.9888 238.9 61.8271 239.863 61.8271C240.843 61.8271 241.416 60.9888 241.416 60.084H242.71C242.71 61.6279 241.573 62.8066 239.863 62.8066ZM236.136 73V64.0518H237.581V70.7256H237.713L242.138 64.0518H243.582V73H242.138V66.3262H242.005L237.581 73H236.136ZM252.742 64.0518V65.2471H249.845V73H248.401V65.2471H245.504V64.0518H252.742ZM254.656 73V64.0518H256.1V70.7256H256.233L260.657 64.0518H262.101V73H260.657V66.3262H260.524L256.1 73H254.656ZM275.267 73V68.9492H270.834V73H269.39V64.0518H270.834V67.7539H275.267V64.0518H276.711V73H275.267ZM281.845 73.1577C280.144 73.1577 278.857 72.1284 278.857 70.5015V70.4849C278.857 68.8911 280.036 67.9697 282.119 67.8452L284.684 67.6875V66.874C284.684 65.77 284.012 65.1724 282.675 65.1724C281.605 65.1724 280.899 65.5708 280.667 66.2681L280.658 66.293H279.214L279.222 66.2432C279.455 64.8403 280.816 63.894 282.725 63.894C284.908 63.894 286.129 65.0146 286.129 66.874V73H284.684V71.6802H284.551C283.987 72.6348 283.049 73.1577 281.845 73.1577ZM280.335 70.4683C280.335 71.373 281.107 71.9043 282.144 71.9043C283.613 71.9043 284.684 70.9414 284.684 69.6631V68.8496L282.294 68.999C280.932 69.082 280.335 69.5635 280.335 70.4517V70.4683ZM293.367 73V64.0518H300.605V73H299.161V65.2471H294.811V73H293.367ZM305.74 73.1577C304.038 73.1577 302.751 72.1284 302.751 70.5015V70.4849C302.751 68.8911 303.93 67.9697 306.014 67.8452L308.578 67.6875V66.874C308.578 65.77 307.906 65.1724 306.57 65.1724C305.499 65.1724 304.793 65.5708 304.561 66.2681L304.553 66.293H303.108L303.117 66.2432C303.349 64.8403 304.71 63.894 306.62 63.894C308.803 63.894 310.023 65.0146 310.023 66.874V73H308.578V71.6802H308.446C307.881 72.6348 306.943 73.1577 305.74 73.1577ZM304.229 70.4683C304.229 71.373 305.001 71.9043 306.038 71.9043C307.508 71.9043 308.578 70.9414 308.578 69.6631V68.8496L306.188 68.999C304.827 69.082 304.229 69.5635 304.229 70.4517V70.4683ZM318.527 73V68.9492H314.095V73H312.65V64.0518H314.095V67.7539H318.527V64.0518H319.971V73H318.527ZM326.301 73.1577C323.744 73.1577 322.2 71.3647 322.2 68.5591V68.5508C322.2 65.7866 323.778 63.894 326.21 63.894C328.642 63.894 330.119 65.7036 330.119 68.3765V68.9409H323.678C323.719 70.792 324.74 71.8711 326.334 71.8711C327.546 71.8711 328.293 71.2983 328.534 70.7588L328.567 70.6841H330.011L329.995 70.7505C329.688 71.9624 328.409 73.1577 326.301 73.1577ZM326.201 65.1807C324.873 65.1807 323.861 66.0854 323.703 67.7871H328.65C328.501 66.019 327.521 65.1807 326.201 65.1807ZM334.199 69.4971C334.008 71.9624 333.245 73.083 331.751 73.083C331.443 73.083 331.211 73.0332 331.095 72.9917V71.6885C331.17 71.7134 331.394 71.7466 331.609 71.7466C332.431 71.7466 332.763 70.709 332.855 69.3809L333.236 64.0518H339.089V73H337.644V65.2471H334.531L334.199 69.4971ZM341.757 73V64.0518H343.202V70.7256H343.335L347.759 64.0518H349.203V73H347.759V66.3262H347.626L343.202 73H341.757ZM8.29639 95V90.9492H3.86377V95H2.41943V86.0518H3.86377V89.7539H8.29639V86.0518H9.74072V95H8.29639ZM14.8749 95.1577C13.1733 95.1577 11.8866 94.1284 11.8866 92.5015V92.4849C11.8866 90.8911 13.0654 89.9697 15.1488 89.8452L17.7138 89.6875V88.874C17.7138 87.77 17.0414 87.1724 15.705 87.1724C14.6342 87.1724 13.9286 87.5708 13.6962 88.2681L13.6879 88.293H12.2436L12.2519 88.2432C12.4843 86.8403 13.8456 85.894 15.7548 85.894C17.9379 85.894 19.1581 87.0146 19.1581 88.874V95H17.7138V93.6802H17.581C17.0165 94.6348 16.0785 95.1577 14.8749 95.1577ZM13.3642 92.4683C13.3642 93.373 14.1362 93.9043 15.1737 93.9043C16.643 93.9043 17.7138 92.9414 17.7138 91.6631V90.8496L15.3232 90.999C13.9618 91.082 13.3642 91.5635 13.3642 92.4517V92.4683ZM21.7855 95V86.0518H25.5789C27.2723 86.0518 28.2601 86.9731 28.2601 88.376V88.3926C28.2601 89.2808 27.6375 90.1191 26.7992 90.2935V90.4263C27.9364 90.584 28.6585 91.3809 28.6585 92.4185V92.4351C28.6585 93.9873 27.5213 95 25.5955 95H21.7855ZM23.2298 89.8369H25.139C26.3011 89.8369 26.8241 89.3887 26.8241 88.542V88.5254C26.8241 87.7617 26.3758 87.2471 25.3714 87.2471H23.2298V89.8369ZM23.2298 93.8047H25.5374C26.6331 93.8047 27.1893 93.3066 27.1893 92.4102V92.3936C27.1893 91.4473 26.5501 91.0322 25.2635 91.0322H23.2298V93.8047ZM30.929 95V86.0518H32.3733V92.7256H32.5061L36.9304 86.0518H38.3748V95H36.9304V88.3262H36.7976L32.3733 95H30.929ZM46.7795 87.2471H42.4963V95H41.0519V86.0518H46.7795V87.2471ZM51.0006 95.1577C49.2989 95.1577 48.0123 94.1284 48.0123 92.5015V92.4849C48.0123 90.8911 49.191 89.9697 51.2745 89.8452L53.8395 89.6875V88.874C53.8395 87.77 53.1671 87.1724 51.8307 87.1724C50.7599 87.1724 50.0543 87.5708 49.8219 88.2681L49.8136 88.293H48.3692L48.3775 88.2432C48.61 86.8403 49.9713 85.894 51.8805 85.894C54.0636 85.894 55.2838 87.0146 55.2838 88.874V95H53.8395V93.6802H53.7066C53.1422 94.6348 52.2042 95.1577 51.0006 95.1577ZM49.4898 92.4683C49.4898 93.373 50.2618 93.9043 51.2994 93.9043C52.7687 93.9043 53.8395 92.9414 53.8395 91.6631V90.8496L51.4488 90.999C50.0875 91.082 49.4898 91.5635 49.4898 92.4517V92.4683ZM65.1992 97.3657V95H57.9112V86.0518H59.3555V93.8047H63.7051V86.0518H65.1494V93.8047H66.5772V97.3657H65.1992ZM68.2831 95V86.0518H69.7275V92.7256H69.8603L74.2846 86.0518H75.7289V95H74.2846V88.3262H74.1518L69.7275 95H68.2831ZM78.4061 95V86.0518H79.8504V92.7256H79.9833L84.4076 86.0518H85.8519V95H84.4076V88.3262H84.2748L79.8504 95H78.4061ZM93.1403 95V86.0518H96.9338C98.6272 86.0518 99.6149 86.9731 99.6149 88.376V88.3926C99.6149 89.2808 98.9924 90.1191 98.154 90.2935V90.4263C99.2912 90.584 100.013 91.3809 100.013 92.4185V92.4351C100.013 93.9873 98.8762 95 96.9504 95H93.1403ZM94.5847 89.8369H96.4939C97.656 89.8369 98.1789 89.3887 98.1789 88.542V88.5254C98.1789 87.7617 97.7307 87.2471 96.7263 87.2471H94.5847V89.8369ZM94.5847 93.8047H96.8923C97.988 93.8047 98.5441 93.3066 98.5441 92.4102V92.3936C98.5441 91.4473 97.905 91.0322 96.6184 91.0322H94.5847V93.8047ZM108.161 95V90.9492H103.728V95H102.284V86.0518H103.728V89.7539H108.161V86.0518H109.605V95H108.161ZM112.274 95V86.0518H113.718V92.7256H113.851L118.275 86.0518H119.72V95H118.275V88.3262H118.143L113.718 95H112.274ZM125.443 95.166C123.534 95.166 122.082 94.2197 121.899 92.7754L121.891 92.709H123.36L123.376 92.7754C123.559 93.5059 124.356 93.9707 125.443 93.9707C126.763 93.9707 127.543 93.3315 127.543 92.4434V92.4268C127.543 91.4556 126.813 91.0073 125.443 91.0073H124.049V89.812H125.443C126.589 89.812 127.228 89.3555 127.228 88.4258V88.4092C127.228 87.6455 126.639 87.0811 125.493 87.0811C124.472 87.0811 123.7 87.5376 123.559 88.2515L123.551 88.293H122.14L122.148 88.2349C122.355 86.7988 123.667 85.8857 125.493 85.8857C127.494 85.8857 128.639 86.8735 128.639 88.3013V88.3179C128.639 89.2227 128.05 90.0444 127.162 90.252V90.3848C128.34 90.6421 128.963 91.356 128.963 92.3521V92.3687C128.963 94.0288 127.527 95.166 125.443 95.166ZM131.632 98.1377C131.441 98.1377 131.192 98.1211 130.993 98.0879V96.9009C131.167 96.9341 131.391 96.9424 131.59 96.9424C132.412 96.9424 132.91 96.5688 133.234 95.5396L133.4 95.0083L130.088 86.0518H131.632L134.089 93.4146H134.222L136.67 86.0518H138.189L134.695 95.5479C133.956 97.5566 133.217 98.1377 131.632 98.1377ZM147.835 95.166C145.694 95.166 144.349 93.9624 144.075 92.3438L144.067 92.2939H145.511L145.528 92.3521C145.81 93.3398 146.648 93.8877 147.843 93.8877C149.338 93.8877 150.367 92.7256 150.491 90.9741H146.333V89.7788H150.467C150.292 88.1685 149.246 87.1641 147.843 87.1641C146.59 87.1641 145.801 87.8447 145.544 88.6831L145.511 88.791H144.067L144.092 88.6582C144.382 87.1143 145.718 85.8857 147.843 85.8857C150.35 85.8857 151.986 87.6953 151.986 90.4844V90.501C151.986 93.3481 150.342 95.166 147.835 95.166ZM156.107 90.9243H155.651V95H154.206V86.0518H155.651V89.7954H156.107L159.568 86.0518H161.303L157.277 90.2686L161.461 95H159.61L156.107 90.9243ZM163.292 97.9883V86.0518H164.736V87.4795H164.869C165.417 86.4834 166.413 85.894 167.658 85.894C169.924 85.894 171.41 87.7285 171.41 90.5176V90.5342C171.41 93.3398 169.932 95.1577 167.658 95.1577C166.429 95.1577 165.358 94.5435 164.869 93.5889H164.736V97.9883H163.292ZM167.326 93.8794C168.961 93.8794 169.932 92.6177 169.932 90.5342V90.5176C169.932 88.4341 168.961 87.1724 167.326 87.1724C165.699 87.1724 164.703 88.4507 164.703 90.5176V90.5342C164.703 92.6011 165.699 93.8794 167.326 93.8794ZM176.121 95.1577C174.419 95.1577 173.132 94.1284 173.132 92.5015V92.4849C173.132 90.8911 174.311 89.9697 176.395 89.8452L178.959 89.6875V88.874C178.959 87.77 178.287 87.1724 176.951 87.1724C175.88 87.1724 175.174 87.5708 174.942 88.2681L174.934 88.293H173.489L173.498 88.2432C173.73 86.8403 175.091 85.894 177 85.894C179.184 85.894 180.404 87.0146 180.404 88.874V95H178.959V93.6802H178.827C178.262 94.6348 177.324 95.1577 176.121 95.1577ZM174.61 92.4683C174.61 93.373 175.382 93.9043 176.419 93.9043C177.889 93.9043 178.959 92.9414 178.959 91.6631V90.8496L176.569 90.999C175.208 91.082 174.61 91.5635 174.61 92.4517V92.4683ZM188.908 95V90.9492H184.475V95H183.031V86.0518H184.475V89.7539H188.908V86.0518H190.352V95H188.908ZM195.487 95.1577C193.785 95.1577 192.498 94.1284 192.498 92.5015V92.4849C192.498 90.8911 193.677 89.9697 195.761 89.8452L198.326 89.6875V88.874C198.326 87.77 197.653 87.1724 196.317 87.1724C195.246 87.1724 194.54 87.5708 194.308 88.2681L194.3 88.293H192.855L192.864 88.2432C193.096 86.8403 194.457 85.894 196.367 85.894C198.55 85.894 199.77 87.0146 199.77 88.874V95H198.326V93.6802H198.193C197.628 94.6348 196.69 95.1577 195.487 95.1577ZM193.976 92.4683C193.976 93.373 194.748 93.9043 195.785 93.9043C197.255 93.9043 198.326 92.9414 198.326 91.6631V90.8496L195.935 90.999C194.574 91.082 193.976 91.5635 193.976 92.4517V92.4683ZM203.501 88.6582C202.912 88.6582 202.422 88.1685 202.422 87.5791C202.422 86.9814 202.912 86.5 203.501 86.5C204.099 86.5 204.58 86.9814 204.58 87.5791C204.58 88.1685 204.099 88.6582 203.501 88.6582ZM203.501 95.083C202.912 95.083 202.422 94.5933 202.422 94.0039C202.422 93.4062 202.912 92.9248 203.501 92.9248C204.099 92.9248 204.58 93.4062 204.58 94.0039C204.58 94.5933 204.099 95.083 203.501 95.083Z" fill="black"/>
<g filter="url(#filter0_d_1037_22577)">
<rect x="1" y="116" width="361" height="82" rx="24" fill="white"/>
<path d="M38.2266 166.516C38.5957 166.516 38.8682 166.34 39.3076 165.944L42.5508 163.018L48.2988 163.026C50.9443 163.026 52.4297 161.497 52.4297 158.887V152.058C52.4297 149.447 50.9443 147.918 48.2988 147.918H37.0928C34.4561 147.918 32.9619 149.447 32.9619 152.058V158.887C32.9619 161.506 34.5 163.018 37.0312 163.018H37.3828V165.566C37.3828 166.146 37.6904 166.516 38.2266 166.516Z" fill="#F41B1B"/>
<path d="M103.197 154.185C103.197 157.938 106.353 161.646 111.257 164.811C111.529 164.986 111.863 165.162 112.092 165.162C112.32 165.162 112.654 164.986 112.927 164.811C117.84 161.646 120.986 157.938 120.986 154.185C120.986 150.941 118.745 148.691 115.871 148.691C114.192 148.691 112.883 149.456 112.092 150.616C111.318 149.465 110 148.691 108.321 148.691C105.438 148.691 103.197 150.941 103.197 154.185ZM105.008 154.176C105.008 151.961 106.467 150.458 108.427 150.458C110.009 150.458 110.896 151.416 111.45 152.251C111.696 152.611 111.863 152.726 112.092 152.726C112.329 152.726 112.479 152.603 112.733 152.251C113.331 151.434 114.184 150.458 115.757 150.458C117.726 150.458 119.185 151.961 119.185 154.176C119.185 157.27 115.968 160.697 112.259 163.158C112.18 163.211 112.127 163.246 112.092 163.246C112.057 163.246 112.004 163.211 111.934 163.158C108.225 160.697 105.008 157.27 105.008 154.176Z" fill="#808080"/>
<rect x="156.5" y="132" width="50" height="50" rx="25" fill="#B3B3B3"/>
<path d="M178.072 163.376C177.088 163.376 176.174 163.224 175.332 162.921C174.502 162.605 173.779 162.161 173.162 161.589C172.557 161.017 172.083 160.346 171.739 159.575C171.395 158.792 171.223 157.934 171.223 157C171.223 156.066 171.395 155.213 171.739 154.443C172.083 153.66 172.557 152.983 173.162 152.411C173.779 151.839 174.502 151.401 175.332 151.097C176.174 150.782 177.088 150.624 178.072 150.624C179.222 150.624 180.248 150.823 181.15 151.22C182.063 151.617 182.822 152.189 183.427 152.936L181.185 154.933C180.782 154.466 180.337 154.11 179.851 153.865C179.377 153.619 178.843 153.497 178.25 153.497C177.74 153.497 177.271 153.578 176.844 153.742C176.417 153.905 176.05 154.145 175.741 154.46C175.445 154.764 175.208 155.132 175.03 155.564C174.864 155.996 174.781 156.475 174.781 157C174.781 157.525 174.864 158.004 175.03 158.436C175.208 158.868 175.445 159.242 175.741 159.557C176.05 159.861 176.417 160.095 176.844 160.258C177.271 160.422 177.74 160.503 178.25 160.503C178.843 160.503 179.377 160.381 179.851 160.135C180.337 159.89 180.782 159.534 181.185 159.067L183.427 161.064C182.822 161.799 182.063 162.372 181.15 162.78C180.248 163.177 179.222 163.376 178.072 163.376Z" fill="white"/>
<path fill-rule="evenodd" clip-rule="evenodd" d="M191.777 161.657C191.777 163.21 189.841 163.964 188.757 162.833L182.143 155.934L184.37 153.876L188.718 158.412L188.718 150.624L191.777 150.624L191.777 161.657Z" fill="white"/>
<circle cx="181.5" cy="157" r="21.5" stroke="white"/>
<g clip-path="url(#clip0_1037_22577)">
<path d="M260.726 150.335H258.69C257.754 149.704 256.558 149.228 255.072 149.228H249.513C249.163 149.228 248.821 149.33 248.528 149.522L246.805 150.648C246.805 150.648 245.367 151.588 244.701 152.121C244.431 152.343 244.211 152.551 244.106 152.711C243.598 153.449 243.783 154.297 244.308 154.822C245.156 155.67 246.154 155.223 246.415 155.077L248.637 153.796C248.836 153.684 248.985 153.693 249.161 153.818L257.486 159.723C257.76 159.918 257.814 160.244 257.633 160.508C257.44 160.769 257.122 160.819 256.848 160.623L251.135 156.57C250.844 156.365 250.455 156.452 250.252 156.731C250.055 157.018 250.11 157.407 250.394 157.616L255.662 161.352C255.636 161.498 255.566 161.675 255.48 161.798C255.251 162.117 254.901 162.167 254.573 161.923L249.472 158.307C249.176 158.095 248.792 158.19 248.595 158.476C248.399 158.75 248.443 159.137 248.734 159.341L253.454 162.686C253.42 162.838 253.345 163.007 253.259 163.13C253.031 163.449 252.688 163.494 252.357 163.263L247.822 160.047C247.525 159.835 247.135 159.934 246.932 160.213C246.744 160.482 246.785 160.881 247.081 161.093L251.214 164.021C250.805 164.603 249.999 164.519 248.987 163.797L244.054 160.3C243.415 159.849 241.413 158.359 241.413 155.998C241.413 153.772 242.499 151.833 246.134 149.57L246.676 149.232C245.216 149.243 244.038 149.713 243.113 150.335H241.075C238.711 150.335 236.9 152.858 236.9 155.995C236.9 159.08 238.878 161.62 241.409 161.62H243.47L248.224 164.998C249.919 166.198 251.524 166.093 252.537 164.73C253.204 164.921 253.872 164.683 254.308 164.061C254.453 163.854 254.557 163.633 254.631 163.4C255.364 163.609 256.069 163.378 256.514 162.739C256.655 162.539 256.758 162.319 256.789 162.059C257.461 162.211 258.111 161.99 258.584 161.441C259.054 160.894 259.232 159.94 258.898 159.302C258.749 159.016 258.529 158.751 258.222 158.53L250.117 152.789L249.288 152.202C249.09 152.062 248.88 152.065 248.651 152.202L245.747 154.018C245.448 154.215 245.148 154.162 244.979 153.994C244.767 153.781 244.773 153.405 245.182 153.103L248.4 150.832C248.562 150.717 248.769 150.648 248.968 150.648H255.072C257.007 150.648 258.639 152.03 259.345 153.028C260.596 154.796 260.689 156.626 259.69 158.261C260.879 159.836 259.966 161.55 259.93 161.62H260.392C262.923 161.62 264.9 159.08 264.9 155.995C264.9 152.858 263.09 150.335 260.726 150.335ZM241.321 160.074C239.783 160.021 238.474 158.21 238.474 155.995C238.474 153.763 239.625 151.97 240.952 151.917H241.432C241.378 151.988 241.317 152.06 241.268 152.129C240.378 153.387 239.933 154.701 239.933 155.984C239.933 157.336 240.437 158.768 241.635 160.076C241.53 160.075 241.424 160.074 241.321 160.074ZM261.674 159.646C261.633 159.18 261.52 158.729 261.335 158.309C262.23 156.352 261.975 154.167 260.533 152.129C260.484 152.06 260.422 151.988 260.369 151.917H260.849C262.176 151.97 263.327 153.763 263.327 155.995C263.327 157.599 262.637 158.98 261.674 159.646Z" fill="#808080"/>
</g>
<path d="M320.3 156.848C322.427 156.848 324.149 154.967 324.149 152.664C324.149 150.396 322.427 148.595 320.3 148.595C318.182 148.595 316.441 150.423 316.45 152.682C316.459 154.976 318.173 156.848 320.3 156.848ZM320.3 155.31C319.087 155.31 318.059 154.158 318.059 152.682C318.05 151.24 319.078 150.133 320.3 150.133C321.53 150.133 322.541 151.223 322.541 152.664C322.541 154.141 321.521 155.31 320.3 155.31ZM314.815 165.021H325.775C327.296 165.021 328.025 164.538 328.025 163.501C328.025 161.084 325.011 157.867 320.3 157.867C315.589 157.867 312.565 161.084 312.565 163.501C312.565 164.538 313.295 165.021 314.815 165.021ZM314.543 163.483C314.332 163.483 314.253 163.413 314.253 163.255C314.253 161.91 316.424 159.405 320.3 159.405C324.167 159.405 326.338 161.91 326.338 163.255C326.338 163.413 326.259 163.483 326.048 163.483H314.543Z" fill="#808080"/>
</g>
<g clip-path="url(#clip1_1037_22577)">
<path d="M47.5078 236.004C43.5264 236.004 41.5752 234.36 41.5752 230.361V224.578L41.6455 222.284L40.0635 224.033L37.3301 226.775C37.1631 226.942 36.917 227.057 36.6533 227.057C36.126 227.057 35.7305 226.652 35.7305 226.107C35.7305 225.861 35.8271 225.633 36.0293 225.422L41.8213 219.621C42.0146 219.428 42.2695 219.313 42.5332 219.313C42.7969 219.313 43.0605 219.428 43.2539 219.621L49.0371 225.422C49.2393 225.633 49.3359 225.861 49.3359 226.107C49.3359 226.652 48.9492 227.057 48.4219 227.057C48.1494 227.057 47.9121 226.942 47.7363 226.775L45.0029 224.033L43.4209 222.275L43.5 224.578L43.4912 230.238C43.4824 233.121 44.7305 234.105 47.5693 234.105C48.0439 234.105 48.3867 234.079 48.7119 234.079C49.2744 234.079 49.6699 234.431 49.6699 234.993C49.6699 235.573 49.2217 235.846 48.8086 235.925C48.457 235.995 48.0088 236.004 47.5078 236.004Z" fill="#0080FF"/>
</g>
<path d="M29.2174 259V254.053H29.0763C28.3707 254.501 27.4161 254.75 26.254 254.75C23.357 254.75 21.7301 252.866 21.7301 250.326V247.022H23.8634V250.226C23.8634 251.886 24.8263 252.899 26.5778 252.899C27.7233 252.899 28.6446 252.575 29.2174 252.069V247.022H31.359V259H29.2174ZM36.5679 259.149C34.8413 259.149 33.5879 258.087 33.5879 256.435V256.418C33.5879 254.8 34.8247 253.854 37.0328 253.721L39.3653 253.58V252.799C39.3653 251.895 38.7759 251.396 37.6636 251.396C36.7173 251.396 36.1031 251.737 35.8955 252.334L35.8872 252.368H33.9366L33.9449 252.293C34.1441 250.766 35.605 249.753 37.7632 249.753C40.0957 249.753 41.4073 250.882 41.4073 252.799V259H39.3653V257.755H39.2242C38.7261 258.635 37.7632 259.149 36.5679 259.149ZM35.6299 256.335C35.6299 257.107 36.2857 257.564 37.1988 257.564C38.4439 257.564 39.3653 256.75 39.3653 255.671V254.941L37.3233 255.074C36.1695 255.148 35.6299 255.572 35.6299 256.319V256.335ZM50.8081 249.927V251.529H48.0107V259H45.9438V251.529H43.1547V249.927H50.8081ZM52.5887 259V249.927H54.6556V252.667H56.4486C58.5653 252.667 59.9183 253.903 59.9183 255.829V255.846C59.9183 257.771 58.5653 259 56.4486 259H52.5887ZM61.4042 259V249.927H63.4711V259H61.4042ZM56.183 254.26H54.6556V257.406H56.183C57.1957 257.406 57.8348 256.767 57.8348 255.837V255.821C57.8348 254.883 57.1874 254.26 56.183 254.26Z" fill="black"/>
<path d="M7.64062 297.282C4.2041 297.282 2.14551 294.842 2.14551 291.015V290.999C2.14551 287.155 4.25391 284.74 7.64062 284.74C11.0439 284.74 13.1357 287.164 13.1357 290.999V291.015C13.1357 294.833 11.0605 297.282 7.64062 297.282ZM7.64062 295.904C10.0977 295.904 11.6084 293.979 11.6084 291.015V290.999C11.6084 288.01 10.0894 286.118 7.64062 286.118C5.2002 286.118 3.67285 288.01 3.67285 290.999V291.015C3.67285 293.979 5.15039 295.904 7.64062 295.904ZM19.2577 297.166C16.5185 297.166 15.0907 295.298 15.0907 291.712V291.696C15.0907 286.948 16.4106 284.922 19.6064 284.773L20.5029 284.731C21.2167 284.698 22.0634 284.565 22.8354 284.25V285.528C22.5531 285.794 21.6069 286.01 20.5693 286.06L19.6562 286.101C17.5727 286.192 16.6679 287.164 16.3359 289.604L16.311 289.787H16.4438C17.0497 288.716 18.1205 288.135 19.4736 288.135C21.8808 288.135 23.4247 289.853 23.4247 292.551V292.567C23.4247 295.406 21.8393 297.166 19.2577 297.166ZM19.2577 295.888C20.9677 295.888 21.9472 294.667 21.9472 292.567V292.551C21.9472 290.55 20.9677 289.413 19.2577 289.413C17.5478 289.413 16.5683 290.55 16.5683 292.551V292.567C16.5683 294.667 17.5478 295.888 19.2577 295.888ZM25.6537 297V288.052H27.098V295.805H30.4598V288.052H31.9041V295.805H35.266V288.052H36.7103V295.805H38.1546V299.366H36.7767V297H25.6537ZM42.3259 297.158C40.6243 297.158 39.3377 296.128 39.3377 294.501V294.485C39.3377 292.891 40.5164 291.97 42.5999 291.845L45.1648 291.688V290.874C45.1648 289.77 44.4924 289.172 43.156 289.172C42.0852 289.172 41.3797 289.571 41.1472 290.268L41.1389 290.293H39.6946L39.7029 290.243C39.9353 288.84 41.2966 287.894 43.2058 287.894C45.3889 287.894 46.6091 289.015 46.6091 290.874V297H45.1648V295.68H45.032C44.4675 296.635 43.5296 297.158 42.3259 297.158ZM40.8152 294.468C40.8152 295.373 41.5872 295.904 42.6248 295.904C44.094 295.904 45.1648 294.941 45.1648 293.663V292.85L42.7742 292.999C41.4129 293.082 40.8152 293.563 40.8152 294.452V294.468ZM52.9636 286.807C51.2536 286.807 50.1164 285.628 50.1164 284.084H51.4113C51.4113 284.989 52.0007 285.827 52.9636 285.827C53.943 285.827 54.5158 284.989 54.5158 284.084H55.8107C55.8107 285.628 54.6735 286.807 52.9636 286.807ZM49.2365 297V288.052H50.6808V294.726H50.8137L55.238 288.052H56.6823V297H55.238V290.326H55.1052L50.6808 297H49.2365ZM65.8424 288.052V289.247H62.9454V297H61.5011V289.247H58.6041V288.052H65.8424ZM71.0845 297.158C68.5279 297.158 66.9839 295.365 66.9839 292.559V292.551C66.9839 289.787 68.5611 287.894 70.9932 287.894C73.4253 287.894 74.9029 289.704 74.9029 292.376V292.941H68.4614C68.503 294.792 69.5239 295.871 71.1177 295.871C72.3296 295.871 73.0767 295.298 73.3174 294.759L73.3506 294.684H74.7949L74.7783 294.75C74.4712 295.962 73.1929 297.158 71.0845 297.158ZM70.9849 289.181C69.6568 289.181 68.6441 290.085 68.4864 291.787H73.4336C73.2842 290.019 72.3047 289.181 70.9849 289.181ZM80.8007 297.158C78.2939 297.158 76.6918 295.34 76.6918 292.501V292.484C76.6918 289.704 78.2856 287.894 80.7924 287.894C82.9672 287.894 84.2704 289.147 84.5361 290.741L84.5444 290.791H83.1083L83.1 290.766C82.8759 289.886 82.079 289.172 80.7924 289.172C79.1821 289.172 78.1694 290.467 78.1694 292.484V292.501C78.1694 294.56 79.1987 295.879 80.7924 295.879C81.996 295.879 82.7597 295.348 83.0917 294.352L83.1083 294.302L84.5361 294.294L84.5195 294.385C84.1542 296.004 82.9506 297.158 80.8007 297.158ZM86.6405 297V288.052H88.0848V290.924H89.8363C91.8866 290.924 93.1981 292.103 93.1981 293.954V293.97C93.1981 295.821 91.8866 297 89.8363 297H86.6405ZM89.8363 292.119H88.0848V295.805H89.8363C91.015 295.805 91.7538 295.074 91.7538 293.97V293.954C91.7538 292.841 91.0067 292.119 89.8363 292.119ZM103.533 297.158C101.026 297.158 99.424 295.34 99.424 292.501V292.484C99.424 289.704 101.018 287.894 103.525 287.894C105.699 287.894 107.003 289.147 107.268 290.741L107.277 290.791H105.841L105.832 290.766C105.608 289.886 104.811 289.172 103.525 289.172C101.914 289.172 100.902 290.467 100.902 292.484V292.501C100.902 294.56 101.931 295.879 103.525 295.879C104.728 295.879 105.492 295.348 105.824 294.352L105.841 294.302L107.268 294.294L107.252 294.385C106.886 296.004 105.683 297.158 103.533 297.158ZM113.992 299.988V288.052H115.437V289.479H115.569C116.117 288.483 117.113 287.894 118.358 287.894C120.625 287.894 122.11 289.729 122.11 292.518V292.534C122.11 295.34 120.633 297.158 118.358 297.158C117.13 297.158 116.059 296.543 115.569 295.589H115.437V299.988H113.992ZM118.026 295.879C119.662 295.879 120.633 294.618 120.633 292.534V292.518C120.633 290.434 119.662 289.172 118.026 289.172C116.399 289.172 115.403 290.451 115.403 292.518V292.534C115.403 294.601 116.399 295.879 118.026 295.879ZM126.821 297.158C125.12 297.158 123.833 296.128 123.833 294.501V294.485C123.833 292.891 125.012 291.97 127.095 291.845L129.66 291.688V290.874C129.66 289.77 128.988 289.172 127.651 289.172C126.581 289.172 125.875 289.571 125.643 290.268L125.634 290.293H124.19L124.198 290.243C124.431 288.84 125.792 287.894 127.701 287.894C129.884 287.894 131.104 289.015 131.104 290.874V297H129.66V295.68H129.527C128.963 296.635 128.025 297.158 126.821 297.158ZM125.311 294.468C125.311 295.373 126.082 295.904 127.12 295.904C128.589 295.904 129.66 294.941 129.66 293.663V292.85L127.269 292.999C125.908 293.082 125.311 293.563 125.311 294.452V294.468ZM137.459 297.166C134.72 297.166 133.292 295.298 133.292 291.712V291.696C133.292 286.948 134.612 284.922 137.807 284.773L138.704 284.731C139.418 284.698 140.265 284.565 141.036 284.25V285.528C140.754 285.794 139.808 286.01 138.77 286.06L137.857 286.101C135.774 286.192 134.869 287.164 134.537 289.604L134.512 289.787H134.645C135.251 288.716 136.322 288.135 137.675 288.135C140.082 288.135 141.626 289.853 141.626 292.551V292.567C141.626 295.406 140.04 297.166 137.459 297.166ZM137.459 295.888C139.169 295.888 140.148 294.667 140.148 292.567V292.551C140.148 290.55 139.169 289.413 137.459 289.413C135.749 289.413 134.769 290.55 134.769 292.551V292.567C134.769 294.667 135.749 295.888 137.459 295.888ZM147.54 297.158C144.992 297.158 143.415 295.398 143.415 292.534V292.518C143.415 289.646 144.992 287.894 147.54 287.894C150.089 287.894 151.666 289.646 151.666 292.518V292.534C151.666 295.398 150.089 297.158 147.54 297.158ZM147.54 295.879C149.234 295.879 150.188 294.643 150.188 292.534V292.518C150.188 290.401 149.234 289.172 147.54 289.172C145.847 289.172 144.892 290.401 144.892 292.518V292.534C144.892 294.643 145.847 295.879 147.54 295.879ZM159.797 288.052V289.247H156.9V297H155.455V289.247H152.558V288.052H159.797ZM165.064 297.158C162.515 297.158 160.938 295.398 160.938 292.534V292.518C160.938 289.646 162.515 287.894 165.064 287.894C167.612 287.894 169.189 289.646 169.189 292.518V292.534C169.189 295.398 167.612 297.158 165.064 297.158ZM165.064 295.879C166.757 295.879 167.712 294.643 167.712 292.534V292.518C167.712 290.401 166.757 289.172 165.064 289.172C163.37 289.172 162.416 290.401 162.416 292.518V292.534C162.416 294.643 163.37 295.879 165.064 295.879ZM171.543 299.366H170.198V295.805H170.945C171.601 295.373 171.924 294.244 172.007 293.041L172.356 288.052H178.457V295.805H179.885V299.366H178.54V297H171.543V299.366ZM177.013 295.805V289.247H173.634L173.352 293.074C173.269 294.161 173.037 295.116 172.613 295.672V295.805H177.013ZM184.056 297.158C182.354 297.158 181.068 296.128 181.068 294.501V294.485C181.068 292.891 182.247 291.97 184.33 291.845L186.895 291.688V290.874C186.895 289.77 186.223 289.172 184.886 289.172C183.815 289.172 183.11 289.571 182.877 290.268L182.869 290.293H181.425L181.433 290.243C181.666 288.84 183.027 287.894 184.936 287.894C187.119 287.894 188.339 289.015 188.339 290.874V297H186.895V295.68H186.762C186.198 296.635 185.26 297.158 184.056 297.158ZM182.545 294.468C182.545 295.373 183.317 295.904 184.355 295.904C185.824 295.904 186.895 294.941 186.895 293.663V292.85L184.504 292.999C183.143 293.082 182.545 293.563 182.545 294.452V294.468ZM197.45 288.052V289.247H194.553V297H193.108V289.247H190.211V288.052H197.45ZM202.692 297.158C200.135 297.158 198.591 295.365 198.591 292.559V292.551C198.591 289.787 200.168 287.894 202.6 287.894C205.033 287.894 206.51 289.704 206.51 292.376V292.941H200.069C200.11 294.792 201.131 295.871 202.725 295.871C203.937 295.871 204.684 295.298 204.925 294.759L204.958 294.684H206.402L206.386 294.75C206.078 295.962 204.8 297.158 202.692 297.158ZM202.592 289.181C201.264 289.181 200.251 290.085 200.094 291.787H205.041C204.891 290.019 203.912 289.181 202.592 289.181ZM210.59 293.497C210.399 295.962 209.635 297.083 208.141 297.083C207.834 297.083 207.602 297.033 207.486 296.992V295.688C207.56 295.713 207.784 295.747 208 295.747C208.822 295.747 209.154 294.709 209.245 293.381L209.627 288.052H215.479V297H214.035V289.247H210.922L210.59 293.497ZM222.896 297V293.796H221.377L219.094 297H217.393L219.891 293.53C218.63 293.173 217.866 292.244 217.866 291.023V291.007C217.866 289.172 219.177 288.052 221.228 288.052H224.34V297H222.896ZM221.228 292.601H222.896V289.247H221.228C220.049 289.247 219.343 289.895 219.343 290.974V290.99C219.343 291.928 220.057 292.601 221.228 292.601ZM228.454 297H227.009V288.052H228.761L231.948 294.991H232.081L235.285 288.052H236.962V297H235.518V290.633H235.36L232.538 296.751H231.425L228.611 290.633H228.454V297ZM239.639 297V288.052H241.083V294.726H241.216L245.641 288.052H247.085V297H245.641V290.326H245.508L241.083 297H239.639ZM254.373 297V288.052H255.818V294.726H255.951L260.375 288.052H261.819V297H260.375V290.326H260.242L255.818 297H254.373ZM271.008 292.924H270.552V297H269.108V288.052H270.552V291.795H271.008L274.47 288.052H276.205L272.179 292.269L276.362 297H274.511L271.008 292.924ZM281.455 297.158C278.907 297.158 277.33 295.398 277.33 292.534V292.518C277.33 289.646 278.907 287.894 281.455 287.894C284.004 287.894 285.581 289.646 285.581 292.518V292.534C285.581 295.398 284.004 297.158 281.455 297.158ZM281.455 295.879C283.149 295.879 284.103 294.643 284.103 292.534V292.518C284.103 290.401 283.149 289.172 281.455 289.172C279.762 289.172 278.807 290.401 278.807 292.518V292.534C278.807 294.643 279.762 295.879 281.455 295.879ZM289.827 293.497C289.636 295.962 288.872 297.083 287.378 297.083C287.071 297.083 286.838 297.033 286.722 296.992V295.688C286.797 295.713 287.021 295.747 287.237 295.747C288.059 295.747 288.391 294.709 288.482 293.381L288.864 288.052H294.716V297H293.272V289.247H290.159L289.827 293.497ZM299.485 293.497C299.294 295.962 298.53 297.083 297.036 297.083C296.729 297.083 296.497 297.033 296.38 296.992V295.688C296.455 295.713 296.679 295.747 296.895 295.747C297.717 295.747 298.049 294.709 298.14 293.381L298.522 288.052H304.374V297H302.93V289.247H299.817L299.485 293.497ZM310.703 297.158C308.147 297.158 306.603 295.365 306.603 292.559V292.551C306.603 289.787 308.18 287.894 310.612 287.894C313.044 287.894 314.522 289.704 314.522 292.376V292.941H308.08C308.122 294.792 309.143 295.871 310.737 295.871C311.949 295.871 312.696 295.298 312.936 294.759L312.97 294.684H314.414L314.397 294.75C314.09 295.962 312.812 297.158 310.703 297.158ZM310.604 289.181C309.276 289.181 308.263 290.085 308.105 291.787H313.053C312.903 290.019 311.924 289.181 310.604 289.181ZM322.478 289.247H318.195V297H316.751V288.052H322.478V289.247ZM326.699 297.158C324.998 297.158 323.711 296.128 323.711 294.501V294.485C323.711 292.891 324.89 291.97 326.973 291.845L329.538 291.688V290.874C329.538 289.77 328.866 289.172 327.529 289.172C326.459 289.172 325.753 289.571 325.521 290.268L325.512 290.293H324.068L324.076 290.243C324.309 288.84 325.67 287.894 327.579 287.894C329.762 287.894 330.983 289.015 330.983 290.874V297H329.538V295.68H329.405C328.841 296.635 327.903 297.158 326.699 297.158ZM325.189 294.468C325.189 295.373 325.961 295.904 326.998 295.904C328.467 295.904 329.538 294.941 329.538 293.663V292.85L327.148 292.999C325.786 293.082 325.189 293.563 325.189 294.452V294.468ZM335.054 297H333.61V288.052H335.361L338.549 294.991H338.682L341.886 288.052H343.563V297H342.118V290.633H341.961L339.138 296.751H338.026L335.212 290.633H335.054V297ZM346.24 297V288.052H347.684V294.726H347.817L352.241 288.052H353.686V297H352.241V290.326H352.108L347.684 297H346.24ZM2.41943 319V310.052H6.21289C7.90625 310.052 8.89404 310.973 8.89404 312.376V312.393C8.89404 313.281 8.27148 314.119 7.43311 314.293V314.426C8.57031 314.584 9.29248 315.381 9.29248 316.418V316.435C9.29248 317.987 8.15527 319 6.22949 319H2.41943ZM3.86377 313.837H5.77295C6.93506 313.837 7.45801 313.389 7.45801 312.542V312.525C7.45801 311.762 7.00977 311.247 6.00537 311.247H3.86377V313.837ZM3.86377 317.805H6.17139C7.26709 317.805 7.82324 317.307 7.82324 316.41V316.394C7.82324 315.447 7.18408 315.032 5.89746 315.032H3.86377V317.805ZM16.9461 322.138C16.7552 322.138 16.5062 322.121 16.307 322.088V320.901C16.4813 320.934 16.7054 320.942 16.9046 320.942C17.7264 320.942 18.2245 320.569 18.5482 319.54L18.7142 319.008L15.4022 310.052H16.9461L19.4032 317.415H19.536L21.9847 310.052H23.5037L20.0091 319.548C19.2704 321.557 18.5316 322.138 16.9461 322.138ZM25.2761 321.366H23.9314V317.805H24.6785C25.3342 317.373 25.658 316.244 25.741 315.041L26.0896 310.052H32.1907V317.805H33.6184V321.366H32.2737V319H25.2761V321.366ZM30.7463 317.805V311.247H27.3679L27.0857 315.074C27.0027 316.161 26.7703 317.116 26.3469 317.672V317.805H30.7463ZM39.0099 319.158C36.4616 319.158 34.8845 317.398 34.8845 314.534V314.518C34.8845 311.646 36.4616 309.894 39.0099 309.894C41.5583 309.894 43.1354 311.646 43.1354 314.518V314.534C43.1354 317.398 41.5583 319.158 39.0099 319.158ZM39.0099 317.879C40.7033 317.879 41.6579 316.643 41.6579 314.534V314.518C41.6579 312.401 40.7033 311.172 39.0099 311.172C37.3166 311.172 36.362 312.401 36.362 314.518V314.534C36.362 316.643 37.3166 317.879 39.0099 317.879ZM49.0914 319.166C46.3521 319.166 44.9244 317.298 44.9244 313.712V313.696C44.9244 308.948 46.2442 306.922 49.44 306.773L50.3365 306.731C51.0504 306.698 51.8971 306.565 52.669 306.25V307.528C52.3868 307.794 51.4405 308.01 50.4029 308.06L49.4898 308.101C47.4063 308.192 46.5016 309.164 46.1695 311.604L46.1446 311.787H46.2774C46.8834 310.716 47.9542 310.135 49.3072 310.135C51.7145 310.135 53.2584 311.853 53.2584 314.551V314.567C53.2584 317.406 51.673 319.166 49.0914 319.166ZM49.0914 317.888C50.8014 317.888 51.7809 316.667 51.7809 314.567V314.551C51.7809 312.55 50.8014 311.413 49.0914 311.413C47.3814 311.413 46.402 312.55 46.402 314.551V314.567C46.402 316.667 47.3814 317.888 49.0914 317.888ZM61.3643 319V314.949H56.9317V319H55.4873V310.052H56.9317V313.754H61.3643V310.052H62.8086V319H61.3643ZM65.4775 319V310.052H66.9218V312.924H68.6733C70.7236 312.924 72.0351 314.103 72.0351 315.954V315.97C72.0351 317.821 70.7236 319 68.6733 319H65.4775ZM73.5956 319V310.052H75.04V319H73.5956ZM68.6733 314.119H66.9218V317.805H68.6733C69.852 317.805 70.5908 317.074 70.5908 315.97V315.954C70.5908 314.841 69.8437 314.119 68.6733 314.119ZM77.0033 319L80.0663 314.526L76.9701 310.052H78.6717L80.7967 313.38H80.9296L83.0296 310.052H84.6483L81.6102 314.468L84.6898 319H82.9964L80.8797 315.622H80.7469L78.6219 319H77.0033ZM98.0544 319H96.6101V315.273H96.4772C95.9958 315.613 95.3068 315.812 94.3439 315.812C92.1857 315.812 91.0651 314.518 91.0651 312.608V310.052H92.5095V312.608C92.5095 313.787 93.1237 314.534 94.3439 314.534C95.4646 314.534 96.2365 314.244 96.6101 313.829V310.052H98.0544V319ZM103.189 319.158C101.487 319.158 100.2 318.128 100.2 316.501V316.485C100.2 314.891 101.379 313.97 103.463 313.845L106.027 313.688V312.874C106.027 311.77 105.355 311.172 104.019 311.172C102.948 311.172 102.242 311.571 102.01 312.268L102.002 312.293H100.557L100.566 312.243C100.798 310.84 102.159 309.894 104.068 309.894C106.252 309.894 107.472 311.015 107.472 312.874V319H106.027V317.68H105.895C105.33 318.635 104.392 319.158 103.189 319.158ZM101.678 316.468C101.678 317.373 102.45 317.904 103.487 317.904C104.957 317.904 106.027 316.941 106.027 315.663V314.85L103.637 314.999C102.276 315.082 101.678 315.563 101.678 316.452V316.468ZM116.582 310.052V311.247H113.685V319H112.241V311.247H109.344V310.052H116.582ZM120.828 319.158C119.126 319.158 117.84 318.128 117.84 316.501V316.485C117.84 314.891 119.019 313.97 121.102 313.845L123.667 313.688V312.874C123.667 311.77 122.995 311.172 121.658 311.172C120.587 311.172 119.882 311.571 119.649 312.268L119.641 312.293H118.197L118.205 312.243C118.437 310.84 119.799 309.894 121.708 309.894C123.891 309.894 125.111 311.015 125.111 312.874V319H123.667V317.68H123.534C122.97 318.635 122.032 319.158 120.828 319.158ZM119.317 316.468C119.317 317.373 120.089 317.904 121.127 317.904C122.596 317.904 123.667 316.941 123.667 315.663V314.85L121.276 314.999C119.915 315.082 119.317 315.563 119.317 316.452V316.468ZM127.033 319L130.096 314.526L127 310.052H128.702L130.827 313.38H130.959L133.059 310.052H134.678L131.64 314.468L134.72 319H133.026L130.91 315.622H130.777L128.652 319H127.033ZM136.21 322.046L136.932 317.323H138.584L137.281 322.046H136.21ZM149.823 319.158C147.275 319.158 145.698 317.398 145.698 314.534V314.518C145.698 311.646 147.275 309.894 149.823 309.894C152.372 309.894 153.949 311.646 153.949 314.518V314.534C153.949 317.398 152.372 319.158 149.823 319.158ZM149.823 317.879C151.517 317.879 152.471 316.643 152.471 314.534V314.518C152.471 312.401 151.517 311.172 149.823 311.172C148.13 311.172 147.175 312.401 147.175 314.518V314.534C147.175 316.643 148.13 317.879 149.823 317.879ZM159.905 319.166C157.166 319.166 155.738 317.298 155.738 313.712V313.696C155.738 308.948 157.058 306.922 160.253 306.773L161.15 306.731C161.864 306.698 162.711 306.565 163.482 306.25V307.528C163.2 307.794 162.254 308.01 161.216 308.06L160.303 308.101C158.22 308.192 157.315 309.164 156.983 311.604L156.958 311.787H157.091C157.697 310.716 158.768 310.135 160.121 310.135C162.528 310.135 164.072 311.853 164.072 314.551V314.567C164.072 317.406 162.486 319.166 159.905 319.166ZM159.905 317.888C161.615 317.888 162.594 316.667 162.594 314.567V314.551C162.594 312.55 161.615 311.413 159.905 311.413C158.195 311.413 157.215 312.55 157.215 314.551V314.567C157.215 316.667 158.195 317.888 159.905 317.888ZM167.745 319H166.301V310.052H168.052L171.24 316.991H171.373L174.577 310.052H176.253V319H174.809V312.633H174.651L171.829 318.751H170.717L167.903 312.633H167.745V319ZM182.591 319.158C180.035 319.158 178.491 317.365 178.491 314.559V314.551C178.491 311.787 180.068 309.894 182.5 309.894C184.932 309.894 186.41 311.704 186.41 314.376V314.941H179.968C180.01 316.792 181.031 317.871 182.624 317.871C183.836 317.871 184.583 317.298 184.824 316.759L184.857 316.684H186.302L186.285 316.75C185.978 317.962 184.7 319.158 182.591 319.158ZM182.492 311.181C181.163 311.181 180.151 312.085 179.993 313.787H184.94C184.791 312.019 183.811 311.181 182.492 311.181ZM194.515 319V314.949H190.083V319H188.638V310.052H190.083V313.754H194.515V310.052H195.96V319H194.515ZM198.629 319V310.052H200.073V316.726H200.206L204.63 310.052H206.074V319H204.63V312.326H204.497L200.073 319H198.629ZM208.752 319V310.052H212.545C214.238 310.052 215.226 310.973 215.226 312.376V312.393C215.226 313.281 214.604 314.119 213.765 314.293V314.426C214.902 314.584 215.625 315.381 215.625 316.418V316.435C215.625 317.987 214.487 319 212.562 319H208.752ZM210.196 313.837H212.105C213.267 313.837 213.79 313.389 213.79 312.542V312.525C213.79 311.762 213.342 311.247 212.338 311.247H210.196V313.837ZM210.196 317.805H212.504C213.599 317.805 214.155 317.307 214.155 316.41V316.394C214.155 315.447 213.516 315.032 212.23 315.032H210.196V317.805ZM220.36 319.158C218.659 319.158 217.372 318.128 217.372 316.501V316.485C217.372 314.891 218.551 313.97 220.634 313.845L223.199 313.688V312.874C223.199 311.77 222.527 311.172 221.191 311.172C220.12 311.172 219.414 311.571 219.182 312.268L219.173 312.293H217.729L217.737 312.243C217.97 310.84 219.331 309.894 221.24 309.894C223.423 309.894 224.644 311.015 224.644 312.874V319H223.199V317.68H223.066C222.502 318.635 221.564 319.158 220.36 319.158ZM218.85 316.468C218.85 317.373 219.622 317.904 220.659 317.904C222.128 317.904 223.199 316.941 223.199 315.663V314.85L220.809 314.999C219.447 315.082 218.85 315.563 218.85 316.452V316.468ZM230.998 308.807C229.288 308.807 228.151 307.628 228.151 306.084H229.446C229.446 306.989 230.035 307.827 230.998 307.827C231.978 307.827 232.55 306.989 232.55 306.084H233.845C233.845 307.628 232.708 308.807 230.998 308.807ZM227.271 319V310.052H228.715V316.726H228.848L233.272 310.052H234.717V319H233.272V312.326H233.14L228.715 319H227.271ZM243.877 310.052V311.247H240.98V319H239.536V311.247H236.639V310.052H243.877ZM249.119 319.158C246.562 319.158 245.018 317.365 245.018 314.559V314.551C245.018 311.787 246.596 309.894 249.028 309.894C251.46 309.894 252.937 311.704 252.937 314.376V314.941H246.496C246.537 316.792 247.558 317.871 249.152 317.871C250.364 317.871 251.111 317.298 251.352 316.759L251.385 316.684H252.829L252.813 316.75C252.506 317.962 251.227 319.158 249.119 319.158ZM249.019 311.181C247.691 311.181 246.679 312.085 246.521 313.787H251.468C251.319 312.019 250.339 311.181 249.019 311.181ZM258.835 319.158C256.328 319.158 254.726 317.34 254.726 314.501V314.484C254.726 311.704 256.32 309.894 258.827 309.894C261.002 309.894 262.305 311.147 262.571 312.741L262.579 312.791H261.143L261.135 312.766C260.91 311.886 260.114 311.172 258.827 311.172C257.217 311.172 256.204 312.467 256.204 314.484V314.501C256.204 316.56 257.233 317.879 258.827 317.879C260.031 317.879 260.794 317.348 261.126 316.352L261.143 316.302L262.571 316.294L262.554 316.385C262.189 318.004 260.985 319.158 258.835 319.158ZM264.675 319V310.052H266.119V312.924H267.871C269.921 312.924 271.233 314.103 271.233 315.954V315.97C271.233 317.821 269.921 319 267.871 319H264.675ZM267.871 314.119H266.119V317.805H267.871C269.049 317.805 269.788 317.074 269.788 315.97V315.954C269.788 314.841 269.041 314.119 267.871 314.119ZM2.41943 341V332.052H3.86377V338.726H3.99658L8.4209 332.052H9.86523V341H8.4209V334.326H8.28809L3.86377 341H2.41943ZM15.5888 341.166C13.6796 341.166 12.227 340.22 12.0444 338.775L12.0361 338.709H13.5053L13.5219 338.775C13.7045 339.506 14.5014 339.971 15.5888 339.971C16.9086 339.971 17.6889 339.332 17.6889 338.443V338.427C17.6889 337.456 16.9584 337.007 15.5888 337.007H14.1943V335.812H15.5888C16.7343 335.812 17.3735 335.355 17.3735 334.426V334.409C17.3735 333.646 16.7841 333.081 15.6386 333.081C14.6176 333.081 13.8456 333.538 13.7045 334.251L13.6962 334.293H12.2851L12.2934 334.235C12.5009 332.799 13.8124 331.886 15.6386 331.886C17.6391 331.886 18.7846 332.874 18.7846 334.301V334.318C18.7846 335.223 18.1952 336.044 17.3071 336.252V336.385C18.4858 336.642 19.1083 337.356 19.1083 338.352V338.369C19.1083 340.029 17.6723 341.166 15.5888 341.166ZM24.9398 341.158C22.3914 341.158 20.8143 339.398 20.8143 336.534V336.518C20.8143 333.646 22.3914 331.894 24.9398 331.894C27.4881 331.894 29.0653 333.646 29.0653 336.518V336.534C29.0653 339.398 27.4881 341.158 24.9398 341.158ZM24.9398 339.879C26.6331 339.879 27.5877 338.643 27.5877 336.534V336.518C27.5877 334.401 26.6331 333.172 24.9398 333.172C23.2464 333.172 22.2918 334.401 22.2918 336.518V336.534C22.2918 338.643 23.2464 339.879 24.9398 339.879ZM35.0212 341.166C32.282 341.166 30.8543 339.298 30.8543 335.712V335.696C30.8543 330.948 32.1741 328.922 35.3699 328.773L36.2664 328.731C36.9802 328.698 37.8269 328.565 38.5989 328.25V329.528C38.3167 329.794 37.3704 330.01 36.3328 330.06L35.4197 330.101C33.3362 330.192 32.4314 331.164 32.0994 333.604L32.0745 333.787H32.2073C32.8132 332.716 33.884 332.135 35.2371 332.135C37.6443 332.135 39.1882 333.853 39.1882 336.551V336.567C39.1882 339.406 37.6028 341.166 35.0212 341.166ZM35.0212 339.888C36.7312 339.888 37.7107 338.667 37.7107 336.567V336.551C37.7107 334.55 36.7312 333.413 35.0212 333.413C33.3113 333.413 32.3318 334.55 32.3318 336.551V336.567C32.3318 338.667 33.3113 339.888 35.0212 339.888ZM41.4255 343.988V332.052H42.8698V333.479H43.0026C43.5505 332.483 44.5466 331.894 45.7917 331.894C48.0578 331.894 49.5436 333.729 49.5436 336.518V336.534C49.5436 339.34 48.0661 341.158 45.7917 341.158C44.5632 341.158 43.4924 340.543 43.0026 339.589H42.8698V343.988H41.4255ZM45.4596 339.879C47.0949 339.879 48.0661 338.618 48.0661 336.534V336.518C48.0661 334.434 47.0949 333.172 45.4596 333.172C43.8327 333.172 42.8366 334.451 42.8366 336.518V336.534C42.8366 338.601 43.8327 339.879 45.4596 339.879ZM54.2545 341.158C52.5528 341.158 51.2662 340.128 51.2662 338.501V338.485C51.2662 336.891 52.4449 335.97 54.5284 335.845L57.0934 335.688V334.874C57.0934 333.77 56.421 333.172 55.0846 333.172C54.0138 333.172 53.3082 333.571 53.0758 334.268L53.0675 334.293H51.6231L51.6314 334.243C51.8639 332.84 53.2252 331.894 55.1344 331.894C57.3175 331.894 58.5377 333.015 58.5377 334.874V341H57.0934V339.68H56.9605C56.3961 340.635 55.4581 341.158 54.2545 341.158ZM52.7438 338.468C52.7438 339.373 53.5157 339.904 54.5533 339.904C56.0226 339.904 57.0934 338.941 57.0934 337.663V336.85L54.7027 336.999C53.3414 337.082 52.7438 337.563 52.7438 338.452V338.468ZM61.9619 341H60.1773L64.0371 336.285L60.3101 332.052H62.0449L65.1743 335.82H65.7056V332.052H67.1001V335.82H67.6314L70.7608 332.052H72.4707L68.7686 336.252L72.6533 341H70.8438L67.6314 336.899H67.1001V341H65.7056V336.899H65.1743L61.9619 341ZM77.7543 341.158C75.1977 341.158 73.6537 339.365 73.6537 336.559V336.551C73.6537 333.787 75.2309 331.894 77.663 331.894C80.0952 331.894 81.5727 333.704 81.5727 336.376V336.941H75.1313C75.1728 338.792 76.1938 339.871 77.7875 339.871C78.9995 339.871 79.7465 339.298 79.9872 338.759L80.0204 338.684H81.4648L81.4482 338.75C81.1411 339.962 79.8627 341.158 77.7543 341.158ZM77.6547 333.181C76.3266 333.181 75.3139 334.085 75.1562 335.787H80.1035C79.954 334.019 78.9745 333.181 77.6547 333.181ZM89.6786 341V336.949H85.246V341H83.8016V332.052H85.246V335.754H89.6786V332.052H91.1229V341H89.6786ZM93.7918 341V332.052H95.2361V338.726H95.3689L99.7932 332.052H101.238V341H99.7932V334.326H99.6604L95.2361 341H93.7918ZM108.663 341V337.796H107.144L104.861 341H103.159L105.658 337.53C104.396 337.173 103.633 336.244 103.633 335.023V335.007C103.633 333.172 104.944 332.052 106.994 332.052H110.107V341H108.663ZM106.994 336.601H108.663V333.247H106.994C105.816 333.247 105.11 333.895 105.11 334.974V334.99C105.11 335.928 105.824 336.601 106.994 336.601ZM114.22 341H112.776V332.052H114.527L117.715 338.991H117.848L121.052 332.052H122.729V341H121.284V334.633H121.127L118.304 340.751H117.192L114.378 334.633H114.22V341ZM125.406 341V332.052H126.85V338.726H126.983L131.407 332.052H132.852V341H131.407V334.326H131.274L126.85 341H125.406ZM140.14 341V332.052H141.584V338.726H141.717L146.141 332.052H147.586V341H146.141V334.326H146.009L141.584 341H140.14ZM159.05 343.988V341.108C156.277 341.058 154.434 339.282 154.434 336.534V336.518C154.434 333.762 156.277 331.985 159.05 331.944V329.022H160.444V331.944C163.208 331.994 165.051 333.762 165.051 336.518V336.534C165.051 339.29 163.208 341.066 160.444 341.108V343.988H159.05ZM159.05 339.871V333.181C157.115 333.222 155.887 334.484 155.887 336.518V336.534C155.887 338.56 157.115 339.821 159.05 339.871ZM160.444 339.871C162.37 339.83 163.598 338.568 163.598 336.534V336.518C163.598 334.492 162.37 333.23 160.444 333.181V339.871ZM169.754 341.158C168.052 341.158 166.765 340.128 166.765 338.501V338.485C166.765 336.891 167.944 335.97 170.027 335.845L172.592 335.688V334.874C172.592 333.77 171.92 333.172 170.584 333.172C169.513 333.172 168.807 333.571 168.575 334.268L168.567 334.293H167.122L167.131 334.243C167.363 332.84 168.724 331.894 170.633 331.894C172.817 331.894 174.037 333.015 174.037 334.874V341H172.592V339.68H172.46C171.895 340.635 170.957 341.158 169.754 341.158ZM168.243 338.468C168.243 339.373 169.015 339.904 170.052 339.904C171.522 339.904 172.592 338.941 172.592 337.663V336.85L170.202 336.999C168.84 337.082 168.243 337.563 168.243 338.452V338.468ZM180.391 330.807C178.681 330.807 177.544 329.628 177.544 328.084H178.839C178.839 328.989 179.428 329.827 180.391 329.827C181.371 329.827 181.943 328.989 181.943 328.084H183.238C183.238 329.628 182.101 330.807 180.391 330.807ZM176.664 341V332.052H178.108V338.726H178.241L182.666 332.052H184.11V341H182.666V334.326H182.533L178.108 341H176.664ZM188.887 337.497C188.696 339.962 187.933 341.083 186.438 341.083C186.131 341.083 185.899 341.033 185.783 340.992V339.688C185.857 339.713 186.082 339.747 186.297 339.747C187.119 339.747 187.451 338.709 187.542 337.381L187.924 332.052H193.776V341H192.332V333.247H189.219L188.887 337.497ZM198.911 341.158C197.209 341.158 195.922 340.128 195.922 338.501V338.485C195.922 336.891 197.101 335.97 199.184 335.845L201.749 335.688V334.874C201.749 333.77 201.077 333.172 199.741 333.172C198.67 333.172 197.964 333.571 197.732 334.268L197.724 334.293H196.279L196.288 334.243C196.52 332.84 197.881 331.894 199.79 331.894C201.974 331.894 203.194 333.015 203.194 334.874V341H201.749V339.68H201.617C201.052 340.635 200.114 341.158 198.911 341.158ZM197.4 338.468C197.4 339.373 198.172 339.904 199.209 339.904C200.679 339.904 201.749 338.941 201.749 337.663V336.85L199.359 336.999C197.997 337.082 197.4 337.563 197.4 338.452V338.468ZM207.265 341H205.821V332.052H207.573L210.76 338.991H210.893L214.097 332.052H215.774V341H214.329V334.633H214.172L211.349 340.751H210.237L207.423 334.633H207.265V341ZM218.451 341V332.052H219.895V338.726H220.028L224.452 332.052H225.897V341H224.452V334.326H224.32L219.895 341H218.451Z" fill="black"/>
<defs>
<filter id="filter0_d_1037_22577" x="0" y="116" width="363" height="86" filterUnits="userSpaceOnUse" color-interpolation-filters="sRGB">
<feFlood flood-opacity="0" result="BackgroundImageFix"/>
<feColorMatrix in="SourceAlpha" type="matrix" values="0 0 0 0 0 0 0 0 0 0 0 0 0 0 0 0 0 0 127 0" result="hardAlpha"/>
<feOffset dy="3"/>
<feGaussianBlur stdDeviation="0.5"/>
<feColorMatrix type="matrix" values="0 0 0 0 0 0 0 0 0 0 0 0 0 0 0 0 0 0 0.06 0"/>
<feBlend mode="normal" in2="BackgroundImageFix" result="effect1_dropShadow_1037_22577"/>
<feBlend mode="normal" in="SourceGraphic" in2="effect1_dropShadow_1037_22577" result="shape"/>
</filter>
<clipPath id="clip0_1037_22577">
<rect width="28" height="28" fill="white" transform="translate(236.9 143)"/>
</clipPath>
<clipPath id="clip1_1037_22577">
<rect width="28" height="28" fill="white" transform="translate(28.7002 214)"/>
</clipPath>
</defs>
</svg>
