<svg width="363" height="442" viewBox="0 0 363 442" fill="none" xmlns="http://www.w3.org/2000/svg">
<path d="M89.4086 21.7832H87.7777V17.418H88.8227C89.848 16.8711 90.2289 15.6211 90.3363 13.7754L90.8734 4.9082H99.7895V17.418H101.547V21.7832H99.9164V19H89.4086V21.7832ZM91.9867 13.8145C91.8891 15.4062 91.6937 16.4707 91.0004 17.3008V17.418H98.0316V6.49023H92.4457L91.9867 13.8145ZM108.037 19.1855C105.039 19.1855 103.183 17.1152 103.183 13.7461V13.7266C103.183 10.3477 105.039 8.28711 108.037 8.28711C111.035 8.28711 112.89 10.3477 112.89 13.7266V13.7461C112.89 17.1152 111.035 19.1855 108.037 19.1855ZM108.037 17.6816C110.029 17.6816 111.152 16.2266 111.152 13.7461V13.7266C111.152 11.2363 110.029 9.79102 108.037 9.79102C106.045 9.79102 104.921 11.2363 104.921 13.7266V13.7461C104.921 16.2266 106.045 17.6816 108.037 17.6816ZM119.897 19.1953C116.675 19.1953 114.995 16.998 114.995 12.7793V12.7598C114.995 7.17383 116.548 4.79102 120.307 4.61523L121.362 4.56641C122.202 4.52734 123.198 4.37109 124.106 4V5.50391C123.774 5.81641 122.661 6.07031 121.44 6.12891L120.366 6.17773C117.915 6.28516 116.85 7.42773 116.46 10.2988L116.43 10.5137H116.587C117.3 9.25391 118.559 8.57031 120.151 8.57031C122.983 8.57031 124.8 10.5918 124.8 13.7656V13.7852C124.8 17.125 122.934 19.1953 119.897 19.1953ZM119.897 17.6914C121.909 17.6914 123.061 16.2559 123.061 13.7852V13.7656C123.061 11.4121 121.909 10.0742 119.897 10.0742C117.886 10.0742 116.733 11.4121 116.733 13.7656V13.7852C116.733 16.2559 117.886 17.6914 119.897 17.6914ZM127.432 22.5156V8.47266H129.131V10.1523H129.287C129.932 8.98047 131.104 8.28711 132.568 8.28711C135.234 8.28711 136.982 10.4453 136.982 13.7266V13.7461C136.982 17.0469 135.244 19.1855 132.568 19.1855C131.123 19.1855 129.863 18.4629 129.287 17.3398H129.131V22.5156H127.432ZM132.178 17.6816C134.102 17.6816 135.244 16.1973 135.244 13.7461V13.7266C135.244 11.2754 134.102 9.79102 132.178 9.79102C130.264 9.79102 129.092 11.2949 129.092 13.7266V13.7461C129.092 16.1777 130.264 17.6816 132.178 17.6816ZM143.96 19.1855C140.962 19.1855 139.107 17.1152 139.107 13.7461V13.7266C139.107 10.3477 140.962 8.28711 143.96 8.28711C146.958 8.28711 148.814 10.3477 148.814 13.7266V13.7461C148.814 17.1152 146.958 19.1855 143.96 19.1855ZM143.96 17.6816C145.952 17.6816 147.075 16.2266 147.075 13.7461V13.7266C147.075 11.2363 145.952 9.79102 143.96 9.79102C141.968 9.79102 140.845 11.2363 140.845 13.7266V13.7461C140.845 16.2266 141.968 17.6816 143.96 17.6816ZM156.861 19V8.47266H165.377V19H163.677V9.87891H158.56V19H156.861ZM172.852 19.1855C169.854 19.1855 167.999 17.1152 167.999 13.7461V13.7266C167.999 10.3477 169.854 8.28711 172.852 8.28711C175.85 8.28711 177.706 10.3477 177.706 13.7266V13.7461C177.706 17.1152 175.85 19.1855 172.852 19.1855ZM172.852 17.6816C174.845 17.6816 175.968 16.2266 175.968 13.7461V13.7266C175.968 11.2363 174.845 9.79102 172.852 9.79102C170.86 9.79102 169.737 11.2363 169.737 13.7266V13.7461C169.737 16.2266 170.86 17.6816 172.852 17.6816ZM180.777 19H178.678L183.219 13.4531L178.834 8.47266H180.875L184.557 12.9062H185.182V8.47266H186.822V12.9062H187.447L191.129 8.47266H193.141L188.785 13.4141L193.355 19H191.227L187.447 14.1758H186.822V19H185.182V14.1758H184.557L180.777 19ZM197.95 19.1855C195.948 19.1855 194.435 17.9746 194.435 16.0605V16.041C194.435 14.166 195.821 13.082 198.273 12.9355L201.29 12.75V11.793C201.29 10.4941 200.499 9.79102 198.927 9.79102C197.667 9.79102 196.837 10.2598 196.564 11.0801L196.554 11.1094H194.855L194.864 11.0508C195.138 9.40039 196.739 8.28711 198.986 8.28711C201.554 8.28711 202.989 9.60547 202.989 11.793V19H201.29V17.4473H201.134C200.47 18.5703 199.366 19.1855 197.95 19.1855ZM196.173 16.0215C196.173 17.0859 197.081 17.7109 198.302 17.7109C200.03 17.7109 201.29 16.5781 201.29 15.0742V14.1172L198.478 14.293C196.876 14.3906 196.173 14.957 196.173 16.002V16.0215ZM208.551 14.8789C208.327 17.7793 207.428 19.0977 205.67 19.0977C205.309 19.0977 205.036 19.0391 204.899 18.9902V17.457C204.987 17.4863 205.25 17.5254 205.504 17.5254C206.471 17.5254 206.862 16.3047 206.969 14.7422L207.418 8.47266H214.303V19H212.604V9.87891H208.942L208.551 14.8789ZM221.779 19.1855C218.781 19.1855 216.925 17.1152 216.925 13.7461V13.7266C216.925 10.3477 218.781 8.28711 221.779 8.28711C224.777 8.28711 226.632 10.3477 226.632 13.7266V13.7461C226.632 17.1152 224.777 19.1855 221.779 19.1855ZM221.779 17.6816C223.771 17.6816 224.894 16.2266 224.894 13.7461V13.7266C224.894 11.2363 223.771 9.79102 221.779 9.79102C219.787 9.79102 218.664 11.2363 218.664 13.7266V13.7461C218.664 16.2266 219.787 17.6816 221.779 17.6816ZM229.255 19V8.47266H233.718C235.71 8.47266 236.872 9.55664 236.872 11.207V11.2266C236.872 12.2715 236.139 13.2578 235.153 13.4629V13.6191C236.491 13.8047 237.341 14.7422 237.341 15.9629V15.9824C237.341 17.8086 236.003 19 233.737 19H229.255ZM230.954 12.9258H233.2C234.567 12.9258 235.182 12.3984 235.182 11.4023V11.3828C235.182 10.4844 234.655 9.87891 233.473 9.87891H230.954V12.9258ZM230.954 17.5938H233.669C234.958 17.5938 235.612 17.0078 235.612 15.9531V15.9336C235.612 14.8203 234.86 14.332 233.346 14.332H230.954V17.5938ZM242.912 19.1855C240.91 19.1855 239.396 17.9746 239.396 16.0605V16.041C239.396 14.166 240.783 13.082 243.234 12.9355L246.252 12.75V11.793C246.252 10.4941 245.461 9.79102 243.889 9.79102C242.629 9.79102 241.799 10.2598 241.525 11.0801L241.516 11.1094H239.816L239.826 11.0508C240.1 9.40039 241.701 8.28711 243.947 8.28711C246.516 8.28711 247.951 9.60547 247.951 11.793V19H246.252V17.4473H246.096C245.432 18.5703 244.328 19.1855 242.912 19.1855ZM241.135 16.0215C241.135 17.0859 242.043 17.7109 243.264 17.7109C244.992 17.7109 246.252 16.5781 246.252 15.0742V14.1172L243.439 14.293C241.838 14.3906 241.135 14.957 241.135 16.002V16.0215ZM258.669 8.47266V9.87891H255.261V19H253.562V9.87891H250.154V8.47266H258.669ZM260.92 19V8.47266H262.62V11.8516H264.68C267.092 11.8516 268.635 13.2383 268.635 15.416V15.4355C268.635 17.6133 267.092 19 264.68 19H260.92ZM264.68 13.2578H262.62V17.5938H264.68C266.067 17.5938 266.936 16.7344 266.936 15.4355V15.416C266.936 14.1074 266.057 13.2578 264.68 13.2578ZM271.677 14.3125L271.511 4.89844H273.464L273.298 14.3125H271.677ZM272.498 19.1758C271.707 19.1758 271.14 18.6094 271.14 17.8184C271.14 17.0176 271.707 16.4512 272.498 16.4512C273.289 16.4512 273.845 17.0176 273.845 17.8184C273.845 18.6094 273.289 19.1758 272.498 19.1758Z" fill="black"/>
<path d="M7.64062 73.2822C4.2041 73.2822 2.14551 70.8418 2.14551 67.0151V66.9985C2.14551 63.1553 4.25391 60.7397 7.64062 60.7397C11.0439 60.7397 13.1357 63.1636 13.1357 66.9985V67.0151C13.1357 70.8335 11.0605 73.2822 7.64062 73.2822ZM7.64062 71.9043C10.0977 71.9043 11.6084 69.9785 11.6084 67.0151V66.9985C11.6084 64.0103 10.0894 62.1177 7.64062 62.1177C5.2002 62.1177 3.67285 64.0103 3.67285 66.9985V67.0151C3.67285 69.9785 5.15039 71.9043 7.64062 71.9043ZM19.1996 73.1577C16.6928 73.1577 15.0907 71.3398 15.0907 68.501V68.4844C15.0907 65.7036 16.6845 63.894 19.1913 63.894C21.3661 63.894 22.6694 65.1475 22.935 66.7412L22.9433 66.791H21.5072L21.4989 66.7661C21.2748 65.8862 20.4779 65.1724 19.1913 65.1724C17.581 65.1724 16.5683 66.4673 16.5683 68.4844V68.501C16.5683 70.5596 17.5976 71.8794 19.1913 71.8794C20.3949 71.8794 21.1586 71.3481 21.4906 70.3521L21.5072 70.3022L22.935 70.2939L22.9184 70.3853C22.5531 72.0039 21.3495 73.1577 19.1996 73.1577ZM30.9163 73V68.9492H26.4837V73H25.0394V64.0518H26.4837V67.7539H30.9163V64.0518H32.3607V73H30.9163ZM38.7151 73.1577C36.1668 73.1577 34.5896 71.3979 34.5896 68.5342V68.5176C34.5896 65.6455 36.1668 63.894 38.7151 63.894C41.2634 63.894 42.8406 65.6455 42.8406 68.5176V68.5342C42.8406 71.3979 41.2634 73.1577 38.7151 73.1577ZM38.7151 71.8794C40.4085 71.8794 41.363 70.6426 41.363 68.5342V68.5176C41.363 66.4009 40.4085 65.1724 38.7151 65.1724C37.0217 65.1724 36.0672 66.4009 36.0672 68.5176V68.5342C36.0672 70.6426 37.0217 71.8794 38.7151 71.8794ZM45.0695 73V64.0518H48.863C50.5563 64.0518 51.5441 64.9731 51.5441 66.376V66.3926C51.5441 67.2808 50.9216 68.1191 50.0832 68.2935V68.4263C51.2204 68.584 51.9426 69.3809 51.9426 70.4185V70.4351C51.9426 71.9873 50.8054 73 48.8796 73H45.0695ZM46.5138 67.8369H48.423C49.5851 67.8369 50.1081 67.3887 50.1081 66.542V66.5254C50.1081 65.7617 49.6598 65.2471 48.6554 65.2471H46.5138V67.8369ZM46.5138 71.8047H48.8215C49.9172 71.8047 50.4733 71.3066 50.4733 70.4102V70.3936C50.4733 69.4473 49.8342 69.0322 48.5475 69.0322H46.5138V71.8047ZM60.0899 73V68.9492H55.6573V73H54.213V64.0518H55.6573V67.7539H60.0899V64.0518H61.5343V73H60.0899ZM64.2031 73V64.0518H65.6475V66.9238H67.3989C69.4492 66.9238 70.7608 68.1025 70.7608 69.9536V69.9702C70.7608 71.8213 69.4492 73 67.3989 73H64.2031ZM72.3213 73V64.0518H73.7656V73H72.3213ZM67.3989 68.1191H65.6475V71.8047H67.3989C68.5777 71.8047 69.3164 71.0742 69.3164 69.9702V69.9536C69.3164 68.8413 68.5694 68.1191 67.3989 68.1191ZM80.0952 73.1577C77.5385 73.1577 75.9946 71.3647 75.9946 68.5591V68.5508C75.9946 65.7866 77.5717 63.894 80.0038 63.894C82.436 63.894 83.9135 65.7036 83.9135 68.3765V68.9409H77.4721C77.5136 70.792 78.5346 71.8711 80.1284 71.8711C81.3403 71.8711 82.0873 71.2983 82.3281 70.7588L82.3613 70.6841H83.8056L83.789 70.7505C83.4819 71.9624 82.2036 73.1577 80.0952 73.1577ZM79.9955 65.1807C78.6674 65.1807 77.6547 66.0854 77.497 67.7871H82.4443C82.2949 66.019 81.3154 65.1807 79.9955 65.1807ZM94.929 75.9883V73.1079C92.1565 73.0581 90.3138 71.2817 90.3138 68.5342V68.5176C90.3138 65.7617 92.1565 63.9854 94.929 63.9438V61.022H96.3235V63.9438C99.0877 63.9937 100.93 65.7617 100.93 68.5176V68.5342C100.93 71.29 99.0877 73.0664 96.3235 73.1079V75.9883H94.929ZM94.929 71.8711V65.1807C92.9949 65.2222 91.7664 66.4839 91.7664 68.5176V68.5342C91.7664 70.5596 92.9949 71.8213 94.929 71.8711ZM96.3235 71.8711C98.2493 71.8296 99.4778 70.5679 99.4778 68.5342V68.5176C99.4778 66.4922 98.2493 65.2305 96.3235 65.1807V71.8711ZM103.608 76.1377C103.417 76.1377 103.168 76.1211 102.968 76.0879V74.9009C103.143 74.9341 103.367 74.9424 103.566 74.9424C104.388 74.9424 104.886 74.5688 105.21 73.5396L105.376 73.0083L102.064 64.0518H103.608L106.065 71.4146H106.197L108.646 64.0518H110.165L106.671 73.5479C105.932 75.5566 105.193 76.1377 103.608 76.1377ZM117.939 73V68.9492H113.506V73H112.062V64.0518H113.506V67.7539H117.939V64.0518H119.383V73H117.939ZM123.953 68.9243H123.497V73H122.052V64.0518H123.497V67.7954H123.953L127.415 64.0518H129.149L125.124 68.2686L129.307 73H127.456L123.953 68.9243ZM138.417 75.3657V73H131.129V64.0518H132.574V71.8047H136.923V64.0518H138.368V71.8047H139.795V75.3657H138.417ZM141.501 73V64.0518H142.946V70.7256H143.078L147.503 64.0518H148.947V73H147.503V66.3262H147.37L142.946 73H141.501ZM151.624 73V64.0518H153.069V70.7256H153.201L157.626 64.0518H159.07V73H157.626V66.3262H157.493L153.069 73H151.624ZM168.459 69.4971C168.268 71.9624 167.504 73.083 166.01 73.083C165.703 73.083 165.47 73.0332 165.354 72.9917V71.6885C165.429 71.7134 165.653 71.7466 165.869 71.7466C166.691 71.7466 167.023 70.709 167.114 69.3809L167.496 64.0518H173.348V73H171.903V65.2471H168.791L168.459 69.4971ZM179.677 73.1577C177.121 73.1577 175.577 71.3647 175.577 68.5591V68.5508C175.577 65.7866 177.154 63.894 179.586 63.894C182.018 63.894 183.496 65.7036 183.496 68.3765V68.9409H177.054C177.096 70.792 178.117 71.8711 179.711 71.8711C180.922 71.8711 181.669 71.2983 181.91 70.7588L181.943 70.6841H183.388L183.371 70.7505C183.064 71.9624 181.786 73.1577 179.677 73.1577ZM179.578 65.1807C178.25 65.1807 177.237 66.0854 177.079 67.7871H182.026C181.877 66.019 180.898 65.1807 179.578 65.1807ZM191.452 65.2471H187.169V73H185.725V64.0518H191.452V65.2471ZM195.358 68.9243H194.901V73H193.457V64.0518H194.901V67.7954H195.358L198.819 64.0518H200.554L196.528 68.2686L200.712 73H198.861L195.358 68.9243ZM205.805 73.1577C203.256 73.1577 201.679 71.3979 201.679 68.5342V68.5176C201.679 65.6455 203.256 63.894 205.805 63.894C208.353 63.894 209.93 65.6455 209.93 68.5176V68.5342C209.93 71.3979 208.353 73.1577 205.805 73.1577ZM205.805 71.8794C207.498 71.8794 208.452 70.6426 208.452 68.5342V68.5176C208.452 66.4009 207.498 65.1724 205.805 65.1724C204.111 65.1724 203.157 66.4009 203.157 68.5176V68.5342C203.157 70.6426 204.111 71.8794 205.805 71.8794ZM222.647 73V68.9492H218.215V73H216.77V64.0518H218.215V67.7539H222.647V64.0518H224.091V73H222.647ZM229.226 73.1577C227.524 73.1577 226.237 72.1284 226.237 70.5015V70.4849C226.237 68.8911 227.416 67.9697 229.5 67.8452L232.065 67.6875V66.874C232.065 65.77 231.392 65.1724 230.056 65.1724C228.985 65.1724 228.279 65.5708 228.047 66.2681L228.039 66.293H226.594L226.603 66.2432C226.835 64.8403 228.196 63.894 230.106 63.894C232.289 63.894 233.509 65.0146 233.509 66.874V73H232.065V71.6802H231.932C231.367 72.6348 230.429 73.1577 229.226 73.1577ZM227.715 70.4683C227.715 71.373 228.487 71.9043 229.524 71.9043C230.994 71.9043 232.065 70.9414 232.065 69.6631V68.8496L229.674 68.999C228.313 69.082 227.715 69.5635 227.715 70.4517V70.4683ZM239.863 62.8066C238.153 62.8066 237.016 61.6279 237.016 60.084H238.311C238.311 60.9888 238.9 61.8271 239.863 61.8271C240.843 61.8271 241.416 60.9888 241.416 60.084H242.71C242.71 61.6279 241.573 62.8066 239.863 62.8066ZM236.136 73V64.0518H237.581V70.7256H237.713L242.138 64.0518H243.582V73H242.138V66.3262H242.005L237.581 73H236.136ZM252.742 64.0518V65.2471H249.845V73H248.401V65.2471H245.504V64.0518H252.742ZM254.656 73V64.0518H256.1V70.7256H256.233L260.657 64.0518H262.101V73H260.657V66.3262H260.524L256.1 73H254.656ZM275.267 73V68.9492H270.834V73H269.39V64.0518H270.834V67.7539H275.267V64.0518H276.711V73H275.267ZM281.845 73.1577C280.144 73.1577 278.857 72.1284 278.857 70.5015V70.4849C278.857 68.8911 280.036 67.9697 282.119 67.8452L284.684 67.6875V66.874C284.684 65.77 284.012 65.1724 282.675 65.1724C281.605 65.1724 280.899 65.5708 280.667 66.2681L280.658 66.293H279.214L279.222 66.2432C279.455 64.8403 280.816 63.894 282.725 63.894C284.908 63.894 286.129 65.0146 286.129 66.874V73H284.684V71.6802H284.551C283.987 72.6348 283.049 73.1577 281.845 73.1577ZM280.335 70.4683C280.335 71.373 281.107 71.9043 282.144 71.9043C283.613 71.9043 284.684 70.9414 284.684 69.6631V68.8496L282.294 68.999C280.932 69.082 280.335 69.5635 280.335 70.4517V70.4683ZM293.367 73V64.0518H300.605V73H299.161V65.2471H294.811V73H293.367ZM305.74 73.1577C304.038 73.1577 302.751 72.1284 302.751 70.5015V70.4849C302.751 68.8911 303.93 67.9697 306.014 67.8452L308.578 67.6875V66.874C308.578 65.77 307.906 65.1724 306.57 65.1724C305.499 65.1724 304.793 65.5708 304.561 66.2681L304.553 66.293H303.108L303.117 66.2432C303.349 64.8403 304.71 63.894 306.62 63.894C308.803 63.894 310.023 65.0146 310.023 66.874V73H308.578V71.6802H308.446C307.881 72.6348 306.943 73.1577 305.74 73.1577ZM304.229 70.4683C304.229 71.373 305.001 71.9043 306.038 71.9043C307.508 71.9043 308.578 70.9414 308.578 69.6631V68.8496L306.188 68.999C304.827 69.082 304.229 69.5635 304.229 70.4517V70.4683ZM318.527 73V68.9492H314.095V73H312.65V64.0518H314.095V67.7539H318.527V64.0518H319.971V73H318.527ZM326.301 73.1577C323.744 73.1577 322.2 71.3647 322.2 68.5591V68.5508C322.2 65.7866 323.778 63.894 326.21 63.894C328.642 63.894 330.119 65.7036 330.119 68.3765V68.9409H323.678C323.719 70.792 324.74 71.8711 326.334 71.8711C327.546 71.8711 328.293 71.2983 328.534 70.7588L328.567 70.6841H330.011L329.995 70.7505C329.688 71.9624 328.409 73.1577 326.301 73.1577ZM326.201 65.1807C324.873 65.1807 323.861 66.0854 323.703 67.7871H328.65C328.501 66.019 327.521 65.1807 326.201 65.1807ZM334.199 69.4971C334.008 71.9624 333.245 73.083 331.751 73.083C331.443 73.083 331.211 73.0332 331.095 72.9917V71.6885C331.17 71.7134 331.394 71.7466 331.609 71.7466C332.431 71.7466 332.763 70.709 332.855 69.3809L333.236 64.0518H339.089V73H337.644V65.2471H334.531L334.199 69.4971ZM341.757 73V64.0518H343.202V70.7256H343.335L347.759 64.0518H349.203V73H347.759V66.3262H347.626L343.202 73H341.757ZM8.29639 95V90.9492H3.86377V95H2.41943V86.0518H3.86377V89.7539H8.29639V86.0518H9.74072V95H8.29639ZM14.8749 95.1577C13.1733 95.1577 11.8866 94.1284 11.8866 92.5015V92.4849C11.8866 90.8911 13.0654 89.9697 15.1488 89.8452L17.7138 89.6875V88.874C17.7138 87.77 17.0414 87.1724 15.705 87.1724C14.6342 87.1724 13.9286 87.5708 13.6962 88.2681L13.6879 88.293H12.2436L12.2519 88.2432C12.4843 86.8403 13.8456 85.894 15.7548 85.894C17.9379 85.894 19.1581 87.0146 19.1581 88.874V95H17.7138V93.6802H17.581C17.0165 94.6348 16.0785 95.1577 14.8749 95.1577ZM13.3642 92.4683C13.3642 93.373 14.1362 93.9043 15.1737 93.9043C16.643 93.9043 17.7138 92.9414 17.7138 91.6631V90.8496L15.3232 90.999C13.9618 91.082 13.3642 91.5635 13.3642 92.4517V92.4683ZM21.7855 95V86.0518H25.5789C27.2723 86.0518 28.2601 86.9731 28.2601 88.376V88.3926C28.2601 89.2808 27.6375 90.1191 26.7992 90.2935V90.4263C27.9364 90.584 28.6585 91.3809 28.6585 92.4185V92.4351C28.6585 93.9873 27.5213 95 25.5955 95H21.7855ZM23.2298 89.8369H25.139C26.3011 89.8369 26.8241 89.3887 26.8241 88.542V88.5254C26.8241 87.7617 26.3758 87.2471 25.3714 87.2471H23.2298V89.8369ZM23.2298 93.8047H25.5374C26.6331 93.8047 27.1893 93.3066 27.1893 92.4102V92.3936C27.1893 91.4473 26.5501 91.0322 25.2635 91.0322H23.2298V93.8047ZM30.929 95V86.0518H32.3733V92.7256H32.5061L36.9304 86.0518H38.3748V95H36.9304V88.3262H36.7976L32.3733 95H30.929ZM46.7795 87.2471H42.4963V95H41.0519V86.0518H46.7795V87.2471ZM51.0006 95.1577C49.2989 95.1577 48.0123 94.1284 48.0123 92.5015V92.4849C48.0123 90.8911 49.191 89.9697 51.2745 89.8452L53.8395 89.6875V88.874C53.8395 87.77 53.1671 87.1724 51.8307 87.1724C50.7599 87.1724 50.0543 87.5708 49.8219 88.2681L49.8136 88.293H48.3692L48.3775 88.2432C48.61 86.8403 49.9713 85.894 51.8805 85.894C54.0636 85.894 55.2838 87.0146 55.2838 88.874V95H53.8395V93.6802H53.7066C53.1422 94.6348 52.2042 95.1577 51.0006 95.1577ZM49.4898 92.4683C49.4898 93.373 50.2618 93.9043 51.2994 93.9043C52.7687 93.9043 53.8395 92.9414 53.8395 91.6631V90.8496L51.4488 90.999C50.0875 91.082 49.4898 91.5635 49.4898 92.4517V92.4683ZM65.1992 97.3657V95H57.9112V86.0518H59.3555V93.8047H63.7051V86.0518H65.1494V93.8047H66.5772V97.3657H65.1992ZM68.2831 95V86.0518H69.7275V92.7256H69.8603L74.2846 86.0518H75.7289V95H74.2846V88.3262H74.1518L69.7275 95H68.2831ZM78.4061 95V86.0518H79.8504V92.7256H79.9833L84.4076 86.0518H85.8519V95H84.4076V88.3262H84.2748L79.8504 95H78.4061ZM93.1403 95V86.0518H96.9338C98.6272 86.0518 99.6149 86.9731 99.6149 88.376V88.3926C99.6149 89.2808 98.9924 90.1191 98.154 90.2935V90.4263C99.2912 90.584 100.013 91.3809 100.013 92.4185V92.4351C100.013 93.9873 98.8762 95 96.9504 95H93.1403ZM94.5847 89.8369H96.4939C97.656 89.8369 98.1789 89.3887 98.1789 88.542V88.5254C98.1789 87.7617 97.7307 87.2471 96.7263 87.2471H94.5847V89.8369ZM94.5847 93.8047H96.8923C97.988 93.8047 98.5441 93.3066 98.5441 92.4102V92.3936C98.5441 91.4473 97.905 91.0322 96.6184 91.0322H94.5847V93.8047ZM108.161 95V90.9492H103.728V95H102.284V86.0518H103.728V89.7539H108.161V86.0518H109.605V95H108.161ZM112.274 95V86.0518H113.718V92.7256H113.851L118.275 86.0518H119.72V95H118.275V88.3262H118.143L113.718 95H112.274ZM125.443 95.166C123.534 95.166 122.082 94.2197 121.899 92.7754L121.891 92.709H123.36L123.376 92.7754C123.559 93.5059 124.356 93.9707 125.443 93.9707C126.763 93.9707 127.543 93.3315 127.543 92.4434V92.4268C127.543 91.4556 126.813 91.0073 125.443 91.0073H124.049V89.812H125.443C126.589 89.812 127.228 89.3555 127.228 88.4258V88.4092C127.228 87.6455 126.639 87.0811 125.493 87.0811C124.472 87.0811 123.7 87.5376 123.559 88.2515L123.551 88.293H122.14L122.148 88.2349C122.355 86.7988 123.667 85.8857 125.493 85.8857C127.494 85.8857 128.639 86.8735 128.639 88.3013V88.3179C128.639 89.2227 128.05 90.0444 127.162 90.252V90.3848C128.34 90.6421 128.963 91.356 128.963 92.3521V92.3687C128.963 94.0288 127.527 95.166 125.443 95.166ZM131.632 98.1377C131.441 98.1377 131.192 98.1211 130.993 98.0879V96.9009C131.167 96.9341 131.391 96.9424 131.59 96.9424C132.412 96.9424 132.91 96.5688 133.234 95.5396L133.4 95.0083L130.088 86.0518H131.632L134.089 93.4146H134.222L136.67 86.0518H138.189L134.695 95.5479C133.956 97.5566 133.217 98.1377 131.632 98.1377ZM147.835 95.166C145.694 95.166 144.349 93.9624 144.075 92.3438L144.067 92.2939H145.511L145.528 92.3521C145.81 93.3398 146.648 93.8877 147.843 93.8877C149.338 93.8877 150.367 92.7256 150.491 90.9741H146.333V89.7788H150.467C150.292 88.1685 149.246 87.1641 147.843 87.1641C146.59 87.1641 145.801 87.8447 145.544 88.6831L145.511 88.791H144.067L144.092 88.6582C144.382 87.1143 145.718 85.8857 147.843 85.8857C150.35 85.8857 151.986 87.6953 151.986 90.4844V90.501C151.986 93.3481 150.342 95.166 147.835 95.166ZM156.107 90.9243H155.651V95H154.206V86.0518H155.651V89.7954H156.107L159.568 86.0518H161.303L157.277 90.2686L161.461 95H159.61L156.107 90.9243ZM163.292 97.9883V86.0518H164.736V87.4795H164.869C165.417 86.4834 166.413 85.894 167.658 85.894C169.924 85.894 171.41 87.7285 171.41 90.5176V90.5342C171.41 93.3398 169.932 95.1577 167.658 95.1577C166.429 95.1577 165.358 94.5435 164.869 93.5889H164.736V97.9883H163.292ZM167.326 93.8794C168.961 93.8794 169.932 92.6177 169.932 90.5342V90.5176C169.932 88.4341 168.961 87.1724 167.326 87.1724C165.699 87.1724 164.703 88.4507 164.703 90.5176V90.5342C164.703 92.6011 165.699 93.8794 167.326 93.8794ZM176.121 95.1577C174.419 95.1577 173.132 94.1284 173.132 92.5015V92.4849C173.132 90.8911 174.311 89.9697 176.395 89.8452L178.959 89.6875V88.874C178.959 87.77 178.287 87.1724 176.951 87.1724C175.88 87.1724 175.174 87.5708 174.942 88.2681L174.934 88.293H173.489L173.498 88.2432C173.73 86.8403 175.091 85.894 177 85.894C179.184 85.894 180.404 87.0146 180.404 88.874V95H178.959V93.6802H178.827C178.262 94.6348 177.324 95.1577 176.121 95.1577ZM174.61 92.4683C174.61 93.373 175.382 93.9043 176.419 93.9043C177.889 93.9043 178.959 92.9414 178.959 91.6631V90.8496L176.569 90.999C175.208 91.082 174.61 91.5635 174.61 92.4517V92.4683ZM188.908 95V90.9492H184.475V95H183.031V86.0518H184.475V89.7539H188.908V86.0518H190.352V95H188.908ZM195.487 95.1577C193.785 95.1577 192.498 94.1284 192.498 92.5015V92.4849C192.498 90.8911 193.677 89.9697 195.761 89.8452L198.326 89.6875V88.874C198.326 87.77 197.653 87.1724 196.317 87.1724C195.246 87.1724 194.54 87.5708 194.308 88.2681L194.3 88.293H192.855L192.864 88.2432C193.096 86.8403 194.457 85.894 196.367 85.894C198.55 85.894 199.77 87.0146 199.77 88.874V95H198.326V93.6802H198.193C197.628 94.6348 196.69 95.1577 195.487 95.1577ZM193.976 92.4683C193.976 93.373 194.748 93.9043 195.785 93.9043C197.255 93.9043 198.326 92.9414 198.326 91.6631V90.8496L195.935 90.999C194.574 91.082 193.976 91.5635 193.976 92.4517V92.4683ZM203.501 88.6582C202.912 88.6582 202.422 88.1685 202.422 87.5791C202.422 86.9814 202.912 86.5 203.501 86.5C204.099 86.5 204.58 86.9814 204.58 87.5791C204.58 88.1685 204.099 88.6582 203.501 88.6582ZM203.501 95.083C202.912 95.083 202.422 94.5933 202.422 94.0039C202.422 93.4062 202.912 92.9248 203.501 92.9248C204.099 92.9248 204.58 93.4062 204.58 94.0039C204.58 94.5933 204.099 95.083 203.501 95.083Z" fill="black"/>
<g filter="url(#filter0_d_1037_23132)">
<rect x="1" y="116" width="361" height="82" rx="24" fill="white"/>
<path d="M38.5166 166.463C39.0176 166.463 39.3867 166.217 39.9932 165.681L43.0078 163.026H48.2988C50.9443 163.026 52.4297 161.497 52.4297 158.887V152.058C52.4297 149.447 50.9443 147.918 48.2988 147.918H37.0928C34.4561 147.918 32.9619 149.447 32.9619 152.058V158.887C32.9619 161.506 34.5 163.026 37.0312 163.026H37.3916V165.18C37.3916 165.962 37.8047 166.463 38.5166 166.463ZM38.9561 164.494V161.989C38.9561 161.471 38.7275 161.269 38.2354 161.269H37.1543C35.502 161.269 34.7109 160.434 34.7109 158.834V152.11C34.7109 150.511 35.502 149.676 37.1543 149.676H48.2461C49.8896 149.676 50.6807 150.511 50.6807 152.11V158.834C50.6807 160.434 49.8896 161.269 48.2461 161.269H42.9111C42.375 161.269 42.1113 161.356 41.7422 161.743L38.9561 164.494Z" fill="#808080"/>
<path d="M103.197 154.185C103.197 157.938 106.353 161.646 111.257 164.811C111.529 164.986 111.863 165.162 112.092 165.162C112.32 165.162 112.654 164.986 112.927 164.811C117.84 161.646 120.986 157.938 120.986 154.185C120.986 150.941 118.745 148.691 115.871 148.691C114.192 148.691 112.883 149.456 112.092 150.616C111.318 149.465 110 148.691 108.321 148.691C105.438 148.691 103.197 150.941 103.197 154.185ZM105.008 154.176C105.008 151.961 106.467 150.458 108.427 150.458C110.009 150.458 110.896 151.416 111.45 152.251C111.696 152.611 111.863 152.726 112.092 152.726C112.329 152.726 112.479 152.603 112.733 152.251C113.331 151.434 114.184 150.458 115.757 150.458C117.726 150.458 119.185 151.961 119.185 154.176C119.185 157.27 115.968 160.697 112.259 163.158C112.18 163.211 112.127 163.246 112.092 163.246C112.057 163.246 112.004 163.211 111.934 163.158C108.225 160.697 105.008 157.27 105.008 154.176Z" fill="#808080"/>
<rect x="156.5" y="132" width="50" height="50" rx="25" fill="#B3B3B3"/>
<path d="M178.072 163.376C177.088 163.376 176.174 163.224 175.332 162.921C174.502 162.605 173.779 162.161 173.162 161.589C172.557 161.017 172.083 160.346 171.739 159.575C171.395 158.792 171.223 157.934 171.223 157C171.223 156.066 171.395 155.213 171.739 154.443C172.083 153.66 172.557 152.983 173.162 152.411C173.779 151.839 174.502 151.401 175.332 151.097C176.174 150.782 177.088 150.624 178.072 150.624C179.222 150.624 180.248 150.823 181.15 151.22C182.063 151.617 182.822 152.189 183.427 152.936L181.185 154.933C180.782 154.466 180.337 154.11 179.851 153.865C179.377 153.619 178.843 153.497 178.25 153.497C177.74 153.497 177.271 153.578 176.844 153.742C176.417 153.905 176.05 154.145 175.741 154.46C175.445 154.764 175.208 155.132 175.03 155.564C174.864 155.996 174.781 156.475 174.781 157C174.781 157.525 174.864 158.004 175.03 158.436C175.208 158.868 175.445 159.242 175.741 159.557C176.05 159.861 176.417 160.095 176.844 160.258C177.271 160.422 177.74 160.503 178.25 160.503C178.843 160.503 179.377 160.381 179.851 160.135C180.337 159.89 180.782 159.534 181.185 159.067L183.427 161.064C182.822 161.799 182.063 162.372 181.15 162.78C180.248 163.177 179.222 163.376 178.072 163.376Z" fill="white"/>
<path fill-rule="evenodd" clip-rule="evenodd" d="M191.777 161.657C191.777 163.21 189.841 163.964 188.757 162.833L182.143 155.934L184.37 153.876L188.718 158.412L188.718 150.624L191.777 150.624L191.777 161.657Z" fill="white"/>
<circle cx="181.5" cy="157" r="21.5" stroke="white"/>
<g clip-path="url(#clip0_1037_23132)">
<path d="M260.726 150.335H258.69C257.754 149.704 256.558 149.228 255.072 149.228H249.513C249.163 149.228 248.821 149.33 248.528 149.522L246.805 150.648C246.805 150.648 245.367 151.588 244.701 152.121C244.431 152.343 244.211 152.551 244.106 152.711C243.598 153.449 243.783 154.297 244.308 154.822C245.156 155.67 246.154 155.223 246.415 155.077L248.637 153.796C248.836 153.684 248.985 153.693 249.161 153.818L257.486 159.723C257.76 159.918 257.814 160.244 257.633 160.508C257.44 160.769 257.122 160.819 256.848 160.623L251.135 156.57C250.844 156.365 250.455 156.452 250.252 156.731C250.055 157.018 250.11 157.407 250.394 157.616L255.662 161.352C255.636 161.498 255.566 161.675 255.48 161.798C255.251 162.117 254.901 162.167 254.573 161.923L249.472 158.307C249.176 158.095 248.792 158.19 248.595 158.476C248.399 158.75 248.443 159.137 248.734 159.341L253.454 162.686C253.42 162.838 253.345 163.007 253.259 163.13C253.031 163.449 252.688 163.494 252.357 163.263L247.822 160.047C247.525 159.835 247.135 159.934 246.932 160.213C246.744 160.482 246.785 160.881 247.081 161.093L251.214 164.021C250.805 164.603 249.999 164.519 248.987 163.797L244.054 160.3C243.415 159.849 241.413 158.359 241.413 155.998C241.413 153.772 242.499 151.833 246.134 149.57L246.676 149.232C245.216 149.243 244.038 149.713 243.113 150.335H241.075C238.711 150.335 236.9 152.858 236.9 155.995C236.9 159.08 238.878 161.62 241.409 161.62H243.47L248.224 164.998C249.919 166.198 251.524 166.093 252.537 164.73C253.204 164.921 253.872 164.683 254.308 164.061C254.453 163.854 254.557 163.633 254.631 163.4C255.364 163.609 256.069 163.378 256.514 162.739C256.655 162.539 256.758 162.319 256.789 162.059C257.461 162.211 258.111 161.99 258.584 161.441C259.054 160.894 259.232 159.94 258.898 159.302C258.749 159.016 258.529 158.751 258.222 158.53L250.117 152.789L249.288 152.202C249.09 152.062 248.88 152.065 248.651 152.202L245.747 154.018C245.448 154.215 245.148 154.162 244.979 153.994C244.767 153.781 244.773 153.405 245.182 153.103L248.4 150.832C248.562 150.717 248.769 150.648 248.968 150.648H255.072C257.007 150.648 258.639 152.03 259.345 153.028C260.596 154.796 260.689 156.626 259.69 158.261C260.879 159.836 259.966 161.55 259.93 161.62H260.392C262.923 161.62 264.9 159.08 264.9 155.995C264.9 152.858 263.09 150.335 260.726 150.335ZM241.321 160.074C239.783 160.021 238.474 158.21 238.474 155.995C238.474 153.763 239.625 151.97 240.952 151.917H241.432C241.378 151.988 241.317 152.06 241.268 152.129C240.378 153.387 239.933 154.701 239.933 155.984C239.933 157.336 240.437 158.768 241.635 160.076C241.53 160.075 241.424 160.074 241.321 160.074ZM261.674 159.646C261.633 159.18 261.52 158.729 261.335 158.309C262.23 156.352 261.975 154.167 260.533 152.129C260.484 152.06 260.422 151.988 260.369 151.917H260.849C262.176 151.97 263.327 153.763 263.327 155.995C263.327 157.599 262.637 158.98 261.674 159.646Z" fill="#808080"/>
</g>
<path d="M320.309 156.575C322.225 156.575 323.851 154.87 323.851 152.664C323.851 150.511 322.216 148.858 320.309 148.858C318.393 148.858 316.749 150.537 316.758 152.682C316.758 154.87 318.384 156.575 320.309 156.575ZM314.824 164.749H325.775C327.226 164.749 327.727 164.31 327.727 163.501C327.727 161.242 324.861 158.131 320.3 158.131C315.747 158.131 312.873 161.242 312.873 163.501C312.873 164.31 313.374 164.749 314.824 164.749Z" fill="#F41B1B"/>
</g>
<g clip-path="url(#clip1_1037_23132)">
<path d="M315.492 236.004C314.982 236.004 314.534 235.995 314.191 235.925C313.77 235.846 313.33 235.573 313.33 234.993C313.33 234.431 313.726 234.079 314.279 234.079C314.613 234.079 314.956 234.105 315.431 234.105C318.27 234.105 319.518 233.121 319.509 230.238L319.5 224.578L319.579 222.275L317.988 224.033L315.264 226.775C315.088 226.942 314.851 227.057 314.578 227.057C314.051 227.057 313.655 226.652 313.655 226.107C313.655 225.861 313.752 225.633 313.954 225.422L319.746 219.621C319.939 219.428 320.194 219.313 320.458 219.313C320.722 219.313 320.985 219.428 321.17 219.621L326.971 225.422C327.173 225.633 327.27 225.861 327.27 226.107C327.27 226.652 326.874 227.057 326.347 227.057C326.074 227.057 325.837 226.942 325.661 226.775L322.928 224.033L321.346 222.284L321.425 224.578V230.361C321.425 234.36 319.474 236.004 315.492 236.004Z" fill="#0080FF"/>
</g>
<path d="M288.52 259H286.378V247.022H288.52V252.185H288.943L293.384 247.022H295.841L290.761 252.833L296.223 259H293.583L288.951 253.837H288.52V259ZM299.855 259.149C298.128 259.149 296.875 258.087 296.875 256.435V256.418C296.875 254.8 298.111 253.854 300.319 253.721L302.652 253.58V252.799C302.652 251.895 302.063 251.396 300.95 251.396C300.004 251.396 299.39 251.737 299.182 252.334L299.174 252.368H297.223L297.232 252.293C297.431 250.766 298.892 249.753 301.05 249.753C303.382 249.753 304.694 250.882 304.694 252.799V259H302.652V257.755H302.511C302.013 258.635 301.05 259.149 299.855 259.149ZM298.917 256.335C298.917 257.107 299.572 257.564 300.486 257.564C301.731 257.564 302.652 256.75 302.652 255.671V254.941L300.61 255.074C299.456 255.148 298.917 255.572 298.917 256.319V256.335ZM311.173 259.191C308.284 259.191 306.749 257.249 306.749 253.671V253.654C306.749 248.931 308.193 246.781 311.513 246.648L312.584 246.607C313.323 246.582 314.236 246.449 314.958 246.192V247.86C314.618 248.084 313.671 248.267 312.7 248.309L311.663 248.35C309.612 248.425 308.699 249.354 308.392 251.621L308.367 251.787H308.517C309.106 250.699 310.16 250.102 311.563 250.102C313.987 250.102 315.547 251.812 315.547 254.468V254.484C315.547 257.365 313.879 259.191 311.173 259.191ZM311.148 257.514C312.601 257.514 313.439 256.385 313.439 254.526V254.509C313.439 252.741 312.601 251.72 311.148 251.72C309.695 251.72 308.849 252.741 308.849 254.509V254.526C308.849 256.394 309.687 257.514 311.148 257.514ZM317.635 259V249.927H319.677V256.003H319.843L323.67 249.927H325.712V259H323.67V252.891H323.496L319.677 259H317.635ZM334.117 259V255.124H330.29V259H328.223V249.927H330.29V253.521H334.117V249.927H336.184V259H334.117ZM342.588 259.183C339.89 259.183 338.255 257.373 338.255 254.484V254.476C338.255 251.621 339.907 249.753 342.488 249.753C345.07 249.753 346.663 251.562 346.663 254.302V254.982H340.322C340.347 256.609 341.226 257.556 342.629 257.556C343.75 257.556 344.389 256.991 344.588 256.576L344.613 256.518H346.58L346.556 256.593C346.265 257.763 345.053 259.183 342.588 259.183ZM342.513 251.372C341.359 251.372 340.496 252.152 340.338 253.596H344.646C344.505 252.11 343.667 251.372 342.513 251.372ZM355.168 249.927V251.529H352.37V259H350.303V251.529H347.514V249.927H355.168Z" fill="black"/>
<path d="M7.64062 297.282C4.2041 297.282 2.14551 294.842 2.14551 291.015V290.999C2.14551 287.155 4.25391 284.74 7.64062 284.74C11.0439 284.74 13.1357 287.164 13.1357 290.999V291.015C13.1357 294.833 11.0605 297.282 7.64062 297.282ZM7.64062 295.904C10.0977 295.904 11.6084 293.979 11.6084 291.015V290.999C11.6084 288.01 10.0894 286.118 7.64062 286.118C5.2002 286.118 3.67285 288.01 3.67285 290.999V291.015C3.67285 293.979 5.15039 295.904 7.64062 295.904ZM19.706 299.988V297.108C16.9335 297.058 15.0907 295.282 15.0907 292.534V292.518C15.0907 289.762 16.9335 287.985 19.706 287.944V285.022H21.1005V287.944C23.8647 287.994 25.7074 289.762 25.7074 292.518V292.534C25.7074 295.29 23.8647 297.066 21.1005 297.108V299.988H19.706ZM19.706 295.871V289.181C17.7719 289.222 16.5434 290.484 16.5434 292.518V292.534C16.5434 294.56 17.7719 295.821 19.706 295.871ZM21.1005 295.871C23.0263 295.83 24.2548 294.568 24.2548 292.534V292.518C24.2548 290.492 23.0263 289.23 21.1005 289.181V295.871ZM31.6302 297.158C29.0819 297.158 27.5047 295.398 27.5047 292.534V292.518C27.5047 289.646 29.0819 287.894 31.6302 287.894C34.1786 287.894 35.7557 289.646 35.7557 292.518V292.534C35.7557 295.398 34.1786 297.158 31.6302 297.158ZM31.6302 295.879C33.3236 295.879 34.2782 294.643 34.2782 292.534V292.518C34.2782 290.401 33.3236 289.172 31.6302 289.172C29.9369 289.172 28.9823 290.401 28.9823 292.518V292.534C28.9823 294.643 29.9369 295.879 31.6302 295.879ZM37.9929 299.988V288.052H39.4373V289.479H39.5701C40.1179 288.483 41.114 287.894 42.3591 287.894C44.6253 287.894 46.1111 289.729 46.1111 292.518V292.534C46.1111 295.34 44.6336 297.158 42.3591 297.158C41.1306 297.158 40.0598 296.543 39.5701 295.589H39.4373V299.988H37.9929ZM42.0271 295.879C43.6624 295.879 44.6336 294.618 44.6336 292.534V292.518C44.6336 290.434 43.6624 289.172 42.0271 289.172C40.4002 289.172 39.4041 290.451 39.4041 292.518V292.534C39.4041 294.601 40.4002 295.879 42.0271 295.879ZM49.801 297H48.3566V288.052H50.1081L53.2956 294.991H53.4284L56.6325 288.052H58.3093V297H56.8649V290.633H56.7072L53.8849 296.751H52.7726L49.9587 290.633H49.801V297ZM63.0865 293.497C62.8956 295.962 62.1319 297.083 60.6378 297.083C60.3307 297.083 60.0982 297.033 59.982 296.992V295.688C60.0567 295.713 60.2809 295.747 60.4967 295.747C61.3185 295.747 61.6505 294.709 61.7418 293.381L62.1236 288.052H67.9757V297H66.5313V289.247H63.4186L63.0865 293.497ZM75.3926 297V293.796H73.8736L71.5908 297H69.8892L72.3877 293.53C71.126 293.173 70.3623 292.244 70.3623 291.023V291.007C70.3623 289.172 71.6739 288.052 73.7241 288.052H76.8369V297H75.3926ZM73.7241 292.601H75.3926V289.247H73.7241C72.5454 289.247 71.8399 289.895 71.8399 290.974V290.99C71.8399 291.928 72.5537 292.601 73.7241 292.601ZM83.2328 286.807C81.5229 286.807 80.3857 285.628 80.3857 284.084H81.6806C81.6806 284.989 82.27 285.827 83.2328 285.827C84.2123 285.827 84.7851 284.989 84.7851 284.084H86.08C86.08 285.628 84.9428 286.807 83.2328 286.807ZM79.5058 297V288.052H80.9501V294.726H81.0829L85.5073 288.052H86.9516V297H85.5073V290.326H85.3745L80.9501 297H79.5058ZM96.1117 288.052V289.247H93.2147V297H91.7704V289.247H88.8734V288.052H96.1117ZM101.354 297.158C98.7971 297.158 97.2532 295.365 97.2532 292.559V292.551C97.2532 289.787 98.8304 287.894 101.262 287.894C103.695 287.894 105.172 289.704 105.172 292.376V292.941H98.7307C98.7722 294.792 99.7932 295.871 101.387 295.871C102.599 295.871 103.346 295.298 103.587 294.759L103.62 294.684H105.064L105.048 294.75C104.741 295.962 103.462 297.158 101.354 297.158ZM101.254 289.181C99.9261 289.181 98.9134 290.085 98.7556 291.787H103.703C103.553 290.019 102.574 289.181 101.254 289.181ZM112.021 299.988V288.052H113.465V289.479H113.598C114.146 288.483 115.142 287.894 116.387 287.894C118.653 287.894 120.139 289.729 120.139 292.518V292.534C120.139 295.34 118.661 297.158 116.387 297.158C115.158 297.158 114.088 296.543 113.598 295.589H113.465V299.988H112.021ZM116.055 295.879C117.69 295.879 118.661 294.618 118.661 292.534V292.518C118.661 290.434 117.69 289.172 116.055 289.172C114.428 289.172 113.432 290.451 113.432 292.518V292.534C113.432 294.601 114.428 295.879 116.055 295.879ZM126.045 297.158C123.488 297.158 121.944 295.365 121.944 292.559V292.551C121.944 289.787 123.522 287.894 125.954 287.894C128.386 287.894 129.863 289.704 129.863 292.376V292.941H123.422C123.463 294.792 124.484 295.871 126.078 295.871C127.29 295.871 128.037 295.298 128.278 294.759L128.311 294.684H129.755L129.739 294.75C129.432 295.962 128.153 297.158 126.045 297.158ZM125.945 289.181C124.617 289.181 123.605 290.085 123.447 291.787H128.394C128.245 290.019 127.265 289.181 125.945 289.181ZM135.139 297.166C133.229 297.166 131.777 296.22 131.594 294.775L131.586 294.709H133.055L133.072 294.775C133.254 295.506 134.051 295.971 135.139 295.971C136.458 295.971 137.239 295.332 137.239 294.443V294.427C137.239 293.456 136.508 293.007 135.139 293.007H133.744V291.812H135.139C136.284 291.812 136.923 291.355 136.923 290.426V290.409C136.923 289.646 136.334 289.081 135.188 289.081C134.167 289.081 133.395 289.538 133.254 290.251L133.246 290.293H131.835L131.843 290.235C132.051 288.799 133.362 287.886 135.188 287.886C137.189 287.886 138.334 288.874 138.334 290.301V290.318C138.334 291.223 137.745 292.044 136.857 292.252V292.385C138.036 292.642 138.658 293.356 138.658 294.352V294.369C138.658 296.029 137.222 297.166 135.139 297.166ZM140.887 297V288.052H142.331V291.754H143.975C144.232 289.33 145.71 287.886 147.976 287.886C150.474 287.886 152.018 289.637 152.018 292.518V292.534C152.018 295.406 150.474 297.166 147.976 297.166C145.602 297.166 144.091 295.581 143.942 292.949H142.331V297H140.887ZM147.976 295.888C149.62 295.888 150.541 294.651 150.541 292.534V292.518C150.541 290.393 149.62 289.164 147.976 289.164C146.332 289.164 145.411 290.393 145.411 292.518V292.534C145.411 294.651 146.332 295.888 147.976 295.888ZM155.692 297H154.247V288.052H155.999L159.186 294.991H159.319L162.523 288.052H164.2V297H162.756V290.633H162.598L159.776 296.751H158.663L155.849 290.633H155.692V297ZM170.538 297.158C167.981 297.158 166.437 295.365 166.437 292.559V292.551C166.437 289.787 168.014 287.894 170.447 287.894C172.879 287.894 174.356 289.704 174.356 292.376V292.941H167.915C167.956 294.792 168.977 295.871 170.571 295.871C171.783 295.871 172.53 295.298 172.771 294.759L172.804 294.684H174.248L174.232 294.75C173.925 295.962 172.646 297.158 170.538 297.158ZM170.438 289.181C169.11 289.181 168.097 290.085 167.94 291.787H172.887C172.738 290.019 171.758 289.181 170.438 289.181ZM176.145 300.046L176.867 295.323H178.519L177.216 300.046H176.145ZM189.12 297.166C187.21 297.166 185.758 296.22 185.575 294.775L185.567 294.709H187.036L187.053 294.775C187.235 295.506 188.032 295.971 189.12 295.971C190.439 295.971 191.22 295.332 191.22 294.443V294.427C191.22 293.456 190.489 293.007 189.12 293.007H187.725V291.812H189.12C190.265 291.812 190.904 291.355 190.904 290.426V290.409C190.904 289.646 190.315 289.081 189.169 289.081C188.148 289.081 187.376 289.538 187.235 290.251L187.227 290.293H185.816L185.824 290.235C186.032 288.799 187.343 287.886 189.169 287.886C191.17 287.886 192.315 288.874 192.315 290.301V290.318C192.315 291.223 191.726 292.044 190.838 292.252V292.385C192.017 292.642 192.639 293.356 192.639 294.352V294.369C192.639 296.029 191.203 297.166 189.12 297.166ZM197.333 297.158C195.632 297.158 194.345 296.128 194.345 294.501V294.485C194.345 292.891 195.524 291.97 197.607 291.845L200.172 291.688V290.874C200.172 289.77 199.5 289.172 198.163 289.172C197.093 289.172 196.387 289.571 196.155 290.268L196.146 290.293H194.702L194.71 290.243C194.943 288.84 196.304 287.894 198.213 287.894C200.396 287.894 201.617 289.015 201.617 290.874V297H200.172V295.68H200.039C199.475 296.635 198.537 297.158 197.333 297.158ZM195.823 294.468C195.823 295.373 196.595 295.904 197.632 295.904C199.101 295.904 200.172 294.941 200.172 293.663V292.85L197.782 292.999C196.42 293.082 195.823 293.563 195.823 294.452V294.468ZM209.971 289.247H205.688V297H204.244V288.052H209.971V289.247ZM211.985 299.988V288.052H213.429V289.479H213.562C214.11 288.483 215.106 287.894 216.351 287.894C218.617 287.894 220.103 289.729 220.103 292.518V292.534C220.103 295.34 218.625 297.158 216.351 297.158C215.122 297.158 214.051 296.543 213.562 295.589H213.429V299.988H211.985ZM216.019 295.879C217.654 295.879 218.625 294.618 218.625 292.534V292.518C218.625 290.434 217.654 289.172 216.019 289.172C214.392 289.172 213.396 290.451 213.396 292.518V292.534C213.396 294.601 214.392 295.879 216.019 295.879ZM222.788 300.138C222.597 300.138 222.348 300.121 222.149 300.088V298.901C222.323 298.934 222.548 298.942 222.747 298.942C223.569 298.942 224.067 298.569 224.39 297.54L224.556 297.008L221.244 288.052H222.788L225.245 295.415H225.378L227.827 288.052H229.346L225.851 297.548C225.112 299.557 224.374 300.138 222.788 300.138ZM231.874 297H230.089L233.949 292.285L230.222 288.052H231.957L235.086 291.82H235.617V288.052H237.012V291.82H237.543L240.672 288.052H242.382L238.68 292.252L242.565 297H240.755L237.543 292.899H237.012V297H235.617V292.899H235.086L231.874 297ZM246.471 297.158C244.769 297.158 243.482 296.128 243.482 294.501V294.485C243.482 292.891 244.661 291.97 246.745 291.845L249.31 291.688V290.874C249.31 289.77 248.637 289.172 247.301 289.172C246.23 289.172 245.524 289.571 245.292 290.268L245.284 290.293H243.839L243.848 290.243C244.08 288.84 245.441 287.894 247.351 287.894C249.534 287.894 250.754 289.015 250.754 290.874V297H249.31V295.68H249.177C248.612 296.635 247.674 297.158 246.471 297.158ZM244.96 294.468C244.96 295.373 245.732 295.904 246.77 295.904C248.239 295.904 249.31 294.941 249.31 293.663V292.85L246.919 292.999C245.558 293.082 244.96 293.563 244.96 294.452V294.468ZM257.108 286.807C255.398 286.807 254.261 285.628 254.261 284.084H255.556C255.556 284.989 256.145 285.827 257.108 285.827C258.088 285.827 258.661 284.989 258.661 284.084H259.955C259.955 285.628 258.818 286.807 257.108 286.807ZM253.381 297V288.052H254.826V294.726H254.958L259.383 288.052H260.827V297H259.383V290.326H259.25L254.826 297H253.381ZM269.987 288.052V289.247H267.09V297H265.646V289.247H262.749V288.052H269.987ZM275.229 297.158C272.673 297.158 271.129 295.365 271.129 292.559V292.551C271.129 289.787 272.706 287.894 275.138 287.894C277.57 287.894 279.048 289.704 279.048 292.376V292.941H272.606C272.648 294.792 273.669 295.871 275.262 295.871C276.474 295.871 277.221 295.298 277.462 294.759L277.495 294.684H278.94L278.923 294.75C278.616 295.962 277.338 297.158 275.229 297.158ZM275.13 289.181C273.802 289.181 272.789 290.085 272.631 291.787H277.578C277.429 290.019 276.449 289.181 275.13 289.181ZM285.888 297V288.052H289.681C291.375 288.052 292.362 288.973 292.362 290.376V290.393C292.362 291.281 291.74 292.119 290.901 292.293V292.426C292.039 292.584 292.761 293.381 292.761 294.418V294.435C292.761 295.987 291.624 297 289.698 297H285.888ZM287.332 291.837H289.241C290.403 291.837 290.926 291.389 290.926 290.542V290.525C290.926 289.762 290.478 289.247 289.474 289.247H287.332V291.837ZM287.332 295.805H289.64C290.735 295.805 291.292 295.307 291.292 294.41V294.394C291.292 293.447 290.652 293.032 289.366 293.032H287.332V295.805ZM295.031 297V288.052H296.476V294.726H296.608L301.033 288.052H302.477V297H301.033V290.326H300.9L296.476 297H295.031ZM305.362 299.366H304.017V295.805H304.764C305.42 295.373 305.744 294.244 305.827 293.041L306.175 288.052H312.276V295.805H313.704V299.366H312.359V297H305.362V299.366ZM310.832 295.805V289.247H307.454L307.171 293.074C307.088 294.161 306.856 295.116 306.433 295.672V295.805H310.832ZM319.071 297.158C316.514 297.158 314.97 295.365 314.97 292.559V292.551C314.97 289.787 316.547 287.894 318.979 287.894C321.411 287.894 322.889 289.704 322.889 292.376V292.941H316.448C316.489 294.792 317.51 295.871 319.104 295.871C320.316 295.871 321.063 295.298 321.304 294.759L321.337 294.684H322.781L322.765 294.75C322.457 295.962 321.179 297.158 319.071 297.158ZM318.971 289.181C317.643 289.181 316.63 290.085 316.473 291.787H321.42C321.27 290.019 320.291 289.181 318.971 289.181ZM328.803 297.158C326.255 297.158 324.678 295.398 324.678 292.534V292.518C324.678 289.646 326.255 287.894 328.803 287.894C331.352 287.894 332.929 289.646 332.929 292.518V292.534C332.929 295.398 331.352 297.158 328.803 297.158ZM328.803 295.879C330.497 295.879 331.451 294.643 331.451 292.534V292.518C331.451 290.401 330.497 289.172 328.803 289.172C327.11 289.172 326.156 290.401 326.156 292.518V292.534C326.156 294.643 327.11 295.879 328.803 295.879ZM343.438 297.158C340.931 297.158 339.329 295.34 339.329 292.501V292.484C339.329 289.704 340.923 287.894 343.43 287.894C345.605 287.894 346.908 289.147 347.173 290.741L347.182 290.791H345.746L345.737 290.766C345.513 289.886 344.716 289.172 343.43 289.172C341.819 289.172 340.807 290.467 340.807 292.484V292.501C340.807 294.56 341.836 295.879 343.43 295.879C344.633 295.879 345.397 295.348 345.729 294.352L345.746 294.302L347.173 294.294L347.157 294.385C346.792 296.004 345.588 297.158 343.438 297.158ZM2.42773 321.988V310.052H3.87207V311.479H4.00488C4.55273 310.483 5.54883 309.894 6.79395 309.894C9.06006 309.894 10.5459 311.729 10.5459 314.518V314.534C10.5459 317.34 9.06836 319.158 6.79395 319.158C5.56543 319.158 4.49463 318.543 4.00488 317.589H3.87207V321.988H2.42773ZM6.46191 317.879C8.09717 317.879 9.06836 316.618 9.06836 314.534V314.518C9.06836 312.434 8.09717 311.172 6.46191 311.172C4.83496 311.172 3.83887 312.451 3.83887 314.518V314.534C3.83887 316.601 4.83496 317.879 6.46191 317.879ZM15.2568 319.158C13.5551 319.158 12.2685 318.128 12.2685 316.501V316.485C12.2685 314.891 13.4472 313.97 15.5307 313.845L18.0956 313.688V312.874C18.0956 311.77 17.4233 311.172 16.0868 311.172C15.016 311.172 14.3105 311.571 14.078 312.268L14.0697 312.293H12.6254L12.6337 312.243C12.8661 310.84 14.2275 309.894 16.1366 309.894C18.3197 309.894 19.54 311.015 19.54 312.874V319H18.0956V317.68H17.9628C17.3984 318.635 16.4604 319.158 15.2568 319.158ZM13.746 316.468C13.746 317.373 14.518 317.904 15.5556 317.904C17.0248 317.904 18.0956 316.941 18.0956 315.663V314.85L15.705 314.999C14.3437 315.082 13.746 315.563 13.746 316.452V316.468ZM25.8363 319.158C23.3294 319.158 21.7274 317.34 21.7274 314.501V314.484C21.7274 311.704 23.3211 309.894 25.828 309.894C28.0028 309.894 29.306 311.147 29.5716 312.741L29.5799 312.791H28.1439L28.1356 312.766C27.9115 311.886 27.1146 311.172 25.828 311.172C24.2176 311.172 23.2049 312.467 23.2049 314.484V314.501C23.2049 316.56 24.2342 317.879 25.828 317.879C27.0316 317.879 27.7953 317.348 28.1273 316.352L28.1439 316.302L29.5716 316.294L29.555 316.385C29.1898 318.004 27.9862 319.158 25.8363 319.158ZM35.345 319.158C32.8381 319.158 31.2361 317.34 31.2361 314.501V314.484C31.2361 311.704 32.8298 309.894 35.3367 309.894C37.5115 309.894 38.8147 311.147 39.0803 312.741L39.0886 312.791H37.6526L37.6443 312.766C37.4202 311.886 36.6233 311.172 35.3367 311.172C33.7263 311.172 32.7136 312.467 32.7136 314.484V314.501C32.7136 316.56 33.7429 317.879 35.3367 317.879C36.5403 317.879 37.304 317.348 37.636 316.352L37.6526 316.302L39.0803 316.294L39.0637 316.385C38.6985 318.004 37.4949 319.158 35.345 319.158ZM43.0856 314.924H42.6291V319H41.1847V310.052H42.6291V313.795H43.0856L46.5471 310.052H48.2819L44.256 314.269L48.4396 319H46.5886L43.0856 314.924ZM52.4781 319.158C50.7765 319.158 49.4898 318.128 49.4898 316.501V316.485C49.4898 314.891 50.6686 313.97 52.7521 313.845L55.317 313.688V312.874C55.317 311.77 54.6446 311.172 53.3082 311.172C52.2374 311.172 51.5318 311.571 51.2994 312.268L51.2911 312.293H49.8468L49.8551 312.243C50.0875 310.84 51.4488 309.894 53.358 309.894C55.5411 309.894 56.7613 311.015 56.7613 312.874V319H55.317V317.68H55.1842C54.6197 318.635 53.6817 319.158 52.4781 319.158ZM50.9674 316.468C50.9674 317.373 51.7394 317.904 52.777 317.904C54.2462 317.904 55.317 316.941 55.317 315.663V314.85L52.9264 314.999C51.565 315.082 50.9674 315.563 50.9674 316.452V316.468ZM62.4351 319.166C60.5259 319.166 59.0733 318.22 58.8906 316.775L58.8823 316.709H60.3516L60.3682 316.775C60.5508 317.506 61.3477 317.971 62.4351 317.971C63.7549 317.971 64.5352 317.332 64.5352 316.443V316.427C64.5352 315.456 63.8047 315.007 62.4351 315.007H61.0405V313.812H62.4351C63.5806 313.812 64.2197 313.355 64.2197 312.426V312.409C64.2197 311.646 63.6304 311.081 62.4849 311.081C61.4639 311.081 60.6919 311.538 60.5508 312.251L60.5425 312.293H59.1314L59.1397 312.235C59.3472 310.799 60.6587 309.886 62.4849 309.886C64.4854 309.886 65.6309 310.874 65.6309 312.301V312.318C65.6309 313.223 65.0415 314.044 64.1533 314.252V314.385C65.3321 314.642 65.9546 315.356 65.9546 316.352V316.369C65.9546 318.029 64.5186 319.166 62.4351 319.166ZM70.6489 319.158C68.9472 319.158 67.6606 318.128 67.6606 316.501V316.485C67.6606 314.891 68.8393 313.97 70.9228 313.845L73.4877 313.688V312.874C73.4877 311.77 72.8154 311.172 71.4789 311.172C70.4081 311.172 69.7026 311.571 69.4702 312.268L69.4619 312.293H68.0175L68.0258 312.243C68.2582 310.84 69.6196 309.894 71.5287 309.894C73.7119 309.894 74.9321 311.015 74.9321 312.874V319H73.4877V317.68H73.3549C72.7905 318.635 71.8525 319.158 70.6489 319.158ZM69.1381 316.468C69.1381 317.373 69.9101 317.904 70.9477 317.904C72.4169 317.904 73.4877 316.941 73.4877 315.663V314.85L71.0971 314.999C69.7358 315.082 69.1381 315.563 69.1381 316.452V316.468ZM79.0038 319H77.5594V310.052H79.3109L82.4984 316.991H82.6312L85.8353 310.052H87.5121V319H86.0677V312.633H85.91L83.0878 318.751H81.9754L79.1615 312.633H79.0038V319ZM90.1892 319V310.052H91.6336V316.726H91.7664L96.1907 310.052H97.635V319H96.1907V312.326H96.0579L91.6336 319H90.1892ZM108.609 319.158C106.061 319.158 104.484 317.398 104.484 314.534V314.518C104.484 311.646 106.061 309.894 108.609 309.894C111.157 309.894 112.734 311.646 112.734 314.518V314.534C112.734 317.398 111.157 319.158 108.609 319.158ZM108.609 317.879C110.302 317.879 111.257 316.643 111.257 314.534V314.518C111.257 312.401 110.302 311.172 108.609 311.172C106.916 311.172 105.961 312.401 105.961 314.518V314.534C105.961 316.643 106.916 317.879 108.609 317.879ZM123.244 319.158C120.737 319.158 119.135 317.34 119.135 314.501V314.484C119.135 311.704 120.728 309.894 123.235 309.894C125.41 309.894 126.713 311.147 126.979 312.741L126.987 312.791H125.551L125.543 312.766C125.319 311.886 124.522 311.172 123.235 311.172C121.625 311.172 120.612 312.467 120.612 314.484V314.501C120.612 316.56 121.642 317.879 123.235 317.879C124.439 317.879 125.203 317.348 125.535 316.352L125.551 316.302L126.979 316.294L126.962 316.385C126.597 318.004 125.394 319.158 123.244 319.158ZM132.744 319.158C130.187 319.158 128.643 317.365 128.643 314.559V314.551C128.643 311.787 130.221 309.894 132.653 309.894C135.085 309.894 136.562 311.704 136.562 314.376V314.941H130.121C130.162 316.792 131.183 317.871 132.777 317.871C133.989 317.871 134.736 317.298 134.977 316.759L135.01 316.684H136.454L136.438 316.75C136.131 317.962 134.852 319.158 132.744 319.158ZM132.644 311.181C131.316 311.181 130.304 312.085 130.146 313.787H135.093C134.944 312.019 133.964 311.181 132.644 311.181ZM142.518 319.166C139.779 319.166 138.351 317.298 138.351 313.712V313.696C138.351 308.948 139.671 306.922 142.867 306.773L143.763 306.731C144.477 306.698 145.324 306.565 146.096 306.25V307.528C145.814 307.794 144.867 308.01 143.83 308.06L142.917 308.101C140.833 308.192 139.929 309.164 139.596 311.604L139.572 311.787H139.704C140.31 310.716 141.381 310.135 142.734 310.135C145.141 310.135 146.685 311.853 146.685 314.551V314.567C146.685 317.406 145.1 319.166 142.518 319.166ZM142.518 317.888C144.228 317.888 145.208 316.667 145.208 314.567V314.551C145.208 312.55 144.228 311.413 142.518 311.413C140.808 311.413 139.829 312.55 139.829 314.551V314.567C139.829 316.667 140.808 317.888 142.518 317.888ZM152.575 319.158C150.018 319.158 148.474 317.365 148.474 314.559V314.551C148.474 311.787 150.051 309.894 152.484 309.894C154.916 309.894 156.393 311.704 156.393 314.376V314.941H149.952C149.993 316.792 151.014 317.871 152.608 317.871C153.82 317.871 154.567 317.298 154.808 316.759L154.841 316.684H156.285L156.269 316.75C155.962 317.962 154.683 319.158 152.575 319.158ZM152.475 311.181C151.147 311.181 150.134 312.085 149.977 313.787H154.924C154.775 312.019 153.795 311.181 152.475 311.181ZM163.233 319V310.052H164.678V316.726H164.811L169.235 310.052H170.679V319H169.235V312.326H169.102L164.678 319H163.233ZM177.968 319V310.052H185.206V319H183.762V311.247H179.412V319H177.968ZM191.56 319.158C189.012 319.158 187.435 317.398 187.435 314.534V314.518C187.435 311.646 189.012 309.894 191.56 309.894C194.109 309.894 195.686 311.646 195.686 314.518V314.534C195.686 317.398 194.109 319.158 191.56 319.158ZM191.56 317.879C193.254 317.879 194.208 316.643 194.208 314.534V314.518C194.208 312.401 193.254 311.172 191.56 311.172C189.867 311.172 188.912 312.401 188.912 314.518V314.534C188.912 316.643 189.867 317.879 191.56 317.879ZM197.915 319V310.052H201.708C203.402 310.052 204.389 310.973 204.389 312.376V312.393C204.389 313.281 203.767 314.119 202.928 314.293V314.426C204.066 314.584 204.788 315.381 204.788 316.418V316.435C204.788 317.987 203.651 319 201.725 319H197.915ZM199.359 313.837H201.268C202.43 313.837 202.953 313.389 202.953 312.542V312.525C202.953 311.762 202.505 311.247 201.501 311.247H199.359V313.837ZM199.359 317.805H201.667C202.762 317.805 203.319 317.307 203.319 316.41V316.394C203.319 315.447 202.679 315.032 201.393 315.032H199.359V317.805ZM207.058 319V310.052H208.503V312.924H210.254C212.304 312.924 213.616 314.103 213.616 315.954V315.97C213.616 317.821 212.304 319 210.254 319H207.058ZM215.176 319V310.052H216.621V319H215.176ZM210.254 314.119H208.503V317.805H210.254C211.433 317.805 212.172 317.074 212.172 315.97V315.954C212.172 314.841 211.424 314.119 210.254 314.119ZM219.29 319V310.052H220.734V317.805H224.096V310.052H225.54V317.805H228.902V310.052H230.346V319H219.29ZM235.48 319.158C233.779 319.158 232.492 318.128 232.492 316.501V316.485C232.492 314.891 233.671 313.97 235.754 313.845L238.319 313.688V312.874C238.319 311.77 237.647 311.172 236.311 311.172C235.24 311.172 234.534 311.571 234.302 312.268L234.293 312.293H232.849L232.857 312.243C233.09 310.84 234.451 309.894 236.36 309.894C238.543 309.894 239.764 311.015 239.764 312.874V319H238.319V317.68H238.187C237.622 318.635 236.684 319.158 235.48 319.158ZM233.97 316.468C233.97 317.373 234.742 317.904 235.779 317.904C237.249 317.904 238.319 316.941 238.319 315.663V314.85L235.929 314.999C234.567 315.082 233.97 315.563 233.97 316.452V316.468ZM246.118 308.807C244.408 308.807 243.271 307.628 243.271 306.084H244.566C244.566 306.989 245.155 307.827 246.118 307.827C247.098 307.827 247.67 306.989 247.67 306.084H248.965C248.965 307.628 247.828 308.807 246.118 308.807ZM242.391 319V310.052H243.835V316.726H243.968L248.393 310.052H249.837V319H248.393V312.326H248.26L243.835 319H242.391ZM258.997 310.052V311.247H256.1V319H254.656V311.247H251.759V310.052H258.997ZM264.239 319.158C261.682 319.158 260.138 317.365 260.138 314.559V314.551C260.138 311.787 261.716 309.894 264.148 309.894C266.58 309.894 268.057 311.704 268.057 314.376V314.941H261.616C261.657 316.792 262.678 317.871 264.272 317.871C265.484 317.871 266.231 317.298 266.472 316.759L266.505 316.684H267.949L267.933 316.75C267.626 317.962 266.347 319.158 264.239 319.158ZM264.139 311.181C262.811 311.181 261.799 312.085 261.641 313.787H266.588C266.439 312.019 265.459 311.181 264.139 311.181ZM2.41943 341V332.052H9.65771V341H8.21338V333.247H3.86377V341H2.41943ZM12.3349 343.988V332.052H13.7792V333.479H13.912C14.4599 332.483 15.456 331.894 16.7011 331.894C18.9672 331.894 20.453 333.729 20.453 336.518V336.534C20.453 339.34 18.9755 341.158 16.7011 341.158C15.4726 341.158 14.4018 340.543 13.912 339.589H13.7792V343.988H12.3349ZM16.3691 339.879C18.0043 339.879 18.9755 338.618 18.9755 336.534V336.518C18.9755 334.434 18.0043 333.172 16.3691 333.172C14.7421 333.172 13.746 334.451 13.746 336.518V336.534C13.746 338.601 14.7421 339.879 16.3691 339.879ZM22.6986 341V332.052H24.1429V338.726H24.2757L28.7 332.052H30.1444V341H28.7V334.326H28.5672L24.1429 341H22.6986ZM32.8215 341V332.052H36.615C38.3084 332.052 39.2962 332.973 39.2962 334.376V334.393C39.2962 335.281 38.6736 336.119 37.8352 336.293V336.426C38.9724 336.584 39.6946 337.381 39.6946 338.418V338.435C39.6946 339.987 38.5574 341 36.6316 341H32.8215ZM34.2659 335.837H36.1751C37.3372 335.837 37.8601 335.389 37.8601 334.542V334.525C37.8601 333.762 37.4119 333.247 36.4075 333.247H34.2659V335.837ZM34.2659 339.805H36.5735C37.6692 339.805 38.2254 339.307 38.2254 338.41V338.394C38.2254 337.447 37.5862 337.032 36.2996 337.032H34.2659V339.805ZM43.9821 337.497C43.7912 339.962 43.0275 341.083 41.5334 341.083C41.2262 341.083 40.9938 341.033 40.8776 340.992V339.688C40.9523 339.713 41.1764 339.747 41.3923 339.747C42.214 339.747 42.5461 338.709 42.6374 337.381L43.0192 332.052H48.8713V341H47.4269V333.247H44.3141L43.9821 337.497ZM55.2008 341.158C52.6441 341.158 51.1002 339.365 51.1002 336.559V336.551C51.1002 333.787 52.6773 331.894 55.1095 331.894C57.5416 331.894 59.0191 333.704 59.0191 336.376V336.941H52.5777C52.6192 338.792 53.6402 339.871 55.234 339.871C56.4459 339.871 57.193 339.298 57.4337 338.759L57.4669 338.684H58.9112L58.8946 338.75C58.5875 339.962 57.3092 341.158 55.2008 341.158ZM55.1012 333.181C53.773 333.181 52.7604 334.085 52.6026 335.787H57.5499C57.4005 334.019 56.421 333.181 55.1012 333.181ZM63.1489 336.924H62.6924V341H61.2481V332.052H62.6924V335.795H63.1489L66.6104 332.052H68.3452L64.3194 336.269L68.5029 341H66.6519L63.1489 336.924ZM72.5414 341.158C70.8398 341.158 69.5532 340.128 69.5532 338.501V338.485C69.5532 336.891 70.7319 335.97 72.8154 335.845L75.3803 335.688V334.874C75.3803 333.77 74.7079 333.172 73.3715 333.172C72.3007 333.172 71.5952 333.571 71.3627 334.268L71.3544 334.293H69.9101L69.9184 334.243C70.1508 332.84 71.5121 331.894 73.4213 331.894C75.6044 331.894 76.8246 333.015 76.8246 334.874V341H75.3803V339.68H75.2475C74.683 340.635 73.7451 341.158 72.5414 341.158ZM71.0307 338.468C71.0307 339.373 71.8027 339.904 72.8403 339.904C74.3095 339.904 75.3803 338.941 75.3803 337.663V336.85L72.9897 336.999C71.6284 337.082 71.0307 337.563 71.0307 338.452V338.468ZM85.9349 332.052V333.247H83.0379V341H81.5936V333.247H78.6966V332.052H85.9349ZM91.177 341.158C88.6204 341.158 87.0764 339.365 87.0764 336.559V336.551C87.0764 333.787 88.6536 331.894 91.0857 331.894C93.5179 331.894 94.9954 333.704 94.9954 336.376V336.941H88.554C88.5955 338.792 89.6165 339.871 91.2102 339.871C92.4221 339.871 93.1692 339.298 93.4099 338.759L93.4431 338.684H94.8875L94.8709 338.75C94.5638 339.962 93.2854 341.158 91.177 341.158ZM91.0774 333.181C89.7493 333.181 88.7366 334.085 88.5789 335.787H93.5262C93.3767 334.019 92.3972 333.181 91.0774 333.181ZM99.0754 337.497C98.8845 339.962 98.1208 341.083 96.6267 341.083C96.3195 341.083 96.0871 341.033 95.9709 340.992V339.688C96.0456 339.713 96.2697 339.747 96.4855 339.747C97.3073 339.747 97.6394 338.709 97.7307 337.381L98.1125 332.052H103.965V341H102.52V333.247H99.4074L99.0754 337.497ZM106.633 341V332.052H108.078V334.924H109.829C111.88 334.924 113.191 336.103 113.191 337.954V337.97C113.191 339.821 111.88 341 109.829 341H106.633ZM109.829 336.119H108.078V339.805H109.829C111.008 339.805 111.747 339.074 111.747 337.97V337.954C111.747 336.841 111 336.119 109.829 336.119ZM121.123 341V336.949H116.69V341H115.246V332.052H116.69V335.754H121.123V332.052H122.567V341H121.123ZM128.921 341.158C126.373 341.158 124.796 339.398 124.796 336.534V336.518C124.796 333.646 126.373 331.894 128.921 331.894C131.47 331.894 133.047 333.646 133.047 336.518V336.534C133.047 339.398 131.47 341.158 128.921 341.158ZM128.921 339.879C130.615 339.879 131.569 338.643 131.569 336.534V336.518C131.569 334.401 130.615 333.172 128.921 333.172C127.228 333.172 126.273 334.401 126.273 336.518V336.534C126.273 338.643 127.228 339.879 128.921 339.879ZM138.945 341.158C136.438 341.158 134.836 339.34 134.836 336.501V336.484C134.836 333.704 136.43 331.894 138.936 331.894C141.111 331.894 142.414 333.147 142.68 334.741L142.688 334.791H141.252L141.244 334.766C141.02 333.886 140.223 333.172 138.936 333.172C137.326 333.172 136.313 334.467 136.313 336.484V336.501C136.313 338.56 137.343 339.879 138.936 339.879C140.14 339.879 140.904 339.348 141.236 338.352L141.252 338.302L142.68 338.294L142.663 338.385C142.298 340.004 141.095 341.158 138.945 341.158ZM150.852 332.052V333.247H147.955V341H146.511V333.247H143.614V332.052H150.852ZM152.766 341V332.052H154.21V334.924H155.962C158.012 334.924 159.323 336.103 159.323 337.954V337.97C159.323 339.821 158.012 341 155.962 341H152.766ZM155.962 336.119H154.21V339.805H155.962C157.14 339.805 157.879 339.074 157.879 337.97V337.954C157.879 336.841 157.132 336.119 155.962 336.119ZM169.658 341.158C167.151 341.158 165.549 339.34 165.549 336.501V336.484C165.549 333.704 167.143 331.894 169.65 331.894C171.825 331.894 173.128 333.147 173.394 334.741L173.402 334.791H171.966L171.958 334.766C171.733 333.886 170.937 333.172 169.65 333.172C168.04 333.172 167.027 334.467 167.027 336.484V336.501C167.027 338.56 168.056 339.879 169.65 339.879C170.854 339.879 171.617 339.348 171.949 338.352L171.966 338.302L173.394 338.294L173.377 338.385C173.012 340.004 171.808 341.158 169.658 341.158ZM175.498 341V332.052H179.291C180.985 332.052 181.973 332.973 181.973 334.376V334.393C181.973 335.281 181.35 336.119 180.512 336.293V336.426C181.649 336.584 182.371 337.381 182.371 338.418V338.435C182.371 339.987 181.234 341 179.308 341H175.498ZM176.942 335.837H178.852C180.014 335.837 180.537 335.389 180.537 334.542V334.525C180.537 333.762 180.088 333.247 179.084 333.247H176.942V335.837ZM176.942 339.805H179.25C180.346 339.805 180.902 339.307 180.902 338.41V338.394C180.902 337.447 180.263 337.032 178.976 337.032H176.942V339.805ZM188.244 341.158C185.696 341.158 184.119 339.398 184.119 336.534V336.518C184.119 333.646 185.696 331.894 188.244 331.894C190.792 331.894 192.37 333.646 192.37 336.518V336.534C192.37 339.398 190.792 341.158 188.244 341.158ZM188.244 339.879C189.937 339.879 190.892 338.643 190.892 336.534V336.518C190.892 334.401 189.937 333.172 188.244 333.172C186.551 333.172 185.596 334.401 185.596 336.518V336.534C185.596 338.643 186.551 339.879 188.244 339.879ZM198.259 341.158C195.702 341.158 194.159 339.365 194.159 336.559V336.551C194.159 333.787 195.736 331.894 198.168 331.894C200.6 331.894 202.077 333.704 202.077 336.376V336.941H195.636C195.678 338.792 196.699 339.871 198.292 339.871C199.504 339.871 200.251 339.298 200.492 338.759L200.525 338.684H201.97L201.953 338.75C201.646 339.962 200.367 341.158 198.259 341.158ZM198.159 333.181C196.831 333.181 195.819 334.085 195.661 335.787H200.608C200.459 334.019 199.479 333.181 198.159 333.181ZM208.033 330.807C206.323 330.807 205.186 329.628 205.186 328.084H206.481C206.481 328.989 207.071 329.827 208.033 329.827C209.013 329.827 209.586 328.989 209.586 328.084H210.881C210.881 329.628 209.743 330.807 208.033 330.807ZM204.306 341V332.052H205.751V338.726H205.884L210.308 332.052H211.752V341H210.308V334.326H210.175L205.751 341H204.306ZM2.41943 363V354.052H9.65771V363H8.21338V355.247H3.86377V363H2.41943ZM12.3349 365.988V354.052H13.7792V355.479H13.912C14.4599 354.483 15.456 353.894 16.7011 353.894C18.9672 353.894 20.453 355.729 20.453 358.518V358.534C20.453 361.34 18.9755 363.158 16.7011 363.158C15.4726 363.158 14.4018 362.543 13.912 361.589H13.7792V365.988H12.3349ZM16.3691 361.879C18.0043 361.879 18.9755 360.618 18.9755 358.534V358.518C18.9755 356.434 18.0043 355.172 16.3691 355.172C14.7421 355.172 13.746 356.451 13.746 358.518V358.534C13.746 360.601 14.7421 361.879 16.3691 361.879ZM26.3841 363.158C23.8358 363.158 22.2586 361.398 22.2586 358.534V358.518C22.2586 355.646 23.8358 353.894 26.3841 353.894C28.9325 353.894 30.5096 355.646 30.5096 358.518V358.534C30.5096 361.398 28.9325 363.158 26.3841 363.158ZM26.3841 361.879C28.0775 361.879 29.0321 360.643 29.0321 358.534V358.518C29.0321 356.401 28.0775 355.172 26.3841 355.172C24.6908 355.172 23.7362 356.401 23.7362 358.518V358.534C23.7362 360.643 24.6908 361.879 26.3841 361.879ZM36.9138 365.988V363.108C34.1414 363.058 32.2986 361.282 32.2986 358.534V358.518C32.2986 355.762 34.1414 353.985 36.9138 353.944V351.022H38.3084V353.944C41.0725 353.994 42.9153 355.762 42.9153 358.518V358.534C42.9153 361.29 41.0725 363.066 38.3084 363.108V365.988H36.9138ZM36.9138 361.871V355.181C34.9797 355.222 33.7512 356.484 33.7512 358.518V358.534C33.7512 360.56 34.9797 361.821 36.9138 361.871ZM38.3084 361.871C40.2341 361.83 41.4627 360.568 41.4627 358.534V358.518C41.4627 356.492 40.2341 355.23 38.3084 355.181V361.871ZM48.8132 363.158C46.2565 363.158 44.7126 361.365 44.7126 358.559V358.551C44.7126 355.787 46.2897 353.894 48.7219 353.894C51.154 353.894 52.6315 355.704 52.6315 358.376V358.941H46.1901C46.2316 360.792 47.2526 361.871 48.8464 361.871C50.0583 361.871 50.8054 361.298 51.0461 360.759L51.0793 360.684H52.5236L52.507 360.75C52.1999 361.962 50.9216 363.158 48.8132 363.158ZM48.7136 355.181C47.3854 355.181 46.3727 356.085 46.215 357.787H51.1623C51.0129 356.019 50.0334 355.181 48.7136 355.181ZM58.5294 363.158C56.0226 363.158 54.4205 361.34 54.4205 358.501V358.484C54.4205 355.704 56.0143 353.894 58.5211 353.894C60.6959 353.894 61.9991 355.147 62.2647 356.741L62.273 356.791H60.837L60.8287 356.766C60.6046 355.886 59.8077 355.172 58.5211 355.172C56.9107 355.172 55.898 356.467 55.898 358.484V358.501C55.898 360.56 56.9273 361.879 58.5211 361.879C59.7247 361.879 60.4884 361.348 60.8204 360.352L60.837 360.302L62.2647 360.294L62.2481 360.385C61.8829 362.004 60.6793 363.158 58.5294 363.158ZM68.0381 363.158C65.5313 363.158 63.9292 361.34 63.9292 358.501V358.484C63.9292 355.704 65.523 353.894 68.0298 353.894C70.2046 353.894 71.5078 355.147 71.7735 356.741L71.7818 356.791H70.3457L70.3374 356.766C70.1133 355.886 69.3164 355.172 68.0298 355.172C66.4195 355.172 65.4068 356.467 65.4068 358.484V358.501C65.4068 360.56 66.4361 361.879 68.0298 361.879C69.2334 361.879 69.9971 361.348 70.3291 360.352L70.3457 360.302L71.7735 360.294L71.7569 360.385C71.3916 362.004 70.188 363.158 68.0381 363.158ZM73.8779 363V354.052H75.3222V360.726H75.455L79.8793 354.052H81.3237V363H79.8793V356.326H79.7465L75.3222 363H73.8779ZM87.6864 363.158C85.138 363.158 83.5609 361.398 83.5609 358.534V358.518C83.5609 355.646 85.138 353.894 87.6864 353.894C90.2347 353.894 91.8119 355.646 91.8119 358.518V358.534C91.8119 361.398 90.2347 363.158 87.6864 363.158ZM87.6864 361.879C89.3797 361.879 90.3343 360.643 90.3343 358.534V358.518C90.3343 356.401 89.3797 355.172 87.6864 355.172C85.993 355.172 85.0384 356.401 85.0384 358.518V358.534C85.0384 360.643 85.993 361.879 87.6864 361.879ZM99.9178 363V358.949H95.4851V363H94.0408V354.052H95.4851V357.754H99.9178V354.052H101.362V363H99.9178ZM106.496 363.158C104.795 363.158 103.508 362.128 103.508 360.501V360.485C103.508 358.891 104.687 357.97 106.77 357.845L109.335 357.688V356.874C109.335 355.77 108.663 355.172 107.326 355.172C106.256 355.172 105.55 355.571 105.318 356.268L105.309 356.293H103.865L103.873 356.243C104.106 354.84 105.467 353.894 107.376 353.894C109.559 353.894 110.779 355.015 110.779 356.874V363H109.335V361.68H109.202C108.638 362.635 107.7 363.158 106.496 363.158ZM104.986 360.468C104.986 361.373 105.758 361.904 106.795 361.904C108.264 361.904 109.335 360.941 109.335 359.663V358.85L106.945 358.999C105.583 359.082 104.986 359.563 104.986 360.452V360.468ZM115.507 359.497C115.316 361.962 114.552 363.083 113.058 363.083C112.751 363.083 112.519 363.033 112.402 362.992V361.688C112.477 361.713 112.701 361.747 112.917 361.747C113.739 361.747 114.071 360.709 114.162 359.381L114.544 354.052H120.396V363H118.952V355.247H115.839L115.507 359.497ZM123.065 363V354.052H124.509V356.924H126.261C128.311 356.924 129.623 358.103 129.623 359.954V359.97C129.623 361.821 128.311 363 126.261 363H123.065ZM126.261 358.119H124.509V361.805H126.261C127.439 361.805 128.178 361.074 128.178 359.97V359.954C128.178 358.841 127.431 358.119 126.261 358.119ZM137.554 363V358.949H133.122V363H131.677V354.052H133.122V357.754H137.554V354.052H138.998V363H137.554ZM145.353 363.158C142.805 363.158 141.227 361.398 141.227 358.534V358.518C141.227 355.646 142.805 353.894 145.353 353.894C147.901 353.894 149.478 355.646 149.478 358.518V358.534C149.478 361.398 147.901 363.158 145.353 363.158ZM145.353 361.879C147.046 361.879 148.001 360.643 148.001 358.534V358.518C148.001 356.401 147.046 355.172 145.353 355.172C143.66 355.172 142.705 356.401 142.705 358.518V358.534C142.705 360.643 143.66 361.879 145.353 361.879ZM155.434 352.807C153.724 352.807 152.587 351.628 152.587 350.084H153.882C153.882 350.989 154.471 351.827 155.434 351.827C156.414 351.827 156.987 350.989 156.987 350.084H158.282C158.282 351.628 157.144 352.807 155.434 352.807ZM151.707 363V354.052H153.152V360.726H153.284L157.709 354.052H159.153V363H157.709V356.326H157.576L153.152 363H151.707ZM168.907 363.158C167.205 363.158 165.919 362.128 165.919 360.501V360.485C165.919 358.891 167.097 357.97 169.181 357.845L171.746 357.688V356.874C171.746 355.77 171.073 355.172 169.737 355.172C168.666 355.172 167.961 355.571 167.728 356.268L167.72 356.293H166.276L166.284 356.243C166.516 354.84 167.878 353.894 169.787 353.894C171.97 353.894 173.19 355.015 173.19 356.874V363H171.746V361.68H171.613C171.048 362.635 170.11 363.158 168.907 363.158ZM167.396 360.468C167.396 361.373 168.168 361.904 169.206 361.904C170.675 361.904 171.746 360.941 171.746 359.663V358.85L169.355 358.999C167.994 359.082 167.396 359.563 167.396 360.452V360.468ZM181.694 363V358.949H177.262V363H175.817V354.052H177.262V357.754H181.694V354.052H183.139V363H181.694ZM187.708 358.924H187.252V363H185.808V354.052H187.252V357.795H187.708L191.17 354.052H192.905L188.879 358.269L193.062 363H191.211L187.708 358.924ZM198.13 363.158C195.574 363.158 194.03 361.365 194.03 358.559V358.551C194.03 355.787 195.607 353.894 198.039 353.894C200.471 353.894 201.949 355.704 201.949 358.376V358.941H195.507C195.549 360.792 196.57 361.871 198.163 361.871C199.375 361.871 200.122 361.298 200.363 360.759L200.396 360.684H201.841L201.824 360.75C201.517 361.962 200.239 363.158 198.13 363.158ZM198.031 355.181C196.703 355.181 195.69 356.085 195.532 357.787H200.479C200.33 356.019 199.35 355.181 198.031 355.181ZM209.996 354.052V355.247H207.099V363H205.655V355.247H202.758V354.052H209.996ZM211.91 363V354.052H213.354V356.924H215.106C217.156 356.924 218.468 358.103 218.468 359.954V359.97C218.468 361.821 217.156 363 215.106 363H211.91ZM220.028 363V354.052H221.472V363H220.028ZM215.106 358.119H213.354V361.805H215.106C216.284 361.805 217.023 361.074 217.023 359.97V359.954C217.023 358.841 216.276 358.119 215.106 358.119ZM225.245 363.083C224.656 363.083 224.166 362.593 224.166 362.004C224.166 361.406 224.656 360.925 225.245 360.925C225.843 360.925 226.324 361.406 226.324 362.004C226.324 362.593 225.843 363.083 225.245 363.083Z" fill="black"/>
<path d="M7.64062 393.282C4.2041 393.282 2.14551 390.842 2.14551 387.015V386.999C2.14551 383.155 4.25391 380.74 7.64062 380.74C11.0439 380.74 13.1357 383.164 13.1357 386.999V387.015C13.1357 390.833 11.0605 393.282 7.64062 393.282ZM7.64062 391.904C10.0977 391.904 11.6084 389.979 11.6084 387.015V386.999C11.6084 384.01 10.0894 382.118 7.64062 382.118C5.2002 382.118 3.67285 384.01 3.67285 386.999V387.015C3.67285 389.979 5.15039 391.904 7.64062 391.904ZM19.706 395.988V393.108C16.9335 393.058 15.0907 391.282 15.0907 388.534V388.518C15.0907 385.762 16.9335 383.985 19.706 383.944V381.022H21.1005V383.944C23.8647 383.994 25.7074 385.762 25.7074 388.518V388.534C25.7074 391.29 23.8647 393.066 21.1005 393.108V395.988H19.706ZM19.706 391.871V385.181C17.7719 385.222 16.5434 386.484 16.5434 388.518V388.534C16.5434 390.56 17.7719 391.821 19.706 391.871ZM21.1005 391.871C23.0263 391.83 24.2548 390.568 24.2548 388.534V388.518C24.2548 386.492 23.0263 385.23 21.1005 385.181V391.871ZM31.6302 393.158C29.0819 393.158 27.5047 391.398 27.5047 388.534V388.518C27.5047 385.646 29.0819 383.894 31.6302 383.894C34.1786 383.894 35.7557 385.646 35.7557 388.518V388.534C35.7557 391.398 34.1786 393.158 31.6302 393.158ZM31.6302 391.879C33.3236 391.879 34.2782 390.643 34.2782 388.534V388.518C34.2782 386.401 33.3236 385.172 31.6302 385.172C29.9369 385.172 28.9823 386.401 28.9823 388.518V388.534C28.9823 390.643 29.9369 391.879 31.6302 391.879ZM37.9929 395.988V384.052H39.4373V385.479H39.5701C40.1179 384.483 41.114 383.894 42.3591 383.894C44.6253 383.894 46.1111 385.729 46.1111 388.518V388.534C46.1111 391.34 44.6336 393.158 42.3591 393.158C41.1306 393.158 40.0598 392.543 39.5701 391.589H39.4373V395.988H37.9929ZM42.0271 391.879C43.6624 391.879 44.6336 390.618 44.6336 388.534V388.518C44.6336 386.434 43.6624 385.172 42.0271 385.172C40.4002 385.172 39.4041 386.451 39.4041 388.518V388.534C39.4041 390.601 40.4002 391.879 42.0271 391.879ZM49.801 393H48.3566V384.052H50.1081L53.2956 390.991H53.4284L56.6325 384.052H58.3093V393H56.8649V386.633H56.7072L53.8849 392.751H52.7726L49.9587 386.633H49.801V393ZM60.9864 393V384.052H62.4308V390.726H62.5636L66.9879 384.052H68.4322V393H66.9879V386.326H66.8551L62.4308 393H60.9864ZM71.1094 393V384.052H74.9029C76.5962 384.052 77.584 384.973 77.584 386.376V386.393C77.584 387.281 76.9614 388.119 76.1231 388.293V388.426C77.2603 388.584 77.9824 389.381 77.9824 390.418V390.435C77.9824 391.987 76.8452 393 74.9195 393H71.1094ZM72.5537 387.837H74.4629C75.625 387.837 76.148 387.389 76.148 386.542V386.525C76.148 385.762 75.6997 385.247 74.6953 385.247H72.5537V387.837ZM72.5537 391.805H74.8614C75.9571 391.805 76.5132 391.307 76.5132 390.41V390.394C76.5132 389.447 75.874 389.032 74.5874 389.032H72.5537V391.805ZM84.8724 395.988V384.052H86.3168V385.479H86.4496C86.9974 384.483 87.9935 383.894 89.2386 383.894C91.5047 383.894 92.9906 385.729 92.9906 388.518V388.534C92.9906 391.34 91.513 393.158 89.2386 393.158C88.0101 393.158 86.9393 392.543 86.4496 391.589H86.3168V395.988H84.8724ZM88.9066 391.879C90.5419 391.879 91.513 390.618 91.513 388.534V388.518C91.513 386.434 90.5419 385.172 88.9066 385.172C87.2796 385.172 86.2836 386.451 86.2836 388.518V388.534C86.2836 390.601 87.2796 391.879 88.9066 391.879ZM98.8968 393.158C96.3401 393.158 94.7962 391.365 94.7962 388.559V388.551C94.7962 385.787 96.3733 383.894 98.8055 383.894C101.238 383.894 102.715 385.704 102.715 388.376V388.941H96.2737C96.3152 390.792 97.3362 391.871 98.93 391.871C100.142 391.871 100.889 391.298 101.13 390.759L101.163 390.684H102.607L102.591 390.75C102.283 391.962 101.005 393.158 98.8968 393.158ZM98.7971 385.181C97.469 385.181 96.4563 386.085 96.2986 387.787H101.246C101.096 386.019 100.117 385.181 98.7971 385.181ZM107.99 393.166C106.081 393.166 104.629 392.22 104.446 390.775L104.438 390.709H105.907L105.924 390.775C106.106 391.506 106.903 391.971 107.99 391.971C109.31 391.971 110.091 391.332 110.091 390.443V390.427C110.091 389.456 109.36 389.007 107.99 389.007H106.596V387.812H107.99C109.136 387.812 109.775 387.355 109.775 386.426V386.409C109.775 385.646 109.186 385.081 108.04 385.081C107.019 385.081 106.247 385.538 106.106 386.251L106.098 386.293H104.687L104.695 386.235C104.903 384.799 106.214 383.886 108.04 383.886C110.041 383.886 111.186 384.874 111.186 386.301V386.318C111.186 387.223 110.597 388.044 109.709 388.252V388.385C110.887 388.642 111.51 389.356 111.51 390.352V390.369C111.51 392.029 110.074 393.166 107.99 393.166ZM113.739 393V384.052H115.183V387.754H116.827C117.084 385.33 118.562 383.886 120.828 383.886C123.326 383.886 124.87 385.637 124.87 388.518V388.534C124.87 391.406 123.326 393.166 120.828 393.166C118.454 393.166 116.943 391.581 116.794 388.949H115.183V393H113.739ZM120.828 391.888C122.471 391.888 123.393 390.651 123.393 388.534V388.518C123.393 386.393 122.471 385.164 120.828 385.164C119.184 385.164 118.263 386.393 118.263 388.518V388.534C118.263 390.651 119.184 391.888 120.828 391.888ZM128.543 393H127.099V384.052H128.851L132.038 390.991H132.171L135.375 384.052H137.052V393H135.607V386.633H135.45L132.627 392.751H131.515L128.701 386.633H128.543V393ZM143.39 393.158C140.833 393.158 139.289 391.365 139.289 388.559V388.551C139.289 385.787 140.866 383.894 143.298 383.894C145.73 383.894 147.208 385.704 147.208 388.376V388.941H140.767C140.808 390.792 141.829 391.871 143.423 391.871C144.635 391.871 145.382 391.298 145.623 390.759L145.656 390.684H147.1L147.083 390.75C146.776 391.962 145.498 393.158 143.39 393.158ZM143.29 385.181C141.962 385.181 140.949 386.085 140.791 387.787H145.739C145.589 386.019 144.61 385.181 143.29 385.181ZM148.997 396.046L149.719 391.323H151.371L150.068 396.046H148.997ZM162.594 393.158C160.087 393.158 158.485 391.34 158.485 388.501V388.484C158.485 385.704 160.079 383.894 162.586 383.894C164.76 383.894 166.064 385.147 166.329 386.741L166.338 386.791H164.902L164.893 386.766C164.669 385.886 163.872 385.172 162.586 385.172C160.975 385.172 159.963 386.467 159.963 388.484V388.501C159.963 390.56 160.992 391.879 162.586 391.879C163.789 391.879 164.553 391.348 164.885 390.352L164.902 390.302L166.329 390.294L166.313 390.385C165.947 392.004 164.744 393.158 162.594 393.158ZM170.335 388.924H169.878V393H168.434V384.052H169.878V387.795H170.335L173.796 384.052H175.531L171.505 388.269L175.689 393H173.838L170.335 388.924ZM179.727 393.158C178.025 393.158 176.739 392.128 176.739 390.501V390.485C176.739 388.891 177.918 387.97 180.001 387.845L182.566 387.688V386.874C182.566 385.77 181.894 385.172 180.557 385.172C179.486 385.172 178.781 385.571 178.548 386.268L178.54 386.293H177.096L177.104 386.243C177.336 384.84 178.698 383.894 180.607 383.894C182.79 383.894 184.01 385.015 184.01 386.874V393H182.566V391.68H182.433C181.869 392.635 180.931 393.158 179.727 393.158ZM178.216 390.468C178.216 391.373 178.988 391.904 180.026 391.904C181.495 391.904 182.566 390.941 182.566 389.663V388.85L180.175 388.999C178.814 389.082 178.216 389.563 178.216 390.452V390.468ZM193.461 393H192.017V389.273H191.884C191.402 389.613 190.713 389.812 189.75 389.812C187.592 389.812 186.472 388.518 186.472 386.608V384.052H187.916V386.608C187.916 387.787 188.53 388.534 189.75 388.534C190.871 388.534 191.643 388.244 192.017 387.829V384.052H193.461V393ZM198.595 393.158C196.893 393.158 195.607 392.128 195.607 390.501V390.485C195.607 388.891 196.786 387.97 198.869 387.845L201.434 387.688V386.874C201.434 385.77 200.762 385.172 199.425 385.172C198.354 385.172 197.649 385.571 197.416 386.268L197.408 386.293H195.964L195.972 386.243C196.204 384.84 197.566 383.894 199.475 383.894C201.658 383.894 202.878 385.015 202.878 386.874V393H201.434V391.68H201.301C200.737 392.635 199.799 393.158 198.595 393.158ZM197.084 390.468C197.084 391.373 197.856 391.904 198.894 391.904C200.363 391.904 201.434 390.941 201.434 389.663V388.85L199.043 388.999C197.682 389.082 197.084 389.563 197.084 390.452V390.468ZM209.233 382.807C207.523 382.807 206.386 381.628 206.386 380.084H207.68C207.68 380.989 208.27 381.827 209.233 381.827C210.212 381.827 210.785 380.989 210.785 380.084H212.08C212.08 381.628 210.943 382.807 209.233 382.807ZM205.506 393V384.052H206.95V390.726H207.083L211.507 384.052H212.951V393H211.507V386.326H211.374L206.95 393H205.506ZM222.112 384.052V385.247H219.215V393H217.77V385.247H214.873V384.052H222.112ZM227.354 393.158C224.797 393.158 223.253 391.365 223.253 388.559V388.551C223.253 385.787 224.83 383.894 227.262 383.894C229.694 383.894 231.172 385.704 231.172 388.376V388.941H224.731C224.772 390.792 225.793 391.871 227.387 391.871C228.599 391.871 229.346 391.298 229.587 390.759L229.62 390.684H231.064L231.048 390.75C230.74 391.962 229.462 393.158 227.354 393.158ZM227.254 385.181C225.926 385.181 224.913 386.085 224.756 387.787H229.703C229.553 386.019 228.574 385.181 227.254 385.181ZM241.673 393.158C239.116 393.158 237.572 391.365 237.572 388.559V388.551C237.572 385.787 239.149 383.894 241.582 383.894C244.014 383.894 245.491 385.704 245.491 388.376V388.941H239.05C239.091 390.792 240.112 391.871 241.706 391.871C242.918 391.871 243.665 391.298 243.906 390.759L243.939 390.684H245.383L245.367 390.75C245.06 391.962 243.781 393.158 241.673 393.158ZM241.573 385.181C240.245 385.181 239.232 386.085 239.075 387.787H244.022C243.873 386.019 242.893 385.181 241.573 385.181ZM253.448 385.247H249.164V393H247.72V384.052H253.448V385.247ZM258.889 393.158C256.341 393.158 254.764 391.398 254.764 388.534V388.518C254.764 385.646 256.341 383.894 258.889 383.894C261.437 383.894 263.014 385.646 263.014 388.518V388.534C263.014 391.398 261.437 393.158 258.889 393.158ZM258.889 391.879C260.582 391.879 261.537 390.643 261.537 388.534V388.518C261.537 386.401 260.582 385.172 258.889 385.172C257.196 385.172 256.241 386.401 256.241 388.518V388.534C256.241 390.643 257.196 391.879 258.889 391.879ZM269.855 393V384.052H273.648C275.341 384.052 276.329 384.973 276.329 386.376V386.393C276.329 387.281 275.707 388.119 274.868 388.293V388.426C276.006 388.584 276.728 389.381 276.728 390.418V390.435C276.728 391.987 275.591 393 273.665 393H269.855ZM271.299 387.837H273.208C274.37 387.837 274.893 387.389 274.893 386.542V386.525C274.893 385.762 274.445 385.247 273.441 385.247H271.299V387.837ZM271.299 391.805H273.607C274.702 391.805 275.258 391.307 275.258 390.41V390.394C275.258 389.447 274.619 389.032 273.333 389.032H271.299V391.805ZM4.88477 415.158C3.18311 415.158 1.89648 414.128 1.89648 412.501V412.485C1.89648 410.891 3.0752 409.97 5.15869 409.845L7.72363 409.688V408.874C7.72363 407.77 7.05127 407.172 5.71484 407.172C4.64404 407.172 3.93848 407.571 3.70605 408.268L3.69775 408.293H2.25342L2.26172 408.243C2.49414 406.84 3.85547 405.894 5.76465 405.894C7.94775 405.894 9.16797 407.015 9.16797 408.874V415H7.72363V413.68H7.59082C7.02637 414.635 6.08838 415.158 4.88477 415.158ZM3.37402 412.468C3.37402 413.373 4.146 413.904 5.18359 413.904C6.65283 413.904 7.72363 412.941 7.72363 411.663V410.85L5.33301 410.999C3.97168 411.082 3.37402 411.563 3.37402 412.452V412.468ZM13.6962 410.924H13.2397V415H11.7953V406.052H13.2397V409.795H13.6962L17.1576 406.052H18.8925L14.8666 410.269L19.0502 415H17.1991L13.6962 410.924ZM22.7733 410.924H22.3167V415H20.8724V406.052H22.3167V409.795H22.7733L26.2347 406.052H27.9696L23.9437 410.269L28.1273 415H26.2762L22.7733 410.924ZM30.3894 418.138C30.1985 418.138 29.9495 418.121 29.7503 418.088V416.901C29.9246 416.934 30.1487 416.942 30.3479 416.942C31.1697 416.942 31.6677 416.569 31.9915 415.54L32.1575 415.008L28.8455 406.052H30.3894L32.8464 413.415H32.9793L35.428 406.052H36.947L33.4524 415.548C32.7136 417.557 31.9749 418.138 30.3894 418.138ZM38.8522 417.988V406.052H40.2966V407.479H40.4294C40.9772 406.483 41.9733 405.894 43.2184 405.894C45.4846 405.894 46.9704 407.729 46.9704 410.518V410.534C46.9704 413.34 45.4929 415.158 43.2184 415.158C41.9899 415.158 40.9191 414.543 40.4294 413.589H40.2966V417.988H38.8522ZM42.8864 413.879C44.5217 413.879 45.4929 412.618 45.4929 410.534V410.518C45.4929 408.434 44.5217 407.172 42.8864 407.172C41.2595 407.172 40.2634 408.451 40.2634 410.518V410.534C40.2634 412.601 41.2595 413.879 42.8864 413.879ZM51.6813 415.158C49.9796 415.158 48.693 414.128 48.693 412.501V412.485C48.693 410.891 49.8717 409.97 51.9552 409.845L54.5201 409.688V408.874C54.5201 407.77 53.8478 407.172 52.5113 407.172C51.4405 407.172 50.735 407.571 50.5025 408.268L50.4942 408.293H49.0499L49.0582 408.243C49.2906 406.84 50.652 405.894 52.5611 405.894C54.7442 405.894 55.9645 407.015 55.9645 408.874V415H54.5201V413.68H54.3873C53.8229 414.635 52.8849 415.158 51.6813 415.158ZM50.1705 412.468C50.1705 413.373 50.9425 413.904 51.9801 413.904C53.4493 413.904 54.5201 412.941 54.5201 411.663V410.85L52.1295 410.999C50.7682 411.082 50.1705 411.563 50.1705 412.452V412.468ZM65.0747 406.052V407.247H62.1778V415H60.7334V407.247H57.8364V406.052H65.0747ZM72.8652 415V410.949H68.4326V415H66.9882V406.052H68.4326V409.754H72.8652V406.052H74.3095V415H72.8652ZM76.9784 415V406.052H78.4227V408.924H80.1742C82.2245 408.924 83.536 410.103 83.536 411.954V411.97C83.536 413.821 82.2245 415 80.1742 415H76.9784ZM85.0965 415V406.052H86.5409V415H85.0965ZM80.1742 410.119H78.4227V413.805H80.1742C81.3529 413.805 82.0917 413.074 82.0917 411.97V411.954C82.0917 410.841 81.3446 410.119 80.1742 410.119ZM92.9368 404.807C91.2268 404.807 90.0896 403.628 90.0896 402.084H91.3846C91.3846 402.989 91.9739 403.827 92.9368 403.827C93.9163 403.827 94.489 402.989 94.489 402.084H95.784C95.784 403.628 94.6468 404.807 92.9368 404.807ZM89.2097 415V406.052H90.6541V412.726H90.7869L95.2112 406.052H96.6555V415H95.2112V408.326H95.0784L90.6541 415H89.2097ZM113.531 415H112.037V404.367H105.629V415H104.135V403.022H113.531V415ZM116.69 417.366H115.304V413.655H116.192C117.064 413.19 117.387 412.128 117.479 410.559L117.935 403.022H125.514V413.655H127.008V417.366H125.622V415H116.69V417.366ZM118.881 410.592C118.798 411.945 118.632 412.85 118.043 413.556V413.655H124.02V404.367H119.272L118.881 410.592ZM133.57 415.166V413.913C130.399 413.838 128.274 411.995 128.274 408.974V408.957C128.274 405.936 130.424 404.118 133.57 404.026V402.856H135.047V404.026C138.218 404.101 140.335 405.952 140.335 408.965V408.982C140.335 412.02 138.177 413.821 135.047 413.913V415.166H133.57ZM129.801 408.974C129.801 411.14 131.254 412.501 133.57 412.576V405.363C131.279 405.454 129.801 406.782 129.801 408.957V408.974ZM135.047 405.363V412.576C137.322 412.485 138.808 411.165 138.808 408.982V408.965C138.808 406.807 137.363 405.438 135.047 405.363ZM141.759 418.046L142.481 413.323H144.133L142.829 418.046H141.759ZM158.51 415H157.066V411.273H156.933C156.451 411.613 155.762 411.812 154.8 411.812C152.641 411.812 151.521 410.518 151.521 408.608V406.052H152.965V408.608C152.965 409.787 153.579 410.534 154.8 410.534C155.92 410.534 156.692 410.244 157.066 409.829V406.052H158.51V415ZM167.662 406.052V407.247H164.765V415H163.32V407.247H160.423V406.052H167.662ZM172.929 415.158C170.38 415.158 168.803 413.398 168.803 410.534V410.518C168.803 407.646 170.38 405.894 172.929 405.894C175.477 405.894 177.054 407.646 177.054 410.518V410.534C177.054 413.398 175.477 415.158 172.929 415.158ZM172.929 413.879C174.622 413.879 175.577 412.643 175.577 410.534V410.518C175.577 408.401 174.622 407.172 172.929 407.172C171.235 407.172 170.281 408.401 170.281 410.518V410.534C170.281 412.643 171.235 413.879 172.929 413.879ZM183.01 415.166C180.271 415.166 178.843 413.298 178.843 409.712V409.696C178.843 404.948 180.163 402.922 183.359 402.773L184.255 402.731C184.969 402.698 185.816 402.565 186.588 402.25V403.528C186.306 403.794 185.359 404.01 184.322 404.06L183.409 404.101C181.325 404.192 180.42 405.164 180.088 407.604L180.063 407.787H180.196C180.802 406.716 181.873 406.135 183.226 406.135C185.633 406.135 187.177 407.853 187.177 410.551V410.567C187.177 413.406 185.592 415.166 183.01 415.166ZM183.01 413.888C184.72 413.888 185.7 412.667 185.7 410.567V410.551C185.7 408.55 184.72 407.413 183.01 407.413C181.3 407.413 180.321 408.55 180.321 410.551V410.567C180.321 412.667 181.3 413.888 183.01 413.888ZM189.406 415V406.052H190.85V408.924H192.602C194.652 408.924 195.964 410.103 195.964 411.954V411.97C195.964 413.821 194.652 415 192.602 415H189.406ZM197.524 415V406.052H198.969V415H197.524ZM192.602 410.119H190.85V413.805H192.602C193.781 413.805 194.519 413.074 194.519 411.97V411.954C194.519 410.841 193.772 410.119 192.602 410.119ZM209.934 415.158C207.386 415.158 205.809 413.398 205.809 410.534V410.518C205.809 407.646 207.386 405.894 209.934 405.894C212.483 405.894 214.06 407.646 214.06 410.518V410.534C214.06 413.398 212.483 415.158 209.934 415.158ZM209.934 413.879C211.628 413.879 212.582 412.643 212.582 410.534V410.518C212.582 408.401 211.628 407.172 209.934 407.172C208.241 407.172 207.286 408.401 207.286 410.518V410.534C207.286 412.643 208.241 413.879 209.934 413.879ZM222.191 406.052V407.247H219.294V415H217.849V407.247H214.952V406.052H222.191ZM224.104 415V406.052H231.342V415H229.898V407.247H225.548V415H224.104ZM234.02 417.988V406.052H235.464V407.479H235.597C236.145 406.483 237.141 405.894 238.386 405.894C240.652 405.894 242.138 407.729 242.138 410.518V410.534C242.138 413.34 240.66 415.158 238.386 415.158C237.157 415.158 236.086 414.543 235.597 413.589H235.464V417.988H234.02ZM238.054 413.879C239.689 413.879 240.66 412.618 240.66 410.534V410.518C240.66 408.434 239.689 407.172 238.054 407.172C236.427 407.172 235.431 408.451 235.431 410.518V410.534C235.431 412.601 236.427 413.879 238.054 413.879ZM246.849 415.158C245.147 415.158 243.86 414.128 243.86 412.501V412.485C243.86 410.891 245.039 409.97 247.122 409.845L249.687 409.688V408.874C249.687 407.77 249.015 407.172 247.679 407.172C246.608 407.172 245.902 407.571 245.67 408.268L245.662 408.293H244.217L244.226 408.243C244.458 406.84 245.819 405.894 247.728 405.894C249.912 405.894 251.132 407.015 251.132 408.874V415H249.687V413.68H249.555C248.99 414.635 248.052 415.158 246.849 415.158ZM245.338 412.468C245.338 413.373 246.11 413.904 247.147 413.904C248.617 413.904 249.687 412.941 249.687 411.663V410.85L247.297 410.999C245.935 411.082 245.338 411.563 245.338 412.452V412.468ZM253.759 415V406.052H257.553C259.246 406.052 260.234 406.973 260.234 408.376V408.393C260.234 409.281 259.611 410.119 258.773 410.293V410.426C259.91 410.584 260.632 411.381 260.632 412.418V412.435C260.632 413.987 259.495 415 257.569 415H253.759ZM255.203 409.837H257.113C258.275 409.837 258.798 409.389 258.798 408.542V408.525C258.798 407.762 258.349 407.247 257.345 407.247H255.203V409.837ZM255.203 413.805H257.511C258.607 413.805 259.163 413.307 259.163 412.41V412.394C259.163 411.447 258.524 411.032 257.237 411.032H255.203V413.805ZM264.92 411.497C264.729 413.962 263.965 415.083 262.471 415.083C262.164 415.083 261.931 415.033 261.815 414.992V413.688C261.89 413.713 262.114 413.747 262.33 413.747C263.152 413.747 263.484 412.709 263.575 411.381L263.957 406.052H269.809V415H268.365V407.247H265.252L264.92 411.497ZM277.226 415V411.796H275.707L273.424 415H271.722L274.221 411.53C272.959 411.173 272.195 410.244 272.195 409.023V409.007C272.195 407.172 273.507 406.052 275.557 406.052H278.67V415H277.226ZM275.557 410.601H277.226V407.247H275.557C274.379 407.247 273.673 407.895 273.673 408.974V408.99C273.673 409.928 274.387 410.601 275.557 410.601ZM287.822 406.052V407.247H284.925V415H283.481V407.247H280.584V406.052H287.822ZM289.735 415V406.052H291.18V408.924H292.931C294.981 408.924 296.293 410.103 296.293 411.954V411.97C296.293 413.821 294.981 415 292.931 415H289.735ZM292.931 410.119H291.18V413.805H292.931C294.11 413.805 294.849 413.074 294.849 411.97V411.954C294.849 410.841 294.102 410.119 292.931 410.119ZM2.42773 439.988V428.052H3.87207V429.479H4.00488C4.55273 428.483 5.54883 427.894 6.79395 427.894C9.06006 427.894 10.5459 429.729 10.5459 432.518V432.534C10.5459 435.34 9.06836 437.158 6.79395 437.158C5.56543 437.158 4.49463 436.543 4.00488 435.589H3.87207V439.988H2.42773ZM6.46191 435.879C8.09717 435.879 9.06836 434.618 9.06836 432.534V432.518C9.06836 430.434 8.09717 429.172 6.46191 429.172C4.83496 429.172 3.83887 430.451 3.83887 432.518V432.534C3.83887 434.601 4.83496 435.879 6.46191 435.879ZM15.2568 437.158C13.5551 437.158 12.2685 436.128 12.2685 434.501V434.485C12.2685 432.891 13.4472 431.97 15.5307 431.845L18.0956 431.688V430.874C18.0956 429.77 17.4233 429.172 16.0868 429.172C15.016 429.172 14.3105 429.571 14.078 430.268L14.0697 430.293H12.6254L12.6337 430.243C12.8661 428.84 14.2275 427.894 16.1366 427.894C18.3197 427.894 19.54 429.015 19.54 430.874V437H18.0956V435.68H17.9628C17.3984 436.635 16.4604 437.158 15.2568 437.158ZM13.746 434.468C13.746 435.373 14.518 435.904 15.5556 435.904C17.0248 435.904 18.0956 434.941 18.0956 433.663V432.85L15.705 432.999C14.3437 433.082 13.746 433.563 13.746 434.452V434.468ZM25.8944 437.166C23.1551 437.166 21.7274 435.298 21.7274 431.712V431.696C21.7274 426.948 23.0472 424.922 26.243 424.773L27.1395 424.731C27.8534 424.698 28.7 424.565 29.472 424.25V425.528C29.1898 425.794 28.2435 426.01 27.2059 426.06L26.2928 426.101C24.2093 426.192 23.3045 427.164 22.9725 429.604L22.9476 429.787H23.0804C23.6864 428.716 24.7572 428.135 26.1102 428.135C28.5174 428.135 30.0614 429.853 30.0614 432.551V432.567C30.0614 435.406 28.4759 437.166 25.8944 437.166ZM25.8944 435.888C27.6043 435.888 28.5838 434.667 28.5838 432.567V432.551C28.5838 430.55 27.6043 429.413 25.8944 429.413C24.1844 429.413 23.2049 430.55 23.2049 432.551V432.567C23.2049 434.667 24.1844 435.888 25.8944 435.888ZM35.9758 437.158C33.4275 437.158 31.8504 435.398 31.8504 432.534V432.518C31.8504 429.646 33.4275 427.894 35.9758 427.894C38.5242 427.894 40.1013 429.646 40.1013 432.518V432.534C40.1013 435.398 38.5242 437.158 35.9758 437.158ZM35.9758 435.879C37.6692 435.879 38.6238 434.643 38.6238 432.534V432.518C38.6238 430.401 37.6692 429.172 35.9758 429.172C34.2825 429.172 33.3279 430.401 33.3279 432.518V432.534C33.3279 434.643 34.2825 435.879 35.9758 435.879ZM48.2321 428.052V429.247H45.3351V437H43.8908V429.247H40.9938V428.052H48.2321ZM53.4991 437.158C50.9508 437.158 49.3736 435.398 49.3736 432.534V432.518C49.3736 429.646 50.9508 427.894 53.4991 427.894C56.0475 427.894 57.6246 429.646 57.6246 432.518V432.534C57.6246 435.398 56.0475 437.158 53.4991 437.158ZM53.4991 435.879C55.1925 435.879 56.1471 434.643 56.1471 432.534V432.518C56.1471 430.401 55.1925 429.172 53.4991 429.172C51.8058 429.172 50.8512 430.401 50.8512 432.518V432.534C50.8512 434.643 51.8058 435.879 53.4991 435.879ZM59.978 439.366H58.6333V435.805H59.3804C60.0362 435.373 60.3599 434.244 60.4429 433.041L60.7915 428.052H66.8926V435.805H68.3203V439.366H66.9756V437H59.978V439.366ZM65.4483 435.805V429.247H62.0698L61.7876 433.074C61.7046 434.161 61.4722 435.116 61.0488 435.672V435.805H65.4483ZM72.4916 437.158C70.79 437.158 69.5034 436.128 69.5034 434.501V434.485C69.5034 432.891 70.6821 431.97 72.7656 431.845L75.3305 431.688V430.874C75.3305 429.77 74.6581 429.172 73.3217 429.172C72.2509 429.172 71.5453 429.571 71.3129 430.268L71.3046 430.293H69.8603L69.8686 430.243C70.101 428.84 71.4623 427.894 73.3715 427.894C75.5546 427.894 76.7748 429.015 76.7748 430.874V437H75.3305V435.68H75.1977C74.6332 436.635 73.6953 437.158 72.4916 437.158ZM70.9809 434.468C70.9809 435.373 71.7529 435.904 72.7905 435.904C74.2597 435.904 75.3305 434.941 75.3305 433.663V432.85L72.9399 432.999C71.5786 433.082 70.9809 433.563 70.9809 434.452V434.468ZM85.8851 428.052V429.247H82.9881V437H81.5438V429.247H78.6468V428.052H85.8851ZM91.1272 437.158C88.5706 437.158 87.0266 435.365 87.0266 432.559V432.551C87.0266 429.787 88.6038 427.894 91.0359 427.894C93.468 427.894 94.9456 429.704 94.9456 432.376V432.941H88.5042C88.5457 434.792 89.5667 435.871 91.1604 435.871C92.3723 435.871 93.1194 435.298 93.3601 434.759L93.3933 434.684H94.8377L94.8211 434.75C94.5139 435.962 93.2356 437.158 91.1272 437.158ZM91.0276 429.181C89.6995 429.181 88.6868 430.085 88.5291 431.787H93.4763C93.3269 430.019 92.3474 429.181 91.0276 429.181ZM99.0256 433.497C98.8347 435.962 98.071 437.083 96.5769 437.083C96.2697 437.083 96.0373 437.033 95.9211 436.992V435.688C95.9958 435.713 96.2199 435.747 96.4357 435.747C97.2575 435.747 97.5896 434.709 97.6809 433.381L98.0627 428.052H103.915V437H102.47V429.247H99.3576L99.0256 433.497ZM111.332 437V433.796H109.813L107.53 437H105.828L108.327 433.53C107.065 433.173 106.301 432.244 106.301 431.023V431.007C106.301 429.172 107.613 428.052 109.663 428.052H112.776V437H111.332ZM109.663 432.601H111.332V429.247H109.663C108.484 429.247 107.779 429.895 107.779 430.974V430.99C107.779 431.928 108.493 432.601 109.663 432.601ZM116.889 437H115.445V428.052H117.196L120.384 434.991H120.517L123.721 428.052H125.397V437H123.953V430.633H123.795L120.973 436.751H119.861L117.047 430.633H116.889V437ZM132.686 437V428.052H139.924V437H138.48V429.247H134.13V437H132.686ZM146.279 437.158C143.73 437.158 142.153 435.398 142.153 432.534V432.518C142.153 429.646 143.73 427.894 146.279 427.894C148.827 427.894 150.404 429.646 150.404 432.518V432.534C150.404 435.398 148.827 437.158 146.279 437.158ZM146.279 435.879C147.972 435.879 148.927 434.643 148.927 432.534V432.518C148.927 430.401 147.972 429.172 146.279 429.172C144.585 429.172 143.631 430.401 143.631 432.518V432.534C143.631 434.643 144.585 435.879 146.279 435.879ZM157.244 437V428.052H164.483V437H163.038V429.247H158.689V437H157.244ZM170.837 437.158C168.289 437.158 166.711 435.398 166.711 432.534V432.518C166.711 429.646 168.289 427.894 170.837 427.894C173.385 427.894 174.962 429.646 174.962 432.518V432.534C174.962 435.398 173.385 437.158 170.837 437.158ZM170.837 435.879C172.53 435.879 173.485 434.643 173.485 432.534V432.518C173.485 430.401 172.53 429.172 170.837 429.172C169.144 429.172 168.189 430.401 168.189 432.518V432.534C168.189 434.643 169.144 435.879 170.837 435.879ZM183.849 437H182.404V433.273H182.271C181.79 433.613 181.101 433.812 180.138 433.812C177.98 433.812 176.859 432.518 176.859 430.608V428.052H178.304V430.608C178.304 431.787 178.918 432.534 180.138 432.534C181.259 432.534 182.031 432.244 182.404 431.829V428.052H183.849V437ZM193 428.052V429.247H190.103V437H188.659V429.247H185.762V428.052H193ZM198.242 437.158C195.686 437.158 194.142 435.365 194.142 432.559V432.551C194.142 429.787 195.719 427.894 198.151 427.894C200.583 427.894 202.061 429.704 202.061 432.376V432.941H195.619C195.661 434.792 196.682 435.871 198.276 435.871C199.488 435.871 200.235 435.298 200.475 434.759L200.509 434.684H201.953L201.936 434.75C201.629 435.962 200.351 437.158 198.242 437.158ZM198.143 429.181C196.815 429.181 195.802 430.085 195.644 431.787H200.592C200.442 430.019 199.463 429.181 198.143 429.181ZM205.394 437.083C204.804 437.083 204.315 436.593 204.315 436.004C204.315 435.406 204.804 434.925 205.394 434.925C205.991 434.925 206.473 435.406 206.473 436.004C206.473 436.593 205.991 437.083 205.394 437.083Z" fill="black"/>
<defs>
<filter id="filter0_d_1037_23132" x="0" y="116" width="363" height="86" filterUnits="userSpaceOnUse" color-interpolation-filters="sRGB">
<feFlood flood-opacity="0" result="BackgroundImageFix"/>
<feColorMatrix in="SourceAlpha" type="matrix" values="0 0 0 0 0 0 0 0 0 0 0 0 0 0 0 0 0 0 127 0" result="hardAlpha"/>
<feOffset dy="3"/>
<feGaussianBlur stdDeviation="0.5"/>
<feColorMatrix type="matrix" values="0 0 0 0 0 0 0 0 0 0 0 0 0 0 0 0 0 0 0.06 0"/>
<feBlend mode="normal" in2="BackgroundImageFix" result="effect1_dropShadow_1037_23132"/>
<feBlend mode="normal" in="SourceGraphic" in2="effect1_dropShadow_1037_23132" result="shape"/>
</filter>
<clipPath id="clip0_1037_23132">
<rect width="28" height="28" fill="white" transform="translate(236.9 143)"/>
</clipPath>
<clipPath id="clip1_1037_23132">
<rect width="28" height="28" fill="white" transform="translate(306.3 214)"/>
</clipPath>
</defs>
</svg>
