<svg width="363" height="324" viewBox="0 0 363 324" fill="none" xmlns="http://www.w3.org/2000/svg">
<path d="M89.4086 21.7832H87.7777V17.418H88.8227C89.848 16.8711 90.2289 15.6211 90.3363 13.7754L90.8734 4.9082H99.7895V17.418H101.547V21.7832H99.9164V19H89.4086V21.7832ZM91.9867 13.8145C91.8891 15.4062 91.6937 16.4707 91.0004 17.3008V17.418H98.0316V6.49023H92.4457L91.9867 13.8145ZM108.037 19.1855C105.039 19.1855 103.183 17.1152 103.183 13.7461V13.7266C103.183 10.3477 105.039 8.28711 108.037 8.28711C111.035 8.28711 112.89 10.3477 112.89 13.7266V13.7461C112.89 17.1152 111.035 19.1855 108.037 19.1855ZM108.037 17.6816C110.029 17.6816 111.152 16.2266 111.152 13.7461V13.7266C111.152 11.2363 110.029 9.79102 108.037 9.79102C106.045 9.79102 104.921 11.2363 104.921 13.7266V13.7461C104.921 16.2266 106.045 17.6816 108.037 17.6816ZM119.897 19.1953C116.675 19.1953 114.995 16.998 114.995 12.7793V12.7598C114.995 7.17383 116.548 4.79102 120.307 4.61523L121.362 4.56641C122.202 4.52734 123.198 4.37109 124.106 4V5.50391C123.774 5.81641 122.661 6.07031 121.44 6.12891L120.366 6.17773C117.915 6.28516 116.85 7.42773 116.46 10.2988L116.43 10.5137H116.587C117.3 9.25391 118.559 8.57031 120.151 8.57031C122.983 8.57031 124.8 10.5918 124.8 13.7656V13.7852C124.8 17.125 122.934 19.1953 119.897 19.1953ZM119.897 17.6914C121.909 17.6914 123.061 16.2559 123.061 13.7852V13.7656C123.061 11.4121 121.909 10.0742 119.897 10.0742C117.886 10.0742 116.733 11.4121 116.733 13.7656V13.7852C116.733 16.2559 117.886 17.6914 119.897 17.6914ZM127.432 22.5156V8.47266H129.131V10.1523H129.287C129.932 8.98047 131.104 8.28711 132.568 8.28711C135.234 8.28711 136.982 10.4453 136.982 13.7266V13.7461C136.982 17.0469 135.244 19.1855 132.568 19.1855C131.123 19.1855 129.863 18.4629 129.287 17.3398H129.131V22.5156H127.432ZM132.178 17.6816C134.102 17.6816 135.244 16.1973 135.244 13.7461V13.7266C135.244 11.2754 134.102 9.79102 132.178 9.79102C130.264 9.79102 129.092 11.2949 129.092 13.7266V13.7461C129.092 16.1777 130.264 17.6816 132.178 17.6816ZM143.96 19.1855C140.962 19.1855 139.107 17.1152 139.107 13.7461V13.7266C139.107 10.3477 140.962 8.28711 143.96 8.28711C146.958 8.28711 148.814 10.3477 148.814 13.7266V13.7461C148.814 17.1152 146.958 19.1855 143.96 19.1855ZM143.96 17.6816C145.952 17.6816 147.075 16.2266 147.075 13.7461V13.7266C147.075 11.2363 145.952 9.79102 143.96 9.79102C141.968 9.79102 140.845 11.2363 140.845 13.7266V13.7461C140.845 16.2266 141.968 17.6816 143.96 17.6816ZM156.861 19V8.47266H165.377V19H163.677V9.87891H158.56V19H156.861ZM172.852 19.1855C169.854 19.1855 167.999 17.1152 167.999 13.7461V13.7266C167.999 10.3477 169.854 8.28711 172.852 8.28711C175.85 8.28711 177.706 10.3477 177.706 13.7266V13.7461C177.706 17.1152 175.85 19.1855 172.852 19.1855ZM172.852 17.6816C174.845 17.6816 175.968 16.2266 175.968 13.7461V13.7266C175.968 11.2363 174.845 9.79102 172.852 9.79102C170.86 9.79102 169.737 11.2363 169.737 13.7266V13.7461C169.737 16.2266 170.86 17.6816 172.852 17.6816ZM180.777 19H178.678L183.219 13.4531L178.834 8.47266H180.875L184.557 12.9062H185.182V8.47266H186.822V12.9062H187.447L191.129 8.47266H193.141L188.785 13.4141L193.355 19H191.227L187.447 14.1758H186.822V19H185.182V14.1758H184.557L180.777 19ZM197.95 19.1855C195.948 19.1855 194.435 17.9746 194.435 16.0605V16.041C194.435 14.166 195.821 13.082 198.273 12.9355L201.29 12.75V11.793C201.29 10.4941 200.499 9.79102 198.927 9.79102C197.667 9.79102 196.837 10.2598 196.564 11.0801L196.554 11.1094H194.855L194.864 11.0508C195.138 9.40039 196.739 8.28711 198.986 8.28711C201.554 8.28711 202.989 9.60547 202.989 11.793V19H201.29V17.4473H201.134C200.47 18.5703 199.366 19.1855 197.95 19.1855ZM196.173 16.0215C196.173 17.0859 197.081 17.7109 198.302 17.7109C200.03 17.7109 201.29 16.5781 201.29 15.0742V14.1172L198.478 14.293C196.876 14.3906 196.173 14.957 196.173 16.002V16.0215ZM208.551 14.8789C208.327 17.7793 207.428 19.0977 205.67 19.0977C205.309 19.0977 205.036 19.0391 204.899 18.9902V17.457C204.987 17.4863 205.25 17.5254 205.504 17.5254C206.471 17.5254 206.862 16.3047 206.969 14.7422L207.418 8.47266H214.303V19H212.604V9.87891H208.942L208.551 14.8789ZM221.779 19.1855C218.781 19.1855 216.925 17.1152 216.925 13.7461V13.7266C216.925 10.3477 218.781 8.28711 221.779 8.28711C224.777 8.28711 226.632 10.3477 226.632 13.7266V13.7461C226.632 17.1152 224.777 19.1855 221.779 19.1855ZM221.779 17.6816C223.771 17.6816 224.894 16.2266 224.894 13.7461V13.7266C224.894 11.2363 223.771 9.79102 221.779 9.79102C219.787 9.79102 218.664 11.2363 218.664 13.7266V13.7461C218.664 16.2266 219.787 17.6816 221.779 17.6816ZM229.255 19V8.47266H233.718C235.71 8.47266 236.872 9.55664 236.872 11.207V11.2266C236.872 12.2715 236.139 13.2578 235.153 13.4629V13.6191C236.491 13.8047 237.341 14.7422 237.341 15.9629V15.9824C237.341 17.8086 236.003 19 233.737 19H229.255ZM230.954 12.9258H233.2C234.567 12.9258 235.182 12.3984 235.182 11.4023V11.3828C235.182 10.4844 234.655 9.87891 233.473 9.87891H230.954V12.9258ZM230.954 17.5938H233.669C234.958 17.5938 235.612 17.0078 235.612 15.9531V15.9336C235.612 14.8203 234.86 14.332 233.346 14.332H230.954V17.5938ZM242.912 19.1855C240.91 19.1855 239.396 17.9746 239.396 16.0605V16.041C239.396 14.166 240.783 13.082 243.234 12.9355L246.252 12.75V11.793C246.252 10.4941 245.461 9.79102 243.889 9.79102C242.629 9.79102 241.799 10.2598 241.525 11.0801L241.516 11.1094H239.816L239.826 11.0508C240.1 9.40039 241.701 8.28711 243.947 8.28711C246.516 8.28711 247.951 9.60547 247.951 11.793V19H246.252V17.4473H246.096C245.432 18.5703 244.328 19.1855 242.912 19.1855ZM241.135 16.0215C241.135 17.0859 242.043 17.7109 243.264 17.7109C244.992 17.7109 246.252 16.5781 246.252 15.0742V14.1172L243.439 14.293C241.838 14.3906 241.135 14.957 241.135 16.002V16.0215ZM258.669 8.47266V9.87891H255.261V19H253.562V9.87891H250.154V8.47266H258.669ZM260.92 19V8.47266H262.62V11.8516H264.68C267.092 11.8516 268.635 13.2383 268.635 15.416V15.4355C268.635 17.6133 267.092 19 264.68 19H260.92ZM264.68 13.2578H262.62V17.5938H264.68C266.067 17.5938 266.936 16.7344 266.936 15.4355V15.416C266.936 14.1074 266.057 13.2578 264.68 13.2578ZM271.677 14.3125L271.511 4.89844H273.464L273.298 14.3125H271.677ZM272.498 19.1758C271.707 19.1758 271.14 18.6094 271.14 17.8184C271.14 17.0176 271.707 16.4512 272.498 16.4512C273.289 16.4512 273.845 17.0176 273.845 17.8184C273.845 18.6094 273.289 19.1758 272.498 19.1758Z" fill="black"/>
<path d="M7.64062 73.2822C4.2041 73.2822 2.14551 70.8418 2.14551 67.0151V66.9985C2.14551 63.1553 4.25391 60.7397 7.64062 60.7397C11.0439 60.7397 13.1357 63.1636 13.1357 66.9985V67.0151C13.1357 70.8335 11.0605 73.2822 7.64062 73.2822ZM7.64062 71.9043C10.0977 71.9043 11.6084 69.9785 11.6084 67.0151V66.9985C11.6084 64.0103 10.0894 62.1177 7.64062 62.1177C5.2002 62.1177 3.67285 64.0103 3.67285 66.9985V67.0151C3.67285 69.9785 5.15039 71.9043 7.64062 71.9043ZM19.1996 73.1577C16.6928 73.1577 15.0907 71.3398 15.0907 68.501V68.4844C15.0907 65.7036 16.6845 63.894 19.1913 63.894C21.3661 63.894 22.6694 65.1475 22.935 66.7412L22.9433 66.791H21.5072L21.4989 66.7661C21.2748 65.8862 20.4779 65.1724 19.1913 65.1724C17.581 65.1724 16.5683 66.4673 16.5683 68.4844V68.501C16.5683 70.5596 17.5976 71.8794 19.1913 71.8794C20.3949 71.8794 21.1586 71.3481 21.4906 70.3521L21.5072 70.3022L22.935 70.2939L22.9184 70.3853C22.5531 72.0039 21.3495 73.1577 19.1996 73.1577ZM30.9163 73V68.9492H26.4837V73H25.0394V64.0518H26.4837V67.7539H30.9163V64.0518H32.3607V73H30.9163ZM38.7151 73.1577C36.1668 73.1577 34.5896 71.3979 34.5896 68.5342V68.5176C34.5896 65.6455 36.1668 63.894 38.7151 63.894C41.2634 63.894 42.8406 65.6455 42.8406 68.5176V68.5342C42.8406 71.3979 41.2634 73.1577 38.7151 73.1577ZM38.7151 71.8794C40.4085 71.8794 41.363 70.6426 41.363 68.5342V68.5176C41.363 66.4009 40.4085 65.1724 38.7151 65.1724C37.0217 65.1724 36.0672 66.4009 36.0672 68.5176V68.5342C36.0672 70.6426 37.0217 71.8794 38.7151 71.8794ZM45.0695 73V64.0518H48.863C50.5563 64.0518 51.5441 64.9731 51.5441 66.376V66.3926C51.5441 67.2808 50.9216 68.1191 50.0832 68.2935V68.4263C51.2204 68.584 51.9426 69.3809 51.9426 70.4185V70.4351C51.9426 71.9873 50.8054 73 48.8796 73H45.0695ZM46.5138 67.8369H48.423C49.5851 67.8369 50.1081 67.3887 50.1081 66.542V66.5254C50.1081 65.7617 49.6598 65.2471 48.6554 65.2471H46.5138V67.8369ZM46.5138 71.8047H48.8215C49.9172 71.8047 50.4733 71.3066 50.4733 70.4102V70.3936C50.4733 69.4473 49.8342 69.0322 48.5475 69.0322H46.5138V71.8047ZM60.0899 73V68.9492H55.6573V73H54.213V64.0518H55.6573V67.7539H60.0899V64.0518H61.5343V73H60.0899ZM64.2031 73V64.0518H65.6475V66.9238H67.3989C69.4492 66.9238 70.7608 68.1025 70.7608 69.9536V69.9702C70.7608 71.8213 69.4492 73 67.3989 73H64.2031ZM72.3213 73V64.0518H73.7656V73H72.3213ZM67.3989 68.1191H65.6475V71.8047H67.3989C68.5777 71.8047 69.3164 71.0742 69.3164 69.9702V69.9536C69.3164 68.8413 68.5694 68.1191 67.3989 68.1191ZM80.0952 73.1577C77.5385 73.1577 75.9946 71.3647 75.9946 68.5591V68.5508C75.9946 65.7866 77.5717 63.894 80.0038 63.894C82.436 63.894 83.9135 65.7036 83.9135 68.3765V68.9409H77.4721C77.5136 70.792 78.5346 71.8711 80.1284 71.8711C81.3403 71.8711 82.0873 71.2983 82.3281 70.7588L82.3613 70.6841H83.8056L83.789 70.7505C83.4819 71.9624 82.2036 73.1577 80.0952 73.1577ZM79.9955 65.1807C78.6674 65.1807 77.6547 66.0854 77.497 67.7871H82.4443C82.2949 66.019 81.3154 65.1807 79.9955 65.1807ZM94.929 75.9883V73.1079C92.1565 73.0581 90.3138 71.2817 90.3138 68.5342V68.5176C90.3138 65.7617 92.1565 63.9854 94.929 63.9438V61.022H96.3235V63.9438C99.0877 63.9937 100.93 65.7617 100.93 68.5176V68.5342C100.93 71.29 99.0877 73.0664 96.3235 73.1079V75.9883H94.929ZM94.929 71.8711V65.1807C92.9949 65.2222 91.7664 66.4839 91.7664 68.5176V68.5342C91.7664 70.5596 92.9949 71.8213 94.929 71.8711ZM96.3235 71.8711C98.2493 71.8296 99.4778 70.5679 99.4778 68.5342V68.5176C99.4778 66.4922 98.2493 65.2305 96.3235 65.1807V71.8711ZM103.608 76.1377C103.417 76.1377 103.168 76.1211 102.968 76.0879V74.9009C103.143 74.9341 103.367 74.9424 103.566 74.9424C104.388 74.9424 104.886 74.5688 105.21 73.5396L105.376 73.0083L102.064 64.0518H103.608L106.065 71.4146H106.197L108.646 64.0518H110.165L106.671 73.5479C105.932 75.5566 105.193 76.1377 103.608 76.1377ZM117.939 73V68.9492H113.506V73H112.062V64.0518H113.506V67.7539H117.939V64.0518H119.383V73H117.939ZM123.953 68.9243H123.497V73H122.052V64.0518H123.497V67.7954H123.953L127.415 64.0518H129.149L125.124 68.2686L129.307 73H127.456L123.953 68.9243ZM138.417 75.3657V73H131.129V64.0518H132.574V71.8047H136.923V64.0518H138.368V71.8047H139.795V75.3657H138.417ZM141.501 73V64.0518H142.946V70.7256H143.078L147.503 64.0518H148.947V73H147.503V66.3262H147.37L142.946 73H141.501ZM151.624 73V64.0518H153.069V70.7256H153.201L157.626 64.0518H159.07V73H157.626V66.3262H157.493L153.069 73H151.624ZM168.459 69.4971C168.268 71.9624 167.504 73.083 166.01 73.083C165.703 73.083 165.47 73.0332 165.354 72.9917V71.6885C165.429 71.7134 165.653 71.7466 165.869 71.7466C166.691 71.7466 167.023 70.709 167.114 69.3809L167.496 64.0518H173.348V73H171.903V65.2471H168.791L168.459 69.4971ZM179.677 73.1577C177.121 73.1577 175.577 71.3647 175.577 68.5591V68.5508C175.577 65.7866 177.154 63.894 179.586 63.894C182.018 63.894 183.496 65.7036 183.496 68.3765V68.9409H177.054C177.096 70.792 178.117 71.8711 179.711 71.8711C180.922 71.8711 181.669 71.2983 181.91 70.7588L181.943 70.6841H183.388L183.371 70.7505C183.064 71.9624 181.786 73.1577 179.677 73.1577ZM179.578 65.1807C178.25 65.1807 177.237 66.0854 177.079 67.7871H182.026C181.877 66.019 180.898 65.1807 179.578 65.1807ZM191.452 65.2471H187.169V73H185.725V64.0518H191.452V65.2471ZM195.358 68.9243H194.901V73H193.457V64.0518H194.901V67.7954H195.358L198.819 64.0518H200.554L196.528 68.2686L200.712 73H198.861L195.358 68.9243ZM205.805 73.1577C203.256 73.1577 201.679 71.3979 201.679 68.5342V68.5176C201.679 65.6455 203.256 63.894 205.805 63.894C208.353 63.894 209.93 65.6455 209.93 68.5176V68.5342C209.93 71.3979 208.353 73.1577 205.805 73.1577ZM205.805 71.8794C207.498 71.8794 208.452 70.6426 208.452 68.5342V68.5176C208.452 66.4009 207.498 65.1724 205.805 65.1724C204.111 65.1724 203.157 66.4009 203.157 68.5176V68.5342C203.157 70.6426 204.111 71.8794 205.805 71.8794ZM222.647 73V68.9492H218.215V73H216.77V64.0518H218.215V67.7539H222.647V64.0518H224.091V73H222.647ZM229.226 73.1577C227.524 73.1577 226.237 72.1284 226.237 70.5015V70.4849C226.237 68.8911 227.416 67.9697 229.5 67.8452L232.065 67.6875V66.874C232.065 65.77 231.392 65.1724 230.056 65.1724C228.985 65.1724 228.279 65.5708 228.047 66.2681L228.039 66.293H226.594L226.603 66.2432C226.835 64.8403 228.196 63.894 230.106 63.894C232.289 63.894 233.509 65.0146 233.509 66.874V73H232.065V71.6802H231.932C231.367 72.6348 230.429 73.1577 229.226 73.1577ZM227.715 70.4683C227.715 71.373 228.487 71.9043 229.524 71.9043C230.994 71.9043 232.065 70.9414 232.065 69.6631V68.8496L229.674 68.999C228.313 69.082 227.715 69.5635 227.715 70.4517V70.4683ZM239.863 62.8066C238.153 62.8066 237.016 61.6279 237.016 60.084H238.311C238.311 60.9888 238.9 61.8271 239.863 61.8271C240.843 61.8271 241.416 60.9888 241.416 60.084H242.71C242.71 61.6279 241.573 62.8066 239.863 62.8066ZM236.136 73V64.0518H237.581V70.7256H237.713L242.138 64.0518H243.582V73H242.138V66.3262H242.005L237.581 73H236.136ZM252.742 64.0518V65.2471H249.845V73H248.401V65.2471H245.504V64.0518H252.742ZM254.656 73V64.0518H256.1V70.7256H256.233L260.657 64.0518H262.101V73H260.657V66.3262H260.524L256.1 73H254.656ZM275.267 73V68.9492H270.834V73H269.39V64.0518H270.834V67.7539H275.267V64.0518H276.711V73H275.267ZM281.845 73.1577C280.144 73.1577 278.857 72.1284 278.857 70.5015V70.4849C278.857 68.8911 280.036 67.9697 282.119 67.8452L284.684 67.6875V66.874C284.684 65.77 284.012 65.1724 282.675 65.1724C281.605 65.1724 280.899 65.5708 280.667 66.2681L280.658 66.293H279.214L279.222 66.2432C279.455 64.8403 280.816 63.894 282.725 63.894C284.908 63.894 286.129 65.0146 286.129 66.874V73H284.684V71.6802H284.551C283.987 72.6348 283.049 73.1577 281.845 73.1577ZM280.335 70.4683C280.335 71.373 281.107 71.9043 282.144 71.9043C283.613 71.9043 284.684 70.9414 284.684 69.6631V68.8496L282.294 68.999C280.932 69.082 280.335 69.5635 280.335 70.4517V70.4683ZM293.367 73V64.0518H300.605V73H299.161V65.2471H294.811V73H293.367ZM305.74 73.1577C304.038 73.1577 302.751 72.1284 302.751 70.5015V70.4849C302.751 68.8911 303.93 67.9697 306.014 67.8452L308.578 67.6875V66.874C308.578 65.77 307.906 65.1724 306.57 65.1724C305.499 65.1724 304.793 65.5708 304.561 66.2681L304.553 66.293H303.108L303.117 66.2432C303.349 64.8403 304.71 63.894 306.62 63.894C308.803 63.894 310.023 65.0146 310.023 66.874V73H308.578V71.6802H308.446C307.881 72.6348 306.943 73.1577 305.74 73.1577ZM304.229 70.4683C304.229 71.373 305.001 71.9043 306.038 71.9043C307.508 71.9043 308.578 70.9414 308.578 69.6631V68.8496L306.188 68.999C304.827 69.082 304.229 69.5635 304.229 70.4517V70.4683ZM318.527 73V68.9492H314.095V73H312.65V64.0518H314.095V67.7539H318.527V64.0518H319.971V73H318.527ZM326.301 73.1577C323.744 73.1577 322.2 71.3647 322.2 68.5591V68.5508C322.2 65.7866 323.778 63.894 326.21 63.894C328.642 63.894 330.119 65.7036 330.119 68.3765V68.9409H323.678C323.719 70.792 324.74 71.8711 326.334 71.8711C327.546 71.8711 328.293 71.2983 328.534 70.7588L328.567 70.6841H330.011L329.995 70.7505C329.688 71.9624 328.409 73.1577 326.301 73.1577ZM326.201 65.1807C324.873 65.1807 323.861 66.0854 323.703 67.7871H328.65C328.501 66.019 327.521 65.1807 326.201 65.1807ZM334.199 69.4971C334.008 71.9624 333.245 73.083 331.751 73.083C331.443 73.083 331.211 73.0332 331.095 72.9917V71.6885C331.17 71.7134 331.394 71.7466 331.609 71.7466C332.431 71.7466 332.763 70.709 332.855 69.3809L333.236 64.0518H339.089V73H337.644V65.2471H334.531L334.199 69.4971ZM341.757 73V64.0518H343.202V70.7256H343.335L347.759 64.0518H349.203V73H347.759V66.3262H347.626L343.202 73H341.757ZM8.29639 95V90.9492H3.86377V95H2.41943V86.0518H3.86377V89.7539H8.29639V86.0518H9.74072V95H8.29639ZM14.8749 95.1577C13.1733 95.1577 11.8866 94.1284 11.8866 92.5015V92.4849C11.8866 90.8911 13.0654 89.9697 15.1488 89.8452L17.7138 89.6875V88.874C17.7138 87.77 17.0414 87.1724 15.705 87.1724C14.6342 87.1724 13.9286 87.5708 13.6962 88.2681L13.6879 88.293H12.2436L12.2519 88.2432C12.4843 86.8403 13.8456 85.894 15.7548 85.894C17.9379 85.894 19.1581 87.0146 19.1581 88.874V95H17.7138V93.6802H17.581C17.0165 94.6348 16.0785 95.1577 14.8749 95.1577ZM13.3642 92.4683C13.3642 93.373 14.1362 93.9043 15.1737 93.9043C16.643 93.9043 17.7138 92.9414 17.7138 91.6631V90.8496L15.3232 90.999C13.9618 91.082 13.3642 91.5635 13.3642 92.4517V92.4683ZM21.7855 95V86.0518H25.5789C27.2723 86.0518 28.2601 86.9731 28.2601 88.376V88.3926C28.2601 89.2808 27.6375 90.1191 26.7992 90.2935V90.4263C27.9364 90.584 28.6585 91.3809 28.6585 92.4185V92.4351C28.6585 93.9873 27.5213 95 25.5955 95H21.7855ZM23.2298 89.8369H25.139C26.3011 89.8369 26.8241 89.3887 26.8241 88.542V88.5254C26.8241 87.7617 26.3758 87.2471 25.3714 87.2471H23.2298V89.8369ZM23.2298 93.8047H25.5374C26.6331 93.8047 27.1893 93.3066 27.1893 92.4102V92.3936C27.1893 91.4473 26.5501 91.0322 25.2635 91.0322H23.2298V93.8047ZM30.929 95V86.0518H32.3733V92.7256H32.5061L36.9304 86.0518H38.3748V95H36.9304V88.3262H36.7976L32.3733 95H30.929ZM46.7795 87.2471H42.4963V95H41.0519V86.0518H46.7795V87.2471ZM51.0006 95.1577C49.2989 95.1577 48.0123 94.1284 48.0123 92.5015V92.4849C48.0123 90.8911 49.191 89.9697 51.2745 89.8452L53.8395 89.6875V88.874C53.8395 87.77 53.1671 87.1724 51.8307 87.1724C50.7599 87.1724 50.0543 87.5708 49.8219 88.2681L49.8136 88.293H48.3692L48.3775 88.2432C48.61 86.8403 49.9713 85.894 51.8805 85.894C54.0636 85.894 55.2838 87.0146 55.2838 88.874V95H53.8395V93.6802H53.7066C53.1422 94.6348 52.2042 95.1577 51.0006 95.1577ZM49.4898 92.4683C49.4898 93.373 50.2618 93.9043 51.2994 93.9043C52.7687 93.9043 53.8395 92.9414 53.8395 91.6631V90.8496L51.4488 90.999C50.0875 91.082 49.4898 91.5635 49.4898 92.4517V92.4683ZM65.1992 97.3657V95H57.9112V86.0518H59.3555V93.8047H63.7051V86.0518H65.1494V93.8047H66.5772V97.3657H65.1992ZM68.2831 95V86.0518H69.7275V92.7256H69.8603L74.2846 86.0518H75.7289V95H74.2846V88.3262H74.1518L69.7275 95H68.2831ZM78.4061 95V86.0518H79.8504V92.7256H79.9833L84.4076 86.0518H85.8519V95H84.4076V88.3262H84.2748L79.8504 95H78.4061ZM93.1403 95V86.0518H96.9338C98.6272 86.0518 99.6149 86.9731 99.6149 88.376V88.3926C99.6149 89.2808 98.9924 90.1191 98.154 90.2935V90.4263C99.2912 90.584 100.013 91.3809 100.013 92.4185V92.4351C100.013 93.9873 98.8762 95 96.9504 95H93.1403ZM94.5847 89.8369H96.4939C97.656 89.8369 98.1789 89.3887 98.1789 88.542V88.5254C98.1789 87.7617 97.7307 87.2471 96.7263 87.2471H94.5847V89.8369ZM94.5847 93.8047H96.8923C97.988 93.8047 98.5441 93.3066 98.5441 92.4102V92.3936C98.5441 91.4473 97.905 91.0322 96.6184 91.0322H94.5847V93.8047ZM108.161 95V90.9492H103.728V95H102.284V86.0518H103.728V89.7539H108.161V86.0518H109.605V95H108.161ZM112.274 95V86.0518H113.718V92.7256H113.851L118.275 86.0518H119.72V95H118.275V88.3262H118.143L113.718 95H112.274ZM125.443 95.166C123.534 95.166 122.082 94.2197 121.899 92.7754L121.891 92.709H123.36L123.376 92.7754C123.559 93.5059 124.356 93.9707 125.443 93.9707C126.763 93.9707 127.543 93.3315 127.543 92.4434V92.4268C127.543 91.4556 126.813 91.0073 125.443 91.0073H124.049V89.812H125.443C126.589 89.812 127.228 89.3555 127.228 88.4258V88.4092C127.228 87.6455 126.639 87.0811 125.493 87.0811C124.472 87.0811 123.7 87.5376 123.559 88.2515L123.551 88.293H122.14L122.148 88.2349C122.355 86.7988 123.667 85.8857 125.493 85.8857C127.494 85.8857 128.639 86.8735 128.639 88.3013V88.3179C128.639 89.2227 128.05 90.0444 127.162 90.252V90.3848C128.34 90.6421 128.963 91.356 128.963 92.3521V92.3687C128.963 94.0288 127.527 95.166 125.443 95.166ZM131.632 98.1377C131.441 98.1377 131.192 98.1211 130.993 98.0879V96.9009C131.167 96.9341 131.391 96.9424 131.59 96.9424C132.412 96.9424 132.91 96.5688 133.234 95.5396L133.4 95.0083L130.088 86.0518H131.632L134.089 93.4146H134.222L136.67 86.0518H138.189L134.695 95.5479C133.956 97.5566 133.217 98.1377 131.632 98.1377ZM147.835 95.166C145.694 95.166 144.349 93.9624 144.075 92.3438L144.067 92.2939H145.511L145.528 92.3521C145.81 93.3398 146.648 93.8877 147.843 93.8877C149.338 93.8877 150.367 92.7256 150.491 90.9741H146.333V89.7788H150.467C150.292 88.1685 149.246 87.1641 147.843 87.1641C146.59 87.1641 145.801 87.8447 145.544 88.6831L145.511 88.791H144.067L144.092 88.6582C144.382 87.1143 145.718 85.8857 147.843 85.8857C150.35 85.8857 151.986 87.6953 151.986 90.4844V90.501C151.986 93.3481 150.342 95.166 147.835 95.166ZM156.107 90.9243H155.651V95H154.206V86.0518H155.651V89.7954H156.107L159.568 86.0518H161.303L157.277 90.2686L161.461 95H159.61L156.107 90.9243ZM163.292 97.9883V86.0518H164.736V87.4795H164.869C165.417 86.4834 166.413 85.894 167.658 85.894C169.924 85.894 171.41 87.7285 171.41 90.5176V90.5342C171.41 93.3398 169.932 95.1577 167.658 95.1577C166.429 95.1577 165.358 94.5435 164.869 93.5889H164.736V97.9883H163.292ZM167.326 93.8794C168.961 93.8794 169.932 92.6177 169.932 90.5342V90.5176C169.932 88.4341 168.961 87.1724 167.326 87.1724C165.699 87.1724 164.703 88.4507 164.703 90.5176V90.5342C164.703 92.6011 165.699 93.8794 167.326 93.8794ZM176.121 95.1577C174.419 95.1577 173.132 94.1284 173.132 92.5015V92.4849C173.132 90.8911 174.311 89.9697 176.395 89.8452L178.959 89.6875V88.874C178.959 87.77 178.287 87.1724 176.951 87.1724C175.88 87.1724 175.174 87.5708 174.942 88.2681L174.934 88.293H173.489L173.498 88.2432C173.73 86.8403 175.091 85.894 177 85.894C179.184 85.894 180.404 87.0146 180.404 88.874V95H178.959V93.6802H178.827C178.262 94.6348 177.324 95.1577 176.121 95.1577ZM174.61 92.4683C174.61 93.373 175.382 93.9043 176.419 93.9043C177.889 93.9043 178.959 92.9414 178.959 91.6631V90.8496L176.569 90.999C175.208 91.082 174.61 91.5635 174.61 92.4517V92.4683ZM188.908 95V90.9492H184.475V95H183.031V86.0518H184.475V89.7539H188.908V86.0518H190.352V95H188.908ZM195.487 95.1577C193.785 95.1577 192.498 94.1284 192.498 92.5015V92.4849C192.498 90.8911 193.677 89.9697 195.761 89.8452L198.326 89.6875V88.874C198.326 87.77 197.653 87.1724 196.317 87.1724C195.246 87.1724 194.54 87.5708 194.308 88.2681L194.3 88.293H192.855L192.864 88.2432C193.096 86.8403 194.457 85.894 196.367 85.894C198.55 85.894 199.77 87.0146 199.77 88.874V95H198.326V93.6802H198.193C197.628 94.6348 196.69 95.1577 195.487 95.1577ZM193.976 92.4683C193.976 93.373 194.748 93.9043 195.785 93.9043C197.255 93.9043 198.326 92.9414 198.326 91.6631V90.8496L195.935 90.999C194.574 91.082 193.976 91.5635 193.976 92.4517V92.4683ZM203.501 88.6582C202.912 88.6582 202.422 88.1685 202.422 87.5791C202.422 86.9814 202.912 86.5 203.501 86.5C204.099 86.5 204.58 86.9814 204.58 87.5791C204.58 88.1685 204.099 88.6582 203.501 88.6582ZM203.501 95.083C202.912 95.083 202.422 94.5933 202.422 94.0039C202.422 93.4062 202.912 92.9248 203.501 92.9248C204.099 92.9248 204.58 93.4062 204.58 94.0039C204.58 94.5933 204.099 95.083 203.501 95.083Z" fill="black"/>
<g filter="url(#filter0_d_1037_22958)">
<rect x="1" y="116" width="361" height="82" rx="24" fill="white"/>
<path d="M38.5166 166.463C39.0176 166.463 39.3867 166.217 39.9932 165.681L43.0078 163.026H48.2988C50.9443 163.026 52.4297 161.497 52.4297 158.887V152.058C52.4297 149.447 50.9443 147.918 48.2988 147.918H37.0928C34.4561 147.918 32.9619 149.447 32.9619 152.058V158.887C32.9619 161.506 34.5 163.026 37.0312 163.026H37.3916V165.18C37.3916 165.962 37.8047 166.463 38.5166 166.463ZM38.9561 164.494V161.989C38.9561 161.471 38.7275 161.269 38.2354 161.269H37.1543C35.502 161.269 34.7109 160.434 34.7109 158.834V152.11C34.7109 150.511 35.502 149.676 37.1543 149.676H48.2461C49.8896 149.676 50.6807 150.511 50.6807 152.11V158.834C50.6807 160.434 49.8896 161.269 48.2461 161.269H42.9111C42.375 161.269 42.1113 161.356 41.7422 161.743L38.9561 164.494Z" fill="#808080"/>
<path d="M103.197 154.185C103.197 157.938 106.353 161.646 111.257 164.811C111.529 164.986 111.863 165.162 112.092 165.162C112.32 165.162 112.654 164.986 112.927 164.811C117.84 161.646 120.986 157.938 120.986 154.185C120.986 150.941 118.745 148.691 115.871 148.691C114.192 148.691 112.883 149.456 112.092 150.616C111.318 149.465 110 148.691 108.321 148.691C105.438 148.691 103.197 150.941 103.197 154.185ZM105.008 154.176C105.008 151.961 106.467 150.458 108.427 150.458C110.009 150.458 110.896 151.416 111.45 152.251C111.696 152.611 111.863 152.726 112.092 152.726C112.329 152.726 112.479 152.603 112.733 152.251C113.331 151.434 114.184 150.458 115.757 150.458C117.726 150.458 119.185 151.961 119.185 154.176C119.185 157.27 115.968 160.697 112.259 163.158C112.18 163.211 112.127 163.246 112.092 163.246C112.057 163.246 112.004 163.211 111.934 163.158C108.225 160.697 105.008 157.27 105.008 154.176Z" fill="#808080"/>
<rect x="156.5" y="132" width="50" height="50" rx="25" fill="#B3B3B3"/>
<path d="M178.072 163.376C177.088 163.376 176.174 163.224 175.332 162.921C174.502 162.605 173.779 162.161 173.162 161.589C172.557 161.017 172.083 160.346 171.739 159.575C171.395 158.792 171.223 157.934 171.223 157C171.223 156.066 171.395 155.213 171.739 154.443C172.083 153.66 172.557 152.983 173.162 152.411C173.779 151.839 174.502 151.401 175.332 151.097C176.174 150.782 177.088 150.624 178.072 150.624C179.222 150.624 180.248 150.823 181.15 151.22C182.063 151.617 182.822 152.189 183.427 152.936L181.185 154.933C180.782 154.466 180.337 154.11 179.851 153.865C179.377 153.619 178.843 153.497 178.25 153.497C177.74 153.497 177.271 153.578 176.844 153.742C176.417 153.905 176.05 154.145 175.741 154.46C175.445 154.764 175.208 155.132 175.03 155.564C174.864 155.996 174.781 156.475 174.781 157C174.781 157.525 174.864 158.004 175.03 158.436C175.208 158.868 175.445 159.242 175.741 159.557C176.05 159.861 176.417 160.095 176.844 160.258C177.271 160.422 177.74 160.503 178.25 160.503C178.843 160.503 179.377 160.381 179.851 160.135C180.337 159.89 180.782 159.534 181.185 159.067L183.427 161.064C182.822 161.799 182.063 162.372 181.15 162.78C180.248 163.177 179.222 163.376 178.072 163.376Z" fill="white"/>
<path fill-rule="evenodd" clip-rule="evenodd" d="M191.777 161.657C191.777 163.21 189.841 163.964 188.757 162.833L182.143 155.934L184.37 153.876L188.718 158.412L188.718 150.624L191.777 150.624L191.777 161.657Z" fill="white"/>
<circle cx="181.5" cy="157" r="21.5" stroke="white"/>
<g clip-path="url(#clip0_1037_22958)">
<path d="M250.84 153.638L259.122 159.511C259.406 159.709 259.434 159.993 259.203 160.31C258.709 161.012 257.885 161.221 256.977 160.577L251.362 156.594C251.081 156.404 250.847 156.437 250.726 156.617C250.614 156.78 250.655 157.008 250.929 157.204L256.664 161.269C256.933 161.457 256.959 161.727 256.74 162.028C256.271 162.695 255.49 162.894 254.628 162.282L249.772 158.838C249.491 158.647 249.257 158.681 249.136 158.861C249.024 159.023 249.065 159.252 249.339 159.447L254.257 162.934C254.531 163.13 254.567 163.382 254.338 163.701C253.855 164.377 252.984 164.509 252.212 163.964L247.731 160.784C247.457 160.589 247.224 160.622 247.102 160.802C246.983 160.97 247.024 161.199 247.298 161.394L251.998 164.721C252.166 164.84 252.198 165.01 252.07 165.196C251.551 165.929 250.286 165.97 248.993 165.058L243.488 161.155C241.39 159.665 240.308 157.87 240.308 155.965C240.308 153.046 243.021 149.454 246.926 149.454C247.223 149.454 247.347 149.619 247.084 149.805L245.301 151.07C244.388 151.733 244.057 152.614 244.195 153.459C244.297 154.08 244.653 154.636 245.198 155.024C245.943 155.566 246.902 155.63 247.836 155.064L250.187 153.638C250.416 153.5 250.621 153.483 250.84 153.638Z" fill="#F41B1B"/>
<path d="M260.847 158.437L260.843 158.445C260.66 158.781 260.253 158.719 259.866 158.445L251.592 152.578C250.781 152.002 250.113 152.163 249.513 152.526L247.162 153.952C246.309 154.469 245.587 153.858 245.482 153.26C245.4 152.789 245.677 152.403 246.064 152.122C245.991 152.174 247.1 151.387 248.038 150.722L249.284 149.838C249.637 149.589 250.057 149.454 250.489 149.454H254.877C258.862 149.454 261.493 153.085 261.493 155.958C261.493 157.247 260.981 158.191 260.847 158.437Z" fill="#F41B1B"/>
<path d="M261.174 150.827H260.664C261.995 152.299 262.793 154.181 262.793 155.965C262.793 157.842 261.962 159.591 260.398 161.102H260.831C263.16 161.102 264.9 158.79 264.9 155.986C264.9 153.086 263.283 150.827 261.174 150.827Z" fill="#F41B1B"/>
<path d="M240.627 150.827H241.137C239.806 152.299 239.008 154.181 239.008 155.965C239.008 157.842 239.838 159.591 241.403 161.102H240.97C238.641 161.102 236.9 158.79 236.9 155.986C236.9 153.086 238.518 150.827 240.627 150.827Z" fill="#F41B1B"/>
</g>
<path d="M320.3 156.848C322.427 156.848 324.149 154.967 324.149 152.664C324.149 150.396 322.427 148.595 320.3 148.595C318.182 148.595 316.441 150.423 316.45 152.682C316.459 154.976 318.173 156.848 320.3 156.848ZM320.3 155.31C319.087 155.31 318.059 154.158 318.059 152.682C318.05 151.24 319.078 150.133 320.3 150.133C321.53 150.133 322.541 151.223 322.541 152.664C322.541 154.141 321.521 155.31 320.3 155.31ZM314.815 165.021H325.775C327.296 165.021 328.025 164.538 328.025 163.501C328.025 161.084 325.011 157.867 320.3 157.867C315.589 157.867 312.565 161.084 312.565 163.501C312.565 164.538 313.295 165.021 314.815 165.021ZM314.543 163.483C314.332 163.483 314.253 163.413 314.253 163.255C314.253 161.91 316.424 159.405 320.3 159.405C324.167 159.405 326.338 161.91 326.338 163.255C326.338 163.413 326.259 163.483 326.048 163.483H314.543Z" fill="#808080"/>
</g>
<g clip-path="url(#clip1_1037_22958)">
<path d="M246.093 236.004C245.583 236.004 245.135 235.995 244.792 235.925C244.37 235.846 243.931 235.573 243.931 234.993C243.931 234.431 244.326 234.079 244.88 234.079C245.214 234.079 245.557 234.105 246.031 234.105C248.87 234.105 250.118 233.121 250.109 230.238L250.101 224.578L250.18 222.275L248.589 224.033L245.864 226.775C245.688 226.942 245.451 227.057 245.179 227.057C244.651 227.057 244.256 226.652 244.256 226.107C244.256 225.861 244.353 225.633 244.555 225.422L250.347 219.621C250.54 219.428 250.795 219.313 251.059 219.313C251.322 219.313 251.586 219.428 251.771 219.621L257.571 225.422C257.773 225.633 257.87 225.861 257.87 226.107C257.87 226.652 257.475 227.057 256.947 227.057C256.675 227.057 256.438 226.942 256.262 226.775L253.528 224.033L251.946 222.284L252.025 224.578V230.361C252.025 234.36 250.074 236.004 246.093 236.004Z" fill="#0080FF"/>
</g>
<path d="M221.262 259.299C217.751 259.299 215.593 256.867 215.593 253.015V252.999C215.593 249.139 217.784 246.723 221.262 246.723C224.748 246.723 226.923 249.139 226.923 252.999V253.015C226.923 256.867 224.757 259.299 221.262 259.299ZM221.262 257.448C223.395 257.448 224.74 255.705 224.74 253.015V252.999C224.74 250.292 223.387 248.574 221.262 248.574C219.137 248.574 217.776 250.292 217.776 252.999V253.015C217.776 255.705 219.104 257.448 221.262 257.448ZM236.05 249.927V251.529H233.253V259H231.186V251.529H228.397V249.927H236.05ZM240.362 255.082H239.898V259H237.831V249.927H239.898V253.571H240.346L243.334 249.927H245.708L242.047 254.127L245.882 259H243.384L240.362 255.082ZM250.045 255.074C249.871 257.688 249.066 259.083 247.223 259.083C246.85 259.083 246.576 259.025 246.443 258.983V257.207C246.534 257.232 246.758 257.265 246.991 257.265C247.821 257.265 248.111 256.211 248.194 254.908L248.51 249.927H255.018V259H252.951V251.529H250.303L250.045 255.074ZM257.529 259V249.927H259.571V256.003H259.737L263.563 249.927H265.605V259H263.563V252.891H263.389L259.571 259H257.529ZM270.648 255.082H270.183V259H268.117V249.927H270.183V253.571H270.632L273.62 249.927H275.994L272.333 254.127L276.168 259H273.67L270.648 255.082ZM277.841 259V249.927H279.883V256.003H280.049L283.876 249.927H285.918V259H283.876V252.891H283.701L279.883 259H277.841Z" fill="black"/>
<path d="M7.64062 297.282C4.2041 297.282 2.14551 294.842 2.14551 291.015V290.999C2.14551 287.155 4.25391 284.74 7.64062 284.74C11.0439 284.74 13.1357 287.164 13.1357 290.999V291.015C13.1357 294.833 11.0605 297.282 7.64062 297.282ZM7.64062 295.904C10.0977 295.904 11.6084 293.979 11.6084 291.015V290.999C11.6084 288.01 10.0894 286.118 7.64062 286.118C5.2002 286.118 3.67285 288.01 3.67285 290.999V291.015C3.67285 293.979 5.15039 295.904 7.64062 295.904ZM22.0136 288.052V289.247H19.1166V297H17.6723V289.247H14.7753V288.052H22.0136ZM25.828 292.924H25.3714V297H23.9271V288.052H25.3714V291.795H25.828L29.2894 288.052H31.0243L26.9984 292.269L31.182 297H29.3309L25.828 292.924ZM34.9382 293.497C34.7473 295.962 33.9837 297.083 32.4895 297.083C32.1824 297.083 31.95 297.033 31.8337 296.992V295.688C31.9085 295.713 32.1326 295.747 32.3484 295.747C33.1702 295.747 33.5022 294.709 33.5935 293.381L33.9754 288.052H39.8274V297H38.3831V289.247H35.2703L34.9382 293.497ZM42.4963 297V288.052H43.9406V294.726H44.0734L48.4977 288.052H49.9421V297H48.4977V290.326H48.3649L43.9406 297H42.4963ZM54.5201 292.924H54.0636V297H52.6192V288.052H54.0636V291.795H54.5201L57.9815 288.052H59.7164L55.6905 292.269L59.8741 297H58.023L54.5201 292.924ZM63.9126 297.158C62.211 297.158 60.9243 296.128 60.9243 294.501V294.485C60.9243 292.891 62.103 291.97 64.1865 291.845L66.7515 291.688V290.874C66.7515 289.77 66.0791 289.172 64.7427 289.172C63.6719 289.172 62.9663 289.571 62.7339 290.268L62.7256 290.293H61.2813L61.2896 290.243C61.522 288.84 62.8833 287.894 64.7925 287.894C66.9756 287.894 68.1958 289.015 68.1958 290.874V297H66.7515V295.68H66.6187C66.0542 296.635 65.1162 297.158 63.9126 297.158ZM62.4019 294.468C62.4019 295.373 63.1738 295.904 64.2114 295.904C65.6807 295.904 66.7515 294.941 66.7515 293.663V292.85L64.3609 292.999C62.9995 293.082 62.4019 293.563 62.4019 294.452V294.468ZM77.3061 288.052V289.247H74.4091V297H72.9648V289.247H70.0678V288.052H77.3061ZM82.5482 297.158C79.9916 297.158 78.4476 295.365 78.4476 292.559V292.551C78.4476 289.787 80.0248 287.894 82.4569 287.894C84.889 287.894 86.3666 289.704 86.3666 292.376V292.941H79.9252C79.9667 294.792 80.9877 295.871 82.5814 295.871C83.7933 295.871 84.5404 295.298 84.7811 294.759L84.8143 294.684H86.2587L86.2421 294.75C85.9349 295.962 84.6566 297.158 82.5482 297.158ZM82.4486 289.181C81.1205 289.181 80.1078 290.085 79.9501 291.787H84.8973C84.7479 290.019 83.7684 289.181 82.4486 289.181ZM92.2644 297.158C89.7576 297.158 88.1555 295.34 88.1555 292.501V292.484C88.1555 289.704 89.7493 287.894 92.2561 287.894C94.4309 287.894 95.7342 289.147 95.9998 290.741L96.0081 290.791H94.5721L94.5638 290.766C94.3396 289.886 93.5428 289.172 92.2561 289.172C90.6458 289.172 89.6331 290.467 89.6331 292.484V292.501C89.6331 294.56 90.6624 295.879 92.2561 295.879C93.4597 295.879 94.2234 295.348 94.5555 294.352L94.5721 294.302L95.9998 294.294L95.9832 294.385C95.618 296.004 94.4143 297.158 92.2644 297.158ZM98.1042 297V288.052H99.5485V290.924H101.3C103.35 290.924 104.662 292.103 104.662 293.954V293.97C104.662 295.821 103.35 297 101.3 297H98.1042ZM101.3 292.119H99.5485V295.805H101.3C102.479 295.805 103.217 295.074 103.217 293.97V293.954C103.217 292.841 102.47 292.119 101.3 292.119ZM117.205 297V292.949H112.772V297H111.328V288.052H112.772V291.754H117.205V288.052H118.649V297H117.205ZM123.783 297.158C122.082 297.158 120.795 296.128 120.795 294.501V294.485C120.795 292.891 121.974 291.97 124.057 291.845L126.622 291.688V290.874C126.622 289.77 125.95 289.172 124.613 289.172C123.542 289.172 122.837 289.571 122.604 290.268L122.596 290.293H121.152L121.16 290.243C121.393 288.84 122.754 287.894 124.663 287.894C126.846 287.894 128.066 289.015 128.066 290.874V297H126.622V295.68H126.489C125.925 296.635 124.987 297.158 123.783 297.158ZM122.272 294.468C122.272 295.373 123.044 295.904 124.082 295.904C125.551 295.904 126.622 294.941 126.622 293.663V292.85L124.231 292.999C122.87 293.082 122.272 293.563 122.272 294.452V294.468ZM135.305 297V288.052H139.098C140.792 288.052 141.78 288.973 141.78 290.376V290.393C141.78 291.281 141.157 292.119 140.319 292.293V292.426C141.456 292.584 142.178 293.381 142.178 294.418V294.435C142.178 295.987 141.041 297 139.115 297H135.305ZM136.749 291.837H138.658C139.821 291.837 140.344 291.389 140.344 290.542V290.525C140.344 289.762 139.895 289.247 138.891 289.247H136.749V291.837ZM136.749 295.805H139.057C140.153 295.805 140.709 295.307 140.709 294.41V294.394C140.709 293.447 140.07 293.032 138.783 293.032H136.749V295.805ZM146.914 297.158C145.212 297.158 143.926 296.128 143.926 294.501V294.485C143.926 292.891 145.104 291.97 147.188 291.845L149.753 291.688V290.874C149.753 289.77 149.08 289.172 147.744 289.172C146.673 289.172 145.967 289.571 145.735 290.268L145.727 290.293H144.282L144.291 290.243C144.523 288.84 145.884 287.894 147.794 287.894C149.977 287.894 151.197 289.015 151.197 290.874V297H149.753V295.68H149.62C149.055 296.635 148.117 297.158 146.914 297.158ZM145.403 294.468C145.403 295.373 146.175 295.904 147.213 295.904C148.682 295.904 149.753 294.941 149.753 293.663V292.85L147.362 292.999C146.001 293.082 145.403 293.563 145.403 294.452V294.468ZM155.725 292.924H155.269V297H153.824V288.052H155.269V291.795H155.725L159.187 288.052H160.922L156.896 292.269L161.079 297H159.228L155.725 292.924ZM165.118 297.158C163.416 297.158 162.129 296.128 162.129 294.501V294.485C162.129 292.891 163.308 291.97 165.392 291.845L167.957 291.688V290.874C167.957 289.77 167.284 289.172 165.948 289.172C164.877 289.172 164.171 289.571 163.939 290.268L163.931 290.293H162.486L162.495 290.243C162.727 288.84 164.088 287.894 165.998 287.894C168.181 287.894 169.401 289.015 169.401 290.874V297H167.957V295.68H167.824C167.259 296.635 166.321 297.158 165.118 297.158ZM163.607 294.468C163.607 295.373 164.379 295.904 165.417 295.904C166.886 295.904 167.957 294.941 167.957 293.663V292.85L165.566 292.999C164.205 293.082 163.607 293.563 163.607 294.452V294.468ZM177.905 297V292.949H173.473V297H172.028V288.052H173.473V291.754H177.905V288.052H179.35V297H177.905ZM185.687 297.158C183.181 297.158 181.579 295.34 181.579 292.501V292.484C181.579 289.704 183.172 287.894 185.679 287.894C187.854 287.894 189.157 289.147 189.423 290.741L189.431 290.791H187.995L187.987 290.766C187.763 289.886 186.966 289.172 185.679 289.172C184.069 289.172 183.056 290.467 183.056 292.484V292.501C183.056 294.56 184.085 295.879 185.679 295.879C186.883 295.879 187.646 295.348 187.978 294.352L187.995 294.302L189.423 294.294L189.406 294.385C189.041 296.004 187.837 297.158 185.687 297.158ZM191.527 297V288.052H192.971V294.726H193.104L197.529 288.052H198.973V297H197.529V290.326H197.396L192.971 297H191.527ZM201.65 297V288.052H203.094V294.726H203.227L207.652 288.052H209.096V297H207.652V290.326H207.519L203.094 297H201.65ZM211.333 300.046L212.055 295.323H213.707L212.404 300.046H211.333ZM224.947 297.158C222.398 297.158 220.821 295.398 220.821 292.534V292.518C220.821 289.646 222.398 287.894 224.947 287.894C227.495 287.894 229.072 289.646 229.072 292.518V292.534C229.072 295.398 227.495 297.158 224.947 297.158ZM224.947 295.879C226.64 295.879 227.595 294.643 227.595 292.534V292.518C227.595 290.401 226.64 289.172 224.947 289.172C223.253 289.172 222.299 290.401 222.299 292.518V292.534C222.299 294.643 223.253 295.879 224.947 295.879ZM237.203 288.052V289.247H234.306V297H232.862V289.247H229.965V288.052H237.203ZM242.453 297.158C239.947 297.158 238.345 295.34 238.345 292.501V292.484C238.345 289.704 239.938 287.894 242.445 287.894C244.62 287.894 245.923 289.147 246.189 290.741L246.197 290.791H244.761L244.753 290.766C244.529 289.886 243.732 289.172 242.445 289.172C240.835 289.172 239.822 290.467 239.822 292.484V292.501C239.822 294.56 240.851 295.879 242.445 295.879C243.649 295.879 244.412 295.348 244.744 294.352L244.761 294.302L246.189 294.294L246.172 294.385C245.807 296.004 244.603 297.158 242.453 297.158ZM250.393 293.497C250.202 295.962 249.439 297.083 247.945 297.083C247.637 297.083 247.405 297.033 247.289 296.992V295.688C247.364 295.713 247.588 295.747 247.803 295.747C248.625 295.747 248.957 294.709 249.049 293.381L249.43 288.052H255.282V297H253.838V289.247H250.725L250.393 293.497ZM261.612 297.158C259.055 297.158 257.511 295.365 257.511 292.559V292.551C257.511 289.787 259.089 287.894 261.521 287.894C263.953 287.894 265.43 289.704 265.43 292.376V292.941H258.989C259.03 294.792 260.051 295.871 261.645 295.871C262.857 295.871 263.604 295.298 263.845 294.759L263.878 294.684H265.322L265.306 294.75C264.999 295.962 263.72 297.158 261.612 297.158ZM261.512 289.181C260.184 289.181 259.172 290.085 259.014 291.787H263.961C263.812 290.019 262.832 289.181 261.512 289.181ZM268.041 297H266.256L270.116 292.285L266.389 288.052H268.124L271.254 291.82H271.785V288.052H273.179V291.82H273.711L276.84 288.052H278.55L274.848 292.252L278.733 297H276.923L273.711 292.899H273.179V297H271.785V292.899H271.254L268.041 297ZM280.422 297V288.052H281.866V294.726H281.999L286.423 288.052H287.868V297H286.423V290.326H286.291L281.866 297H280.422ZM290.545 297V288.052H294.338C296.032 288.052 297.019 288.973 297.019 290.376V290.393C297.019 291.281 296.397 292.119 295.559 292.293V292.426C296.696 292.584 297.418 293.381 297.418 294.418V294.435C297.418 295.987 296.281 297 294.355 297H290.545ZM291.989 291.837H293.898C295.06 291.837 295.583 291.389 295.583 290.542V290.525C295.583 289.762 295.135 289.247 294.131 289.247H291.989V291.837ZM291.989 295.805H294.297C295.393 295.805 295.949 295.307 295.949 294.41V294.394C295.949 293.447 295.31 293.032 294.023 293.032H291.989V295.805ZM302.154 297.158C300.452 297.158 299.165 296.128 299.165 294.501V294.485C299.165 292.891 300.344 291.97 302.428 291.845L304.993 291.688V290.874C304.993 289.77 304.32 289.172 302.984 289.172C301.913 289.172 301.207 289.571 300.975 290.268L300.967 290.293H299.522L299.531 290.243C299.763 288.84 301.124 287.894 303.034 287.894C305.217 287.894 306.437 289.015 306.437 290.874V297H304.993V295.68H304.86C304.295 296.635 303.357 297.158 302.154 297.158ZM300.643 294.468C300.643 295.373 301.415 295.904 302.453 295.904C303.922 295.904 304.993 294.941 304.993 293.663V292.85L302.602 292.999C301.241 293.082 300.643 293.563 300.643 294.452V294.468ZM312.791 286.807C311.081 286.807 309.944 285.628 309.944 284.084H311.239C311.239 284.989 311.828 285.827 312.791 285.827C313.771 285.827 314.344 284.989 314.344 284.084H315.638C315.638 285.628 314.501 286.807 312.791 286.807ZM309.064 297V288.052H310.509V294.726H310.641L315.066 288.052H316.51V297H315.066V290.326H314.933L310.509 297H309.064ZM325.67 288.052V289.247H322.773V297H321.329V289.247H318.432V288.052H325.67ZM330.912 297.158C328.356 297.158 326.812 295.365 326.812 292.559V292.551C326.812 289.787 328.389 287.894 330.821 287.894C333.253 287.894 334.731 289.704 334.731 292.376V292.941H328.289C328.331 294.792 329.352 295.871 330.945 295.871C332.157 295.871 332.904 295.298 333.145 294.759L333.178 294.684H334.623L334.606 294.75C334.299 295.962 333.021 297.158 330.912 297.158ZM330.813 289.181C329.484 289.181 328.472 290.085 328.314 291.787H333.261C333.112 290.019 332.132 289.181 330.813 289.181ZM6.08838 319.158C3.58154 319.158 1.97949 317.34 1.97949 314.501V314.484C1.97949 311.704 3.57324 309.894 6.08008 309.894C8.25488 309.894 9.55811 311.147 9.82373 312.741L9.83203 312.791H8.396L8.3877 312.766C8.16357 311.886 7.3667 311.172 6.08008 311.172C4.46973 311.172 3.45703 312.467 3.45703 314.484V314.501C3.45703 316.56 4.48633 317.879 6.08008 317.879C7.28369 317.879 8.04736 317.348 8.37939 316.352L8.396 316.302L9.82373 316.294L9.80713 316.385C9.44189 318.004 8.23828 319.158 6.08838 319.158ZM11.9281 319V310.052H15.7216C17.415 310.052 18.4028 310.973 18.4028 312.376V312.393C18.4028 313.281 17.7802 314.119 16.9418 314.293V314.426C18.079 314.584 18.8012 315.381 18.8012 316.418V316.435C18.8012 317.987 17.664 319 15.7382 319H11.9281ZM13.3725 313.837H15.2817C16.4438 313.837 16.9667 313.389 16.9667 312.542V312.525C16.9667 311.762 16.5185 311.247 15.5141 311.247H13.3725V313.837ZM13.3725 317.805H15.6801C16.7758 317.805 17.332 317.307 17.332 316.41V316.394C17.332 315.447 16.6928 315.032 15.4062 315.032H13.3725V317.805ZM24.6742 319.158C22.1258 319.158 20.5487 317.398 20.5487 314.534V314.518C20.5487 311.646 22.1258 309.894 24.6742 309.894C27.2225 309.894 28.7996 311.646 28.7996 314.518V314.534C28.7996 317.398 27.2225 319.158 24.6742 319.158ZM24.6742 317.879C26.3675 317.879 27.3221 316.643 27.3221 314.534V314.518C27.3221 312.401 26.3675 311.172 24.6742 311.172C22.9808 311.172 22.0262 312.401 22.0262 314.518V314.534C22.0262 316.643 22.9808 317.879 24.6742 317.879ZM31.0286 319V310.052H32.4729V316.726H32.6057L37.03 310.052H38.4744V319H37.03V312.326H36.8972L32.4729 319H31.0286ZM46.5348 322.138C46.3438 322.138 46.0948 322.121 45.8956 322.088V320.901C46.0699 320.934 46.294 320.942 46.4933 320.942C47.315 320.942 47.8131 320.569 48.1368 319.54L48.3028 319.008L44.9908 310.052H46.5348L48.9918 317.415H49.1246L51.5733 310.052H53.0924L49.5978 319.548C48.859 321.557 48.1202 322.138 46.5348 322.138ZM58.3262 319.158C55.8194 319.158 54.2173 317.34 54.2173 314.501V314.484C54.2173 311.704 55.8111 309.894 58.3179 309.894C60.4927 309.894 61.7959 311.147 62.0615 312.741L62.0698 312.791H60.6338L60.6255 312.766C60.4014 311.886 59.6045 311.172 58.3179 311.172C56.7075 311.172 55.6948 312.467 55.6948 314.484V314.501C55.6948 316.56 56.7241 317.879 58.3179 317.879C59.5215 317.879 60.2852 317.348 60.6172 316.352L60.6338 316.302L62.0615 316.294L62.0449 316.385C61.6797 318.004 60.4761 319.158 58.3262 319.158ZM64.166 319V310.052H71.4042V319H69.9599V311.247H65.6103V319H64.166ZM77.7337 319.158C75.1771 319.158 73.6332 317.365 73.6332 314.559V314.551C73.6332 311.787 75.2103 309.894 77.6424 309.894C80.0746 309.894 81.5521 311.704 81.5521 314.376V314.941H75.1107C75.1522 316.792 76.1732 317.871 77.767 317.871C78.9789 317.871 79.7259 317.298 79.9667 316.759L79.9999 316.684H81.4442L81.4276 316.75C81.1205 317.962 79.8421 319.158 77.7337 319.158ZM77.6341 311.181C76.306 311.181 75.2933 312.085 75.1356 313.787H80.0829C79.9335 312.019 78.954 311.181 77.6341 311.181ZM82.6604 319L85.7234 314.526L82.6272 310.052H84.3289L86.4539 313.38H86.5867L88.6868 310.052H90.3055L87.2674 314.468L90.347 319H88.6536L86.5369 315.622H86.4041L84.2791 319H82.6604ZM92.2771 319V310.052H93.7214V316.726H93.8542L98.2785 310.052H99.7229V319H98.2785V312.326H98.1457L93.7214 319H92.2771ZM107.011 319V310.052H108.456V316.726H108.588L113.013 310.052H114.457V319H113.013V312.326H112.88L108.456 319H107.011ZM127.622 319V314.949H123.19V319H121.745V310.052H123.19V313.754H127.622V310.052H129.067V319H127.622ZM134.201 319.158C132.499 319.158 131.213 318.128 131.213 316.501V316.485C131.213 314.891 132.391 313.97 134.475 313.845L137.04 313.688V312.874C137.04 311.77 136.367 311.172 135.031 311.172C133.96 311.172 133.255 311.571 133.022 312.268L133.014 312.293H131.57L131.578 312.243C131.81 310.84 133.172 309.894 135.081 309.894C137.264 309.894 138.484 311.015 138.484 312.874V319H137.04V317.68H136.907C136.343 318.635 135.405 319.158 134.201 319.158ZM132.69 316.468C132.69 317.373 133.462 317.904 134.5 317.904C135.969 317.904 137.04 316.941 137.04 315.663V314.85L134.649 314.999C133.288 315.082 132.69 315.563 132.69 316.452V316.468ZM140.406 319L143.469 314.526L140.373 310.052H142.074L144.199 313.38H144.332L146.432 310.052H148.051L145.013 314.468L148.092 319H146.399L144.282 315.622H144.15L142.025 319H140.406ZM153.376 319.158C150.828 319.158 149.251 317.398 149.251 314.534V314.518C149.251 311.646 150.828 309.894 153.376 309.894C155.924 309.894 157.502 311.646 157.502 314.518V314.534C157.502 317.398 155.924 319.158 153.376 319.158ZM153.376 317.879C155.069 317.879 156.024 316.643 156.024 314.534V314.518C156.024 312.401 155.069 311.172 153.376 311.172C151.683 311.172 150.728 312.401 150.728 314.518V314.534C150.728 316.643 151.683 317.879 153.376 317.879ZM159.855 321.366H158.51V317.805H159.257C159.913 317.373 160.237 316.244 160.32 315.041L160.669 310.052H166.77V317.805H168.197V321.366H166.853V319H159.855V321.366ZM165.325 317.805V311.247H161.947L161.665 315.074C161.582 316.161 161.349 317.116 160.926 317.672V317.805H165.325ZM169.903 319V310.052H171.348V316.726H171.48L175.905 310.052H177.349V319H175.905V312.326H175.772L171.348 319H169.903ZM186.509 310.052V311.247H183.612V319H182.168V311.247H179.271V310.052H186.509ZM191.751 319.158C189.195 319.158 187.651 317.365 187.651 314.559V314.551C187.651 311.787 189.228 309.894 191.66 309.894C194.092 309.894 195.57 311.704 195.57 314.376V314.941H189.128C189.17 316.792 190.191 317.871 191.784 317.871C192.996 317.871 193.743 317.298 193.984 316.759L194.017 316.684H195.462L195.445 316.75C195.138 317.962 193.86 319.158 191.751 319.158ZM191.652 311.181C190.324 311.181 189.311 312.085 189.153 313.787H194.1C193.951 312.019 192.971 311.181 191.652 311.181ZM202.418 321.988V310.052H203.862V311.479H203.995C204.543 310.483 205.539 309.894 206.784 309.894C209.05 309.894 210.536 311.729 210.536 314.518V314.534C210.536 317.34 209.059 319.158 206.784 319.158C205.556 319.158 204.485 318.543 203.995 317.589H203.862V321.988H202.418ZM206.452 317.879C208.088 317.879 209.059 316.618 209.059 314.534V314.518C209.059 312.434 208.088 311.172 206.452 311.172C204.825 311.172 203.829 312.451 203.829 314.518V314.534C203.829 316.601 204.825 317.879 206.452 317.879ZM215.247 319.158C213.545 319.158 212.259 318.128 212.259 316.501V316.485C212.259 314.891 213.438 313.97 215.521 313.845L218.086 313.688V312.874C218.086 311.77 217.414 311.172 216.077 311.172C215.006 311.172 214.301 311.571 214.068 312.268L214.06 312.293H212.616L212.624 312.243C212.857 310.84 214.218 309.894 216.127 309.894C218.31 309.894 219.53 311.015 219.53 312.874V319H218.086V317.68H217.953C217.389 318.635 216.451 319.158 215.247 319.158ZM213.736 316.468C213.736 317.373 214.508 317.904 215.546 317.904C217.015 317.904 218.086 316.941 218.086 315.663V314.85L215.695 314.999C214.334 315.082 213.736 315.563 213.736 316.452V316.468ZM225.885 319.166C223.146 319.166 221.718 317.298 221.718 313.712V313.696C221.718 308.948 223.038 306.922 226.233 306.773L227.13 306.731C227.844 306.698 228.69 306.565 229.462 306.25V307.528C229.18 307.794 228.234 308.01 227.196 308.06L226.283 308.101C224.2 308.192 223.295 309.164 222.963 311.604L222.938 311.787H223.071C223.677 310.716 224.748 310.135 226.101 310.135C228.508 310.135 230.052 311.853 230.052 314.551V314.567C230.052 317.406 228.466 319.166 225.885 319.166ZM225.885 317.888C227.595 317.888 228.574 316.667 228.574 314.567V314.551C228.574 312.55 227.595 311.413 225.885 311.413C224.175 311.413 223.195 312.55 223.195 314.551V314.567C223.195 316.667 224.175 317.888 225.885 317.888ZM235.966 319.158C233.418 319.158 231.841 317.398 231.841 314.534V314.518C231.841 311.646 233.418 309.894 235.966 309.894C238.515 309.894 240.092 311.646 240.092 314.518V314.534C240.092 317.398 238.515 319.158 235.966 319.158ZM235.966 317.879C237.66 317.879 238.614 316.643 238.614 314.534V314.518C238.614 312.401 237.66 311.172 235.966 311.172C234.273 311.172 233.318 312.401 233.318 314.518V314.534C233.318 316.643 234.273 317.879 235.966 317.879ZM248.223 310.052V311.247H245.326V319H243.881V311.247H240.984V310.052H248.223ZM250.908 322.138C250.717 322.138 250.468 322.121 250.269 322.088V320.901C250.443 320.934 250.667 320.942 250.866 320.942C251.688 320.942 252.186 320.569 252.51 319.54L252.676 319.008L249.364 310.052H250.908L253.365 317.415H253.498L255.947 310.052H257.466L253.971 319.548C253.232 321.557 252.493 322.138 250.908 322.138Z" fill="black"/>
<defs>
<filter id="filter0_d_1037_22958" x="0" y="116" width="363" height="86" filterUnits="userSpaceOnUse" color-interpolation-filters="sRGB">
<feFlood flood-opacity="0" result="BackgroundImageFix"/>
<feColorMatrix in="SourceAlpha" type="matrix" values="0 0 0 0 0 0 0 0 0 0 0 0 0 0 0 0 0 0 127 0" result="hardAlpha"/>
<feOffset dy="3"/>
<feGaussianBlur stdDeviation="0.5"/>
<feColorMatrix type="matrix" values="0 0 0 0 0 0 0 0 0 0 0 0 0 0 0 0 0 0 0.06 0"/>
<feBlend mode="normal" in2="BackgroundImageFix" result="effect1_dropShadow_1037_22958"/>
<feBlend mode="normal" in="SourceGraphic" in2="effect1_dropShadow_1037_22958" result="shape"/>
</filter>
<clipPath id="clip0_1037_22958">
<rect width="28" height="28" fill="white" transform="translate(236.9 143)"/>
</clipPath>
<clipPath id="clip1_1037_22958">
<rect width="28" height="28" fill="white" transform="translate(236.9 214)"/>
</clipPath>
</defs>
</svg>
