<svg width="363" height="202" viewBox="0 0 363 202" fill="none" xmlns="http://www.w3.org/2000/svg">
<path d="M89.4086 21.7832H87.7777V17.418H88.8227C89.848 16.8711 90.2289 15.6211 90.3363 13.7754L90.8734 4.9082H99.7895V17.418H101.547V21.7832H99.9164V19H89.4086V21.7832ZM91.9867 13.8145C91.8891 15.4062 91.6937 16.4707 91.0004 17.3008V17.418H98.0316V6.49023H92.4457L91.9867 13.8145ZM108.037 19.1855C105.039 19.1855 103.183 17.1152 103.183 13.7461V13.7266C103.183 10.3477 105.039 8.28711 108.037 8.28711C111.035 8.28711 112.89 10.3477 112.89 13.7266V13.7461C112.89 17.1152 111.035 19.1855 108.037 19.1855ZM108.037 17.6816C110.029 17.6816 111.152 16.2266 111.152 13.7461V13.7266C111.152 11.2363 110.029 9.79102 108.037 9.79102C106.045 9.79102 104.921 11.2363 104.921 13.7266V13.7461C104.921 16.2266 106.045 17.6816 108.037 17.6816ZM119.897 19.1953C116.675 19.1953 114.995 16.998 114.995 12.7793V12.7598C114.995 7.17383 116.548 4.79102 120.307 4.61523L121.362 4.56641C122.202 4.52734 123.198 4.37109 124.106 4V5.50391C123.774 5.81641 122.661 6.07031 121.44 6.12891L120.366 6.17773C117.915 6.28516 116.85 7.42773 116.46 10.2988L116.43 10.5137H116.587C117.3 9.25391 118.559 8.57031 120.151 8.57031C122.983 8.57031 124.8 10.5918 124.8 13.7656V13.7852C124.8 17.125 122.934 19.1953 119.897 19.1953ZM119.897 17.6914C121.909 17.6914 123.061 16.2559 123.061 13.7852V13.7656C123.061 11.4121 121.909 10.0742 119.897 10.0742C117.886 10.0742 116.733 11.4121 116.733 13.7656V13.7852C116.733 16.2559 117.886 17.6914 119.897 17.6914ZM127.432 22.5156V8.47266H129.131V10.1523H129.287C129.932 8.98047 131.104 8.28711 132.568 8.28711C135.234 8.28711 136.982 10.4453 136.982 13.7266V13.7461C136.982 17.0469 135.244 19.1855 132.568 19.1855C131.123 19.1855 129.863 18.4629 129.287 17.3398H129.131V22.5156H127.432ZM132.178 17.6816C134.102 17.6816 135.244 16.1973 135.244 13.7461V13.7266C135.244 11.2754 134.102 9.79102 132.178 9.79102C130.264 9.79102 129.092 11.2949 129.092 13.7266V13.7461C129.092 16.1777 130.264 17.6816 132.178 17.6816ZM143.96 19.1855C140.962 19.1855 139.107 17.1152 139.107 13.7461V13.7266C139.107 10.3477 140.962 8.28711 143.96 8.28711C146.958 8.28711 148.814 10.3477 148.814 13.7266V13.7461C148.814 17.1152 146.958 19.1855 143.96 19.1855ZM143.96 17.6816C145.952 17.6816 147.075 16.2266 147.075 13.7461V13.7266C147.075 11.2363 145.952 9.79102 143.96 9.79102C141.968 9.79102 140.845 11.2363 140.845 13.7266V13.7461C140.845 16.2266 141.968 17.6816 143.96 17.6816ZM156.861 19V8.47266H165.377V19H163.677V9.87891H158.56V19H156.861ZM172.852 19.1855C169.854 19.1855 167.999 17.1152 167.999 13.7461V13.7266C167.999 10.3477 169.854 8.28711 172.852 8.28711C175.85 8.28711 177.706 10.3477 177.706 13.7266V13.7461C177.706 17.1152 175.85 19.1855 172.852 19.1855ZM172.852 17.6816C174.845 17.6816 175.968 16.2266 175.968 13.7461V13.7266C175.968 11.2363 174.845 9.79102 172.852 9.79102C170.86 9.79102 169.737 11.2363 169.737 13.7266V13.7461C169.737 16.2266 170.86 17.6816 172.852 17.6816ZM180.777 19H178.678L183.219 13.4531L178.834 8.47266H180.875L184.557 12.9062H185.182V8.47266H186.822V12.9062H187.447L191.129 8.47266H193.141L188.785 13.4141L193.355 19H191.227L187.447 14.1758H186.822V19H185.182V14.1758H184.557L180.777 19ZM197.95 19.1855C195.948 19.1855 194.435 17.9746 194.435 16.0605V16.041C194.435 14.166 195.821 13.082 198.273 12.9355L201.29 12.75V11.793C201.29 10.4941 200.499 9.79102 198.927 9.79102C197.667 9.79102 196.837 10.2598 196.564 11.0801L196.554 11.1094H194.855L194.864 11.0508C195.138 9.40039 196.739 8.28711 198.986 8.28711C201.554 8.28711 202.989 9.60547 202.989 11.793V19H201.29V17.4473H201.134C200.47 18.5703 199.366 19.1855 197.95 19.1855ZM196.173 16.0215C196.173 17.0859 197.081 17.7109 198.302 17.7109C200.03 17.7109 201.29 16.5781 201.29 15.0742V14.1172L198.478 14.293C196.876 14.3906 196.173 14.957 196.173 16.002V16.0215ZM208.551 14.8789C208.327 17.7793 207.428 19.0977 205.67 19.0977C205.309 19.0977 205.036 19.0391 204.899 18.9902V17.457C204.987 17.4863 205.25 17.5254 205.504 17.5254C206.471 17.5254 206.862 16.3047 206.969 14.7422L207.418 8.47266H214.303V19H212.604V9.87891H208.942L208.551 14.8789ZM221.779 19.1855C218.781 19.1855 216.925 17.1152 216.925 13.7461V13.7266C216.925 10.3477 218.781 8.28711 221.779 8.28711C224.777 8.28711 226.632 10.3477 226.632 13.7266V13.7461C226.632 17.1152 224.777 19.1855 221.779 19.1855ZM221.779 17.6816C223.771 17.6816 224.894 16.2266 224.894 13.7461V13.7266C224.894 11.2363 223.771 9.79102 221.779 9.79102C219.787 9.79102 218.664 11.2363 218.664 13.7266V13.7461C218.664 16.2266 219.787 17.6816 221.779 17.6816ZM229.255 19V8.47266H233.718C235.71 8.47266 236.872 9.55664 236.872 11.207V11.2266C236.872 12.2715 236.139 13.2578 235.153 13.4629V13.6191C236.491 13.8047 237.341 14.7422 237.341 15.9629V15.9824C237.341 17.8086 236.003 19 233.737 19H229.255ZM230.954 12.9258H233.2C234.567 12.9258 235.182 12.3984 235.182 11.4023V11.3828C235.182 10.4844 234.655 9.87891 233.473 9.87891H230.954V12.9258ZM230.954 17.5938H233.669C234.958 17.5938 235.612 17.0078 235.612 15.9531V15.9336C235.612 14.8203 234.86 14.332 233.346 14.332H230.954V17.5938ZM242.912 19.1855C240.91 19.1855 239.396 17.9746 239.396 16.0605V16.041C239.396 14.166 240.783 13.082 243.234 12.9355L246.252 12.75V11.793C246.252 10.4941 245.461 9.79102 243.889 9.79102C242.629 9.79102 241.799 10.2598 241.525 11.0801L241.516 11.1094H239.816L239.826 11.0508C240.1 9.40039 241.701 8.28711 243.947 8.28711C246.516 8.28711 247.951 9.60547 247.951 11.793V19H246.252V17.4473H246.096C245.432 18.5703 244.328 19.1855 242.912 19.1855ZM241.135 16.0215C241.135 17.0859 242.043 17.7109 243.264 17.7109C244.992 17.7109 246.252 16.5781 246.252 15.0742V14.1172L243.439 14.293C241.838 14.3906 241.135 14.957 241.135 16.002V16.0215ZM258.669 8.47266V9.87891H255.261V19H253.562V9.87891H250.154V8.47266H258.669ZM260.92 19V8.47266H262.62V11.8516H264.68C267.092 11.8516 268.635 13.2383 268.635 15.416V15.4355C268.635 17.6133 267.092 19 264.68 19H260.92ZM264.68 13.2578H262.62V17.5938H264.68C266.067 17.5938 266.936 16.7344 266.936 15.4355V15.416C266.936 14.1074 266.057 13.2578 264.68 13.2578ZM271.677 14.3125L271.511 4.89844H273.464L273.298 14.3125H271.677ZM272.498 19.1758C271.707 19.1758 271.14 18.6094 271.14 17.8184C271.14 17.0176 271.707 16.4512 272.498 16.4512C273.289 16.4512 273.845 17.0176 273.845 17.8184C273.845 18.6094 273.289 19.1758 272.498 19.1758Z" fill="black"/>
<path d="M7.64062 73.2822C4.2041 73.2822 2.14551 70.8418 2.14551 67.0151V66.9985C2.14551 63.1553 4.25391 60.7397 7.64062 60.7397C11.0439 60.7397 13.1357 63.1636 13.1357 66.9985V67.0151C13.1357 70.8335 11.0605 73.2822 7.64062 73.2822ZM7.64062 71.9043C10.0977 71.9043 11.6084 69.9785 11.6084 67.0151V66.9985C11.6084 64.0103 10.0894 62.1177 7.64062 62.1177C5.2002 62.1177 3.67285 64.0103 3.67285 66.9985V67.0151C3.67285 69.9785 5.15039 71.9043 7.64062 71.9043ZM19.1996 73.1577C16.6928 73.1577 15.0907 71.3398 15.0907 68.501V68.4844C15.0907 65.7036 16.6845 63.894 19.1913 63.894C21.3661 63.894 22.6694 65.1475 22.935 66.7412L22.9433 66.791H21.5072L21.4989 66.7661C21.2748 65.8862 20.4779 65.1724 19.1913 65.1724C17.581 65.1724 16.5683 66.4673 16.5683 68.4844V68.501C16.5683 70.5596 17.5976 71.8794 19.1913 71.8794C20.3949 71.8794 21.1586 71.3481 21.4906 70.3521L21.5072 70.3022L22.935 70.2939L22.9184 70.3853C22.5531 72.0039 21.3495 73.1577 19.1996 73.1577ZM30.9163 73V68.9492H26.4837V73H25.0394V64.0518H26.4837V67.7539H30.9163V64.0518H32.3607V73H30.9163ZM38.7151 73.1577C36.1668 73.1577 34.5896 71.3979 34.5896 68.5342V68.5176C34.5896 65.6455 36.1668 63.894 38.7151 63.894C41.2634 63.894 42.8406 65.6455 42.8406 68.5176V68.5342C42.8406 71.3979 41.2634 73.1577 38.7151 73.1577ZM38.7151 71.8794C40.4085 71.8794 41.363 70.6426 41.363 68.5342V68.5176C41.363 66.4009 40.4085 65.1724 38.7151 65.1724C37.0217 65.1724 36.0672 66.4009 36.0672 68.5176V68.5342C36.0672 70.6426 37.0217 71.8794 38.7151 71.8794ZM45.0695 73V64.0518H48.863C50.5563 64.0518 51.5441 64.9731 51.5441 66.376V66.3926C51.5441 67.2808 50.9216 68.1191 50.0832 68.2935V68.4263C51.2204 68.584 51.9426 69.3809 51.9426 70.4185V70.4351C51.9426 71.9873 50.8054 73 48.8796 73H45.0695ZM46.5138 67.8369H48.423C49.5851 67.8369 50.1081 67.3887 50.1081 66.542V66.5254C50.1081 65.7617 49.6598 65.2471 48.6554 65.2471H46.5138V67.8369ZM46.5138 71.8047H48.8215C49.9172 71.8047 50.4733 71.3066 50.4733 70.4102V70.3936C50.4733 69.4473 49.8342 69.0322 48.5475 69.0322H46.5138V71.8047ZM60.0899 73V68.9492H55.6573V73H54.213V64.0518H55.6573V67.7539H60.0899V64.0518H61.5343V73H60.0899ZM64.2031 73V64.0518H65.6475V66.9238H67.3989C69.4492 66.9238 70.7608 68.1025 70.7608 69.9536V69.9702C70.7608 71.8213 69.4492 73 67.3989 73H64.2031ZM72.3213 73V64.0518H73.7656V73H72.3213ZM67.3989 68.1191H65.6475V71.8047H67.3989C68.5777 71.8047 69.3164 71.0742 69.3164 69.9702V69.9536C69.3164 68.8413 68.5694 68.1191 67.3989 68.1191ZM80.0952 73.1577C77.5385 73.1577 75.9946 71.3647 75.9946 68.5591V68.5508C75.9946 65.7866 77.5717 63.894 80.0038 63.894C82.436 63.894 83.9135 65.7036 83.9135 68.3765V68.9409H77.4721C77.5136 70.792 78.5346 71.8711 80.1284 71.8711C81.3403 71.8711 82.0873 71.2983 82.3281 70.7588L82.3613 70.6841H83.8056L83.789 70.7505C83.4819 71.9624 82.2036 73.1577 80.0952 73.1577ZM79.9955 65.1807C78.6674 65.1807 77.6547 66.0854 77.497 67.7871H82.4443C82.2949 66.019 81.3154 65.1807 79.9955 65.1807ZM94.929 75.9883V73.1079C92.1565 73.0581 90.3138 71.2817 90.3138 68.5342V68.5176C90.3138 65.7617 92.1565 63.9854 94.929 63.9438V61.022H96.3235V63.9438C99.0877 63.9937 100.93 65.7617 100.93 68.5176V68.5342C100.93 71.29 99.0877 73.0664 96.3235 73.1079V75.9883H94.929ZM94.929 71.8711V65.1807C92.9949 65.2222 91.7664 66.4839 91.7664 68.5176V68.5342C91.7664 70.5596 92.9949 71.8213 94.929 71.8711ZM96.3235 71.8711C98.2493 71.8296 99.4778 70.5679 99.4778 68.5342V68.5176C99.4778 66.4922 98.2493 65.2305 96.3235 65.1807V71.8711ZM103.608 76.1377C103.417 76.1377 103.168 76.1211 102.968 76.0879V74.9009C103.143 74.9341 103.367 74.9424 103.566 74.9424C104.388 74.9424 104.886 74.5688 105.21 73.5396L105.376 73.0083L102.064 64.0518H103.608L106.065 71.4146H106.197L108.646 64.0518H110.165L106.671 73.5479C105.932 75.5566 105.193 76.1377 103.608 76.1377ZM117.939 73V68.9492H113.506V73H112.062V64.0518H113.506V67.7539H117.939V64.0518H119.383V73H117.939ZM123.953 68.9243H123.497V73H122.052V64.0518H123.497V67.7954H123.953L127.415 64.0518H129.149L125.124 68.2686L129.307 73H127.456L123.953 68.9243ZM138.417 75.3657V73H131.129V64.0518H132.574V71.8047H136.923V64.0518H138.368V71.8047H139.795V75.3657H138.417ZM141.501 73V64.0518H142.946V70.7256H143.078L147.503 64.0518H148.947V73H147.503V66.3262H147.37L142.946 73H141.501ZM151.624 73V64.0518H153.069V70.7256H153.201L157.626 64.0518H159.07V73H157.626V66.3262H157.493L153.069 73H151.624ZM168.459 69.4971C168.268 71.9624 167.504 73.083 166.01 73.083C165.703 73.083 165.47 73.0332 165.354 72.9917V71.6885C165.429 71.7134 165.653 71.7466 165.869 71.7466C166.691 71.7466 167.023 70.709 167.114 69.3809L167.496 64.0518H173.348V73H171.903V65.2471H168.791L168.459 69.4971ZM179.677 73.1577C177.121 73.1577 175.577 71.3647 175.577 68.5591V68.5508C175.577 65.7866 177.154 63.894 179.586 63.894C182.018 63.894 183.496 65.7036 183.496 68.3765V68.9409H177.054C177.096 70.792 178.117 71.8711 179.711 71.8711C180.922 71.8711 181.669 71.2983 181.91 70.7588L181.943 70.6841H183.388L183.371 70.7505C183.064 71.9624 181.786 73.1577 179.677 73.1577ZM179.578 65.1807C178.25 65.1807 177.237 66.0854 177.079 67.7871H182.026C181.877 66.019 180.898 65.1807 179.578 65.1807ZM191.452 65.2471H187.169V73H185.725V64.0518H191.452V65.2471ZM195.358 68.9243H194.901V73H193.457V64.0518H194.901V67.7954H195.358L198.819 64.0518H200.554L196.528 68.2686L200.712 73H198.861L195.358 68.9243ZM205.805 73.1577C203.256 73.1577 201.679 71.3979 201.679 68.5342V68.5176C201.679 65.6455 203.256 63.894 205.805 63.894C208.353 63.894 209.93 65.6455 209.93 68.5176V68.5342C209.93 71.3979 208.353 73.1577 205.805 73.1577ZM205.805 71.8794C207.498 71.8794 208.452 70.6426 208.452 68.5342V68.5176C208.452 66.4009 207.498 65.1724 205.805 65.1724C204.111 65.1724 203.157 66.4009 203.157 68.5176V68.5342C203.157 70.6426 204.111 71.8794 205.805 71.8794ZM222.647 73V68.9492H218.215V73H216.77V64.0518H218.215V67.7539H222.647V64.0518H224.091V73H222.647ZM229.226 73.1577C227.524 73.1577 226.237 72.1284 226.237 70.5015V70.4849C226.237 68.8911 227.416 67.9697 229.5 67.8452L232.065 67.6875V66.874C232.065 65.77 231.392 65.1724 230.056 65.1724C228.985 65.1724 228.279 65.5708 228.047 66.2681L228.039 66.293H226.594L226.603 66.2432C226.835 64.8403 228.196 63.894 230.106 63.894C232.289 63.894 233.509 65.0146 233.509 66.874V73H232.065V71.6802H231.932C231.367 72.6348 230.429 73.1577 229.226 73.1577ZM227.715 70.4683C227.715 71.373 228.487 71.9043 229.524 71.9043C230.994 71.9043 232.065 70.9414 232.065 69.6631V68.8496L229.674 68.999C228.313 69.082 227.715 69.5635 227.715 70.4517V70.4683ZM239.863 62.8066C238.153 62.8066 237.016 61.6279 237.016 60.084H238.311C238.311 60.9888 238.9 61.8271 239.863 61.8271C240.843 61.8271 241.416 60.9888 241.416 60.084H242.71C242.71 61.6279 241.573 62.8066 239.863 62.8066ZM236.136 73V64.0518H237.581V70.7256H237.713L242.138 64.0518H243.582V73H242.138V66.3262H242.005L237.581 73H236.136ZM252.742 64.0518V65.2471H249.845V73H248.401V65.2471H245.504V64.0518H252.742ZM254.656 73V64.0518H256.1V70.7256H256.233L260.657 64.0518H262.101V73H260.657V66.3262H260.524L256.1 73H254.656ZM275.267 73V68.9492H270.834V73H269.39V64.0518H270.834V67.7539H275.267V64.0518H276.711V73H275.267ZM281.845 73.1577C280.144 73.1577 278.857 72.1284 278.857 70.5015V70.4849C278.857 68.8911 280.036 67.9697 282.119 67.8452L284.684 67.6875V66.874C284.684 65.77 284.012 65.1724 282.675 65.1724C281.605 65.1724 280.899 65.5708 280.667 66.2681L280.658 66.293H279.214L279.222 66.2432C279.455 64.8403 280.816 63.894 282.725 63.894C284.908 63.894 286.129 65.0146 286.129 66.874V73H284.684V71.6802H284.551C283.987 72.6348 283.049 73.1577 281.845 73.1577ZM280.335 70.4683C280.335 71.373 281.107 71.9043 282.144 71.9043C283.613 71.9043 284.684 70.9414 284.684 69.6631V68.8496L282.294 68.999C280.932 69.082 280.335 69.5635 280.335 70.4517V70.4683ZM293.367 73V64.0518H300.605V73H299.161V65.2471H294.811V73H293.367ZM305.74 73.1577C304.038 73.1577 302.751 72.1284 302.751 70.5015V70.4849C302.751 68.8911 303.93 67.9697 306.014 67.8452L308.578 67.6875V66.874C308.578 65.77 307.906 65.1724 306.57 65.1724C305.499 65.1724 304.793 65.5708 304.561 66.2681L304.553 66.293H303.108L303.117 66.2432C303.349 64.8403 304.71 63.894 306.62 63.894C308.803 63.894 310.023 65.0146 310.023 66.874V73H308.578V71.6802H308.446C307.881 72.6348 306.943 73.1577 305.74 73.1577ZM304.229 70.4683C304.229 71.373 305.001 71.9043 306.038 71.9043C307.508 71.9043 308.578 70.9414 308.578 69.6631V68.8496L306.188 68.999C304.827 69.082 304.229 69.5635 304.229 70.4517V70.4683ZM318.527 73V68.9492H314.095V73H312.65V64.0518H314.095V67.7539H318.527V64.0518H319.971V73H318.527ZM326.301 73.1577C323.744 73.1577 322.2 71.3647 322.2 68.5591V68.5508C322.2 65.7866 323.778 63.894 326.21 63.894C328.642 63.894 330.119 65.7036 330.119 68.3765V68.9409H323.678C323.719 70.792 324.74 71.8711 326.334 71.8711C327.546 71.8711 328.293 71.2983 328.534 70.7588L328.567 70.6841H330.011L329.995 70.7505C329.688 71.9624 328.409 73.1577 326.301 73.1577ZM326.201 65.1807C324.873 65.1807 323.861 66.0854 323.703 67.7871H328.65C328.501 66.019 327.521 65.1807 326.201 65.1807ZM334.199 69.4971C334.008 71.9624 333.245 73.083 331.751 73.083C331.443 73.083 331.211 73.0332 331.095 72.9917V71.6885C331.17 71.7134 331.394 71.7466 331.609 71.7466C332.431 71.7466 332.763 70.709 332.855 69.3809L333.236 64.0518H339.089V73H337.644V65.2471H334.531L334.199 69.4971ZM341.757 73V64.0518H343.202V70.7256H343.335L347.759 64.0518H349.203V73H347.759V66.3262H347.626L343.202 73H341.757ZM8.29639 95V90.9492H3.86377V95H2.41943V86.0518H3.86377V89.7539H8.29639V86.0518H9.74072V95H8.29639ZM14.8749 95.1577C13.1733 95.1577 11.8866 94.1284 11.8866 92.5015V92.4849C11.8866 90.8911 13.0654 89.9697 15.1488 89.8452L17.7138 89.6875V88.874C17.7138 87.77 17.0414 87.1724 15.705 87.1724C14.6342 87.1724 13.9286 87.5708 13.6962 88.2681L13.6879 88.293H12.2436L12.2519 88.2432C12.4843 86.8403 13.8456 85.894 15.7548 85.894C17.9379 85.894 19.1581 87.0146 19.1581 88.874V95H17.7138V93.6802H17.581C17.0165 94.6348 16.0785 95.1577 14.8749 95.1577ZM13.3642 92.4683C13.3642 93.373 14.1362 93.9043 15.1737 93.9043C16.643 93.9043 17.7138 92.9414 17.7138 91.6631V90.8496L15.3232 90.999C13.9618 91.082 13.3642 91.5635 13.3642 92.4517V92.4683ZM21.7855 95V86.0518H25.5789C27.2723 86.0518 28.2601 86.9731 28.2601 88.376V88.3926C28.2601 89.2808 27.6375 90.1191 26.7992 90.2935V90.4263C27.9364 90.584 28.6585 91.3809 28.6585 92.4185V92.4351C28.6585 93.9873 27.5213 95 25.5955 95H21.7855ZM23.2298 89.8369H25.139C26.3011 89.8369 26.8241 89.3887 26.8241 88.542V88.5254C26.8241 87.7617 26.3758 87.2471 25.3714 87.2471H23.2298V89.8369ZM23.2298 93.8047H25.5374C26.6331 93.8047 27.1893 93.3066 27.1893 92.4102V92.3936C27.1893 91.4473 26.5501 91.0322 25.2635 91.0322H23.2298V93.8047ZM30.929 95V86.0518H32.3733V92.7256H32.5061L36.9304 86.0518H38.3748V95H36.9304V88.3262H36.7976L32.3733 95H30.929ZM46.7795 87.2471H42.4963V95H41.0519V86.0518H46.7795V87.2471ZM51.0006 95.1577C49.2989 95.1577 48.0123 94.1284 48.0123 92.5015V92.4849C48.0123 90.8911 49.191 89.9697 51.2745 89.8452L53.8395 89.6875V88.874C53.8395 87.77 53.1671 87.1724 51.8307 87.1724C50.7599 87.1724 50.0543 87.5708 49.8219 88.2681L49.8136 88.293H48.3692L48.3775 88.2432C48.61 86.8403 49.9713 85.894 51.8805 85.894C54.0636 85.894 55.2838 87.0146 55.2838 88.874V95H53.8395V93.6802H53.7066C53.1422 94.6348 52.2042 95.1577 51.0006 95.1577ZM49.4898 92.4683C49.4898 93.373 50.2618 93.9043 51.2994 93.9043C52.7687 93.9043 53.8395 92.9414 53.8395 91.6631V90.8496L51.4488 90.999C50.0875 91.082 49.4898 91.5635 49.4898 92.4517V92.4683ZM65.1992 97.3657V95H57.9112V86.0518H59.3555V93.8047H63.7051V86.0518H65.1494V93.8047H66.5772V97.3657H65.1992ZM68.2831 95V86.0518H69.7275V92.7256H69.8603L74.2846 86.0518H75.7289V95H74.2846V88.3262H74.1518L69.7275 95H68.2831ZM78.4061 95V86.0518H79.8504V92.7256H79.9833L84.4076 86.0518H85.8519V95H84.4076V88.3262H84.2748L79.8504 95H78.4061ZM93.1403 95V86.0518H96.9338C98.6272 86.0518 99.6149 86.9731 99.6149 88.376V88.3926C99.6149 89.2808 98.9924 90.1191 98.154 90.2935V90.4263C99.2912 90.584 100.013 91.3809 100.013 92.4185V92.4351C100.013 93.9873 98.8762 95 96.9504 95H93.1403ZM94.5847 89.8369H96.4939C97.656 89.8369 98.1789 89.3887 98.1789 88.542V88.5254C98.1789 87.7617 97.7307 87.2471 96.7263 87.2471H94.5847V89.8369ZM94.5847 93.8047H96.8923C97.988 93.8047 98.5441 93.3066 98.5441 92.4102V92.3936C98.5441 91.4473 97.905 91.0322 96.6184 91.0322H94.5847V93.8047ZM108.161 95V90.9492H103.728V95H102.284V86.0518H103.728V89.7539H108.161V86.0518H109.605V95H108.161ZM112.274 95V86.0518H113.718V92.7256H113.851L118.275 86.0518H119.72V95H118.275V88.3262H118.143L113.718 95H112.274ZM125.443 95.166C123.534 95.166 122.082 94.2197 121.899 92.7754L121.891 92.709H123.36L123.376 92.7754C123.559 93.5059 124.356 93.9707 125.443 93.9707C126.763 93.9707 127.543 93.3315 127.543 92.4434V92.4268C127.543 91.4556 126.813 91.0073 125.443 91.0073H124.049V89.812H125.443C126.589 89.812 127.228 89.3555 127.228 88.4258V88.4092C127.228 87.6455 126.639 87.0811 125.493 87.0811C124.472 87.0811 123.7 87.5376 123.559 88.2515L123.551 88.293H122.14L122.148 88.2349C122.355 86.7988 123.667 85.8857 125.493 85.8857C127.494 85.8857 128.639 86.8735 128.639 88.3013V88.3179C128.639 89.2227 128.05 90.0444 127.162 90.252V90.3848C128.34 90.6421 128.963 91.356 128.963 92.3521V92.3687C128.963 94.0288 127.527 95.166 125.443 95.166ZM131.632 98.1377C131.441 98.1377 131.192 98.1211 130.993 98.0879V96.9009C131.167 96.9341 131.391 96.9424 131.59 96.9424C132.412 96.9424 132.91 96.5688 133.234 95.5396L133.4 95.0083L130.088 86.0518H131.632L134.089 93.4146H134.222L136.67 86.0518H138.189L134.695 95.5479C133.956 97.5566 133.217 98.1377 131.632 98.1377ZM147.835 95.166C145.694 95.166 144.349 93.9624 144.075 92.3438L144.067 92.2939H145.511L145.528 92.3521C145.81 93.3398 146.648 93.8877 147.843 93.8877C149.338 93.8877 150.367 92.7256 150.491 90.9741H146.333V89.7788H150.467C150.292 88.1685 149.246 87.1641 147.843 87.1641C146.59 87.1641 145.801 87.8447 145.544 88.6831L145.511 88.791H144.067L144.092 88.6582C144.382 87.1143 145.718 85.8857 147.843 85.8857C150.35 85.8857 151.986 87.6953 151.986 90.4844V90.501C151.986 93.3481 150.342 95.166 147.835 95.166ZM156.107 90.9243H155.651V95H154.206V86.0518H155.651V89.7954H156.107L159.568 86.0518H161.303L157.277 90.2686L161.461 95H159.61L156.107 90.9243ZM163.292 97.9883V86.0518H164.736V87.4795H164.869C165.417 86.4834 166.413 85.894 167.658 85.894C169.924 85.894 171.41 87.7285 171.41 90.5176V90.5342C171.41 93.3398 169.932 95.1577 167.658 95.1577C166.429 95.1577 165.358 94.5435 164.869 93.5889H164.736V97.9883H163.292ZM167.326 93.8794C168.961 93.8794 169.932 92.6177 169.932 90.5342V90.5176C169.932 88.4341 168.961 87.1724 167.326 87.1724C165.699 87.1724 164.703 88.4507 164.703 90.5176V90.5342C164.703 92.6011 165.699 93.8794 167.326 93.8794ZM176.121 95.1577C174.419 95.1577 173.132 94.1284 173.132 92.5015V92.4849C173.132 90.8911 174.311 89.9697 176.395 89.8452L178.959 89.6875V88.874C178.959 87.77 178.287 87.1724 176.951 87.1724C175.88 87.1724 175.174 87.5708 174.942 88.2681L174.934 88.293H173.489L173.498 88.2432C173.73 86.8403 175.091 85.894 177 85.894C179.184 85.894 180.404 87.0146 180.404 88.874V95H178.959V93.6802H178.827C178.262 94.6348 177.324 95.1577 176.121 95.1577ZM174.61 92.4683C174.61 93.373 175.382 93.9043 176.419 93.9043C177.889 93.9043 178.959 92.9414 178.959 91.6631V90.8496L176.569 90.999C175.208 91.082 174.61 91.5635 174.61 92.4517V92.4683ZM188.908 95V90.9492H184.475V95H183.031V86.0518H184.475V89.7539H188.908V86.0518H190.352V95H188.908ZM195.487 95.1577C193.785 95.1577 192.498 94.1284 192.498 92.5015V92.4849C192.498 90.8911 193.677 89.9697 195.761 89.8452L198.326 89.6875V88.874C198.326 87.77 197.653 87.1724 196.317 87.1724C195.246 87.1724 194.54 87.5708 194.308 88.2681L194.3 88.293H192.855L192.864 88.2432C193.096 86.8403 194.457 85.894 196.367 85.894C198.55 85.894 199.77 87.0146 199.77 88.874V95H198.326V93.6802H198.193C197.628 94.6348 196.69 95.1577 195.487 95.1577ZM193.976 92.4683C193.976 93.373 194.748 93.9043 195.785 93.9043C197.255 93.9043 198.326 92.9414 198.326 91.6631V90.8496L195.935 90.999C194.574 91.082 193.976 91.5635 193.976 92.4517V92.4683ZM203.501 88.6582C202.912 88.6582 202.422 88.1685 202.422 87.5791C202.422 86.9814 202.912 86.5 203.501 86.5C204.099 86.5 204.58 86.9814 204.58 87.5791C204.58 88.1685 204.099 88.6582 203.501 88.6582ZM203.501 95.083C202.912 95.083 202.422 94.5933 202.422 94.0039C202.422 93.4062 202.912 92.9248 203.501 92.9248C204.099 92.9248 204.58 93.4062 204.58 94.0039C204.58 94.5933 204.099 95.083 203.501 95.083Z" fill="black"/>
<g filter="url(#filter0_d_1037_22005)">
<rect x="1" y="116" width="361" height="82" rx="24" fill="white"/>
<path d="M38.5166 166.463C39.0176 166.463 39.3867 166.217 39.9932 165.681L43.0078 163.026H48.2988C50.9443 163.026 52.4297 161.497 52.4297 158.887V152.058C52.4297 149.447 50.9443 147.918 48.2988 147.918H37.0928C34.4561 147.918 32.9619 149.447 32.9619 152.058V158.887C32.9619 161.506 34.5 163.026 37.0312 163.026H37.3916V165.18C37.3916 165.962 37.8047 166.463 38.5166 166.463ZM38.9561 164.494V161.989C38.9561 161.471 38.7275 161.269 38.2354 161.269H37.1543C35.502 161.269 34.7109 160.434 34.7109 158.834V152.11C34.7109 150.511 35.502 149.676 37.1543 149.676H48.2461C49.8896 149.676 50.6807 150.511 50.6807 152.11V158.834C50.6807 160.434 49.8896 161.269 48.2461 161.269H42.9111C42.375 161.269 42.1113 161.356 41.7422 161.743L38.9561 164.494Z" fill="#808080"/>
<path d="M103.197 154.185C103.197 157.938 106.352 161.646 111.256 164.811C111.529 164.986 111.863 165.162 112.091 165.162C112.32 165.162 112.654 164.986 112.926 164.811C117.839 161.646 120.986 157.938 120.986 154.185C120.986 150.941 118.745 148.691 115.871 148.691C114.192 148.691 112.882 149.456 112.091 150.616C111.318 149.465 110 148.691 108.321 148.691C105.438 148.691 103.197 150.941 103.197 154.185ZM105.007 154.176C105.007 151.961 106.466 150.458 108.426 150.458C110.008 150.458 110.896 151.416 111.45 152.251C111.696 152.611 111.863 152.726 112.091 152.726C112.329 152.726 112.478 152.603 112.733 152.251C113.331 151.434 114.183 150.458 115.756 150.458C117.725 150.458 119.184 151.961 119.184 154.176C119.184 157.27 115.967 160.697 112.258 163.158C112.179 163.211 112.126 163.246 112.091 163.246C112.056 163.246 112.003 163.211 111.933 163.158C108.224 160.697 105.007 157.27 105.007 154.176Z" fill="#808080"/>
<rect x="156.5" y="132" width="50" height="50" rx="25" fill="#B3B3B3"/>
<path d="M178.072 163.376C177.088 163.376 176.174 163.224 175.332 162.921C174.502 162.605 173.779 162.161 173.162 161.589C172.557 161.017 172.083 160.346 171.739 159.575C171.395 158.792 171.223 157.934 171.223 157C171.223 156.066 171.395 155.213 171.739 154.443C172.083 153.66 172.557 152.983 173.162 152.411C173.779 151.839 174.502 151.401 175.332 151.097C176.174 150.782 177.088 150.624 178.072 150.624C179.222 150.624 180.248 150.823 181.15 151.22C182.063 151.617 182.822 152.189 183.427 152.936L181.185 154.933C180.782 154.466 180.337 154.11 179.851 153.865C179.377 153.619 178.843 153.497 178.25 153.497C177.74 153.497 177.271 153.578 176.844 153.742C176.417 153.905 176.05 154.145 175.741 154.46C175.445 154.764 175.208 155.132 175.03 155.564C174.864 155.996 174.781 156.475 174.781 157C174.781 157.525 174.864 158.004 175.03 158.436C175.208 158.868 175.445 159.242 175.741 159.557C176.05 159.861 176.417 160.095 176.844 160.258C177.271 160.422 177.74 160.503 178.25 160.503C178.843 160.503 179.377 160.381 179.851 160.135C180.337 159.89 180.782 159.534 181.185 159.067L183.427 161.064C182.822 161.799 182.063 162.372 181.15 162.78C180.248 163.177 179.222 163.376 178.072 163.376Z" fill="white"/>
<path fill-rule="evenodd" clip-rule="evenodd" d="M191.777 161.657C191.777 163.21 189.841 163.964 188.757 162.833L182.143 155.934L184.37 153.876L188.718 158.412L188.718 150.624L191.777 150.624L191.777 161.657Z" fill="white"/>
<circle cx="181.5" cy="157" r="21.5" stroke="white"/>
<g clip-path="url(#clip0_1037_22005)">
<path d="M260.726 150.335H258.69C257.754 149.704 256.558 149.228 255.072 149.228H249.513C249.163 149.228 248.821 149.33 248.528 149.522L246.805 150.648C246.805 150.648 245.367 151.588 244.701 152.121C244.431 152.343 244.211 152.551 244.106 152.711C243.598 153.449 243.783 154.297 244.308 154.822C245.156 155.67 246.154 155.223 246.415 155.077L248.637 153.796C248.836 153.684 248.985 153.693 249.161 153.818L257.486 159.723C257.76 159.918 257.814 160.244 257.633 160.508C257.44 160.769 257.122 160.819 256.848 160.623L251.135 156.57C250.844 156.365 250.455 156.452 250.252 156.731C250.055 157.018 250.11 157.407 250.394 157.616L255.662 161.352C255.636 161.498 255.566 161.675 255.48 161.798C255.251 162.117 254.901 162.167 254.573 161.923L249.472 158.307C249.176 158.095 248.792 158.19 248.595 158.476C248.399 158.75 248.443 159.137 248.734 159.341L253.454 162.686C253.42 162.838 253.345 163.007 253.259 163.13C253.031 163.449 252.688 163.494 252.357 163.263L247.822 160.047C247.525 159.835 247.135 159.934 246.932 160.213C246.744 160.482 246.785 160.881 247.081 161.093L251.214 164.021C250.805 164.603 249.999 164.519 248.987 163.797L244.054 160.3C243.415 159.849 241.413 158.359 241.413 155.998C241.413 153.772 242.499 151.833 246.134 149.57L246.676 149.232C245.216 149.243 244.038 149.713 243.113 150.335H241.075C238.711 150.335 236.9 152.858 236.9 155.995C236.9 159.08 238.878 161.62 241.409 161.62H243.47L248.224 164.998C249.919 166.198 251.524 166.093 252.537 164.73C253.204 164.921 253.872 164.683 254.308 164.061C254.453 163.854 254.557 163.633 254.631 163.4C255.364 163.609 256.069 163.378 256.514 162.739C256.655 162.539 256.758 162.319 256.789 162.059C257.461 162.211 258.111 161.99 258.584 161.441C259.054 160.894 259.232 159.94 258.898 159.302C258.749 159.016 258.529 158.751 258.222 158.53L250.117 152.789L249.288 152.202C249.09 152.062 248.88 152.065 248.651 152.202L245.747 154.018C245.448 154.215 245.148 154.162 244.979 153.994C244.767 153.781 244.773 153.405 245.182 153.103L248.4 150.832C248.562 150.717 248.769 150.648 248.968 150.648H255.072C257.007 150.648 258.639 152.03 259.345 153.028C260.596 154.796 260.689 156.626 259.69 158.261C260.879 159.836 259.966 161.55 259.93 161.62H260.392C262.923 161.62 264.9 159.08 264.9 155.995C264.9 152.858 263.09 150.335 260.726 150.335ZM241.321 160.074C239.783 160.021 238.474 158.21 238.474 155.995C238.474 153.763 239.625 151.97 240.952 151.917H241.432C241.378 151.988 241.317 152.06 241.268 152.129C240.378 153.387 239.933 154.701 239.933 155.984C239.933 157.336 240.437 158.768 241.635 160.076C241.53 160.075 241.424 160.074 241.321 160.074ZM261.674 159.646C261.633 159.18 261.52 158.729 261.335 158.309C262.23 156.352 261.975 154.167 260.533 152.129C260.484 152.06 260.422 151.988 260.369 151.917H260.849C262.176 151.97 263.327 153.763 263.327 155.995C263.327 157.599 262.637 158.98 261.674 159.646Z" fill="#808080"/>
</g>
<path d="M320.3 156.848C322.427 156.848 324.149 154.967 324.149 152.664C324.149 150.396 322.427 148.595 320.3 148.595C318.182 148.595 316.441 150.423 316.45 152.682C316.459 154.976 318.173 156.848 320.3 156.848ZM320.3 155.31C319.087 155.31 318.059 154.158 318.059 152.682C318.05 151.24 319.078 150.133 320.3 150.133C321.53 150.133 322.541 151.223 322.541 152.664C322.541 154.141 321.521 155.31 320.3 155.31ZM314.815 165.021H325.775C327.296 165.021 328.025 164.538 328.025 163.501C328.025 161.084 325.011 157.867 320.3 157.867C315.589 157.867 312.565 161.084 312.565 163.501C312.565 164.538 313.295 165.021 314.815 165.021ZM314.543 163.483C314.332 163.483 314.253 163.413 314.253 163.255C314.253 161.91 316.424 159.405 320.3 159.405C324.167 159.405 326.338 161.91 326.338 163.255C326.338 163.413 326.259 163.483 326.048 163.483H314.543Z" fill="#808080"/>
</g>
<defs>
<filter id="filter0_d_1037_22005" x="0" y="116" width="363" height="86" filterUnits="userSpaceOnUse" color-interpolation-filters="sRGB">
<feFlood flood-opacity="0" result="BackgroundImageFix"/>
<feColorMatrix in="SourceAlpha" type="matrix" values="0 0 0 0 0 0 0 0 0 0 0 0 0 0 0 0 0 0 127 0" result="hardAlpha"/>
<feOffset dy="3"/>
<feGaussianBlur stdDeviation="0.5"/>
<feColorMatrix type="matrix" values="0 0 0 0 0 0 0 0 0 0 0 0 0 0 0 0 0 0 0.06 0"/>
<feBlend mode="normal" in2="BackgroundImageFix" result="effect1_dropShadow_1037_22005"/>
<feBlend mode="normal" in="SourceGraphic" in2="effect1_dropShadow_1037_22005" result="shape"/>
</filter>
<clipPath id="clip0_1037_22005">
<rect width="28" height="28" fill="white" transform="translate(236.9 143)"/>
</clipPath>
</defs>
</svg>
