<svg width="363" height="420" viewBox="0 0 363 420" fill="none" xmlns="http://www.w3.org/2000/svg">
<path d="M89.4086 21.7832H87.7777V17.418H88.8227C89.848 16.8711 90.2289 15.6211 90.3363 13.7754L90.8734 4.9082H99.7895V17.418H101.547V21.7832H99.9164V19H89.4086V21.7832ZM91.9867 13.8145C91.8891 15.4062 91.6937 16.4707 91.0004 17.3008V17.418H98.0316V6.49023H92.4457L91.9867 13.8145ZM108.037 19.1855C105.039 19.1855 103.183 17.1152 103.183 13.7461V13.7266C103.183 10.3477 105.039 8.28711 108.037 8.28711C111.035 8.28711 112.89 10.3477 112.89 13.7266V13.7461C112.89 17.1152 111.035 19.1855 108.037 19.1855ZM108.037 17.6816C110.029 17.6816 111.152 16.2266 111.152 13.7461V13.7266C111.152 11.2363 110.029 9.79102 108.037 9.79102C106.045 9.79102 104.921 11.2363 104.921 13.7266V13.7461C104.921 16.2266 106.045 17.6816 108.037 17.6816ZM119.897 19.1953C116.675 19.1953 114.995 16.998 114.995 12.7793V12.7598C114.995 7.17383 116.548 4.79102 120.307 4.61523L121.362 4.56641C122.202 4.52734 123.198 4.37109 124.106 4V5.50391C123.774 5.81641 122.661 6.07031 121.44 6.12891L120.366 6.17773C117.915 6.28516 116.85 7.42773 116.46 10.2988L116.43 10.5137H116.587C117.3 9.25391 118.559 8.57031 120.151 8.57031C122.983 8.57031 124.8 10.5918 124.8 13.7656V13.7852C124.8 17.125 122.934 19.1953 119.897 19.1953ZM119.897 17.6914C121.909 17.6914 123.061 16.2559 123.061 13.7852V13.7656C123.061 11.4121 121.909 10.0742 119.897 10.0742C117.886 10.0742 116.733 11.4121 116.733 13.7656V13.7852C116.733 16.2559 117.886 17.6914 119.897 17.6914ZM127.432 22.5156V8.47266H129.131V10.1523H129.287C129.932 8.98047 131.104 8.28711 132.568 8.28711C135.234 8.28711 136.982 10.4453 136.982 13.7266V13.7461C136.982 17.0469 135.244 19.1855 132.568 19.1855C131.123 19.1855 129.863 18.4629 129.287 17.3398H129.131V22.5156H127.432ZM132.178 17.6816C134.102 17.6816 135.244 16.1973 135.244 13.7461V13.7266C135.244 11.2754 134.102 9.79102 132.178 9.79102C130.264 9.79102 129.092 11.2949 129.092 13.7266V13.7461C129.092 16.1777 130.264 17.6816 132.178 17.6816ZM143.96 19.1855C140.962 19.1855 139.107 17.1152 139.107 13.7461V13.7266C139.107 10.3477 140.962 8.28711 143.96 8.28711C146.958 8.28711 148.814 10.3477 148.814 13.7266V13.7461C148.814 17.1152 146.958 19.1855 143.96 19.1855ZM143.96 17.6816C145.952 17.6816 147.075 16.2266 147.075 13.7461V13.7266C147.075 11.2363 145.952 9.79102 143.96 9.79102C141.968 9.79102 140.845 11.2363 140.845 13.7266V13.7461C140.845 16.2266 141.968 17.6816 143.96 17.6816ZM156.861 19V8.47266H165.377V19H163.677V9.87891H158.56V19H156.861ZM172.852 19.1855C169.854 19.1855 167.999 17.1152 167.999 13.7461V13.7266C167.999 10.3477 169.854 8.28711 172.852 8.28711C175.85 8.28711 177.706 10.3477 177.706 13.7266V13.7461C177.706 17.1152 175.85 19.1855 172.852 19.1855ZM172.852 17.6816C174.845 17.6816 175.968 16.2266 175.968 13.7461V13.7266C175.968 11.2363 174.845 9.79102 172.852 9.79102C170.86 9.79102 169.737 11.2363 169.737 13.7266V13.7461C169.737 16.2266 170.86 17.6816 172.852 17.6816ZM180.777 19H178.678L183.219 13.4531L178.834 8.47266H180.875L184.557 12.9062H185.182V8.47266H186.822V12.9062H187.447L191.129 8.47266H193.141L188.785 13.4141L193.355 19H191.227L187.447 14.1758H186.822V19H185.182V14.1758H184.557L180.777 19ZM197.95 19.1855C195.948 19.1855 194.435 17.9746 194.435 16.0605V16.041C194.435 14.166 195.821 13.082 198.273 12.9355L201.29 12.75V11.793C201.29 10.4941 200.499 9.79102 198.927 9.79102C197.667 9.79102 196.837 10.2598 196.564 11.0801L196.554 11.1094H194.855L194.864 11.0508C195.138 9.40039 196.739 8.28711 198.986 8.28711C201.554 8.28711 202.989 9.60547 202.989 11.793V19H201.29V17.4473H201.134C200.47 18.5703 199.366 19.1855 197.95 19.1855ZM196.173 16.0215C196.173 17.0859 197.081 17.7109 198.302 17.7109C200.03 17.7109 201.29 16.5781 201.29 15.0742V14.1172L198.478 14.293C196.876 14.3906 196.173 14.957 196.173 16.002V16.0215ZM208.551 14.8789C208.327 17.7793 207.428 19.0977 205.67 19.0977C205.309 19.0977 205.036 19.0391 204.899 18.9902V17.457C204.987 17.4863 205.25 17.5254 205.504 17.5254C206.471 17.5254 206.862 16.3047 206.969 14.7422L207.418 8.47266H214.303V19H212.604V9.87891H208.942L208.551 14.8789ZM221.779 19.1855C218.781 19.1855 216.925 17.1152 216.925 13.7461V13.7266C216.925 10.3477 218.781 8.28711 221.779 8.28711C224.777 8.28711 226.632 10.3477 226.632 13.7266V13.7461C226.632 17.1152 224.777 19.1855 221.779 19.1855ZM221.779 17.6816C223.771 17.6816 224.894 16.2266 224.894 13.7461V13.7266C224.894 11.2363 223.771 9.79102 221.779 9.79102C219.787 9.79102 218.664 11.2363 218.664 13.7266V13.7461C218.664 16.2266 219.787 17.6816 221.779 17.6816ZM229.255 19V8.47266H233.718C235.71 8.47266 236.872 9.55664 236.872 11.207V11.2266C236.872 12.2715 236.139 13.2578 235.153 13.4629V13.6191C236.491 13.8047 237.341 14.7422 237.341 15.9629V15.9824C237.341 17.8086 236.003 19 233.737 19H229.255ZM230.954 12.9258H233.2C234.567 12.9258 235.182 12.3984 235.182 11.4023V11.3828C235.182 10.4844 234.655 9.87891 233.473 9.87891H230.954V12.9258ZM230.954 17.5938H233.669C234.958 17.5938 235.612 17.0078 235.612 15.9531V15.9336C235.612 14.8203 234.86 14.332 233.346 14.332H230.954V17.5938ZM242.912 19.1855C240.91 19.1855 239.396 17.9746 239.396 16.0605V16.041C239.396 14.166 240.783 13.082 243.234 12.9355L246.252 12.75V11.793C246.252 10.4941 245.461 9.79102 243.889 9.79102C242.629 9.79102 241.799 10.2598 241.525 11.0801L241.516 11.1094H239.816L239.826 11.0508C240.1 9.40039 241.701 8.28711 243.947 8.28711C246.516 8.28711 247.951 9.60547 247.951 11.793V19H246.252V17.4473H246.096C245.432 18.5703 244.328 19.1855 242.912 19.1855ZM241.135 16.0215C241.135 17.0859 242.043 17.7109 243.264 17.7109C244.992 17.7109 246.252 16.5781 246.252 15.0742V14.1172L243.439 14.293C241.838 14.3906 241.135 14.957 241.135 16.002V16.0215ZM258.669 8.47266V9.87891H255.261V19H253.562V9.87891H250.154V8.47266H258.669ZM260.92 19V8.47266H262.62V11.8516H264.68C267.092 11.8516 268.635 13.2383 268.635 15.416V15.4355C268.635 17.6133 267.092 19 264.68 19H260.92ZM264.68 13.2578H262.62V17.5938H264.68C266.067 17.5938 266.936 16.7344 266.936 15.4355V15.416C266.936 14.1074 266.057 13.2578 264.68 13.2578ZM271.677 14.3125L271.511 4.89844H273.464L273.298 14.3125H271.677ZM272.498 19.1758C271.707 19.1758 271.14 18.6094 271.14 17.8184C271.14 17.0176 271.707 16.4512 272.498 16.4512C273.289 16.4512 273.845 17.0176 273.845 17.8184C273.845 18.6094 273.289 19.1758 272.498 19.1758Z" fill="black"/>
<path d="M7.64062 73.2822C4.2041 73.2822 2.14551 70.8418 2.14551 67.0151V66.9985C2.14551 63.1553 4.25391 60.7397 7.64062 60.7397C11.0439 60.7397 13.1357 63.1636 13.1357 66.9985V67.0151C13.1357 70.8335 11.0605 73.2822 7.64062 73.2822ZM7.64062 71.9043C10.0977 71.9043 11.6084 69.9785 11.6084 67.0151V66.9985C11.6084 64.0103 10.0894 62.1177 7.64062 62.1177C5.2002 62.1177 3.67285 64.0103 3.67285 66.9985V67.0151C3.67285 69.9785 5.15039 71.9043 7.64062 71.9043ZM19.1996 73.1577C16.6928 73.1577 15.0907 71.3398 15.0907 68.501V68.4844C15.0907 65.7036 16.6845 63.894 19.1913 63.894C21.3661 63.894 22.6694 65.1475 22.935 66.7412L22.9433 66.791H21.5072L21.4989 66.7661C21.2748 65.8862 20.4779 65.1724 19.1913 65.1724C17.581 65.1724 16.5683 66.4673 16.5683 68.4844V68.501C16.5683 70.5596 17.5976 71.8794 19.1913 71.8794C20.3949 71.8794 21.1586 71.3481 21.4906 70.3521L21.5072 70.3022L22.935 70.2939L22.9184 70.3853C22.5531 72.0039 21.3495 73.1577 19.1996 73.1577ZM30.9163 73V68.9492H26.4837V73H25.0394V64.0518H26.4837V67.7539H30.9163V64.0518H32.3607V73H30.9163ZM38.7151 73.1577C36.1668 73.1577 34.5896 71.3979 34.5896 68.5342V68.5176C34.5896 65.6455 36.1668 63.894 38.7151 63.894C41.2634 63.894 42.8406 65.6455 42.8406 68.5176V68.5342C42.8406 71.3979 41.2634 73.1577 38.7151 73.1577ZM38.7151 71.8794C40.4085 71.8794 41.363 70.6426 41.363 68.5342V68.5176C41.363 66.4009 40.4085 65.1724 38.7151 65.1724C37.0217 65.1724 36.0672 66.4009 36.0672 68.5176V68.5342C36.0672 70.6426 37.0217 71.8794 38.7151 71.8794ZM45.0695 73V64.0518H48.863C50.5563 64.0518 51.5441 64.9731 51.5441 66.376V66.3926C51.5441 67.2808 50.9216 68.1191 50.0832 68.2935V68.4263C51.2204 68.584 51.9426 69.3809 51.9426 70.4185V70.4351C51.9426 71.9873 50.8054 73 48.8796 73H45.0695ZM46.5138 67.8369H48.423C49.5851 67.8369 50.1081 67.3887 50.1081 66.542V66.5254C50.1081 65.7617 49.6598 65.2471 48.6554 65.2471H46.5138V67.8369ZM46.5138 71.8047H48.8215C49.9172 71.8047 50.4733 71.3066 50.4733 70.4102V70.3936C50.4733 69.4473 49.8342 69.0322 48.5475 69.0322H46.5138V71.8047ZM60.0899 73V68.9492H55.6573V73H54.213V64.0518H55.6573V67.7539H60.0899V64.0518H61.5343V73H60.0899ZM64.2031 73V64.0518H65.6475V66.9238H67.3989C69.4492 66.9238 70.7608 68.1025 70.7608 69.9536V69.9702C70.7608 71.8213 69.4492 73 67.3989 73H64.2031ZM72.3213 73V64.0518H73.7656V73H72.3213ZM67.3989 68.1191H65.6475V71.8047H67.3989C68.5777 71.8047 69.3164 71.0742 69.3164 69.9702V69.9536C69.3164 68.8413 68.5694 68.1191 67.3989 68.1191ZM80.0952 73.1577C77.5385 73.1577 75.9946 71.3647 75.9946 68.5591V68.5508C75.9946 65.7866 77.5717 63.894 80.0038 63.894C82.436 63.894 83.9135 65.7036 83.9135 68.3765V68.9409H77.4721C77.5136 70.792 78.5346 71.8711 80.1284 71.8711C81.3403 71.8711 82.0873 71.2983 82.3281 70.7588L82.3613 70.6841H83.8056L83.789 70.7505C83.4819 71.9624 82.2036 73.1577 80.0952 73.1577ZM79.9955 65.1807C78.6674 65.1807 77.6547 66.0854 77.497 67.7871H82.4443C82.2949 66.019 81.3154 65.1807 79.9955 65.1807ZM94.929 75.9883V73.1079C92.1565 73.0581 90.3138 71.2817 90.3138 68.5342V68.5176C90.3138 65.7617 92.1565 63.9854 94.929 63.9438V61.022H96.3235V63.9438C99.0877 63.9937 100.93 65.7617 100.93 68.5176V68.5342C100.93 71.29 99.0877 73.0664 96.3235 73.1079V75.9883H94.929ZM94.929 71.8711V65.1807C92.9949 65.2222 91.7664 66.4839 91.7664 68.5176V68.5342C91.7664 70.5596 92.9949 71.8213 94.929 71.8711ZM96.3235 71.8711C98.2493 71.8296 99.4778 70.5679 99.4778 68.5342V68.5176C99.4778 66.4922 98.2493 65.2305 96.3235 65.1807V71.8711ZM103.608 76.1377C103.417 76.1377 103.168 76.1211 102.968 76.0879V74.9009C103.143 74.9341 103.367 74.9424 103.566 74.9424C104.388 74.9424 104.886 74.5688 105.21 73.5396L105.376 73.0083L102.064 64.0518H103.608L106.065 71.4146H106.197L108.646 64.0518H110.165L106.671 73.5479C105.932 75.5566 105.193 76.1377 103.608 76.1377ZM117.939 73V68.9492H113.506V73H112.062V64.0518H113.506V67.7539H117.939V64.0518H119.383V73H117.939ZM123.953 68.9243H123.497V73H122.052V64.0518H123.497V67.7954H123.953L127.415 64.0518H129.149L125.124 68.2686L129.307 73H127.456L123.953 68.9243ZM138.417 75.3657V73H131.129V64.0518H132.574V71.8047H136.923V64.0518H138.368V71.8047H139.795V75.3657H138.417ZM141.501 73V64.0518H142.946V70.7256H143.078L147.503 64.0518H148.947V73H147.503V66.3262H147.37L142.946 73H141.501ZM151.624 73V64.0518H153.069V70.7256H153.201L157.626 64.0518H159.07V73H157.626V66.3262H157.493L153.069 73H151.624ZM168.459 69.4971C168.268 71.9624 167.504 73.083 166.01 73.083C165.703 73.083 165.47 73.0332 165.354 72.9917V71.6885C165.429 71.7134 165.653 71.7466 165.869 71.7466C166.691 71.7466 167.023 70.709 167.114 69.3809L167.496 64.0518H173.348V73H171.903V65.2471H168.791L168.459 69.4971ZM179.677 73.1577C177.121 73.1577 175.577 71.3647 175.577 68.5591V68.5508C175.577 65.7866 177.154 63.894 179.586 63.894C182.018 63.894 183.496 65.7036 183.496 68.3765V68.9409H177.054C177.096 70.792 178.117 71.8711 179.711 71.8711C180.922 71.8711 181.669 71.2983 181.91 70.7588L181.943 70.6841H183.388L183.371 70.7505C183.064 71.9624 181.786 73.1577 179.677 73.1577ZM179.578 65.1807C178.25 65.1807 177.237 66.0854 177.079 67.7871H182.026C181.877 66.019 180.898 65.1807 179.578 65.1807ZM191.452 65.2471H187.169V73H185.725V64.0518H191.452V65.2471ZM195.358 68.9243H194.901V73H193.457V64.0518H194.901V67.7954H195.358L198.819 64.0518H200.554L196.528 68.2686L200.712 73H198.861L195.358 68.9243ZM205.805 73.1577C203.256 73.1577 201.679 71.3979 201.679 68.5342V68.5176C201.679 65.6455 203.256 63.894 205.805 63.894C208.353 63.894 209.93 65.6455 209.93 68.5176V68.5342C209.93 71.3979 208.353 73.1577 205.805 73.1577ZM205.805 71.8794C207.498 71.8794 208.452 70.6426 208.452 68.5342V68.5176C208.452 66.4009 207.498 65.1724 205.805 65.1724C204.111 65.1724 203.157 66.4009 203.157 68.5176V68.5342C203.157 70.6426 204.111 71.8794 205.805 71.8794ZM222.647 73V68.9492H218.215V73H216.77V64.0518H218.215V67.7539H222.647V64.0518H224.091V73H222.647ZM229.226 73.1577C227.524 73.1577 226.237 72.1284 226.237 70.5015V70.4849C226.237 68.8911 227.416 67.9697 229.5 67.8452L232.065 67.6875V66.874C232.065 65.77 231.392 65.1724 230.056 65.1724C228.985 65.1724 228.279 65.5708 228.047 66.2681L228.039 66.293H226.594L226.603 66.2432C226.835 64.8403 228.196 63.894 230.106 63.894C232.289 63.894 233.509 65.0146 233.509 66.874V73H232.065V71.6802H231.932C231.367 72.6348 230.429 73.1577 229.226 73.1577ZM227.715 70.4683C227.715 71.373 228.487 71.9043 229.524 71.9043C230.994 71.9043 232.065 70.9414 232.065 69.6631V68.8496L229.674 68.999C228.313 69.082 227.715 69.5635 227.715 70.4517V70.4683ZM239.863 62.8066C238.153 62.8066 237.016 61.6279 237.016 60.084H238.311C238.311 60.9888 238.9 61.8271 239.863 61.8271C240.843 61.8271 241.416 60.9888 241.416 60.084H242.71C242.71 61.6279 241.573 62.8066 239.863 62.8066ZM236.136 73V64.0518H237.581V70.7256H237.713L242.138 64.0518H243.582V73H242.138V66.3262H242.005L237.581 73H236.136ZM252.742 64.0518V65.2471H249.845V73H248.401V65.2471H245.504V64.0518H252.742ZM254.656 73V64.0518H256.1V70.7256H256.233L260.657 64.0518H262.101V73H260.657V66.3262H260.524L256.1 73H254.656ZM275.267 73V68.9492H270.834V73H269.39V64.0518H270.834V67.7539H275.267V64.0518H276.711V73H275.267ZM281.845 73.1577C280.144 73.1577 278.857 72.1284 278.857 70.5015V70.4849C278.857 68.8911 280.036 67.9697 282.119 67.8452L284.684 67.6875V66.874C284.684 65.77 284.012 65.1724 282.675 65.1724C281.605 65.1724 280.899 65.5708 280.667 66.2681L280.658 66.293H279.214L279.222 66.2432C279.455 64.8403 280.816 63.894 282.725 63.894C284.908 63.894 286.129 65.0146 286.129 66.874V73H284.684V71.6802H284.551C283.987 72.6348 283.049 73.1577 281.845 73.1577ZM280.335 70.4683C280.335 71.373 281.107 71.9043 282.144 71.9043C283.613 71.9043 284.684 70.9414 284.684 69.6631V68.8496L282.294 68.999C280.932 69.082 280.335 69.5635 280.335 70.4517V70.4683ZM293.367 73V64.0518H300.605V73H299.161V65.2471H294.811V73H293.367ZM305.74 73.1577C304.038 73.1577 302.751 72.1284 302.751 70.5015V70.4849C302.751 68.8911 303.93 67.9697 306.014 67.8452L308.578 67.6875V66.874C308.578 65.77 307.906 65.1724 306.57 65.1724C305.499 65.1724 304.793 65.5708 304.561 66.2681L304.553 66.293H303.108L303.117 66.2432C303.349 64.8403 304.71 63.894 306.62 63.894C308.803 63.894 310.023 65.0146 310.023 66.874V73H308.578V71.6802H308.446C307.881 72.6348 306.943 73.1577 305.74 73.1577ZM304.229 70.4683C304.229 71.373 305.001 71.9043 306.038 71.9043C307.508 71.9043 308.578 70.9414 308.578 69.6631V68.8496L306.188 68.999C304.827 69.082 304.229 69.5635 304.229 70.4517V70.4683ZM318.527 73V68.9492H314.095V73H312.65V64.0518H314.095V67.7539H318.527V64.0518H319.971V73H318.527ZM326.301 73.1577C323.744 73.1577 322.2 71.3647 322.2 68.5591V68.5508C322.2 65.7866 323.778 63.894 326.21 63.894C328.642 63.894 330.119 65.7036 330.119 68.3765V68.9409H323.678C323.719 70.792 324.74 71.8711 326.334 71.8711C327.546 71.8711 328.293 71.2983 328.534 70.7588L328.567 70.6841H330.011L329.995 70.7505C329.688 71.9624 328.409 73.1577 326.301 73.1577ZM326.201 65.1807C324.873 65.1807 323.861 66.0854 323.703 67.7871H328.65C328.501 66.019 327.521 65.1807 326.201 65.1807ZM334.199 69.4971C334.008 71.9624 333.245 73.083 331.751 73.083C331.443 73.083 331.211 73.0332 331.095 72.9917V71.6885C331.17 71.7134 331.394 71.7466 331.609 71.7466C332.431 71.7466 332.763 70.709 332.855 69.3809L333.236 64.0518H339.089V73H337.644V65.2471H334.531L334.199 69.4971ZM341.757 73V64.0518H343.202V70.7256H343.335L347.759 64.0518H349.203V73H347.759V66.3262H347.626L343.202 73H341.757ZM8.29639 95V90.9492H3.86377V95H2.41943V86.0518H3.86377V89.7539H8.29639V86.0518H9.74072V95H8.29639ZM14.8749 95.1577C13.1733 95.1577 11.8866 94.1284 11.8866 92.5015V92.4849C11.8866 90.8911 13.0654 89.9697 15.1488 89.8452L17.7138 89.6875V88.874C17.7138 87.77 17.0414 87.1724 15.705 87.1724C14.6342 87.1724 13.9286 87.5708 13.6962 88.2681L13.6879 88.293H12.2436L12.2519 88.2432C12.4843 86.8403 13.8456 85.894 15.7548 85.894C17.9379 85.894 19.1581 87.0146 19.1581 88.874V95H17.7138V93.6802H17.581C17.0165 94.6348 16.0785 95.1577 14.8749 95.1577ZM13.3642 92.4683C13.3642 93.373 14.1362 93.9043 15.1737 93.9043C16.643 93.9043 17.7138 92.9414 17.7138 91.6631V90.8496L15.3232 90.999C13.9618 91.082 13.3642 91.5635 13.3642 92.4517V92.4683ZM21.7855 95V86.0518H25.5789C27.2723 86.0518 28.2601 86.9731 28.2601 88.376V88.3926C28.2601 89.2808 27.6375 90.1191 26.7992 90.2935V90.4263C27.9364 90.584 28.6585 91.3809 28.6585 92.4185V92.4351C28.6585 93.9873 27.5213 95 25.5955 95H21.7855ZM23.2298 89.8369H25.139C26.3011 89.8369 26.8241 89.3887 26.8241 88.542V88.5254C26.8241 87.7617 26.3758 87.2471 25.3714 87.2471H23.2298V89.8369ZM23.2298 93.8047H25.5374C26.6331 93.8047 27.1893 93.3066 27.1893 92.4102V92.3936C27.1893 91.4473 26.5501 91.0322 25.2635 91.0322H23.2298V93.8047ZM30.929 95V86.0518H32.3733V92.7256H32.5061L36.9304 86.0518H38.3748V95H36.9304V88.3262H36.7976L32.3733 95H30.929ZM46.7795 87.2471H42.4963V95H41.0519V86.0518H46.7795V87.2471ZM51.0006 95.1577C49.2989 95.1577 48.0123 94.1284 48.0123 92.5015V92.4849C48.0123 90.8911 49.191 89.9697 51.2745 89.8452L53.8395 89.6875V88.874C53.8395 87.77 53.1671 87.1724 51.8307 87.1724C50.7599 87.1724 50.0543 87.5708 49.8219 88.2681L49.8136 88.293H48.3692L48.3775 88.2432C48.61 86.8403 49.9713 85.894 51.8805 85.894C54.0636 85.894 55.2838 87.0146 55.2838 88.874V95H53.8395V93.6802H53.7066C53.1422 94.6348 52.2042 95.1577 51.0006 95.1577ZM49.4898 92.4683C49.4898 93.373 50.2618 93.9043 51.2994 93.9043C52.7687 93.9043 53.8395 92.9414 53.8395 91.6631V90.8496L51.4488 90.999C50.0875 91.082 49.4898 91.5635 49.4898 92.4517V92.4683ZM65.1992 97.3657V95H57.9112V86.0518H59.3555V93.8047H63.7051V86.0518H65.1494V93.8047H66.5772V97.3657H65.1992ZM68.2831 95V86.0518H69.7275V92.7256H69.8603L74.2846 86.0518H75.7289V95H74.2846V88.3262H74.1518L69.7275 95H68.2831ZM78.4061 95V86.0518H79.8504V92.7256H79.9833L84.4076 86.0518H85.8519V95H84.4076V88.3262H84.2748L79.8504 95H78.4061ZM93.1403 95V86.0518H96.9338C98.6272 86.0518 99.6149 86.9731 99.6149 88.376V88.3926C99.6149 89.2808 98.9924 90.1191 98.154 90.2935V90.4263C99.2912 90.584 100.013 91.3809 100.013 92.4185V92.4351C100.013 93.9873 98.8762 95 96.9504 95H93.1403ZM94.5847 89.8369H96.4939C97.656 89.8369 98.1789 89.3887 98.1789 88.542V88.5254C98.1789 87.7617 97.7307 87.2471 96.7263 87.2471H94.5847V89.8369ZM94.5847 93.8047H96.8923C97.988 93.8047 98.5441 93.3066 98.5441 92.4102V92.3936C98.5441 91.4473 97.905 91.0322 96.6184 91.0322H94.5847V93.8047ZM108.161 95V90.9492H103.728V95H102.284V86.0518H103.728V89.7539H108.161V86.0518H109.605V95H108.161ZM112.274 95V86.0518H113.718V92.7256H113.851L118.275 86.0518H119.72V95H118.275V88.3262H118.143L113.718 95H112.274ZM125.443 95.166C123.534 95.166 122.082 94.2197 121.899 92.7754L121.891 92.709H123.36L123.376 92.7754C123.559 93.5059 124.356 93.9707 125.443 93.9707C126.763 93.9707 127.543 93.3315 127.543 92.4434V92.4268C127.543 91.4556 126.813 91.0073 125.443 91.0073H124.049V89.812H125.443C126.589 89.812 127.228 89.3555 127.228 88.4258V88.4092C127.228 87.6455 126.639 87.0811 125.493 87.0811C124.472 87.0811 123.7 87.5376 123.559 88.2515L123.551 88.293H122.14L122.148 88.2349C122.355 86.7988 123.667 85.8857 125.493 85.8857C127.494 85.8857 128.639 86.8735 128.639 88.3013V88.3179C128.639 89.2227 128.05 90.0444 127.162 90.252V90.3848C128.34 90.6421 128.963 91.356 128.963 92.3521V92.3687C128.963 94.0288 127.527 95.166 125.443 95.166ZM131.632 98.1377C131.441 98.1377 131.192 98.1211 130.993 98.0879V96.9009C131.167 96.9341 131.391 96.9424 131.59 96.9424C132.412 96.9424 132.91 96.5688 133.234 95.5396L133.4 95.0083L130.088 86.0518H131.632L134.089 93.4146H134.222L136.67 86.0518H138.189L134.695 95.5479C133.956 97.5566 133.217 98.1377 131.632 98.1377ZM147.835 95.166C145.694 95.166 144.349 93.9624 144.075 92.3438L144.067 92.2939H145.511L145.528 92.3521C145.81 93.3398 146.648 93.8877 147.843 93.8877C149.338 93.8877 150.367 92.7256 150.491 90.9741H146.333V89.7788H150.467C150.292 88.1685 149.246 87.1641 147.843 87.1641C146.59 87.1641 145.801 87.8447 145.544 88.6831L145.511 88.791H144.067L144.092 88.6582C144.382 87.1143 145.718 85.8857 147.843 85.8857C150.35 85.8857 151.986 87.6953 151.986 90.4844V90.501C151.986 93.3481 150.342 95.166 147.835 95.166ZM156.107 90.9243H155.651V95H154.206V86.0518H155.651V89.7954H156.107L159.568 86.0518H161.303L157.277 90.2686L161.461 95H159.61L156.107 90.9243ZM163.292 97.9883V86.0518H164.736V87.4795H164.869C165.417 86.4834 166.413 85.894 167.658 85.894C169.924 85.894 171.41 87.7285 171.41 90.5176V90.5342C171.41 93.3398 169.932 95.1577 167.658 95.1577C166.429 95.1577 165.358 94.5435 164.869 93.5889H164.736V97.9883H163.292ZM167.326 93.8794C168.961 93.8794 169.932 92.6177 169.932 90.5342V90.5176C169.932 88.4341 168.961 87.1724 167.326 87.1724C165.699 87.1724 164.703 88.4507 164.703 90.5176V90.5342C164.703 92.6011 165.699 93.8794 167.326 93.8794ZM176.121 95.1577C174.419 95.1577 173.132 94.1284 173.132 92.5015V92.4849C173.132 90.8911 174.311 89.9697 176.395 89.8452L178.959 89.6875V88.874C178.959 87.77 178.287 87.1724 176.951 87.1724C175.88 87.1724 175.174 87.5708 174.942 88.2681L174.934 88.293H173.489L173.498 88.2432C173.73 86.8403 175.091 85.894 177 85.894C179.184 85.894 180.404 87.0146 180.404 88.874V95H178.959V93.6802H178.827C178.262 94.6348 177.324 95.1577 176.121 95.1577ZM174.61 92.4683C174.61 93.373 175.382 93.9043 176.419 93.9043C177.889 93.9043 178.959 92.9414 178.959 91.6631V90.8496L176.569 90.999C175.208 91.082 174.61 91.5635 174.61 92.4517V92.4683ZM188.908 95V90.9492H184.475V95H183.031V86.0518H184.475V89.7539H188.908V86.0518H190.352V95H188.908ZM195.487 95.1577C193.785 95.1577 192.498 94.1284 192.498 92.5015V92.4849C192.498 90.8911 193.677 89.9697 195.761 89.8452L198.326 89.6875V88.874C198.326 87.77 197.653 87.1724 196.317 87.1724C195.246 87.1724 194.54 87.5708 194.308 88.2681L194.3 88.293H192.855L192.864 88.2432C193.096 86.8403 194.457 85.894 196.367 85.894C198.55 85.894 199.77 87.0146 199.77 88.874V95H198.326V93.6802H198.193C197.628 94.6348 196.69 95.1577 195.487 95.1577ZM193.976 92.4683C193.976 93.373 194.748 93.9043 195.785 93.9043C197.255 93.9043 198.326 92.9414 198.326 91.6631V90.8496L195.935 90.999C194.574 91.082 193.976 91.5635 193.976 92.4517V92.4683ZM203.501 88.6582C202.912 88.6582 202.422 88.1685 202.422 87.5791C202.422 86.9814 202.912 86.5 203.501 86.5C204.099 86.5 204.58 86.9814 204.58 87.5791C204.58 88.1685 204.099 88.6582 203.501 88.6582ZM203.501 95.083C202.912 95.083 202.422 94.5933 202.422 94.0039C202.422 93.4062 202.912 92.9248 203.501 92.9248C204.099 92.9248 204.58 93.4062 204.58 94.0039C204.58 94.5933 204.099 95.083 203.501 95.083Z" fill="black"/>
<g filter="url(#filter0_d_1037_22316)">
<rect x="1" y="116" width="361" height="82" rx="24" fill="white"/>
<path d="M38.5166 166.463C39.0176 166.463 39.3867 166.217 39.9932 165.681L43.0078 163.026H48.2988C50.9443 163.026 52.4297 161.497 52.4297 158.887V152.058C52.4297 149.447 50.9443 147.918 48.2988 147.918H37.0928C34.4561 147.918 32.9619 149.447 32.9619 152.058V158.887C32.9619 161.506 34.5 163.026 37.0312 163.026H37.3916V165.18C37.3916 165.962 37.8047 166.463 38.5166 166.463ZM38.9561 164.494V161.989C38.9561 161.471 38.7275 161.269 38.2354 161.269H37.1543C35.502 161.269 34.7109 160.434 34.7109 158.834V152.11C34.7109 150.511 35.502 149.676 37.1543 149.676H48.2461C49.8896 149.676 50.6807 150.511 50.6807 152.11V158.834C50.6807 160.434 49.8896 161.269 48.2461 161.269H42.9111C42.375 161.269 42.1113 161.356 41.7422 161.743L38.9561 164.494Z" fill="#808080"/>
<path d="M103.197 154.185C103.197 157.938 106.353 161.646 111.257 164.811C111.529 164.986 111.863 165.162 112.092 165.162C112.32 165.162 112.654 164.986 112.927 164.811C117.84 161.646 120.986 157.938 120.986 154.185C120.986 150.941 118.745 148.691 115.871 148.691C114.192 148.691 112.883 149.456 112.092 150.616C111.318 149.465 110 148.691 108.321 148.691C105.438 148.691 103.197 150.941 103.197 154.185ZM105.008 154.176C105.008 151.961 106.467 150.458 108.427 150.458C110.009 150.458 110.896 151.416 111.45 152.251C111.696 152.611 111.863 152.726 112.092 152.726C112.329 152.726 112.479 152.603 112.733 152.251C113.331 151.434 114.184 150.458 115.757 150.458C117.726 150.458 119.185 151.961 119.185 154.176C119.185 157.27 115.968 160.697 112.259 163.158C112.18 163.211 112.127 163.246 112.092 163.246C112.057 163.246 112.004 163.211 111.934 163.158C108.225 160.697 105.008 157.27 105.008 154.176Z" fill="#808080"/>
<rect x="156.5" y="132" width="50" height="50" rx="25" fill="url(#paint0_linear_1037_22316)"/>
<rect x="156.5" y="132" width="50" height="50" rx="25" fill="#F41B1B" fill-opacity="0.5"/>
<path d="M178.072 163.376C177.088 163.376 176.174 163.224 175.332 162.921C174.502 162.605 173.779 162.161 173.162 161.589C172.557 161.017 172.083 160.346 171.739 159.575C171.395 158.792 171.223 157.934 171.223 157C171.223 156.066 171.395 155.213 171.739 154.443C172.083 153.66 172.557 152.983 173.162 152.411C173.779 151.839 174.502 151.401 175.332 151.097C176.174 150.782 177.088 150.624 178.072 150.624C179.222 150.624 180.248 150.823 181.15 151.22C182.063 151.617 182.822 152.189 183.427 152.936L181.185 154.933C180.782 154.466 180.337 154.11 179.851 153.865C179.377 153.619 178.843 153.497 178.25 153.497C177.74 153.497 177.271 153.578 176.844 153.742C176.417 153.905 176.05 154.145 175.741 154.46C175.445 154.764 175.208 155.132 175.03 155.564C174.864 155.996 174.781 156.475 174.781 157C174.781 157.525 174.864 158.004 175.03 158.436C175.208 158.868 175.445 159.242 175.741 159.557C176.05 159.861 176.417 160.095 176.844 160.258C177.271 160.422 177.74 160.503 178.25 160.503C178.843 160.503 179.377 160.381 179.851 160.135C180.337 159.89 180.782 159.534 181.185 159.067L183.427 161.064C182.822 161.799 182.063 162.372 181.15 162.78C180.248 163.177 179.222 163.376 178.072 163.376Z" fill="white"/>
<path fill-rule="evenodd" clip-rule="evenodd" d="M191.777 161.657C191.777 163.21 189.841 163.964 188.757 162.833L182.143 155.934L184.37 153.876L188.718 158.412L188.718 150.624L191.777 150.624L191.777 161.657Z" fill="white"/>
<circle cx="181.5" cy="157" r="21.5" stroke="white"/>
<g clip-path="url(#clip0_1037_22316)">
<path d="M260.726 150.335H258.69C257.754 149.704 256.558 149.228 255.072 149.228H249.513C249.163 149.228 248.821 149.33 248.528 149.522L246.805 150.648C246.805 150.648 245.367 151.588 244.701 152.121C244.431 152.343 244.211 152.551 244.106 152.711C243.598 153.449 243.783 154.297 244.308 154.822C245.156 155.67 246.154 155.223 246.415 155.077L248.637 153.796C248.836 153.684 248.985 153.693 249.161 153.818L257.486 159.723C257.76 159.918 257.814 160.244 257.633 160.508C257.44 160.769 257.122 160.819 256.848 160.623L251.135 156.57C250.844 156.365 250.455 156.452 250.252 156.731C250.055 157.018 250.11 157.407 250.394 157.616L255.662 161.352C255.636 161.498 255.566 161.675 255.48 161.798C255.251 162.117 254.901 162.167 254.573 161.923L249.472 158.307C249.176 158.095 248.792 158.19 248.595 158.476C248.399 158.75 248.443 159.137 248.734 159.341L253.454 162.686C253.42 162.838 253.345 163.007 253.259 163.13C253.031 163.449 252.688 163.494 252.357 163.263L247.822 160.047C247.525 159.835 247.135 159.934 246.932 160.213C246.744 160.482 246.785 160.881 247.081 161.093L251.214 164.021C250.805 164.603 249.999 164.519 248.987 163.797L244.054 160.3C243.415 159.849 241.413 158.359 241.413 155.998C241.413 153.772 242.499 151.833 246.134 149.57L246.676 149.232C245.216 149.243 244.038 149.713 243.113 150.335H241.075C238.711 150.335 236.9 152.858 236.9 155.995C236.9 159.08 238.878 161.62 241.409 161.62H243.47L248.224 164.998C249.919 166.198 251.524 166.093 252.537 164.73C253.204 164.921 253.872 164.683 254.308 164.061C254.453 163.854 254.557 163.633 254.631 163.4C255.364 163.609 256.069 163.378 256.514 162.739C256.655 162.539 256.758 162.319 256.789 162.059C257.461 162.211 258.111 161.99 258.584 161.441C259.054 160.894 259.232 159.94 258.898 159.302C258.749 159.016 258.529 158.751 258.222 158.53L250.117 152.789L249.288 152.202C249.09 152.062 248.88 152.065 248.651 152.202L245.747 154.018C245.448 154.215 245.148 154.162 244.979 153.994C244.767 153.781 244.773 153.405 245.182 153.103L248.4 150.832C248.562 150.717 248.769 150.648 248.968 150.648H255.072C257.007 150.648 258.639 152.03 259.345 153.028C260.596 154.796 260.689 156.626 259.69 158.261C260.879 159.836 259.966 161.55 259.93 161.62H260.392C262.923 161.62 264.9 159.08 264.9 155.995C264.9 152.858 263.09 150.335 260.726 150.335ZM241.321 160.074C239.783 160.021 238.474 158.21 238.474 155.995C238.474 153.763 239.625 151.97 240.952 151.917H241.432C241.378 151.988 241.317 152.06 241.268 152.129C240.378 153.387 239.933 154.701 239.933 155.984C239.933 157.336 240.437 158.768 241.635 160.076C241.53 160.075 241.424 160.074 241.321 160.074ZM261.674 159.646C261.633 159.18 261.52 158.729 261.335 158.309C262.23 156.352 261.975 154.167 260.533 152.129C260.484 152.06 260.422 151.988 260.369 151.917H260.849C262.176 151.97 263.327 153.763 263.327 155.995C263.327 157.599 262.637 158.98 261.674 159.646Z" fill="#808080"/>
</g>
<path d="M320.3 156.848C322.427 156.848 324.149 154.967 324.149 152.664C324.149 150.396 322.427 148.595 320.3 148.595C318.182 148.595 316.441 150.423 316.45 152.682C316.459 154.976 318.173 156.848 320.3 156.848ZM320.3 155.31C319.087 155.31 318.059 154.158 318.059 152.682C318.05 151.24 319.078 150.133 320.3 150.133C321.53 150.133 322.541 151.223 322.541 152.664C322.541 154.141 321.521 155.31 320.3 155.31ZM314.815 165.021H325.775C327.296 165.021 328.025 164.538 328.025 163.501C328.025 161.084 325.011 157.867 320.3 157.867C315.589 157.867 312.565 161.084 312.565 163.501C312.565 164.538 313.295 165.021 314.815 165.021ZM314.543 163.483C314.332 163.483 314.253 163.413 314.253 163.255C314.253 161.91 316.424 159.405 320.3 159.405C324.167 159.405 326.338 161.91 326.338 163.255C326.338 163.413 326.259 163.483 326.048 163.483H314.543Z" fill="#808080"/>
</g>
<g clip-path="url(#clip1_1037_22316)">
<path d="M181.5 236.004C180.938 236.004 180.542 235.608 180.542 235.028V224.112L180.612 222.214L178.292 224.807L176.297 226.775C176.13 226.942 175.884 227.057 175.62 227.057C175.093 227.057 174.697 226.652 174.697 226.116C174.697 225.861 174.794 225.633 174.996 225.422L180.788 219.621C180.981 219.428 181.236 219.313 181.5 219.313C181.764 219.313 182.019 219.428 182.212 219.621L188.004 225.422C188.206 225.633 188.303 225.861 188.303 226.116C188.303 226.652 187.916 227.057 187.389 227.057C187.116 227.057 186.879 226.942 186.703 226.775L184.708 224.807L182.388 222.223L182.458 224.112V235.028C182.458 235.608 182.071 236.004 181.5 236.004Z" fill="#0080FF"/>
</g>
<path d="M121.468 259H119.326V247.022H126.822V248.823H121.468V259ZM129.989 255.074C129.814 257.688 129.009 259.083 127.166 259.083C126.793 259.083 126.519 259.025 126.386 258.983V257.207C126.477 257.232 126.702 257.265 126.934 257.265C127.764 257.265 128.055 256.211 128.138 254.908L128.453 249.927H134.961V259H132.894V251.529H130.246L129.989 255.074ZM139.954 259.149C138.227 259.149 136.974 258.087 136.974 256.435V256.418C136.974 254.8 138.211 253.854 140.419 253.721L142.751 253.58V252.799C142.751 251.895 142.162 251.396 141.05 251.396C140.103 251.396 139.489 251.737 139.282 252.334L139.273 252.368H137.323L137.331 252.293C137.53 250.766 138.991 249.753 141.149 249.753C143.482 249.753 144.793 250.882 144.793 252.799V259H142.751V257.755H142.61C142.112 258.635 141.149 259.149 139.954 259.149ZM139.016 256.335C139.016 257.107 139.672 257.564 140.585 257.564C141.83 257.564 142.751 256.75 142.751 255.671V254.941L140.709 255.074C139.555 255.148 139.016 255.572 139.016 256.319V256.335ZM147.263 259V249.927H151.554C153.381 249.927 154.451 250.849 154.451 252.243V252.26C154.451 253.206 153.796 254.044 152.874 254.202V254.343C154.07 254.476 154.858 255.306 154.858 256.402V256.418C154.858 257.962 153.63 259 151.613 259H147.263ZM149.305 253.696H150.899C151.92 253.696 152.418 253.281 152.418 252.525V252.509C152.418 251.82 151.978 251.355 151.065 251.355H149.305V253.696ZM149.305 257.572H151.239C152.235 257.572 152.741 257.107 152.741 256.327V256.311C152.741 255.489 152.177 255.082 151.048 255.082H149.305V257.572ZM162.881 259V255.124H159.054V259H156.987V249.927H159.054V253.521H162.881V249.927H164.948V259H162.881ZM167.459 259V249.927H169.526V252.667H171.319C173.436 252.667 174.789 253.903 174.789 255.829V255.846C174.789 257.771 173.436 259 171.319 259H167.459ZM176.274 259V249.927H178.341V259H176.274ZM171.053 254.26H169.526V257.406H171.053C172.066 257.406 172.705 256.767 172.705 255.837V255.821C172.705 254.883 172.058 254.26 171.053 254.26ZM184.895 248.69C183.061 248.69 181.849 247.503 181.849 245.86H183.467C183.484 246.748 184.023 247.487 184.895 247.487C185.767 247.487 186.298 246.748 186.314 245.86H187.941C187.941 247.503 186.721 248.69 184.895 248.69ZM180.853 259V249.927H182.895V256.003H183.061L186.887 249.927H188.929V259H186.887V252.891H186.713L182.895 259H180.853ZM199.214 259.191C196.915 259.191 195.412 257.929 195.222 256.111V256.053H197.181L197.197 256.103C197.43 257.016 198.168 257.514 199.223 257.514C200.501 257.514 201.372 256.543 201.48 255.065H197.82V253.621H201.447C201.306 252.251 200.418 251.421 199.223 251.421C198.143 251.421 197.43 252.019 197.214 252.799L197.189 252.899H195.222L195.238 252.783C195.437 251.048 196.956 249.745 199.223 249.745C201.879 249.745 203.58 251.571 203.58 254.435V254.451C203.58 257.365 201.879 259.191 199.214 259.191ZM208.175 255.082H207.71V259H205.643V249.927H207.71V253.571H208.158L211.147 249.927H213.521L209.86 254.127L213.695 259H211.197L208.175 255.082ZM215.376 262.013V249.927H217.443V251.347H217.584C218.082 250.359 219.07 249.778 220.34 249.778C222.614 249.778 224.067 251.587 224.067 254.459V254.476C224.067 257.365 222.639 259.149 220.34 259.149C219.095 259.149 218.057 258.535 217.584 257.556H217.443V262.013H215.376ZM219.693 257.406C221.104 257.406 221.959 256.294 221.959 254.476V254.459C221.959 252.633 221.104 251.521 219.693 251.521C218.29 251.521 217.418 252.633 217.418 254.451V254.468C217.418 256.286 218.29 257.406 219.693 257.406ZM228.62 259.149C226.894 259.149 225.64 258.087 225.64 256.435V256.418C225.64 254.8 226.877 253.854 229.085 253.721L231.418 253.58V252.799C231.418 251.895 230.828 251.396 229.716 251.396C228.77 251.396 228.155 251.737 227.948 252.334L227.94 252.368H225.989L225.997 252.293C226.196 250.766 227.657 249.753 229.816 249.753C232.148 249.753 233.46 250.882 233.46 252.799V259H231.418V257.755H231.276C230.778 258.635 229.816 259.149 228.62 259.149ZM227.682 256.335C227.682 257.107 228.338 257.564 229.251 257.564C230.496 257.564 231.418 256.75 231.418 255.671V254.941L229.376 255.074C228.222 255.148 227.682 255.572 227.682 256.319V256.335ZM241.823 259V255.124H237.996V259H235.929V249.927H237.996V253.521H241.823V249.927H243.89V259H241.823Z" fill="black"/>
<path d="M2.61035 297V285.022H4.10449V290.202H10.6787V285.022H12.1729V297H10.6787V291.546H4.10449V297H2.61035ZM17.498 297.158C15.7963 297.158 14.5097 296.128 14.5097 294.501V294.485C14.5097 292.891 15.6884 291.97 17.7719 291.845L20.3368 291.688V290.874C20.3368 289.77 19.6645 289.172 18.328 289.172C17.2572 289.172 16.5517 289.571 16.3193 290.268L16.311 290.293H14.8666L14.8749 290.243C15.1073 288.84 16.4687 287.894 18.3779 287.894C20.561 287.894 21.7812 289.015 21.7812 290.874V297H20.3368V295.68H20.204C19.6396 296.635 18.7016 297.158 17.498 297.158ZM15.9872 294.468C15.9872 295.373 16.7592 295.904 17.7968 295.904C19.266 295.904 20.3368 294.941 20.3368 293.663V292.85L17.9462 292.999C16.5849 293.082 15.9872 293.563 15.9872 294.452V294.468ZM23.703 297L26.766 292.526L23.6698 288.052H25.3714L27.4964 291.38H27.6292L29.7293 288.052H31.348L28.3099 292.468L31.3895 297H29.6961L27.5794 293.622H27.4466L25.3216 297H23.703ZM36.6731 297.158C34.1248 297.158 32.5476 295.398 32.5476 292.534V292.518C32.5476 289.646 34.1248 287.894 36.6731 287.894C39.2214 287.894 40.7986 289.646 40.7986 292.518V292.534C40.7986 295.398 39.2214 297.158 36.6731 297.158ZM36.6731 295.879C38.3665 295.879 39.3211 294.643 39.3211 292.534V292.518C39.3211 290.401 38.3665 289.172 36.6731 289.172C34.9797 289.172 34.0252 290.401 34.0252 292.518V292.534C34.0252 294.643 34.9797 295.879 36.6731 295.879ZM43.152 299.366H41.8073V295.805H42.5544C43.2101 295.373 43.5339 294.244 43.6169 293.041L43.9655 288.052H50.0666V295.805H51.4943V299.366H50.1496V297H43.152V299.366ZM48.6222 295.805V289.247H45.2438L44.9616 293.074C44.8786 294.161 44.6462 295.116 44.2228 295.672V295.805H48.6222ZM53.2003 297V288.052H54.6446V294.726H54.7774L59.2018 288.052H60.6461V297H59.2018V290.326H59.0689L54.6446 297H53.2003ZM69.8062 288.052V289.247H66.9092V297H65.4649V289.247H62.5679V288.052H69.8062ZM75.0483 297.158C72.4916 297.158 70.9477 295.365 70.9477 292.559V292.551C70.9477 289.787 72.5248 287.894 74.957 287.894C77.3891 287.894 78.8666 289.704 78.8666 292.376V292.941H72.4252C72.4667 294.792 73.4877 295.871 75.0815 295.871C76.2934 295.871 77.0405 295.298 77.2812 294.759L77.3144 294.684H78.7587L78.7421 294.75C78.435 295.962 77.1567 297.158 75.0483 297.158ZM74.9487 289.181C73.6205 289.181 72.6078 290.085 72.4501 291.787H77.3974C77.248 290.019 76.2685 289.181 74.9487 289.181ZM85.7068 297V288.052H89.5003C91.1936 288.052 92.1814 288.973 92.1814 290.376V290.393C92.1814 291.281 91.5589 292.119 90.7205 292.293V292.426C91.8577 292.584 92.5799 293.381 92.5799 294.418V294.435C92.5799 295.987 91.4427 297 89.5169 297H85.7068ZM87.1512 291.837H89.0603C90.2224 291.837 90.7454 291.389 90.7454 290.542V290.525C90.7454 289.762 90.2971 289.247 89.2928 289.247H87.1512V291.837ZM87.1512 295.805H89.4588C90.5545 295.805 91.1106 295.307 91.1106 294.41V294.394C91.1106 293.447 90.4715 293.032 89.1848 293.032H87.1512V295.805ZM97.3156 297.158C95.614 297.158 94.3273 296.128 94.3273 294.501V294.485C94.3273 292.891 95.5061 291.97 97.5896 291.845L100.154 291.688V290.874C100.154 289.77 99.4821 289.172 98.1457 289.172C97.0749 289.172 96.3693 289.571 96.1369 290.268L96.1286 290.293H94.6843L94.6926 290.243C94.925 288.84 96.2863 287.894 98.1955 287.894C100.379 287.894 101.599 289.015 101.599 290.874V297H100.154V295.68H100.022C99.4572 296.635 98.5192 297.158 97.3156 297.158ZM95.8049 294.468C95.8049 295.373 96.5769 295.904 97.6145 295.904C99.0837 295.904 100.154 294.941 100.154 293.663V292.85L97.7639 292.999C96.4025 293.082 95.8049 293.563 95.8049 294.452V294.468ZM106.127 292.924H105.671V297H104.226V288.052H105.671V291.795H106.127L109.588 288.052H111.323L107.297 292.269L111.481 297H109.63L106.127 292.924ZM115.52 297.158C113.818 297.158 112.531 296.128 112.531 294.501V294.485C112.531 292.891 113.71 291.97 115.793 291.845L118.358 291.688V290.874C118.358 289.77 117.686 289.172 116.35 289.172C115.279 289.172 114.573 289.571 114.341 290.268L114.333 290.293H112.888L112.897 290.243C113.129 288.84 114.49 287.894 116.399 287.894C118.583 287.894 119.803 289.015 119.803 290.874V297H118.358V295.68H118.226C117.661 296.635 116.723 297.158 115.52 297.158ZM114.009 294.468C114.009 295.373 114.781 295.904 115.818 295.904C117.288 295.904 118.358 294.941 118.358 293.663V292.85L115.968 292.999C114.606 293.082 114.009 293.563 114.009 294.452V294.468ZM128.307 297V292.949H123.874V297H122.43V288.052H123.874V291.754H128.307V288.052H129.751V297H128.307ZM136.089 297.158C133.582 297.158 131.98 295.34 131.98 292.501V292.484C131.98 289.704 133.574 287.894 136.081 287.894C138.256 287.894 139.559 289.147 139.825 290.741L139.833 290.791H138.397L138.389 290.766C138.164 289.886 137.368 289.172 136.081 289.172C134.471 289.172 133.458 290.467 133.458 292.484V292.501C133.458 294.56 134.487 295.879 136.081 295.879C137.285 295.879 138.048 295.348 138.38 294.352L138.397 294.302L139.825 294.294L139.808 294.385C139.443 296.004 138.239 297.158 136.089 297.158ZM141.929 297V288.052H143.373V294.726H143.506L147.93 288.052H149.375V297H147.93V290.326H147.798L143.373 297H141.929ZM152.052 297V288.052H153.496V294.726H153.629L158.053 288.052H159.498V297H158.053V290.326H157.921L153.496 297H152.052ZM166.786 297V288.052H168.231V294.726H168.363L172.788 288.052H174.232V297H172.788V290.326H172.655L168.231 297H166.786ZM185.189 297.158C182.683 297.158 181.08 295.34 181.08 292.501V292.484C181.08 289.704 182.674 287.894 185.181 287.894C187.356 287.894 188.659 289.147 188.925 290.741L188.933 290.791H187.497L187.489 290.766C187.265 289.886 186.468 289.172 185.181 289.172C183.571 289.172 182.558 290.467 182.558 292.484V292.501C182.558 294.56 183.587 295.879 185.181 295.879C186.385 295.879 187.148 295.348 187.48 294.352L187.497 294.302L188.925 294.294L188.908 294.385C188.543 296.004 187.339 297.158 185.189 297.158ZM191.029 297V288.052H198.267V297H196.823V289.247H192.473V297H191.029ZM204.597 297.158C202.04 297.158 200.496 295.365 200.496 292.559V292.551C200.496 289.787 202.073 287.894 204.506 287.894C206.938 287.894 208.415 289.704 208.415 292.376V292.941H201.974C202.015 294.792 203.036 295.871 204.63 295.871C205.842 295.871 206.589 295.298 206.83 294.759L206.863 294.684H208.307L208.291 294.75C207.984 295.962 206.705 297.158 204.597 297.158ZM204.497 289.181C203.169 289.181 202.156 290.085 201.999 291.787H206.946C206.797 290.019 205.817 289.181 204.497 289.181ZM217.932 299.366V297H210.644V288.052H212.089V295.805H216.438V288.052H217.882V295.805H219.31V299.366H217.932ZM221.016 297V288.052H222.461V294.726H222.593L227.018 288.052H228.462V297H227.018V290.326H226.885L222.461 297H221.016ZM233.604 297.158C231.903 297.158 230.616 296.128 230.616 294.501V294.485C230.616 292.891 231.795 291.97 233.878 291.845L236.443 291.688V290.874C236.443 289.77 235.771 289.172 234.435 289.172C233.364 289.172 232.658 289.571 232.426 290.268L232.417 290.293H230.973L230.981 290.243C231.214 288.84 232.575 287.894 234.484 287.894C236.667 287.894 237.888 289.015 237.888 290.874V297H236.443V295.68H236.311C235.746 296.635 234.808 297.158 233.604 297.158ZM232.094 294.468C232.094 295.373 232.866 295.904 233.903 295.904C235.373 295.904 236.443 294.941 236.443 293.663V292.85L234.053 292.999C232.691 293.082 232.094 293.563 232.094 294.452V294.468ZM242.615 293.497C242.424 295.962 241.661 297.083 240.166 297.083C239.859 297.083 239.627 297.033 239.511 296.992V295.688C239.585 295.713 239.809 295.747 240.025 295.747C240.847 295.747 241.179 294.709 241.27 293.381L241.652 288.052H247.504V297H246.06V289.247H242.947L242.615 293.497ZM250.173 297V288.052H251.618V294.726H251.75L256.175 288.052H257.619V297H256.175V290.326H256.042L251.618 297H250.173ZM263.965 297.158C261.458 297.158 259.856 295.34 259.856 292.501V292.484C259.856 289.704 261.45 287.894 263.957 287.894C266.132 287.894 267.435 289.147 267.7 290.741L267.709 290.791H266.273L266.264 290.766C266.04 289.886 265.243 289.172 263.957 289.172C262.346 289.172 261.334 290.467 261.334 292.484V292.501C261.334 294.56 262.363 295.879 263.957 295.879C265.16 295.879 265.924 295.348 266.256 294.352L266.273 294.302L267.7 294.294L267.684 294.385C267.319 296.004 266.115 297.158 263.965 297.158ZM275.873 288.052V289.247H272.976V297H271.531V289.247H268.634V288.052H275.873ZM281.14 297.158C278.591 297.158 277.014 295.398 277.014 292.534V292.518C277.014 289.646 278.591 287.894 281.14 287.894C283.688 287.894 285.265 289.646 285.265 292.518V292.534C285.265 295.398 283.688 297.158 281.14 297.158ZM281.14 295.879C282.833 295.879 283.788 294.643 283.788 292.534V292.518C283.788 290.401 282.833 289.172 281.14 289.172C279.446 289.172 278.492 290.401 278.492 292.518V292.534C278.492 294.643 279.446 295.879 281.14 295.879ZM287.494 297V288.052H291.288C292.981 288.052 293.969 288.973 293.969 290.376V290.393C293.969 291.281 293.346 292.119 292.508 292.293V292.426C293.645 292.584 294.367 293.381 294.367 294.418V294.435C294.367 295.987 293.23 297 291.304 297H287.494ZM288.939 291.837H290.848C292.01 291.837 292.533 291.389 292.533 290.542V290.525C292.533 289.762 292.085 289.247 291.08 289.247H288.939V291.837ZM288.939 295.805H291.246C292.342 295.805 292.898 295.307 292.898 294.41V294.394C292.898 293.447 292.259 293.032 290.972 293.032H288.939V295.805ZM304.918 297.158C302.411 297.158 300.809 295.34 300.809 292.501V292.484C300.809 289.704 302.403 287.894 304.91 287.894C307.084 287.894 308.388 289.147 308.653 290.741L308.661 290.791H307.225L307.217 290.766C306.993 289.886 306.196 289.172 304.91 289.172C303.299 289.172 302.286 290.467 302.286 292.484V292.501C302.286 294.56 303.316 295.879 304.91 295.879C306.113 295.879 306.877 295.348 307.209 294.352L307.225 294.302L308.653 294.294L308.637 294.385C308.271 296.004 307.068 297.158 304.918 297.158ZM2.41943 319V310.052H9.65771V319H8.21338V311.247H3.86377V319H2.41943ZM16.0121 319.158C13.4638 319.158 11.8866 317.398 11.8866 314.534V314.518C11.8866 311.646 13.4638 309.894 16.0121 309.894C18.5605 309.894 20.1376 311.646 20.1376 314.518V314.534C20.1376 317.398 18.5605 319.158 16.0121 319.158ZM16.0121 317.879C17.7055 317.879 18.6601 316.643 18.6601 314.534V314.518C18.6601 312.401 17.7055 311.172 16.0121 311.172C14.3188 311.172 13.3642 312.401 13.3642 314.518V314.534C13.3642 316.643 14.3188 317.879 16.0121 317.879ZM23.8109 319H22.3665V310.052H24.118L27.3055 316.991H27.4383L30.6424 310.052H32.3192V319H30.8748V312.633H30.7171L27.8949 318.751H26.7826L23.9686 312.633H23.8109V319ZM38.6819 319.158C36.1336 319.158 34.5564 317.398 34.5564 314.534V314.518C34.5564 311.646 36.1336 309.894 38.6819 309.894C41.2302 309.894 42.8074 311.646 42.8074 314.518V314.534C42.8074 317.398 41.2302 319.158 38.6819 319.158ZM38.6819 317.879C40.3753 317.879 41.3298 316.643 41.3298 314.534V314.518C41.3298 312.401 40.3753 311.172 38.6819 311.172C36.9885 311.172 36.0339 312.401 36.0339 314.518V314.534C36.0339 316.643 36.9885 317.879 38.6819 317.879ZM45.0363 319V310.052H46.4806V317.805H49.8425V310.052H51.2868V317.805H54.6486V310.052H56.0929V317.805H57.5373V321.366H56.1594V319H45.0363ZM59.2433 319V310.052H60.6876V312.924H62.4391C64.4894 312.924 65.8009 314.103 65.8009 315.954V315.97C65.8009 317.821 64.4894 319 62.4391 319H59.2433ZM62.4391 314.119H60.6876V317.805H62.4391C63.6178 317.805 64.3565 317.074 64.3565 315.97V315.954C64.3565 314.841 63.6095 314.119 62.4391 314.119ZM67.8555 319V310.052H69.2998V313.754H70.9434C71.2007 311.33 72.6782 309.886 74.9444 309.886C77.4429 309.886 78.9868 311.637 78.9868 314.518V314.534C78.9868 317.406 77.4429 319.166 74.9444 319.166C72.5703 319.166 71.0596 317.581 70.9102 314.949H69.2998V319H67.8555ZM74.9444 317.888C76.5879 317.888 77.5093 316.651 77.5093 314.534V314.518C77.5093 312.393 76.5879 311.164 74.9444 311.164C73.3008 311.164 72.3794 312.393 72.3794 314.518V314.534C72.3794 316.651 73.3008 317.888 74.9444 317.888ZM91.5546 311.247H87.2713V319H85.827V310.052H91.5546V311.247ZM93.5594 319V310.052H95.0037V316.726H95.1365L99.5608 310.052H101.005V319H99.5608V312.326H99.428L95.0037 319H93.5594ZM107.409 319.166C104.67 319.166 103.242 317.298 103.242 313.712V313.696C103.242 308.948 104.562 306.922 107.758 306.773L108.654 306.731C109.368 306.698 110.215 306.565 110.987 306.25V307.528C110.705 307.794 109.758 308.01 108.721 308.06L107.808 308.101C105.724 308.192 104.82 309.164 104.488 311.604L104.463 311.787H104.595C105.201 310.716 106.272 310.135 107.625 310.135C110.032 310.135 111.576 311.853 111.576 314.551V314.567C111.576 317.406 109.991 319.166 107.409 319.166ZM107.409 317.888C109.119 317.888 110.099 316.667 110.099 314.567V314.551C110.099 312.55 109.119 311.413 107.409 311.413C105.699 311.413 104.72 312.55 104.72 314.551V314.567C104.72 316.667 105.699 317.888 107.409 317.888ZM115.706 314.924H115.25V319H113.805V310.052H115.25V313.795H115.706L119.168 310.052H120.902L116.877 314.269L121.06 319H119.209L115.706 314.924ZM126.153 319.158C123.605 319.158 122.027 317.398 122.027 314.534V314.518C122.027 311.646 123.605 309.894 126.153 309.894C128.701 309.894 130.278 311.646 130.278 314.518V314.534C130.278 317.398 128.701 319.158 126.153 319.158ZM126.153 317.879C127.846 317.879 128.801 316.643 128.801 314.534V314.518C128.801 312.401 127.846 311.172 126.153 311.172C124.46 311.172 123.505 312.401 123.505 314.518V314.534C123.505 316.643 124.46 317.879 126.153 317.879ZM136.234 308.807C134.524 308.807 133.387 307.628 133.387 306.084H134.682C134.682 306.989 135.271 307.827 136.234 307.827C137.214 307.827 137.787 306.989 137.787 306.084H139.081C139.081 307.628 137.944 308.807 136.234 308.807ZM132.507 319V310.052H133.952V316.726H134.084L138.509 310.052H139.953V319H138.509V312.326H138.376L133.952 319H132.507ZM150.91 319.158C148.404 319.158 146.802 317.34 146.802 314.501V314.484C146.802 311.704 148.395 309.894 150.902 309.894C153.077 309.894 154.38 311.147 154.646 312.741L154.654 312.791H153.218L153.21 312.766C152.986 311.886 152.189 311.172 150.902 311.172C149.292 311.172 148.279 312.467 148.279 314.484V314.501C148.279 316.56 149.308 317.879 150.902 317.879C152.106 317.879 152.869 317.348 153.201 316.352L153.218 316.302L154.646 316.294L154.629 316.385C154.264 318.004 153.06 319.158 150.91 319.158ZM156.75 319V310.052H158.195V316.726H158.327L162.752 310.052H164.196V319H162.752V312.326H162.619L158.195 319H156.75ZM170.542 319.158C168.035 319.158 166.433 317.34 166.433 314.501V314.484C166.433 311.704 168.027 309.894 170.534 309.894C172.709 309.894 174.012 311.147 174.277 312.741L174.286 312.791H172.85L172.841 312.766C172.617 311.886 171.82 311.172 170.534 311.172C168.923 311.172 167.911 312.467 167.911 314.484V314.501C167.911 316.56 168.94 317.879 170.534 317.879C171.737 317.879 172.501 317.348 172.833 316.352L172.85 316.302L174.277 316.294L174.261 316.385C173.896 318.004 172.692 319.158 170.542 319.158ZM182.45 310.052V311.247H179.553V319H178.108V311.247H175.211V310.052H182.45ZM187.692 319.158C185.135 319.158 183.591 317.365 183.591 314.559V314.551C183.591 311.787 185.168 309.894 187.601 309.894C190.033 309.894 191.51 311.704 191.51 314.376V314.941H185.069C185.11 316.792 186.131 317.871 187.725 317.871C188.937 317.871 189.684 317.298 189.925 316.759L189.958 316.684H191.402L191.386 316.75C191.079 317.962 189.8 319.158 187.692 319.158ZM187.592 311.181C186.264 311.181 185.251 312.085 185.094 313.787H190.041C189.892 312.019 188.912 311.181 187.592 311.181ZM195.184 319H193.739V310.052H195.491L198.678 316.991H198.811L202.015 310.052H203.692V319H202.247V312.633H202.09L199.267 318.751H198.155L195.341 312.633H195.184V319ZM206.369 319V310.052H207.813V312.924H209.565C211.615 312.924 212.927 314.103 212.927 315.954V315.97C212.927 317.821 211.615 319 209.565 319H206.369ZM214.487 319V310.052H215.931V319H214.487ZM209.565 314.119H207.813V317.805H209.565C210.743 317.805 211.482 317.074 211.482 315.97V315.954C211.482 314.841 210.735 314.119 209.565 314.119ZM227.387 321.988V319.108C224.614 319.058 222.772 317.282 222.772 314.534V314.518C222.772 311.762 224.614 309.985 227.387 309.944V307.022H228.781V309.944C231.546 309.994 233.388 311.762 233.388 314.518V314.534C233.388 317.29 231.546 319.066 228.781 319.108V321.988H227.387ZM227.387 317.871V311.181C225.453 311.222 224.224 312.484 224.224 314.518V314.534C224.224 316.56 225.453 317.821 227.387 317.871ZM228.781 317.871C230.707 317.83 231.936 316.568 231.936 314.534V314.518C231.936 312.492 230.707 311.23 228.781 311.181V317.871ZM235.626 319V310.052H237.07V316.726H237.203L241.627 310.052H243.071V319H241.627V312.326H241.494L237.07 319H235.626ZM247.849 315.497C247.658 317.962 246.894 319.083 245.4 319.083C245.093 319.083 244.86 319.033 244.744 318.992V317.688C244.819 317.713 245.043 317.747 245.259 317.747C246.081 317.747 246.413 316.709 246.504 315.381L246.886 310.052H252.738V319H251.293V311.247H248.181L247.849 315.497ZM255.407 319V310.052H256.851V312.924H258.602C260.653 312.924 261.964 314.103 261.964 315.954V315.97C261.964 317.821 260.653 319 258.602 319H255.407ZM258.602 314.119H256.851V317.805H258.602C259.781 317.805 260.52 317.074 260.52 315.97V315.954C260.52 314.841 259.773 314.119 258.602 314.119ZM269.672 310.052V311.247H266.775V319H265.33V311.247H262.433V310.052H269.672ZM271.594 321.988V310.052H273.038V311.479H273.171C273.719 310.483 274.715 309.894 275.96 309.894C278.226 309.894 279.712 311.729 279.712 314.518V314.534C279.712 317.34 278.234 319.158 275.96 319.158C274.731 319.158 273.66 318.543 273.171 317.589H273.038V321.988H271.594ZM275.628 317.879C277.263 317.879 278.234 316.618 278.234 314.534V314.518C278.234 312.434 277.263 311.172 275.628 311.172C274.001 311.172 273.005 312.451 273.005 314.518V314.534C273.005 316.601 274.001 317.879 275.628 317.879ZM285.643 319.158C283.094 319.158 281.517 317.398 281.517 314.534V314.518C281.517 311.646 283.094 309.894 285.643 309.894C288.191 309.894 289.768 311.646 289.768 314.518V314.534C289.768 317.398 288.191 319.158 285.643 319.158ZM285.643 317.879C287.336 317.879 288.291 316.643 288.291 314.534V314.518C288.291 312.401 287.336 311.172 285.643 311.172C283.949 311.172 282.995 312.401 282.995 314.518V314.534C282.995 316.643 283.949 317.879 285.643 317.879ZM291.997 319V310.052H295.791C297.484 310.052 298.472 310.973 298.472 312.376V312.393C298.472 313.281 297.849 314.119 297.011 314.293V314.426C298.148 314.584 298.87 315.381 298.87 316.418V316.435C298.87 317.987 297.733 319 295.807 319H291.997ZM293.441 313.837H295.351C296.513 313.837 297.036 313.389 297.036 312.542V312.525C297.036 311.762 296.587 311.247 295.583 311.247H293.441V313.837ZM293.441 317.805H295.749C296.845 317.805 297.401 317.307 297.401 316.41V316.394C297.401 315.447 296.762 315.032 295.475 315.032H293.441V317.805ZM305.752 319V310.052H307.196V316.726H307.329L311.753 310.052H313.198V319H311.753V312.326H311.621L307.196 319H305.752ZM3.19141 344.138C3.00049 344.138 2.75146 344.121 2.55225 344.088V342.901C2.72656 342.934 2.95068 342.942 3.1499 342.942C3.97168 342.942 4.46973 342.569 4.79346 341.54L4.95947 341.008L1.64746 332.052H3.19141L5.64844 339.415H5.78125L8.22998 332.052H9.74902L6.25439 341.548C5.51562 343.557 4.77686 344.138 3.19141 344.138ZM13.0903 341H11.6459V332.052H13.3974L16.5849 338.991H16.7177L19.9218 332.052H21.5986V341H20.1542V334.633H19.9965L17.1742 340.751H16.0619L13.248 334.633H13.0903V341ZM30.1527 341V336.949H25.7201V341H24.2757V332.052H25.7201V335.754H30.1527V332.052H31.597V341H30.1527ZM37.9514 341.158C35.4031 341.158 33.8259 339.398 33.8259 336.534V336.518C33.8259 333.646 35.4031 331.894 37.9514 331.894C40.4998 331.894 42.0769 333.646 42.0769 336.518V336.534C42.0769 339.398 40.4998 341.158 37.9514 341.158ZM37.9514 339.879C39.6448 339.879 40.5994 338.643 40.5994 336.534V336.518C40.5994 334.401 39.6448 333.172 37.9514 333.172C36.2581 333.172 35.3035 334.401 35.3035 336.518V336.534C35.3035 338.643 36.2581 339.879 37.9514 339.879ZM50.0334 333.247H45.7502V341H44.3058V332.052H50.0334V333.247ZM55.4747 341.158C52.9264 341.158 51.3492 339.398 51.3492 336.534V336.518C51.3492 333.646 52.9264 331.894 55.4747 331.894C58.023 331.894 59.6002 333.646 59.6002 336.518V336.534C59.6002 339.398 58.023 341.158 55.4747 341.158ZM55.4747 339.879C57.1681 339.879 58.1227 338.643 58.1227 336.534V336.518C58.1227 334.401 57.1681 333.172 55.4747 333.172C53.7813 333.172 52.8268 334.401 52.8268 336.518V336.534C52.8268 338.643 53.7813 339.879 55.4747 339.879ZM66.4404 341V332.052H73.6786V341H72.2343V333.247H67.8847V341H66.4404ZM80.0331 341.158C77.4847 341.158 75.9076 339.398 75.9076 336.534V336.518C75.9076 333.646 77.4847 331.894 80.0331 331.894C82.5814 331.894 84.1586 333.646 84.1586 336.518V336.534C84.1586 339.398 82.5814 341.158 80.0331 341.158ZM80.0331 339.879C81.7264 339.879 82.681 338.643 82.681 336.534V336.518C82.681 334.401 81.7264 333.172 80.0331 333.172C78.3397 333.172 77.3851 334.401 77.3851 336.518V336.534C77.3851 338.643 78.3397 339.879 80.0331 339.879ZM86.3875 341V332.052H87.8318V338.726H87.9646L92.3889 332.052H93.8333V341H92.3889V334.326H92.2561L87.8318 341H86.3875ZM100.179 341.158C97.6726 341.158 96.0705 339.34 96.0705 336.501V336.484C96.0705 333.704 97.6643 331.894 100.171 331.894C102.346 331.894 103.649 333.147 103.915 334.741L103.923 334.791H102.487L102.479 334.766C102.255 333.886 101.458 333.172 100.171 333.172C98.5607 333.172 97.548 334.467 97.548 336.484V336.501C97.548 338.56 98.5773 339.879 100.171 339.879C101.375 339.879 102.138 339.348 102.47 338.352L102.487 338.302L103.915 338.294L103.898 338.385C103.533 340.004 102.329 341.158 100.179 341.158ZM107.92 336.924H107.463V341H106.019V332.052H107.463V335.795H107.92L111.381 332.052H113.116L109.09 336.269L113.274 341H111.423L107.92 336.924ZM117.313 341.158C115.611 341.158 114.324 340.128 114.324 338.501V338.485C114.324 336.891 115.503 335.97 117.586 335.845L120.151 335.688V334.874C120.151 333.77 119.479 333.172 118.143 333.172C117.072 333.172 116.366 333.571 116.134 334.268L116.126 334.293H114.681L114.689 334.243C114.922 332.84 116.283 331.894 118.192 331.894C120.376 331.894 121.596 333.015 121.596 334.874V341H120.151V339.68H120.019C119.454 340.635 118.516 341.158 117.313 341.158ZM115.802 338.468C115.802 339.373 116.574 339.904 117.611 339.904C119.081 339.904 120.151 338.941 120.151 337.663V336.85L117.761 336.999C116.399 337.082 115.802 337.563 115.802 338.452V338.468ZM125.327 341.083C124.738 341.083 124.248 340.593 124.248 340.004C124.248 339.406 124.738 338.925 125.327 338.925C125.925 338.925 126.406 339.406 126.406 340.004C126.406 340.593 125.925 341.083 125.327 341.083Z" fill="black"/>
<path d="M1.65576 371L6.07178 359.022H7.54932L11.9653 371H10.3965L9.19287 367.572H4.42822L3.22461 371H1.65576ZM6.74414 360.956L4.86816 366.302H8.75293L6.87695 360.956H6.74414ZM18.4818 371V362.052H25.7201V371H24.2757V363.247H19.9261V371H18.4818ZM32.0745 371.158C29.5261 371.158 27.949 369.398 27.949 366.534V366.518C27.949 363.646 29.5261 361.894 32.0745 361.894C34.6228 361.894 36.2 363.646 36.2 366.518V366.534C36.2 369.398 34.6228 371.158 32.0745 371.158ZM32.0745 369.879C33.7678 369.879 34.7224 368.643 34.7224 366.534V366.518C34.7224 364.401 33.7678 363.172 32.0745 363.172C30.3811 363.172 29.4265 364.401 29.4265 366.518V366.534C29.4265 368.643 30.3811 369.879 32.0745 369.879ZM42.0978 371.158C39.591 371.158 37.9889 369.34 37.9889 366.501V366.484C37.9889 363.704 39.5827 361.894 42.0895 361.894C44.2643 361.894 45.5676 363.147 45.8332 364.741L45.8415 364.791H44.4054L44.3971 364.766C44.173 363.886 43.3762 363.172 42.0895 363.172C40.4792 363.172 39.4665 364.467 39.4665 366.484V366.501C39.4665 368.56 40.4958 369.879 42.0895 369.879C43.2931 369.879 44.0568 369.348 44.3888 368.352L44.4054 368.302L45.8332 368.294L45.8166 368.385C45.4513 370.004 44.2477 371.158 42.0978 371.158ZM50.0377 367.497C49.8468 369.962 49.0831 371.083 47.589 371.083C47.2818 371.083 47.0494 371.033 46.9332 370.992V369.688C47.0079 369.713 47.232 369.747 47.4479 369.747C48.2696 369.747 48.6017 368.709 48.693 367.381L49.0748 362.052H54.9269V371H53.4825V363.247H50.3697L50.0377 367.497ZM61.2564 371.158C58.6997 371.158 57.1558 369.365 57.1558 366.559V366.551C57.1558 363.787 58.7329 361.894 61.1651 361.894C63.5972 361.894 65.0747 363.704 65.0747 366.376V366.941H58.6333C58.6748 368.792 59.6958 369.871 61.2896 369.871C62.5015 369.871 63.2486 369.298 63.4893 368.759L63.5225 368.684H64.9668L64.9502 368.75C64.6431 369.962 63.3648 371.158 61.2564 371.158ZM61.1568 363.181C59.8286 363.181 58.8159 364.085 58.6582 365.787H63.6055C63.4561 364.019 62.4766 363.181 61.1568 363.181ZM77.7919 371V366.949H73.3592V371H71.9149V362.052H73.3592V365.754H77.7919V362.052H79.2362V371H77.7919ZM84.3704 371.158C82.6687 371.158 81.3821 370.128 81.3821 368.501V368.485C81.3821 366.891 82.5608 365.97 84.6443 365.845L87.2093 365.688V364.874C87.2093 363.77 86.5369 363.172 85.2005 363.172C84.1297 363.172 83.4241 363.571 83.1917 364.268L83.1834 364.293H81.739L81.7473 364.243C81.9798 362.84 83.3411 361.894 85.2503 361.894C87.4334 361.894 88.6536 363.015 88.6536 364.874V371H87.2093V369.68H87.0764C86.512 370.635 85.574 371.158 84.3704 371.158ZM82.8596 368.468C82.8596 369.373 83.6316 369.904 84.6692 369.904C86.1385 369.904 87.2093 368.941 87.2093 367.663V366.85L84.8186 366.999C83.4573 367.082 82.8596 367.563 82.8596 368.452V368.468ZM94.9499 371.158C92.4431 371.158 90.841 369.34 90.841 366.501V366.484C90.841 363.704 92.4348 361.894 94.9416 361.894C97.1164 361.894 98.4196 363.147 98.6853 364.741L98.6936 364.791H97.2575L97.2492 364.766C97.0251 363.886 96.2282 363.172 94.9416 363.172C93.3313 363.172 92.3186 364.467 92.3186 366.484V366.501C92.3186 368.56 93.3479 369.879 94.9416 369.879C96.1452 369.879 96.9089 369.348 97.2409 368.352L97.2575 368.302L98.6853 368.294L98.6687 368.385C98.3034 370.004 97.0998 371.158 94.9499 371.158ZM106.858 362.052V363.247H103.961V371H102.516V363.247H99.6193V362.052H106.858ZM108.779 373.988V362.052H110.224V363.479H110.356C110.904 362.483 111.9 361.894 113.146 361.894C115.412 361.894 116.897 363.729 116.897 366.518V366.534C116.897 369.34 115.42 371.158 113.146 371.158C111.917 371.158 110.846 370.543 110.356 369.589H110.224V373.988H108.779ZM112.814 369.879C114.449 369.879 115.42 368.618 115.42 366.534V366.518C115.42 364.434 114.449 363.172 112.814 363.172C111.187 363.172 110.19 364.451 110.19 366.518V366.534C110.19 368.601 111.187 369.879 112.814 369.879ZM122.829 371.158C120.28 371.158 118.703 369.398 118.703 366.534V366.518C118.703 363.646 120.28 361.894 122.829 361.894C125.377 361.894 126.954 363.646 126.954 366.518V366.534C126.954 369.398 125.377 371.158 122.829 371.158ZM122.829 369.879C124.522 369.879 125.477 368.643 125.477 366.534V366.518C125.477 364.401 124.522 363.172 122.829 363.172C121.135 363.172 120.181 364.401 120.181 366.518V366.534C120.181 368.643 121.135 369.879 122.829 369.879ZM132.91 360.807C131.2 360.807 130.063 359.628 130.063 358.084H131.358C131.358 358.989 131.947 359.827 132.91 359.827C133.89 359.827 134.462 358.989 134.462 358.084H135.757C135.757 359.628 134.62 360.807 132.91 360.807ZM129.183 371V362.052H130.627V368.726H130.76L135.184 362.052H136.629V371H135.184V364.326H135.052L130.627 371H129.183ZM141.207 366.924H140.75V371H139.306V362.052H140.75V365.795H141.207L144.668 362.052H146.403L142.377 366.269L146.561 371H144.71L141.207 366.924ZM148.383 371V362.052H149.827V368.726H149.96L154.384 362.052H155.829V371H154.384V364.326H154.252L149.827 371H148.383ZM165.583 371.158C163.881 371.158 162.594 370.128 162.594 368.501V368.485C162.594 366.891 163.773 365.97 165.857 365.845L168.421 365.688V364.874C168.421 363.77 167.749 363.172 166.413 363.172C165.342 363.172 164.636 363.571 164.404 364.268L164.396 364.293H162.951L162.96 364.243C163.192 362.84 164.553 361.894 166.462 361.894C168.646 361.894 169.866 363.015 169.866 364.874V371H168.421V369.68H168.289C167.724 370.635 166.786 371.158 165.583 371.158ZM164.072 368.468C164.072 369.373 164.844 369.904 165.881 369.904C167.351 369.904 168.421 368.941 168.421 367.663V366.85L166.031 366.999C164.669 367.082 164.072 367.563 164.072 368.452V368.468ZM174.394 366.924H173.937V371H172.493V362.052H173.937V365.795H174.394L177.855 362.052H179.59L175.564 366.269L179.748 371H177.897L174.394 366.924ZM183.471 366.924H183.015V371H181.57V362.052H183.015V365.795H183.471L186.933 362.052H188.667L184.642 366.269L188.825 371H186.974L183.471 366.924ZM192.864 371.158C191.162 371.158 189.875 370.128 189.875 368.501V368.485C189.875 366.891 191.054 365.97 193.138 365.845L195.702 365.688V364.874C195.702 363.77 195.03 363.172 193.694 363.172C192.623 363.172 191.917 363.571 191.685 364.268L191.677 364.293H190.232L190.241 364.243C190.473 362.84 191.834 361.894 193.743 361.894C195.927 361.894 197.147 363.015 197.147 364.874V371H195.702V369.68H195.57C195.005 370.635 194.067 371.158 192.864 371.158ZM191.353 368.468C191.353 369.373 192.125 369.904 193.162 369.904C194.632 369.904 195.702 368.941 195.702 367.663V366.85L193.312 366.999C191.951 367.082 191.353 367.563 191.353 368.452V368.468ZM200.463 374.138C200.272 374.138 200.023 374.121 199.824 374.088V372.901C199.998 372.934 200.222 372.942 200.422 372.942C201.243 372.942 201.741 372.569 202.065 371.54L202.231 371.008L198.919 362.052H200.463L202.92 369.415H203.053L205.502 362.052H207.021L203.526 371.548C202.787 373.557 202.049 374.138 200.463 374.138ZM214.795 371V366.949H210.362V371H208.918V362.052H210.362V365.754H214.795V362.052H216.239V371H214.795ZM225.391 362.052V363.247H222.494V371H221.049V363.247H218.152V362.052H225.391ZM229.637 371.158C227.935 371.158 226.648 370.128 226.648 368.501V368.485C226.648 366.891 227.827 365.97 229.911 365.845L232.476 365.688V364.874C232.476 363.77 231.803 363.172 230.467 363.172C229.396 363.172 228.69 363.571 228.458 364.268L228.45 364.293H227.005L227.014 364.243C227.246 362.84 228.607 361.894 230.517 361.894C232.7 361.894 233.92 363.015 233.92 364.874V371H232.476V369.68H232.343C231.778 370.635 230.84 371.158 229.637 371.158ZM228.126 368.468C228.126 369.373 228.898 369.904 229.936 369.904C231.405 369.904 232.476 368.941 232.476 367.663V366.85L230.085 366.999C228.724 367.082 228.126 367.563 228.126 368.452V368.468ZM247.035 371V366.949H242.603V371H241.159V362.052H242.603V365.754H247.035V362.052H248.48V371H247.035ZM253.614 371.158C251.912 371.158 250.626 370.128 250.626 368.501V368.485C250.626 366.891 251.804 365.97 253.888 365.845L256.453 365.688V364.874C256.453 363.77 255.781 363.172 254.444 363.172C253.373 363.172 252.668 363.571 252.435 364.268L252.427 364.293H250.983L250.991 364.243C251.223 362.84 252.585 361.894 254.494 361.894C256.677 361.894 257.897 363.015 257.897 364.874V371H256.453V369.68H256.32C255.756 370.635 254.818 371.158 253.614 371.158ZM252.103 368.468C252.103 369.373 252.875 369.904 253.913 369.904C255.382 369.904 256.453 368.941 256.453 367.663V366.85L254.062 366.999C252.701 367.082 252.103 367.563 252.103 368.452V368.468ZM270.863 363.247H266.58V371H265.136V362.052H270.863V363.247ZM274.304 367.497C274.113 369.962 273.35 371.083 271.855 371.083C271.548 371.083 271.316 371.033 271.2 370.992V369.688C271.274 369.713 271.499 369.747 271.714 369.747C272.536 369.747 272.868 368.709 272.96 367.381L273.341 362.052H279.193V371H277.749V363.247H274.636L274.304 367.497ZM284.328 371.158C282.626 371.158 281.339 370.128 281.339 368.501V368.485C281.339 366.891 282.518 365.97 284.602 365.845L287.166 365.688V364.874C287.166 363.77 286.494 363.172 285.158 363.172C284.087 363.172 283.381 363.571 283.149 364.268L283.141 364.293H281.696L281.705 364.243C281.937 362.84 283.298 361.894 285.207 361.894C287.391 361.894 288.611 363.015 288.611 364.874V371H287.166V369.68H287.034C286.469 370.635 285.531 371.158 284.328 371.158ZM282.817 368.468C282.817 369.373 283.589 369.904 284.626 369.904C286.096 369.904 287.166 368.941 287.166 367.663V366.85L284.776 366.999C283.414 367.082 282.817 367.563 282.817 368.452V368.468ZM291.238 371V362.052H295.032C296.725 362.052 297.713 362.973 297.713 364.376V364.393C297.713 365.281 297.09 366.119 296.252 366.293V366.426C297.389 366.584 298.111 367.381 298.111 368.418V368.435C298.111 369.987 296.974 371 295.048 371H291.238ZM292.682 365.837H294.592C295.754 365.837 296.277 365.389 296.277 364.542V364.525C296.277 363.762 295.828 363.247 294.824 363.247H292.682V365.837ZM292.682 369.805H294.99C296.086 369.805 296.642 369.307 296.642 368.41V368.394C296.642 367.447 296.003 367.032 294.716 367.032H292.682V369.805ZM306.259 371V366.949H301.826V371H300.382V362.052H301.826V365.754H306.259V362.052H307.703V371H306.259ZM314.057 371.158C311.509 371.158 309.932 369.398 309.932 366.534V366.518C309.932 363.646 311.509 361.894 314.057 361.894C316.606 361.894 318.183 363.646 318.183 366.518V366.534C318.183 369.398 316.606 371.158 314.057 371.158ZM314.057 369.879C315.751 369.879 316.705 368.643 316.705 366.534V366.518C316.705 364.401 315.751 363.172 314.057 363.172C312.364 363.172 311.409 364.401 311.409 366.518V366.534C311.409 368.643 312.364 369.879 314.057 369.879ZM321.856 371H320.412V362.052H322.163L325.351 368.991H325.484L328.688 362.052H330.364V371H328.92V364.633H328.762L325.94 370.751H324.828L322.014 364.633H321.856V371ZM5.55713 393.166C3.41553 393.166 2.0708 391.962 1.79688 390.344L1.78857 390.294H3.23291L3.24951 390.352C3.53174 391.34 4.37012 391.888 5.56543 391.888C7.05957 391.888 8.08887 390.726 8.21338 388.974H4.05469V387.779H8.18848C8.01416 386.168 6.96826 385.164 5.56543 385.164C4.31201 385.164 3.52344 385.845 3.26611 386.683L3.23291 386.791H1.78857L1.81348 386.658C2.104 385.114 3.44043 383.886 5.56543 383.886C8.07227 383.886 9.70752 385.695 9.70752 388.484V388.501C9.70752 391.348 8.06396 393.166 5.55713 393.166ZM13.829 388.924H13.3725V393H11.9281V384.052H13.3725V387.795H13.829L17.2904 384.052H19.0253L14.9994 388.269L19.183 393H17.332L13.829 388.924ZM21.0135 395.988V384.052H22.4579V385.479H22.5907C23.1385 384.483 24.1346 383.894 25.3797 383.894C27.6458 383.894 29.1317 385.729 29.1317 388.518V388.534C29.1317 391.34 27.6541 393.158 25.3797 393.158C24.1512 393.158 23.0804 392.543 22.5907 391.589H22.4579V395.988H21.0135ZM25.0477 391.879C26.6829 391.879 27.6541 390.618 27.6541 388.534V388.518C27.6541 386.434 26.6829 385.172 25.0477 385.172C23.4207 385.172 22.4246 386.451 22.4246 388.518V388.534C22.4246 390.601 23.4207 391.879 25.0477 391.879ZM33.8425 393.158C32.1409 393.158 30.8543 392.128 30.8543 390.501V390.485C30.8543 388.891 32.033 387.97 34.1165 387.845L36.6814 387.688V386.874C36.6814 385.77 36.009 385.172 34.6726 385.172C33.6018 385.172 32.8962 385.571 32.6638 386.268L32.6555 386.293H31.2112L31.2195 386.243C31.4519 384.84 32.8132 383.894 34.7224 383.894C36.9055 383.894 38.1257 385.015 38.1257 386.874V393H36.6814V391.68H36.5486C35.9841 392.635 35.0462 393.158 33.8425 393.158ZM32.3318 390.468C32.3318 391.373 33.1038 391.904 34.1414 391.904C35.6106 391.904 36.6814 390.941 36.6814 389.663V388.85L34.2908 388.999C32.9295 389.082 32.3318 389.563 32.3318 390.452V390.468ZM46.6301 393V388.949H42.1974V393H40.7531V384.052H42.1974V387.754H46.6301V384.052H48.0744V393H46.6301ZM54.4039 393.158C51.8473 393.158 50.3033 391.365 50.3033 388.559V388.551C50.3033 385.787 51.8805 383.894 54.3126 383.894C56.7447 383.894 58.2223 385.704 58.2223 388.376V388.941H51.7809C51.8224 390.792 52.8434 391.871 54.4371 391.871C55.649 391.871 56.3961 391.298 56.6368 390.759L56.67 390.684H58.1144L58.0978 390.75C57.7906 391.962 56.5123 393.158 54.4039 393.158ZM54.3043 385.181C52.9762 385.181 51.9635 386.085 51.8058 387.787H56.753C56.6036 386.019 55.6241 385.181 54.3043 385.181ZM68.7895 393.166C66.0502 393.166 64.6225 391.298 64.6225 387.712V387.696C64.6225 382.948 65.9423 380.922 69.1381 380.773L70.0346 380.731C70.7485 380.698 71.5952 380.565 72.3671 380.25V381.528C72.0849 381.794 71.1386 382.01 70.101 382.06L69.1879 382.101C67.1044 382.192 66.1996 383.164 65.8676 385.604L65.8427 385.787H65.9755C66.5815 384.716 67.6523 384.135 69.0053 384.135C71.4125 384.135 72.9565 385.853 72.9565 388.551V388.567C72.9565 391.406 71.371 393.166 68.7895 393.166ZM68.7895 391.888C70.4995 391.888 71.4789 390.667 71.4789 388.567V388.551C71.4789 386.55 70.4995 385.413 68.7895 385.413C67.0795 385.413 66.1 386.55 66.1 388.551V388.567C66.1 390.667 67.0795 391.888 68.7895 391.888ZM75.6254 396.138C75.4344 396.138 75.1854 396.121 74.9862 396.088V394.901C75.1605 394.934 75.3846 394.942 75.5838 394.942C76.4056 394.942 76.9037 394.569 77.2274 393.54L77.3934 393.008L74.0814 384.052H75.6254L78.0824 391.415H78.2152L80.6639 384.052H82.183L78.6883 393.548C77.9496 395.557 77.2108 396.138 75.6254 396.138ZM83.9554 395.366H82.6106V391.805H83.3577C84.0135 391.373 84.3372 390.244 84.4202 389.041L84.7688 384.052H90.8699V391.805H92.2976V395.366H90.9529V393H83.9554V395.366ZM89.4256 391.805V385.247H86.0471L85.7649 389.074C85.6819 390.161 85.4495 391.116 85.0262 391.672V391.805H89.4256ZM94.6926 396.138C94.5017 396.138 94.2526 396.121 94.0534 396.088V394.901C94.2277 394.934 94.4519 394.942 94.6511 394.942C95.4729 394.942 95.9709 394.569 96.2946 393.54L96.4606 393.008L93.1486 384.052H94.6926L97.1496 391.415H97.2824L99.7312 384.052H101.25L97.7556 393.548C97.0168 395.557 96.278 396.138 94.6926 396.138ZM109.298 384.052V385.247H106.401V393H104.957V385.247H102.06V384.052H109.298ZM115.823 393V384.052H119.616C121.31 384.052 122.297 384.973 122.297 386.376V386.393C122.297 387.281 121.675 388.119 120.836 388.293V388.426C121.974 388.584 122.696 389.381 122.696 390.418V390.435C122.696 391.987 121.559 393 119.633 393H115.823ZM117.267 387.837H119.176C120.338 387.837 120.861 387.389 120.861 386.542V386.525C120.861 385.762 120.413 385.247 119.409 385.247H117.267V387.837ZM117.267 391.805H119.575C120.67 391.805 121.227 391.307 121.227 390.41V390.394C121.227 389.447 120.587 389.032 119.301 389.032H117.267V391.805ZM124.966 393V384.052H126.411V386.924H128.162C130.212 386.924 131.524 388.103 131.524 389.954V389.97C131.524 391.821 130.212 393 128.162 393H124.966ZM133.084 393V384.052H134.529V393H133.084ZM128.162 388.119H126.411V391.805H128.162C129.341 391.805 130.079 391.074 130.079 389.97V389.954C130.079 388.841 129.332 388.119 128.162 388.119ZM137.198 393V384.052H140.991C142.684 384.052 143.672 384.973 143.672 386.376V386.393C143.672 387.281 143.05 388.119 142.211 388.293V388.426C143.348 388.584 144.071 389.381 144.071 390.418V390.435C144.071 391.987 142.933 393 141.008 393H137.198ZM138.642 387.837H140.551C141.713 387.837 142.236 387.389 142.236 386.542V386.525C142.236 385.762 141.788 385.247 140.783 385.247H138.642V387.837ZM138.642 391.805H140.95C142.045 391.805 142.601 391.307 142.601 390.41V390.394C142.601 389.447 141.962 389.032 140.676 389.032H138.642V391.805ZM149.944 393.158C147.395 393.158 145.818 391.398 145.818 388.534V388.518C145.818 385.646 147.395 383.894 149.944 383.894C152.492 383.894 154.069 385.646 154.069 388.518V388.534C154.069 391.398 152.492 393.158 149.944 393.158ZM149.944 391.879C151.637 391.879 152.592 390.643 152.592 388.534V388.518C152.592 386.401 151.637 385.172 149.944 385.172C148.25 385.172 147.296 386.401 147.296 388.518V388.534C147.296 390.643 148.25 391.879 149.944 391.879ZM156.423 395.366H155.078V391.805H155.825C156.481 391.373 156.804 390.244 156.887 389.041L157.236 384.052H163.337V391.805H164.765V395.366H163.42V393H156.423V395.366ZM161.893 391.805V385.247H158.514L158.232 389.074C158.149 390.161 157.917 391.116 157.493 391.672V391.805H161.893ZM166.471 393V384.052H167.915V390.726H168.048L172.472 384.052H173.917V393H172.472V386.326H172.339L167.915 393H166.471ZM183.077 384.052V385.247H180.18V393H178.735V385.247H175.838V384.052H183.077ZM188.327 393.158C185.82 393.158 184.218 391.34 184.218 388.501V388.484C184.218 385.704 185.812 383.894 188.319 383.894C190.494 383.894 191.797 385.147 192.062 386.741L192.071 386.791H190.635L190.626 386.766C190.402 385.886 189.605 385.172 188.319 385.172C186.708 385.172 185.696 386.467 185.696 388.484V388.501C185.696 390.56 186.725 391.879 188.319 391.879C189.522 391.879 190.286 391.348 190.618 390.352L190.635 390.302L192.062 390.294L192.046 390.385C191.681 392.004 190.477 393.158 188.327 393.158ZM198.749 393V389.796H197.23L194.947 393H193.245L195.744 389.53C194.482 389.173 193.719 388.244 193.719 387.023V387.007C193.719 385.172 195.03 384.052 197.08 384.052H200.193V393H198.749ZM197.08 388.601H198.749V385.247H197.08C195.902 385.247 195.196 385.895 195.196 386.974V386.99C195.196 387.928 195.91 388.601 197.08 388.601ZM207.473 393V384.052H214.712V393H213.267V385.247H208.918V393H207.473ZM221.066 393.158C218.518 393.158 216.941 391.398 216.941 388.534V388.518C216.941 385.646 218.518 383.894 221.066 383.894C223.614 383.894 225.191 385.646 225.191 388.518V388.534C225.191 391.398 223.614 393.158 221.066 393.158ZM221.066 391.879C222.759 391.879 223.714 390.643 223.714 388.534V388.518C223.714 386.401 222.759 385.172 221.066 385.172C219.373 385.172 218.418 386.401 218.418 388.518V388.534C218.418 390.643 219.373 391.879 221.066 391.879ZM227.545 395.366H226.2V391.805H226.947C227.603 391.373 227.927 390.244 228.01 389.041L228.358 384.052H234.459V391.805H235.887V395.366H234.542V393H227.545V395.366ZM233.015 391.805V385.247H229.637L229.354 389.074C229.271 390.161 229.039 391.116 228.616 391.672V391.805H233.015ZM236.888 393L239.951 388.526L236.854 384.052H238.556L240.681 387.38H240.814L242.914 384.052H244.533L241.495 388.468L244.574 393H242.881L240.764 389.622H240.631L238.506 393H236.888ZM249.858 393.158C247.309 393.158 245.732 391.398 245.732 388.534V388.518C245.732 385.646 247.309 383.894 249.858 383.894C252.406 383.894 253.983 385.646 253.983 388.518V388.534C253.983 391.398 252.406 393.158 249.858 393.158ZM249.858 391.879C251.551 391.879 252.506 390.643 252.506 388.534V388.518C252.506 386.401 251.551 385.172 249.858 385.172C248.164 385.172 247.21 386.401 247.21 388.518V388.534C247.21 390.643 248.164 391.879 249.858 391.879ZM256.337 395.366H254.992V391.805H255.739C256.395 391.373 256.719 390.244 256.802 389.041L257.15 384.052H263.251V391.805H264.679V395.366H263.334V393H256.337V395.366ZM261.807 391.805V385.247H258.428L258.146 389.074C258.063 390.161 257.831 391.116 257.407 391.672V391.805H261.807ZM271.133 393V389.796H269.614L267.331 393H265.63L268.128 389.53C266.866 389.173 266.103 388.244 266.103 387.023V387.007C266.103 385.172 267.414 384.052 269.465 384.052H272.577V393H271.133ZM269.465 388.601H271.133V385.247H269.465C268.286 385.247 267.58 385.895 267.58 386.974V386.99C267.58 387.928 268.294 388.601 269.465 388.601ZM275.246 393V384.052H276.691V391.805H280.052V384.052H281.497V391.805H284.858V384.052H286.303V391.805H287.747V395.366H286.369V393H275.246ZM289.453 393V384.052H290.897V390.726H291.03L295.455 384.052H296.899V393H295.455V386.326H295.322L290.897 393H289.453ZM303.237 393.158C300.68 393.158 299.136 391.365 299.136 388.559V388.551C299.136 385.787 300.713 383.894 303.145 383.894C305.578 383.894 307.055 385.704 307.055 388.376V388.941H300.614C300.655 390.792 301.676 391.871 303.27 391.871C304.482 391.871 305.229 391.298 305.47 390.759L305.503 390.684H306.947L306.931 390.75C306.623 391.962 305.345 393.158 303.237 393.158ZM303.137 385.181C301.809 385.181 300.796 386.085 300.639 387.787H305.586C305.436 386.019 304.457 385.181 303.137 385.181ZM313.895 393V384.052H317.689C319.382 384.052 320.37 384.973 320.37 386.376V386.393C320.37 387.281 319.747 388.119 318.909 388.293V388.426C320.046 388.584 320.768 389.381 320.768 390.418V390.435C320.768 391.987 319.631 393 317.705 393H313.895ZM315.34 387.837H317.249C318.411 387.837 318.934 387.389 318.934 386.542V386.525C318.934 385.762 318.486 385.247 317.481 385.247H315.34V387.837ZM315.34 391.805H317.647C318.743 391.805 319.299 391.307 319.299 390.41V390.394C319.299 389.447 318.66 389.032 317.373 389.032H315.34V391.805ZM325.504 393.158C323.802 393.158 322.516 392.128 322.516 390.501V390.485C322.516 388.891 323.695 387.97 325.778 387.845L328.343 387.688V386.874C328.343 385.77 327.671 385.172 326.334 385.172C325.263 385.172 324.558 385.571 324.325 386.268L324.317 386.293H322.873L322.881 386.243C323.113 384.84 324.475 383.894 326.384 383.894C328.567 383.894 329.787 385.015 329.787 386.874V393H328.343V391.68H328.21C327.646 392.635 326.708 393.158 325.504 393.158ZM323.993 390.468C323.993 391.373 324.765 391.904 325.803 391.904C327.272 391.904 328.343 390.941 328.343 389.663V388.85L325.952 388.999C324.591 389.082 323.993 389.563 323.993 390.452V390.468ZM333.859 393H332.415V384.052H334.166L337.354 390.991H337.486L340.691 384.052H342.367V393H340.923V386.633H340.765L337.943 392.751H336.831L334.017 386.633H333.859V393ZM2.42773 417.988V406.052H3.87207V407.479H4.00488C4.55273 406.483 5.54883 405.894 6.79395 405.894C9.06006 405.894 10.5459 407.729 10.5459 410.518V410.534C10.5459 413.34 9.06836 415.158 6.79395 415.158C5.56543 415.158 4.49463 414.543 4.00488 413.589H3.87207V417.988H2.42773ZM6.46191 413.879C8.09717 413.879 9.06836 412.618 9.06836 410.534V410.518C9.06836 408.434 8.09717 407.172 6.46191 407.172C4.83496 407.172 3.83887 408.451 3.83887 410.518V410.534C3.83887 412.601 4.83496 413.879 6.46191 413.879ZM15.2568 415.158C13.5551 415.158 12.2685 414.128 12.2685 412.501V412.485C12.2685 410.891 13.4472 409.97 15.5307 409.845L18.0956 409.688V408.874C18.0956 407.77 17.4233 407.172 16.0868 407.172C15.016 407.172 14.3105 407.571 14.078 408.268L14.0697 408.293H12.6254L12.6337 408.243C12.8661 406.84 14.2275 405.894 16.1366 405.894C18.3197 405.894 19.54 407.015 19.54 408.874V415H18.0956V413.68H17.9628C17.3984 414.635 16.4604 415.158 15.2568 415.158ZM13.746 412.468C13.746 413.373 14.518 413.904 15.5556 413.904C17.0248 413.904 18.0956 412.941 18.0956 411.663V410.85L15.705 410.999C14.3437 411.082 13.746 411.563 13.746 412.452V412.468ZM25.8944 415.166C23.1551 415.166 21.7274 413.298 21.7274 409.712V409.696C21.7274 404.948 23.0472 402.922 26.243 402.773L27.1395 402.731C27.8534 402.698 28.7 402.565 29.472 402.25V403.528C29.1898 403.794 28.2435 404.01 27.2059 404.06L26.2928 404.101C24.2093 404.192 23.3045 405.164 22.9725 407.604L22.9476 407.787H23.0804C23.6864 406.716 24.7572 406.135 26.1102 406.135C28.5174 406.135 30.0614 407.853 30.0614 410.551V410.567C30.0614 413.406 28.4759 415.166 25.8944 415.166ZM25.8944 413.888C27.6043 413.888 28.5838 412.667 28.5838 410.567V410.551C28.5838 408.55 27.6043 407.413 25.8944 407.413C24.1844 407.413 23.2049 408.55 23.2049 410.551V410.567C23.2049 412.667 24.1844 413.888 25.8944 413.888ZM35.9758 415.158C33.4275 415.158 31.8504 413.398 31.8504 410.534V410.518C31.8504 407.646 33.4275 405.894 35.9758 405.894C38.5242 405.894 40.1013 407.646 40.1013 410.518V410.534C40.1013 413.398 38.5242 415.158 35.9758 415.158ZM35.9758 413.879C37.6692 413.879 38.6238 412.643 38.6238 410.534V410.518C38.6238 408.401 37.6692 407.172 35.9758 407.172C34.2825 407.172 33.3279 408.401 33.3279 410.518V410.534C33.3279 412.643 34.2825 413.879 35.9758 413.879ZM48.9875 415H47.5431V411.273H47.4103C46.9289 411.613 46.2399 411.812 45.277 411.812C43.1188 411.812 41.9982 410.518 41.9982 408.608V406.052H43.4426V408.608C43.4426 409.787 44.0568 410.534 45.277 410.534C46.3976 410.534 47.1696 410.244 47.5431 409.829V406.052H48.9875V415ZM51.6563 415V406.052H53.1007V412.726H53.2335L57.6578 406.052H59.1021V415H57.6578V408.326H57.525L53.1007 415H51.6563ZM65.44 415.158C62.8833 415.158 61.3394 413.365 61.3394 410.559V410.551C61.3394 407.787 62.9165 405.894 65.3487 405.894C67.7808 405.894 69.2583 407.704 69.2583 410.376V410.941H62.8169C62.8584 412.792 63.8794 413.871 65.4732 413.871C66.6851 413.871 67.4321 413.298 67.6729 412.759L67.7061 412.684H69.1504L69.1338 412.75C68.8267 413.962 67.5484 415.158 65.44 415.158ZM65.3404 407.181C64.0122 407.181 62.9995 408.085 62.8418 409.787H67.7891C67.6397 408.019 66.6602 407.181 65.3404 407.181ZM76.0985 415V406.052H83.3368V415H81.8924V407.247H77.5428V415H76.0985ZM86.0139 417.988V406.052H87.4583V407.479H87.5911C88.1389 406.483 89.135 405.894 90.3802 405.894C92.6463 405.894 94.1321 407.729 94.1321 410.518V410.534C94.1321 413.34 92.6546 415.158 90.3802 415.158C89.1516 415.158 88.0808 414.543 87.5911 413.589H87.4583V417.988H86.0139ZM90.0481 413.879C91.6834 413.879 92.6546 412.618 92.6546 410.534V410.518C92.6546 408.434 91.6834 407.172 90.0481 407.172C88.4212 407.172 87.4251 408.451 87.4251 410.518V410.534C87.4251 412.601 88.4212 413.879 90.0481 413.879ZM100.038 415.158C97.4816 415.158 95.9377 413.365 95.9377 410.559V410.551C95.9377 407.787 97.5148 405.894 99.947 405.894C102.379 405.894 103.857 407.704 103.857 410.376V410.941H97.4152C97.4567 412.792 98.4777 413.871 100.071 413.871C101.283 413.871 102.03 413.298 102.271 412.759L102.304 412.684H103.749L103.732 412.75C103.425 413.962 102.147 415.158 100.038 415.158ZM99.9387 407.181C98.6105 407.181 97.5979 408.085 97.4401 409.787H102.387C102.238 408.019 101.258 407.181 99.9387 407.181ZM106.21 417.366H104.865V413.805H105.612C106.268 413.373 106.592 412.244 106.675 411.041L107.024 406.052H113.125V413.805H114.552V417.366H113.208V415H106.21V417.366ZM111.68 413.805V407.247H108.302L108.02 411.074C107.937 412.161 107.704 413.116 107.281 413.672V413.805H111.68ZM118.358 411.497C118.168 413.962 117.404 415.083 115.91 415.083C115.603 415.083 115.37 415.033 115.254 414.992V413.688C115.329 413.713 115.553 413.747 115.769 413.747C116.59 413.747 116.922 412.709 117.014 411.381L117.396 406.052H123.248V415H121.803V407.247H118.69L118.358 411.497ZM129.602 415.158C127.054 415.158 125.477 413.398 125.477 410.534V410.518C125.477 407.646 127.054 405.894 129.602 405.894C132.15 405.894 133.728 407.646 133.728 410.518V410.534C133.728 413.398 132.15 415.158 129.602 415.158ZM129.602 413.879C131.295 413.879 132.25 412.643 132.25 410.534V410.518C132.25 408.401 131.295 407.172 129.602 407.172C127.909 407.172 126.954 408.401 126.954 410.518V410.534C126.954 412.643 127.909 413.879 129.602 413.879ZM136.338 415H134.554L138.413 410.285L134.686 406.052H136.421L139.551 409.82H140.082V406.052H141.476V409.82H142.008L145.137 406.052H146.847L143.145 410.252L147.03 415H145.22L142.008 410.899H141.476V415H140.082V410.899H139.551L136.338 415ZM152.131 415.158C149.574 415.158 148.03 413.365 148.03 410.559V410.551C148.03 407.787 149.607 405.894 152.039 405.894C154.471 405.894 155.949 407.704 155.949 410.376V410.941H149.508C149.549 412.792 150.57 413.871 152.164 413.871C153.376 413.871 154.123 413.298 154.364 412.759L154.397 412.684H155.841L155.825 412.75C155.517 413.962 154.239 415.158 152.131 415.158ZM152.031 407.181C150.703 407.181 149.69 408.085 149.533 409.787H154.48C154.33 408.019 153.351 407.181 152.031 407.181ZM164.055 415V410.949H159.622V415H158.178V406.052H159.622V409.754H164.055V406.052H165.499V415H164.055ZM168.168 415V406.052H169.612V412.726H169.745L174.17 406.052H175.614V415H174.17V408.326H174.037L169.612 415H168.168ZM183.039 415V411.796H181.52L179.237 415H177.536L180.034 411.53C178.773 411.173 178.009 410.244 178.009 409.023V409.007C178.009 407.172 179.32 406.052 181.371 406.052H184.483V415H183.039ZM181.371 410.601H183.039V407.247H181.371C180.192 407.247 179.486 407.895 179.486 408.974V408.99C179.486 409.928 180.2 410.601 181.371 410.601ZM188.256 415.083C187.667 415.083 187.177 414.593 187.177 414.004C187.177 413.406 187.667 412.925 188.256 412.925C188.854 412.925 189.335 413.406 189.335 414.004C189.335 414.593 188.854 415.083 188.256 415.083Z" fill="black"/>
<defs>
<filter id="filter0_d_1037_22316" x="0" y="116" width="363" height="86" filterUnits="userSpaceOnUse" color-interpolation-filters="sRGB">
<feFlood flood-opacity="0" result="BackgroundImageFix"/>
<feColorMatrix in="SourceAlpha" type="matrix" values="0 0 0 0 0 0 0 0 0 0 0 0 0 0 0 0 0 0 127 0" result="hardAlpha"/>
<feOffset dy="3"/>
<feGaussianBlur stdDeviation="0.5"/>
<feColorMatrix type="matrix" values="0 0 0 0 0 0 0 0 0 0 0 0 0 0 0 0 0 0 0.06 0"/>
<feBlend mode="normal" in2="BackgroundImageFix" result="effect1_dropShadow_1037_22316"/>
<feBlend mode="normal" in="SourceGraphic" in2="effect1_dropShadow_1037_22316" result="shape"/>
</filter>
<linearGradient id="paint0_linear_1037_22316" x1="181.5" y1="132" x2="181.5" y2="182" gradientUnits="userSpaceOnUse">
<stop stop-color="#FE5665"/>
<stop offset="1" stop-color="#DA3D4B"/>
</linearGradient>
<clipPath id="clip0_1037_22316">
<rect width="28" height="28" fill="white" transform="translate(236.9 143)"/>
</clipPath>
<clipPath id="clip1_1037_22316">
<rect width="28" height="28" fill="white" transform="translate(167.5 214)"/>
</clipPath>
</defs>
</svg>
