<svg width="363" height="324" viewBox="0 0 363 324" fill="none" xmlns="http://www.w3.org/2000/svg">
<path d="M89.4086 21.7832H87.7777V17.418H88.8227C89.848 16.8711 90.2289 15.6211 90.3363 13.7754L90.8734 4.9082H99.7895V17.418H101.547V21.7832H99.9164V19H89.4086V21.7832ZM91.9867 13.8145C91.8891 15.4062 91.6937 16.4707 91.0004 17.3008V17.418H98.0316V6.49023H92.4457L91.9867 13.8145ZM108.037 19.1855C105.039 19.1855 103.183 17.1152 103.183 13.7461V13.7266C103.183 10.3477 105.039 8.28711 108.037 8.28711C111.035 8.28711 112.89 10.3477 112.89 13.7266V13.7461C112.89 17.1152 111.035 19.1855 108.037 19.1855ZM108.037 17.6816C110.029 17.6816 111.152 16.2266 111.152 13.7461V13.7266C111.152 11.2363 110.029 9.79102 108.037 9.79102C106.045 9.79102 104.921 11.2363 104.921 13.7266V13.7461C104.921 16.2266 106.045 17.6816 108.037 17.6816ZM119.897 19.1953C116.675 19.1953 114.995 16.998 114.995 12.7793V12.7598C114.995 7.17383 116.548 4.79102 120.307 4.61523L121.362 4.56641C122.202 4.52734 123.198 4.37109 124.106 4V5.50391C123.774 5.81641 122.661 6.07031 121.44 6.12891L120.366 6.17773C117.915 6.28516 116.85 7.42773 116.46 10.2988L116.43 10.5137H116.587C117.3 9.25391 118.559 8.57031 120.151 8.57031C122.983 8.57031 124.8 10.5918 124.8 13.7656V13.7852C124.8 17.125 122.934 19.1953 119.897 19.1953ZM119.897 17.6914C121.909 17.6914 123.061 16.2559 123.061 13.7852V13.7656C123.061 11.4121 121.909 10.0742 119.897 10.0742C117.886 10.0742 116.733 11.4121 116.733 13.7656V13.7852C116.733 16.2559 117.886 17.6914 119.897 17.6914ZM127.432 22.5156V8.47266H129.131V10.1523H129.287C129.932 8.98047 131.104 8.28711 132.568 8.28711C135.234 8.28711 136.982 10.4453 136.982 13.7266V13.7461C136.982 17.0469 135.244 19.1855 132.568 19.1855C131.123 19.1855 129.863 18.4629 129.287 17.3398H129.131V22.5156H127.432ZM132.178 17.6816C134.102 17.6816 135.244 16.1973 135.244 13.7461V13.7266C135.244 11.2754 134.102 9.79102 132.178 9.79102C130.264 9.79102 129.092 11.2949 129.092 13.7266V13.7461C129.092 16.1777 130.264 17.6816 132.178 17.6816ZM143.96 19.1855C140.962 19.1855 139.107 17.1152 139.107 13.7461V13.7266C139.107 10.3477 140.962 8.28711 143.96 8.28711C146.958 8.28711 148.814 10.3477 148.814 13.7266V13.7461C148.814 17.1152 146.958 19.1855 143.96 19.1855ZM143.96 17.6816C145.952 17.6816 147.075 16.2266 147.075 13.7461V13.7266C147.075 11.2363 145.952 9.79102 143.96 9.79102C141.968 9.79102 140.845 11.2363 140.845 13.7266V13.7461C140.845 16.2266 141.968 17.6816 143.96 17.6816ZM156.861 19V8.47266H165.377V19H163.677V9.87891H158.56V19H156.861ZM172.852 19.1855C169.854 19.1855 167.999 17.1152 167.999 13.7461V13.7266C167.999 10.3477 169.854 8.28711 172.852 8.28711C175.85 8.28711 177.706 10.3477 177.706 13.7266V13.7461C177.706 17.1152 175.85 19.1855 172.852 19.1855ZM172.852 17.6816C174.845 17.6816 175.968 16.2266 175.968 13.7461V13.7266C175.968 11.2363 174.845 9.79102 172.852 9.79102C170.86 9.79102 169.737 11.2363 169.737 13.7266V13.7461C169.737 16.2266 170.86 17.6816 172.852 17.6816ZM180.777 19H178.678L183.219 13.4531L178.834 8.47266H180.875L184.557 12.9062H185.182V8.47266H186.822V12.9062H187.447L191.129 8.47266H193.141L188.785 13.4141L193.355 19H191.227L187.447 14.1758H186.822V19H185.182V14.1758H184.557L180.777 19ZM197.95 19.1855C195.948 19.1855 194.435 17.9746 194.435 16.0605V16.041C194.435 14.166 195.821 13.082 198.273 12.9355L201.29 12.75V11.793C201.29 10.4941 200.499 9.79102 198.927 9.79102C197.667 9.79102 196.837 10.2598 196.564 11.0801L196.554 11.1094H194.855L194.864 11.0508C195.138 9.40039 196.739 8.28711 198.986 8.28711C201.554 8.28711 202.989 9.60547 202.989 11.793V19H201.29V17.4473H201.134C200.47 18.5703 199.366 19.1855 197.95 19.1855ZM196.173 16.0215C196.173 17.0859 197.081 17.7109 198.302 17.7109C200.03 17.7109 201.29 16.5781 201.29 15.0742V14.1172L198.478 14.293C196.876 14.3906 196.173 14.957 196.173 16.002V16.0215ZM208.551 14.8789C208.327 17.7793 207.428 19.0977 205.67 19.0977C205.309 19.0977 205.036 19.0391 204.899 18.9902V17.457C204.987 17.4863 205.25 17.5254 205.504 17.5254C206.471 17.5254 206.862 16.3047 206.969 14.7422L207.418 8.47266H214.303V19H212.604V9.87891H208.942L208.551 14.8789ZM221.779 19.1855C218.781 19.1855 216.925 17.1152 216.925 13.7461V13.7266C216.925 10.3477 218.781 8.28711 221.779 8.28711C224.777 8.28711 226.632 10.3477 226.632 13.7266V13.7461C226.632 17.1152 224.777 19.1855 221.779 19.1855ZM221.779 17.6816C223.771 17.6816 224.894 16.2266 224.894 13.7461V13.7266C224.894 11.2363 223.771 9.79102 221.779 9.79102C219.787 9.79102 218.664 11.2363 218.664 13.7266V13.7461C218.664 16.2266 219.787 17.6816 221.779 17.6816ZM229.255 19V8.47266H233.718C235.71 8.47266 236.872 9.55664 236.872 11.207V11.2266C236.872 12.2715 236.139 13.2578 235.153 13.4629V13.6191C236.491 13.8047 237.341 14.7422 237.341 15.9629V15.9824C237.341 17.8086 236.003 19 233.737 19H229.255ZM230.954 12.9258H233.2C234.567 12.9258 235.182 12.3984 235.182 11.4023V11.3828C235.182 10.4844 234.655 9.87891 233.473 9.87891H230.954V12.9258ZM230.954 17.5938H233.669C234.958 17.5938 235.612 17.0078 235.612 15.9531V15.9336C235.612 14.8203 234.86 14.332 233.346 14.332H230.954V17.5938ZM242.912 19.1855C240.91 19.1855 239.396 17.9746 239.396 16.0605V16.041C239.396 14.166 240.783 13.082 243.234 12.9355L246.252 12.75V11.793C246.252 10.4941 245.461 9.79102 243.889 9.79102C242.629 9.79102 241.799 10.2598 241.525 11.0801L241.516 11.1094H239.816L239.826 11.0508C240.1 9.40039 241.701 8.28711 243.947 8.28711C246.516 8.28711 247.951 9.60547 247.951 11.793V19H246.252V17.4473H246.096C245.432 18.5703 244.328 19.1855 242.912 19.1855ZM241.135 16.0215C241.135 17.0859 242.043 17.7109 243.264 17.7109C244.992 17.7109 246.252 16.5781 246.252 15.0742V14.1172L243.439 14.293C241.838 14.3906 241.135 14.957 241.135 16.002V16.0215ZM258.669 8.47266V9.87891H255.261V19H253.562V9.87891H250.154V8.47266H258.669ZM260.92 19V8.47266H262.62V11.8516H264.68C267.092 11.8516 268.635 13.2383 268.635 15.416V15.4355C268.635 17.6133 267.092 19 264.68 19H260.92ZM264.68 13.2578H262.62V17.5938H264.68C266.067 17.5938 266.936 16.7344 266.936 15.4355V15.416C266.936 14.1074 266.057 13.2578 264.68 13.2578ZM271.677 14.3125L271.511 4.89844H273.464L273.298 14.3125H271.677ZM272.498 19.1758C271.707 19.1758 271.14 18.6094 271.14 17.8184C271.14 17.0176 271.707 16.4512 272.498 16.4512C273.289 16.4512 273.845 17.0176 273.845 17.8184C273.845 18.6094 273.289 19.1758 272.498 19.1758Z" fill="black"/>
<path d="M7.64062 73.2822C4.2041 73.2822 2.14551 70.8418 2.14551 67.0151V66.9985C2.14551 63.1553 4.25391 60.7397 7.64062 60.7397C11.0439 60.7397 13.1357 63.1636 13.1357 66.9985V67.0151C13.1357 70.8335 11.0605 73.2822 7.64062 73.2822ZM7.64062 71.9043C10.0977 71.9043 11.6084 69.9785 11.6084 67.0151V66.9985C11.6084 64.0103 10.0894 62.1177 7.64062 62.1177C5.2002 62.1177 3.67285 64.0103 3.67285 66.9985V67.0151C3.67285 69.9785 5.15039 71.9043 7.64062 71.9043ZM19.1996 73.1577C16.6928 73.1577 15.0907 71.3398 15.0907 68.501V68.4844C15.0907 65.7036 16.6845 63.894 19.1913 63.894C21.3661 63.894 22.6694 65.1475 22.935 66.7412L22.9433 66.791H21.5072L21.4989 66.7661C21.2748 65.8862 20.4779 65.1724 19.1913 65.1724C17.581 65.1724 16.5683 66.4673 16.5683 68.4844V68.501C16.5683 70.5596 17.5976 71.8794 19.1913 71.8794C20.3949 71.8794 21.1586 71.3481 21.4906 70.3521L21.5072 70.3022L22.935 70.2939L22.9184 70.3853C22.5531 72.0039 21.3495 73.1577 19.1996 73.1577ZM30.9163 73V68.9492H26.4837V73H25.0394V64.0518H26.4837V67.7539H30.9163V64.0518H32.3607V73H30.9163ZM38.7151 73.1577C36.1668 73.1577 34.5896 71.3979 34.5896 68.5342V68.5176C34.5896 65.6455 36.1668 63.894 38.7151 63.894C41.2634 63.894 42.8406 65.6455 42.8406 68.5176V68.5342C42.8406 71.3979 41.2634 73.1577 38.7151 73.1577ZM38.7151 71.8794C40.4085 71.8794 41.363 70.6426 41.363 68.5342V68.5176C41.363 66.4009 40.4085 65.1724 38.7151 65.1724C37.0217 65.1724 36.0672 66.4009 36.0672 68.5176V68.5342C36.0672 70.6426 37.0217 71.8794 38.7151 71.8794ZM45.0695 73V64.0518H48.863C50.5563 64.0518 51.5441 64.9731 51.5441 66.376V66.3926C51.5441 67.2808 50.9216 68.1191 50.0832 68.2935V68.4263C51.2204 68.584 51.9426 69.3809 51.9426 70.4185V70.4351C51.9426 71.9873 50.8054 73 48.8796 73H45.0695ZM46.5138 67.8369H48.423C49.5851 67.8369 50.1081 67.3887 50.1081 66.542V66.5254C50.1081 65.7617 49.6598 65.2471 48.6554 65.2471H46.5138V67.8369ZM46.5138 71.8047H48.8215C49.9172 71.8047 50.4733 71.3066 50.4733 70.4102V70.3936C50.4733 69.4473 49.8342 69.0322 48.5475 69.0322H46.5138V71.8047ZM60.0899 73V68.9492H55.6573V73H54.213V64.0518H55.6573V67.7539H60.0899V64.0518H61.5343V73H60.0899ZM64.2031 73V64.0518H65.6475V66.9238H67.3989C69.4492 66.9238 70.7608 68.1025 70.7608 69.9536V69.9702C70.7608 71.8213 69.4492 73 67.3989 73H64.2031ZM72.3213 73V64.0518H73.7656V73H72.3213ZM67.3989 68.1191H65.6475V71.8047H67.3989C68.5777 71.8047 69.3164 71.0742 69.3164 69.9702V69.9536C69.3164 68.8413 68.5694 68.1191 67.3989 68.1191ZM80.0952 73.1577C77.5385 73.1577 75.9946 71.3647 75.9946 68.5591V68.5508C75.9946 65.7866 77.5717 63.894 80.0038 63.894C82.436 63.894 83.9135 65.7036 83.9135 68.3765V68.9409H77.4721C77.5136 70.792 78.5346 71.8711 80.1284 71.8711C81.3403 71.8711 82.0873 71.2983 82.3281 70.7588L82.3613 70.6841H83.8056L83.789 70.7505C83.4819 71.9624 82.2036 73.1577 80.0952 73.1577ZM79.9955 65.1807C78.6674 65.1807 77.6547 66.0854 77.497 67.7871H82.4443C82.2949 66.019 81.3154 65.1807 79.9955 65.1807ZM94.929 75.9883V73.1079C92.1565 73.0581 90.3138 71.2817 90.3138 68.5342V68.5176C90.3138 65.7617 92.1565 63.9854 94.929 63.9438V61.022H96.3235V63.9438C99.0877 63.9937 100.93 65.7617 100.93 68.5176V68.5342C100.93 71.29 99.0877 73.0664 96.3235 73.1079V75.9883H94.929ZM94.929 71.8711V65.1807C92.9949 65.2222 91.7664 66.4839 91.7664 68.5176V68.5342C91.7664 70.5596 92.9949 71.8213 94.929 71.8711ZM96.3235 71.8711C98.2493 71.8296 99.4778 70.5679 99.4778 68.5342V68.5176C99.4778 66.4922 98.2493 65.2305 96.3235 65.1807V71.8711ZM103.608 76.1377C103.417 76.1377 103.168 76.1211 102.968 76.0879V74.9009C103.143 74.9341 103.367 74.9424 103.566 74.9424C104.388 74.9424 104.886 74.5688 105.21 73.5396L105.376 73.0083L102.064 64.0518H103.608L106.065 71.4146H106.197L108.646 64.0518H110.165L106.671 73.5479C105.932 75.5566 105.193 76.1377 103.608 76.1377ZM117.939 73V68.9492H113.506V73H112.062V64.0518H113.506V67.7539H117.939V64.0518H119.383V73H117.939ZM123.953 68.9243H123.497V73H122.052V64.0518H123.497V67.7954H123.953L127.415 64.0518H129.149L125.124 68.2686L129.307 73H127.456L123.953 68.9243ZM138.417 75.3657V73H131.129V64.0518H132.574V71.8047H136.923V64.0518H138.368V71.8047H139.795V75.3657H138.417ZM141.501 73V64.0518H142.946V70.7256H143.078L147.503 64.0518H148.947V73H147.503V66.3262H147.37L142.946 73H141.501ZM151.624 73V64.0518H153.069V70.7256H153.201L157.626 64.0518H159.07V73H157.626V66.3262H157.493L153.069 73H151.624ZM168.459 69.4971C168.268 71.9624 167.504 73.083 166.01 73.083C165.703 73.083 165.47 73.0332 165.354 72.9917V71.6885C165.429 71.7134 165.653 71.7466 165.869 71.7466C166.691 71.7466 167.023 70.709 167.114 69.3809L167.496 64.0518H173.348V73H171.903V65.2471H168.791L168.459 69.4971ZM179.677 73.1577C177.121 73.1577 175.577 71.3647 175.577 68.5591V68.5508C175.577 65.7866 177.154 63.894 179.586 63.894C182.018 63.894 183.496 65.7036 183.496 68.3765V68.9409H177.054C177.096 70.792 178.117 71.8711 179.711 71.8711C180.922 71.8711 181.669 71.2983 181.91 70.7588L181.943 70.6841H183.388L183.371 70.7505C183.064 71.9624 181.786 73.1577 179.677 73.1577ZM179.578 65.1807C178.25 65.1807 177.237 66.0854 177.079 67.7871H182.026C181.877 66.019 180.898 65.1807 179.578 65.1807ZM191.452 65.2471H187.169V73H185.725V64.0518H191.452V65.2471ZM195.358 68.9243H194.901V73H193.457V64.0518H194.901V67.7954H195.358L198.819 64.0518H200.554L196.528 68.2686L200.712 73H198.861L195.358 68.9243ZM205.805 73.1577C203.256 73.1577 201.679 71.3979 201.679 68.5342V68.5176C201.679 65.6455 203.256 63.894 205.805 63.894C208.353 63.894 209.93 65.6455 209.93 68.5176V68.5342C209.93 71.3979 208.353 73.1577 205.805 73.1577ZM205.805 71.8794C207.498 71.8794 208.452 70.6426 208.452 68.5342V68.5176C208.452 66.4009 207.498 65.1724 205.805 65.1724C204.111 65.1724 203.157 66.4009 203.157 68.5176V68.5342C203.157 70.6426 204.111 71.8794 205.805 71.8794ZM222.647 73V68.9492H218.215V73H216.77V64.0518H218.215V67.7539H222.647V64.0518H224.091V73H222.647ZM229.226 73.1577C227.524 73.1577 226.237 72.1284 226.237 70.5015V70.4849C226.237 68.8911 227.416 67.9697 229.5 67.8452L232.065 67.6875V66.874C232.065 65.77 231.392 65.1724 230.056 65.1724C228.985 65.1724 228.279 65.5708 228.047 66.2681L228.039 66.293H226.594L226.603 66.2432C226.835 64.8403 228.196 63.894 230.106 63.894C232.289 63.894 233.509 65.0146 233.509 66.874V73H232.065V71.6802H231.932C231.367 72.6348 230.429 73.1577 229.226 73.1577ZM227.715 70.4683C227.715 71.373 228.487 71.9043 229.524 71.9043C230.994 71.9043 232.065 70.9414 232.065 69.6631V68.8496L229.674 68.999C228.313 69.082 227.715 69.5635 227.715 70.4517V70.4683ZM239.863 62.8066C238.153 62.8066 237.016 61.6279 237.016 60.084H238.311C238.311 60.9888 238.9 61.8271 239.863 61.8271C240.843 61.8271 241.416 60.9888 241.416 60.084H242.71C242.71 61.6279 241.573 62.8066 239.863 62.8066ZM236.136 73V64.0518H237.581V70.7256H237.713L242.138 64.0518H243.582V73H242.138V66.3262H242.005L237.581 73H236.136ZM252.742 64.0518V65.2471H249.845V73H248.401V65.2471H245.504V64.0518H252.742ZM254.656 73V64.0518H256.1V70.7256H256.233L260.657 64.0518H262.101V73H260.657V66.3262H260.524L256.1 73H254.656ZM275.267 73V68.9492H270.834V73H269.39V64.0518H270.834V67.7539H275.267V64.0518H276.711V73H275.267ZM281.845 73.1577C280.144 73.1577 278.857 72.1284 278.857 70.5015V70.4849C278.857 68.8911 280.036 67.9697 282.119 67.8452L284.684 67.6875V66.874C284.684 65.77 284.012 65.1724 282.675 65.1724C281.605 65.1724 280.899 65.5708 280.667 66.2681L280.658 66.293H279.214L279.222 66.2432C279.455 64.8403 280.816 63.894 282.725 63.894C284.908 63.894 286.129 65.0146 286.129 66.874V73H284.684V71.6802H284.551C283.987 72.6348 283.049 73.1577 281.845 73.1577ZM280.335 70.4683C280.335 71.373 281.107 71.9043 282.144 71.9043C283.613 71.9043 284.684 70.9414 284.684 69.6631V68.8496L282.294 68.999C280.932 69.082 280.335 69.5635 280.335 70.4517V70.4683ZM293.367 73V64.0518H300.605V73H299.161V65.2471H294.811V73H293.367ZM305.74 73.1577C304.038 73.1577 302.751 72.1284 302.751 70.5015V70.4849C302.751 68.8911 303.93 67.9697 306.014 67.8452L308.578 67.6875V66.874C308.578 65.77 307.906 65.1724 306.57 65.1724C305.499 65.1724 304.793 65.5708 304.561 66.2681L304.553 66.293H303.108L303.117 66.2432C303.349 64.8403 304.71 63.894 306.62 63.894C308.803 63.894 310.023 65.0146 310.023 66.874V73H308.578V71.6802H308.446C307.881 72.6348 306.943 73.1577 305.74 73.1577ZM304.229 70.4683C304.229 71.373 305.001 71.9043 306.038 71.9043C307.508 71.9043 308.578 70.9414 308.578 69.6631V68.8496L306.188 68.999C304.827 69.082 304.229 69.5635 304.229 70.4517V70.4683ZM318.527 73V68.9492H314.095V73H312.65V64.0518H314.095V67.7539H318.527V64.0518H319.971V73H318.527ZM326.301 73.1577C323.744 73.1577 322.2 71.3647 322.2 68.5591V68.5508C322.2 65.7866 323.778 63.894 326.21 63.894C328.642 63.894 330.119 65.7036 330.119 68.3765V68.9409H323.678C323.719 70.792 324.74 71.8711 326.334 71.8711C327.546 71.8711 328.293 71.2983 328.534 70.7588L328.567 70.6841H330.011L329.995 70.7505C329.688 71.9624 328.409 73.1577 326.301 73.1577ZM326.201 65.1807C324.873 65.1807 323.861 66.0854 323.703 67.7871H328.65C328.501 66.019 327.521 65.1807 326.201 65.1807ZM334.199 69.4971C334.008 71.9624 333.245 73.083 331.751 73.083C331.443 73.083 331.211 73.0332 331.095 72.9917V71.6885C331.17 71.7134 331.394 71.7466 331.609 71.7466C332.431 71.7466 332.763 70.709 332.855 69.3809L333.236 64.0518H339.089V73H337.644V65.2471H334.531L334.199 69.4971ZM341.757 73V64.0518H343.202V70.7256H343.335L347.759 64.0518H349.203V73H347.759V66.3262H347.626L343.202 73H341.757ZM8.29639 95V90.9492H3.86377V95H2.41943V86.0518H3.86377V89.7539H8.29639V86.0518H9.74072V95H8.29639ZM14.8749 95.1577C13.1733 95.1577 11.8866 94.1284 11.8866 92.5015V92.4849C11.8866 90.8911 13.0654 89.9697 15.1488 89.8452L17.7138 89.6875V88.874C17.7138 87.77 17.0414 87.1724 15.705 87.1724C14.6342 87.1724 13.9286 87.5708 13.6962 88.2681L13.6879 88.293H12.2436L12.2519 88.2432C12.4843 86.8403 13.8456 85.894 15.7548 85.894C17.9379 85.894 19.1581 87.0146 19.1581 88.874V95H17.7138V93.6802H17.581C17.0165 94.6348 16.0785 95.1577 14.8749 95.1577ZM13.3642 92.4683C13.3642 93.373 14.1362 93.9043 15.1737 93.9043C16.643 93.9043 17.7138 92.9414 17.7138 91.6631V90.8496L15.3232 90.999C13.9618 91.082 13.3642 91.5635 13.3642 92.4517V92.4683ZM21.7855 95V86.0518H25.5789C27.2723 86.0518 28.2601 86.9731 28.2601 88.376V88.3926C28.2601 89.2808 27.6375 90.1191 26.7992 90.2935V90.4263C27.9364 90.584 28.6585 91.3809 28.6585 92.4185V92.4351C28.6585 93.9873 27.5213 95 25.5955 95H21.7855ZM23.2298 89.8369H25.139C26.3011 89.8369 26.8241 89.3887 26.8241 88.542V88.5254C26.8241 87.7617 26.3758 87.2471 25.3714 87.2471H23.2298V89.8369ZM23.2298 93.8047H25.5374C26.6331 93.8047 27.1893 93.3066 27.1893 92.4102V92.3936C27.1893 91.4473 26.5501 91.0322 25.2635 91.0322H23.2298V93.8047ZM30.929 95V86.0518H32.3733V92.7256H32.5061L36.9304 86.0518H38.3748V95H36.9304V88.3262H36.7976L32.3733 95H30.929ZM46.7795 87.2471H42.4963V95H41.0519V86.0518H46.7795V87.2471ZM51.0006 95.1577C49.2989 95.1577 48.0123 94.1284 48.0123 92.5015V92.4849C48.0123 90.8911 49.191 89.9697 51.2745 89.8452L53.8395 89.6875V88.874C53.8395 87.77 53.1671 87.1724 51.8307 87.1724C50.7599 87.1724 50.0543 87.5708 49.8219 88.2681L49.8136 88.293H48.3692L48.3775 88.2432C48.61 86.8403 49.9713 85.894 51.8805 85.894C54.0636 85.894 55.2838 87.0146 55.2838 88.874V95H53.8395V93.6802H53.7066C53.1422 94.6348 52.2042 95.1577 51.0006 95.1577ZM49.4898 92.4683C49.4898 93.373 50.2618 93.9043 51.2994 93.9043C52.7687 93.9043 53.8395 92.9414 53.8395 91.6631V90.8496L51.4488 90.999C50.0875 91.082 49.4898 91.5635 49.4898 92.4517V92.4683ZM65.1992 97.3657V95H57.9112V86.0518H59.3555V93.8047H63.7051V86.0518H65.1494V93.8047H66.5772V97.3657H65.1992ZM68.2831 95V86.0518H69.7275V92.7256H69.8603L74.2846 86.0518H75.7289V95H74.2846V88.3262H74.1518L69.7275 95H68.2831ZM78.4061 95V86.0518H79.8504V92.7256H79.9833L84.4076 86.0518H85.8519V95H84.4076V88.3262H84.2748L79.8504 95H78.4061ZM93.1403 95V86.0518H96.9338C98.6272 86.0518 99.6149 86.9731 99.6149 88.376V88.3926C99.6149 89.2808 98.9924 90.1191 98.154 90.2935V90.4263C99.2912 90.584 100.013 91.3809 100.013 92.4185V92.4351C100.013 93.9873 98.8762 95 96.9504 95H93.1403ZM94.5847 89.8369H96.4939C97.656 89.8369 98.1789 89.3887 98.1789 88.542V88.5254C98.1789 87.7617 97.7307 87.2471 96.7263 87.2471H94.5847V89.8369ZM94.5847 93.8047H96.8923C97.988 93.8047 98.5441 93.3066 98.5441 92.4102V92.3936C98.5441 91.4473 97.905 91.0322 96.6184 91.0322H94.5847V93.8047ZM108.161 95V90.9492H103.728V95H102.284V86.0518H103.728V89.7539H108.161V86.0518H109.605V95H108.161ZM112.274 95V86.0518H113.718V92.7256H113.851L118.275 86.0518H119.72V95H118.275V88.3262H118.143L113.718 95H112.274ZM125.443 95.166C123.534 95.166 122.082 94.2197 121.899 92.7754L121.891 92.709H123.36L123.376 92.7754C123.559 93.5059 124.356 93.9707 125.443 93.9707C126.763 93.9707 127.543 93.3315 127.543 92.4434V92.4268C127.543 91.4556 126.813 91.0073 125.443 91.0073H124.049V89.812H125.443C126.589 89.812 127.228 89.3555 127.228 88.4258V88.4092C127.228 87.6455 126.639 87.0811 125.493 87.0811C124.472 87.0811 123.7 87.5376 123.559 88.2515L123.551 88.293H122.14L122.148 88.2349C122.355 86.7988 123.667 85.8857 125.493 85.8857C127.494 85.8857 128.639 86.8735 128.639 88.3013V88.3179C128.639 89.2227 128.05 90.0444 127.162 90.252V90.3848C128.34 90.6421 128.963 91.356 128.963 92.3521V92.3687C128.963 94.0288 127.527 95.166 125.443 95.166ZM131.632 98.1377C131.441 98.1377 131.192 98.1211 130.993 98.0879V96.9009C131.167 96.9341 131.391 96.9424 131.59 96.9424C132.412 96.9424 132.91 96.5688 133.234 95.5396L133.4 95.0083L130.088 86.0518H131.632L134.089 93.4146H134.222L136.67 86.0518H138.189L134.695 95.5479C133.956 97.5566 133.217 98.1377 131.632 98.1377ZM147.835 95.166C145.694 95.166 144.349 93.9624 144.075 92.3438L144.067 92.2939H145.511L145.528 92.3521C145.81 93.3398 146.648 93.8877 147.843 93.8877C149.338 93.8877 150.367 92.7256 150.491 90.9741H146.333V89.7788H150.467C150.292 88.1685 149.246 87.1641 147.843 87.1641C146.59 87.1641 145.801 87.8447 145.544 88.6831L145.511 88.791H144.067L144.092 88.6582C144.382 87.1143 145.718 85.8857 147.843 85.8857C150.35 85.8857 151.986 87.6953 151.986 90.4844V90.501C151.986 93.3481 150.342 95.166 147.835 95.166ZM156.107 90.9243H155.651V95H154.206V86.0518H155.651V89.7954H156.107L159.568 86.0518H161.303L157.277 90.2686L161.461 95H159.61L156.107 90.9243ZM163.292 97.9883V86.0518H164.736V87.4795H164.869C165.417 86.4834 166.413 85.894 167.658 85.894C169.924 85.894 171.41 87.7285 171.41 90.5176V90.5342C171.41 93.3398 169.932 95.1577 167.658 95.1577C166.429 95.1577 165.358 94.5435 164.869 93.5889H164.736V97.9883H163.292ZM167.326 93.8794C168.961 93.8794 169.932 92.6177 169.932 90.5342V90.5176C169.932 88.4341 168.961 87.1724 167.326 87.1724C165.699 87.1724 164.703 88.4507 164.703 90.5176V90.5342C164.703 92.6011 165.699 93.8794 167.326 93.8794ZM176.121 95.1577C174.419 95.1577 173.132 94.1284 173.132 92.5015V92.4849C173.132 90.8911 174.311 89.9697 176.395 89.8452L178.959 89.6875V88.874C178.959 87.77 178.287 87.1724 176.951 87.1724C175.88 87.1724 175.174 87.5708 174.942 88.2681L174.934 88.293H173.489L173.498 88.2432C173.73 86.8403 175.091 85.894 177 85.894C179.184 85.894 180.404 87.0146 180.404 88.874V95H178.959V93.6802H178.827C178.262 94.6348 177.324 95.1577 176.121 95.1577ZM174.61 92.4683C174.61 93.373 175.382 93.9043 176.419 93.9043C177.889 93.9043 178.959 92.9414 178.959 91.6631V90.8496L176.569 90.999C175.208 91.082 174.61 91.5635 174.61 92.4517V92.4683ZM188.908 95V90.9492H184.475V95H183.031V86.0518H184.475V89.7539H188.908V86.0518H190.352V95H188.908ZM195.487 95.1577C193.785 95.1577 192.498 94.1284 192.498 92.5015V92.4849C192.498 90.8911 193.677 89.9697 195.761 89.8452L198.326 89.6875V88.874C198.326 87.77 197.653 87.1724 196.317 87.1724C195.246 87.1724 194.54 87.5708 194.308 88.2681L194.3 88.293H192.855L192.864 88.2432C193.096 86.8403 194.457 85.894 196.367 85.894C198.55 85.894 199.77 87.0146 199.77 88.874V95H198.326V93.6802H198.193C197.628 94.6348 196.69 95.1577 195.487 95.1577ZM193.976 92.4683C193.976 93.373 194.748 93.9043 195.785 93.9043C197.255 93.9043 198.326 92.9414 198.326 91.6631V90.8496L195.935 90.999C194.574 91.082 193.976 91.5635 193.976 92.4517V92.4683ZM203.501 88.6582C202.912 88.6582 202.422 88.1685 202.422 87.5791C202.422 86.9814 202.912 86.5 203.501 86.5C204.099 86.5 204.58 86.9814 204.58 87.5791C204.58 88.1685 204.099 88.6582 203.501 88.6582ZM203.501 95.083C202.912 95.083 202.422 94.5933 202.422 94.0039C202.422 93.4062 202.912 92.9248 203.501 92.9248C204.099 92.9248 204.58 93.4062 204.58 94.0039C204.58 94.5933 204.099 95.083 203.501 95.083Z" fill="black"/>
<g filter="url(#filter0_d_1037_22784)">
<rect x="1" y="116" width="361" height="82" rx="24" fill="white"/>
<path d="M38.5166 166.463C39.0176 166.463 39.3867 166.217 39.9932 165.681L43.0078 163.026H48.2988C50.9443 163.026 52.4297 161.497 52.4297 158.887V152.058C52.4297 149.447 50.9443 147.918 48.2988 147.918H37.0928C34.4561 147.918 32.9619 149.447 32.9619 152.058V158.887C32.9619 161.506 34.5 163.026 37.0312 163.026H37.3916V165.18C37.3916 165.962 37.8047 166.463 38.5166 166.463ZM38.9561 164.494V161.989C38.9561 161.471 38.7275 161.269 38.2354 161.269H37.1543C35.502 161.269 34.7109 160.434 34.7109 158.834V152.11C34.7109 150.511 35.502 149.676 37.1543 149.676H48.2461C49.8896 149.676 50.6807 150.511 50.6807 152.11V158.834C50.6807 160.434 49.8896 161.269 48.2461 161.269H42.9111C42.375 161.269 42.1113 161.356 41.7422 161.743L38.9561 164.494Z" fill="#808080"/>
<path d="M112.092 165.162C112.32 165.162 112.654 164.986 112.927 164.811C117.84 161.646 120.986 157.938 120.986 154.185C120.986 150.941 118.745 148.691 115.941 148.691C114.192 148.691 112.883 149.658 112.092 151.1C111.318 149.658 110 148.691 108.251 148.691C105.438 148.691 103.197 150.941 103.197 154.185C103.197 157.938 106.353 161.646 111.257 164.811C111.529 164.986 111.863 165.162 112.092 165.162Z" fill="#F41B1B"/>
<rect x="156.5" y="132" width="50" height="50" rx="25" fill="#B3B3B3"/>
<path d="M178.072 163.376C177.088 163.376 176.174 163.224 175.332 162.921C174.502 162.605 173.779 162.161 173.162 161.589C172.557 161.017 172.083 160.346 171.739 159.575C171.395 158.792 171.223 157.934 171.223 157C171.223 156.066 171.395 155.213 171.739 154.443C172.083 153.66 172.557 152.983 173.162 152.411C173.779 151.839 174.502 151.401 175.332 151.097C176.174 150.782 177.088 150.624 178.072 150.624C179.222 150.624 180.248 150.823 181.15 151.22C182.063 151.617 182.822 152.189 183.427 152.936L181.185 154.933C180.782 154.466 180.337 154.11 179.851 153.865C179.377 153.619 178.843 153.497 178.25 153.497C177.74 153.497 177.271 153.578 176.844 153.742C176.417 153.905 176.05 154.145 175.741 154.46C175.445 154.764 175.208 155.132 175.03 155.564C174.864 155.996 174.781 156.475 174.781 157C174.781 157.525 174.864 158.004 175.03 158.436C175.208 158.868 175.445 159.242 175.741 159.557C176.05 159.861 176.417 160.095 176.844 160.258C177.271 160.422 177.74 160.503 178.25 160.503C178.843 160.503 179.377 160.381 179.851 160.135C180.337 159.89 180.782 159.534 181.185 159.067L183.427 161.064C182.822 161.799 182.063 162.372 181.15 162.78C180.248 163.177 179.222 163.376 178.072 163.376Z" fill="white"/>
<path fill-rule="evenodd" clip-rule="evenodd" d="M191.777 161.657C191.777 163.21 189.841 163.964 188.757 162.833L182.143 155.934L184.37 153.876L188.718 158.412L188.718 150.624L191.777 150.624L191.777 161.657Z" fill="white"/>
<circle cx="181.5" cy="157" r="21.5" stroke="white"/>
<g clip-path="url(#clip0_1037_22784)">
<path d="M260.726 150.335H258.69C257.754 149.704 256.558 149.228 255.072 149.228H249.513C249.163 149.228 248.821 149.33 248.528 149.522L246.805 150.648C246.805 150.648 245.367 151.588 244.701 152.121C244.431 152.343 244.211 152.551 244.106 152.711C243.598 153.449 243.783 154.297 244.308 154.822C245.156 155.67 246.154 155.223 246.415 155.077L248.637 153.796C248.836 153.684 248.985 153.693 249.161 153.818L257.486 159.723C257.76 159.918 257.814 160.244 257.633 160.508C257.44 160.769 257.122 160.819 256.848 160.623L251.135 156.57C250.844 156.365 250.455 156.452 250.252 156.731C250.055 157.018 250.11 157.407 250.394 157.616L255.662 161.352C255.636 161.498 255.566 161.675 255.48 161.798C255.251 162.117 254.901 162.167 254.573 161.923L249.472 158.307C249.176 158.095 248.792 158.19 248.595 158.476C248.399 158.75 248.443 159.137 248.734 159.341L253.454 162.686C253.42 162.838 253.345 163.007 253.259 163.13C253.031 163.449 252.688 163.494 252.357 163.263L247.822 160.047C247.525 159.835 247.135 159.934 246.932 160.213C246.744 160.482 246.785 160.881 247.081 161.093L251.214 164.021C250.805 164.603 249.999 164.519 248.987 163.797L244.054 160.3C243.415 159.849 241.413 158.359 241.413 155.998C241.413 153.772 242.499 151.833 246.134 149.57L246.676 149.232C245.216 149.243 244.038 149.713 243.113 150.335H241.075C238.711 150.335 236.9 152.858 236.9 155.995C236.9 159.08 238.878 161.62 241.409 161.62H243.47L248.224 164.998C249.919 166.198 251.524 166.093 252.537 164.73C253.204 164.921 253.872 164.683 254.308 164.061C254.453 163.854 254.557 163.633 254.631 163.4C255.364 163.609 256.069 163.378 256.514 162.739C256.655 162.539 256.758 162.319 256.789 162.059C257.461 162.211 258.111 161.99 258.584 161.441C259.054 160.894 259.232 159.94 258.898 159.302C258.749 159.016 258.529 158.751 258.222 158.53L250.117 152.789L249.288 152.202C249.09 152.062 248.88 152.065 248.651 152.202L245.747 154.018C245.448 154.215 245.148 154.162 244.979 153.994C244.767 153.781 244.773 153.405 245.182 153.103L248.4 150.832C248.562 150.717 248.769 150.648 248.968 150.648H255.072C257.007 150.648 258.639 152.03 259.345 153.028C260.596 154.796 260.689 156.626 259.69 158.261C260.879 159.836 259.966 161.55 259.93 161.62H260.392C262.923 161.62 264.9 159.08 264.9 155.995C264.9 152.858 263.09 150.335 260.726 150.335ZM241.321 160.074C239.783 160.021 238.474 158.21 238.474 155.995C238.474 153.763 239.625 151.97 240.952 151.917H241.432C241.378 151.988 241.317 152.06 241.268 152.129C240.378 153.387 239.933 154.701 239.933 155.984C239.933 157.336 240.437 158.768 241.635 160.076C241.53 160.075 241.424 160.074 241.321 160.074ZM261.674 159.646C261.633 159.18 261.52 158.729 261.335 158.309C262.23 156.352 261.975 154.167 260.533 152.129C260.484 152.06 260.422 151.988 260.369 151.917H260.849C262.176 151.97 263.327 153.763 263.327 155.995C263.327 157.599 262.637 158.98 261.674 159.646Z" fill="#808080"/>
</g>
<path d="M320.3 156.848C322.427 156.848 324.149 154.967 324.149 152.664C324.149 150.396 322.427 148.595 320.3 148.595C318.182 148.595 316.441 150.423 316.45 152.682C316.459 154.976 318.173 156.848 320.3 156.848ZM320.3 155.31C319.087 155.31 318.059 154.158 318.059 152.682C318.05 151.24 319.078 150.133 320.3 150.133C321.53 150.133 322.541 151.223 322.541 152.664C322.541 154.141 321.521 155.31 320.3 155.31ZM314.815 165.021H325.775C327.296 165.021 328.025 164.538 328.025 163.501C328.025 161.084 325.011 157.867 320.3 157.867C315.589 157.867 312.565 161.084 312.565 163.501C312.565 164.538 313.295 165.021 314.815 165.021ZM314.543 163.483C314.332 163.483 314.253 163.413 314.253 163.255C314.253 161.91 316.424 159.405 320.3 159.405C324.167 159.405 326.338 161.91 326.338 163.255C326.338 163.413 326.259 163.483 326.048 163.483H314.543Z" fill="#808080"/>
</g>
<g clip-path="url(#clip1_1037_22784)">
<path d="M116.908 236.004C112.927 236.004 110.976 234.36 110.976 230.361V224.578L111.046 222.284L109.464 224.033L106.73 226.775C106.563 226.942 106.317 227.057 106.054 227.057C105.526 227.057 105.131 226.652 105.131 226.107C105.131 225.861 105.228 225.633 105.43 225.422L111.222 219.621C111.415 219.428 111.67 219.313 111.934 219.313C112.197 219.313 112.461 219.428 112.654 219.621L118.438 225.422C118.64 225.633 118.736 225.861 118.736 226.107C118.736 226.652 118.35 227.057 117.822 227.057C117.55 227.057 117.312 226.942 117.137 226.775L114.403 224.033L112.821 222.275L112.9 224.578L112.892 230.238C112.883 233.121 114.131 234.105 116.97 234.105C117.444 234.105 117.787 234.079 118.112 234.079C118.675 234.079 119.07 234.431 119.07 234.993C119.07 235.573 118.622 235.846 118.209 235.925C117.857 235.995 117.409 236.004 116.908 236.004Z" fill="#0080FF"/>
</g>
<path d="M66.2464 259V247.022H68.3797V255.539H68.5291L74.3231 247.022H76.3734V259H74.2484V250.5H74.0989L68.305 259H66.2464ZM82.5203 259.191C80.4617 259.191 78.8264 258.261 78.6272 256.501L78.6189 256.427H80.6277L80.6443 256.485C80.8352 257.182 81.5242 257.589 82.4954 257.589C83.6243 257.589 84.2883 257.066 84.2883 256.319V256.302C84.2883 255.497 83.6575 255.09 82.4871 255.09H81.1838V253.696H82.4788C83.5329 253.696 84.031 253.264 84.031 252.517V252.5C84.031 251.845 83.5246 251.347 82.5037 251.347C81.574 251.347 80.9514 251.77 80.8269 252.426L80.8186 252.467H78.8596L78.8679 252.401C79.0754 250.815 80.3454 249.745 82.5701 249.745C84.72 249.745 86.0481 250.716 86.0481 252.251V252.268C86.0481 253.223 85.4421 253.961 84.4626 254.186V254.327C85.7244 254.576 86.3386 255.306 86.3386 256.319V256.335C86.3386 258.021 84.8528 259.191 82.5203 259.191ZM92.3361 259.191C89.4474 259.191 87.9118 257.249 87.9118 253.671V253.654C87.9118 248.931 89.3561 246.781 92.6764 246.648L93.7472 246.607C94.486 246.582 95.3991 246.449 96.1213 246.192V247.86C95.7809 248.084 94.8346 248.267 93.8634 248.309L92.8258 248.35C90.7755 248.425 89.8625 249.354 89.5553 251.621L89.5304 251.787H89.6798C90.2692 250.699 91.3234 250.102 92.7262 250.102C95.1501 250.102 96.7106 251.812 96.7106 254.468V254.484C96.7106 257.365 95.0421 259.191 92.3361 259.191ZM92.3112 257.514C93.7638 257.514 94.6022 256.385 94.6022 254.526V254.509C94.6022 252.741 93.7638 251.72 92.3112 251.72C90.8586 251.72 90.0119 252.741 90.0119 254.509V254.526C90.0119 256.394 90.8503 257.514 92.3112 257.514ZM98.8067 262.013V249.927H100.874V251.347H101.015C101.513 250.359 102.501 249.778 103.771 249.778C106.045 249.778 107.498 251.587 107.498 254.459V254.476C107.498 257.365 106.07 259.149 103.771 259.149C102.525 259.149 101.488 258.535 101.015 257.556H100.874V262.013H98.8067ZM103.123 257.406C104.534 257.406 105.389 256.294 105.389 254.476V254.459C105.389 252.633 104.534 251.521 103.123 251.521C101.72 251.521 100.849 252.633 100.849 254.451V254.468C100.849 256.286 101.72 257.406 103.123 257.406ZM112.051 259.149C110.324 259.149 109.071 258.087 109.071 256.435V256.418C109.071 254.8 110.308 253.854 112.516 253.721L114.848 253.58V252.799C114.848 251.895 114.259 251.396 113.146 251.396C112.2 251.396 111.586 251.737 111.378 252.334L111.37 252.368H109.419L109.428 252.293C109.627 250.766 111.088 249.753 113.246 249.753C115.579 249.753 116.89 250.882 116.89 252.799V259H114.848V257.755H114.707C114.209 258.635 113.246 259.149 112.051 259.149ZM111.113 256.335C111.113 257.107 111.769 257.564 112.682 257.564C113.927 257.564 114.848 256.75 114.848 255.671V254.941L112.806 255.074C111.652 255.148 111.113 255.572 111.113 256.319V256.335ZM125.253 259V255.124H121.427V259H119.36V249.927H121.427V253.521H125.253V249.927H127.32V259H125.253ZM135.725 259V255.124H131.898V259H129.831V249.927H131.898V253.521H135.725V249.927H137.792V259H135.725ZM144.229 259.183C141.507 259.183 139.863 257.406 139.863 254.468V254.451C139.863 251.538 141.532 249.753 144.229 249.753C146.935 249.753 148.595 251.529 148.595 254.451V254.468C148.595 257.406 146.944 259.183 144.229 259.183ZM144.229 257.506C145.665 257.506 146.479 256.385 146.479 254.476V254.459C146.479 252.55 145.657 251.421 144.229 251.421C142.793 251.421 141.971 252.55 141.971 254.459V254.476C141.971 256.385 142.793 257.506 144.229 257.506ZM154.551 259.183C151.854 259.183 150.218 257.373 150.218 254.484V254.476C150.218 251.621 151.87 249.753 154.452 249.753C157.033 249.753 158.627 251.562 158.627 254.302V254.982H152.285C152.31 256.609 153.19 257.556 154.593 257.556C155.714 257.556 156.353 256.991 156.552 256.576L156.577 256.518H158.544L158.519 256.593C158.229 257.763 157.017 259.183 154.551 259.183ZM154.477 251.372C153.323 251.372 152.46 252.152 152.302 253.596H156.61C156.469 252.11 155.631 251.372 154.477 251.372Z" fill="black"/>
<path d="M7.43311 297.282C4.1792 297.282 2.14551 294.875 2.14551 291.023V291.007C2.14551 287.147 4.1709 284.74 7.4248 284.74C9.94824 284.74 11.9155 286.325 12.2725 288.625L12.2642 288.641H10.7617L10.7534 288.625C10.355 287.089 9.07666 286.118 7.4248 286.118C5.12549 286.118 3.68115 288.01 3.68115 291.007V291.023C3.68115 294.02 5.12549 295.904 7.43311 295.904C9.10156 295.904 10.3716 295.049 10.7451 293.671L10.7617 293.655H12.2725V293.671C11.874 295.863 9.98145 297.282 7.43311 297.282ZM18.2699 297.158C15.7216 297.158 14.1445 295.398 14.1445 292.534V292.518C14.1445 289.646 15.7216 287.894 18.2699 287.894C20.8183 287.894 22.3954 289.646 22.3954 292.518V292.534C22.3954 295.398 20.8183 297.158 18.2699 297.158ZM18.2699 295.879C19.9633 295.879 20.9179 294.643 20.9179 292.534V292.518C20.9179 290.401 19.9633 289.172 18.2699 289.172C16.5766 289.172 15.622 290.401 15.622 292.518V292.534C15.622 294.643 16.5766 295.879 18.2699 295.879ZM23.5868 297L26.6497 292.526L23.5536 288.052H25.2552L27.3802 291.38H27.513L29.6131 288.052H31.2318L28.1937 292.468L31.2733 297H29.5799L27.4632 293.622H27.3304L25.2054 297H23.5868ZM33.2117 299.988V288.052H34.656V289.479H34.7888C35.3367 288.483 36.3328 287.894 37.5779 287.894C39.844 287.894 41.3298 289.729 41.3298 292.518V292.534C41.3298 295.34 39.8523 297.158 37.5779 297.158C36.3494 297.158 35.2786 296.543 34.7888 295.589H34.656V299.988H33.2117ZM37.2459 295.879C38.8811 295.879 39.8523 294.618 39.8523 292.534V292.518C39.8523 290.434 38.8811 289.172 37.2459 289.172C35.6189 289.172 34.6228 290.451 34.6228 292.518V292.534C34.6228 294.601 35.6189 295.879 37.2459 295.879ZM46.0407 297.158C44.339 297.158 43.0524 296.128 43.0524 294.501V294.485C43.0524 292.891 44.2311 291.97 46.3146 291.845L48.8796 291.688V290.874C48.8796 289.77 48.2072 289.172 46.8708 289.172C45.8 289.172 45.0944 289.571 44.862 290.268L44.8537 290.293H43.4094L43.4177 290.243C43.6501 288.84 45.0114 287.894 46.9206 287.894C49.1037 287.894 50.3239 289.015 50.3239 290.874V297H48.8796V295.68H48.7468C48.1823 296.635 47.2443 297.158 46.0407 297.158ZM44.53 294.468C44.53 295.373 45.3019 295.904 46.3395 295.904C47.8088 295.904 48.8796 294.941 48.8796 293.663V292.85L46.4889 292.999C45.1276 293.082 44.53 293.563 44.53 294.452V294.468ZM58.8282 297V292.949H54.3956V297H52.9513V288.052H54.3956V291.754H58.8282V288.052H60.2726V297H58.8282ZM67.6895 297V293.796H66.1704L63.8877 297H62.1861L64.6846 293.53C63.4229 293.173 62.6592 292.244 62.6592 291.023V291.007C62.6592 289.172 63.9707 288.052 66.021 288.052H69.1338V297H67.6895ZM66.021 292.601H67.6895V289.247H66.021C64.8423 289.247 64.1367 289.895 64.1367 290.974V290.99C64.1367 291.928 64.8506 292.601 66.021 292.601ZM75.5297 286.807C73.8198 286.807 72.6826 285.628 72.6826 284.084H73.9775C73.9775 284.989 74.5668 285.827 75.5297 285.827C76.5092 285.827 77.082 284.989 77.082 284.084H78.3769C78.3769 285.628 77.2397 286.807 75.5297 286.807ZM71.8027 297V288.052H73.247V294.726H73.3798L77.8041 288.052H79.2485V297H77.8041V290.326H77.6713L73.247 297H71.8027ZM88.4086 288.052V289.247H85.5116V297H84.0672V289.247H81.1703V288.052H88.4086ZM93.6507 297.158C91.094 297.158 89.5501 295.365 89.5501 292.559V292.551C89.5501 289.787 91.1272 287.894 93.5594 287.894C95.9915 287.894 97.469 289.704 97.469 292.376V292.941H91.0276C91.0691 294.792 92.0901 295.871 93.6839 295.871C94.8958 295.871 95.6429 295.298 95.8836 294.759L95.9168 294.684H97.3611L97.3445 294.75C97.0374 295.962 95.7591 297.158 93.6507 297.158ZM93.5511 289.181C92.2229 289.181 91.2102 290.085 91.0525 291.787H95.9998C95.8504 290.019 94.8709 289.181 93.5511 289.181ZM107.356 297.166C105.446 297.166 103.994 296.22 103.811 294.775L103.803 294.709H105.272L105.289 294.775C105.471 295.506 106.268 295.971 107.356 295.971C108.675 295.971 109.456 295.332 109.456 294.443V294.427C109.456 293.456 108.725 293.007 107.356 293.007H105.961V291.812H107.356C108.501 291.812 109.14 291.355 109.14 290.426V290.409C109.14 289.646 108.551 289.081 107.405 289.081C106.384 289.081 105.612 289.538 105.471 290.251L105.463 290.293H104.052L104.06 290.235C104.268 288.799 105.579 287.886 107.405 287.886C109.406 287.886 110.551 288.874 110.551 290.301V290.318C110.551 291.223 109.962 292.044 109.074 292.252V292.385C110.253 292.642 110.875 293.356 110.875 294.352V294.369C110.875 296.029 109.439 297.166 107.356 297.166ZM113.312 299.366H111.967V295.805H112.714C113.37 295.373 113.693 294.244 113.776 293.041L114.125 288.052H120.226V295.805H121.654V299.366H120.309V297H113.312V299.366ZM118.782 295.805V289.247H115.403L115.121 293.074C115.038 294.161 114.806 295.116 114.382 295.672V295.805H118.782ZM127.02 297.158C124.464 297.158 122.92 295.365 122.92 292.559V292.551C122.92 289.787 124.497 287.894 126.929 287.894C129.361 287.894 130.839 289.704 130.839 292.376V292.941H124.397C124.439 294.792 125.46 295.871 127.054 295.871C128.266 295.871 129.013 295.298 129.253 294.759L129.287 294.684H130.731L130.714 294.75C130.407 295.962 129.129 297.158 127.02 297.158ZM126.921 289.181C125.593 289.181 124.58 290.085 124.422 291.787H129.37C129.22 290.019 128.241 289.181 126.921 289.181ZM136.737 297.158C134.23 297.158 132.628 295.34 132.628 292.501V292.484C132.628 289.704 134.222 287.894 136.728 287.894C138.903 287.894 140.206 289.147 140.472 290.741L140.48 290.791H139.044L139.036 290.766C138.812 289.886 138.015 289.172 136.728 289.172C135.118 289.172 134.105 290.467 134.105 292.484V292.501C134.105 294.56 135.135 295.879 136.728 295.879C137.932 295.879 138.696 295.348 139.028 294.352L139.044 294.302L140.472 294.294L140.455 294.385C140.09 296.004 138.887 297.158 136.737 297.158ZM142.576 297V288.052H144.021V290.924H145.772C147.823 290.924 149.134 292.103 149.134 293.954V293.97C149.134 295.821 147.823 297 145.772 297H142.576ZM145.772 292.119H144.021V295.805H145.772C146.951 295.805 147.69 295.074 147.69 293.97V293.954C147.69 292.841 146.943 292.119 145.772 292.119ZM155.8 297V288.052H159.593C161.287 288.052 162.275 288.973 162.275 290.376V290.393C162.275 291.281 161.652 292.119 160.814 292.293V292.426C161.951 292.584 162.673 293.381 162.673 294.418V294.435C162.673 295.987 161.536 297 159.61 297H155.8ZM157.244 291.837H159.153C160.316 291.837 160.839 291.389 160.839 290.542V290.525C160.839 289.762 160.39 289.247 159.386 289.247H157.244V291.837ZM157.244 295.805H159.552C160.648 295.805 161.204 295.307 161.204 294.41V294.394C161.204 293.447 160.565 293.032 159.278 293.032H157.244V295.805ZM167.409 297.158C165.707 297.158 164.42 296.128 164.42 294.501V294.485C164.42 292.891 165.599 291.97 167.683 291.845L170.248 291.688V290.874C170.248 289.77 169.575 289.172 168.239 289.172C167.168 289.172 166.462 289.571 166.23 290.268L166.222 290.293H164.777L164.786 290.243C165.018 288.84 166.379 287.894 168.289 287.894C170.472 287.894 171.692 289.015 171.692 290.874V297H170.248V295.68H170.115C169.55 296.635 168.612 297.158 167.409 297.158ZM165.898 294.468C165.898 295.373 166.67 295.904 167.708 295.904C169.177 295.904 170.248 294.941 170.248 293.663V292.85L167.857 292.999C166.496 293.082 165.898 293.563 165.898 294.452V294.468ZM176.22 292.924H175.764V297H174.319V288.052H175.764V291.795H176.22L179.682 288.052H181.416L177.391 292.269L181.574 297H179.723L176.22 292.924ZM185.613 297.158C183.911 297.158 182.624 296.128 182.624 294.501V294.485C182.624 292.891 183.803 291.97 185.887 291.845L188.452 291.688V290.874C188.452 289.77 187.779 289.172 186.443 289.172C185.372 289.172 184.666 289.571 184.434 290.268L184.426 290.293H182.981L182.99 290.243C183.222 288.84 184.583 287.894 186.493 287.894C188.676 287.894 189.896 289.015 189.896 290.874V297H188.452V295.68H188.319C187.754 296.635 186.816 297.158 185.613 297.158ZM184.102 294.468C184.102 295.373 184.874 295.904 185.912 295.904C187.381 295.904 188.452 294.941 188.452 293.663V292.85L186.061 292.999C184.7 293.082 184.102 293.563 184.102 294.452V294.468ZM198.4 297V292.949H193.968V297H192.523V288.052H193.968V291.754H198.4V288.052H199.845V297H198.4ZM206.182 297.158C203.676 297.158 202.073 295.34 202.073 292.501V292.484C202.073 289.704 203.667 287.894 206.174 287.894C208.349 287.894 209.652 289.147 209.918 290.741L209.926 290.791H208.49L208.482 290.766C208.258 289.886 207.461 289.172 206.174 289.172C204.564 289.172 203.551 290.467 203.551 292.484V292.501C203.551 294.56 204.58 295.879 206.174 295.879C207.378 295.879 208.141 295.348 208.473 294.352L208.49 294.302L209.918 294.294L209.901 294.385C209.536 296.004 208.332 297.158 206.182 297.158ZM212.022 297V288.052H213.466V294.726H213.599L218.024 288.052H219.468V297H218.024V290.326H217.891L213.466 297H212.022ZM222.145 297V288.052H223.589V294.726H223.722L228.147 288.052H229.591V297H228.147V290.326H228.014L223.589 297H222.145ZM236.879 297V288.052H238.324V294.726H238.456L242.881 288.052H244.325V297H242.881V290.326H242.748L238.324 297H236.879ZM254.079 297.158C252.377 297.158 251.091 296.128 251.091 294.501V294.485C251.091 292.891 252.269 291.97 254.353 291.845L256.918 291.688V290.874C256.918 289.77 256.245 289.172 254.909 289.172C253.838 289.172 253.133 289.571 252.9 290.268L252.892 290.293H251.448L251.456 290.243C251.688 288.84 253.05 287.894 254.959 287.894C257.142 287.894 258.362 289.015 258.362 290.874V297H256.918V295.68H256.785C256.22 296.635 255.282 297.158 254.079 297.158ZM252.568 294.468C252.568 295.373 253.34 295.904 254.378 295.904C255.847 295.904 256.918 294.941 256.918 293.663V292.85L254.527 292.999C253.166 293.082 252.568 293.563 252.568 294.452V294.468ZM266.866 297V292.949H262.434V297H260.989V288.052H262.434V291.754H266.866V288.052H268.311V297H266.866ZM272.88 292.924H272.424V297H270.98V288.052H272.424V291.795H272.88L276.342 288.052H278.077L274.051 292.269L278.234 297H276.383L272.88 292.924ZM283.302 297.158C280.746 297.158 279.202 295.365 279.202 292.559V292.551C279.202 289.787 280.779 287.894 283.211 287.894C285.643 287.894 287.121 289.704 287.121 292.376V292.941H280.679C280.721 294.792 281.742 295.871 283.335 295.871C284.547 295.871 285.294 295.298 285.535 294.759L285.568 294.684H287.013L286.996 294.75C286.689 295.962 285.411 297.158 283.302 297.158ZM283.203 289.181C281.875 289.181 280.862 290.085 280.704 291.787H285.651C285.502 290.019 284.522 289.181 283.203 289.181ZM295.168 288.052V289.247H292.271V297H290.827V289.247H287.93V288.052H295.168ZM297.082 297V288.052H298.526V290.924H300.278C302.328 290.924 303.64 292.103 303.64 293.954V293.97C303.64 295.821 302.328 297 300.278 297H297.082ZM305.2 297V288.052H306.644V297H305.2ZM300.278 292.119H298.526V295.805H300.278C301.456 295.805 302.195 295.074 302.195 293.97V293.954C302.195 292.841 301.448 292.119 300.278 292.119ZM308.873 300.046L309.595 295.323H311.247L309.944 300.046H308.873ZM6.08838 319.158C3.58154 319.158 1.97949 317.34 1.97949 314.501V314.484C1.97949 311.704 3.57324 309.894 6.08008 309.894C8.25488 309.894 9.55811 311.147 9.82373 312.741L9.83203 312.791H8.396L8.3877 312.766C8.16357 311.886 7.3667 311.172 6.08008 311.172C4.46973 311.172 3.45703 312.467 3.45703 314.484V314.501C3.45703 316.56 4.48633 317.879 6.08008 317.879C7.28369 317.879 8.04736 317.348 8.37939 316.352L8.396 316.302L9.82373 316.294L9.80713 316.385C9.44189 318.004 8.23828 319.158 6.08838 319.158ZM17.996 310.052V311.247H15.099V319H13.6547V311.247H10.7577V310.052H17.996ZM22.242 319.158C20.5404 319.158 19.2537 318.128 19.2537 316.501V316.485C19.2537 314.891 20.4325 313.97 22.516 313.845L25.0809 313.688V312.874C25.0809 311.77 24.4085 311.172 23.0721 311.172C22.0013 311.172 21.2957 311.571 21.0633 312.268L21.055 312.293H19.6107L19.619 312.243C19.8514 310.84 21.2127 309.894 23.1219 309.894C25.305 309.894 26.5252 311.015 26.5252 312.874V319H25.0809V317.68H24.9481C24.3836 318.635 23.4456 319.158 22.242 319.158ZM20.7313 316.468C20.7313 317.373 21.5033 317.904 22.5409 317.904C24.0101 317.904 25.0809 316.941 25.0809 315.663V314.85L22.6903 314.999C21.3289 315.082 20.7313 315.563 20.7313 316.452V316.468ZM29.1526 319V310.052H32.9461C34.6394 310.052 35.6272 310.973 35.6272 312.376V312.393C35.6272 313.281 35.0046 314.119 34.1663 314.293V314.426C35.3035 314.584 36.0256 315.381 36.0256 316.418V316.435C36.0256 317.987 34.8884 319 32.9627 319H29.1526ZM30.5969 313.837H32.5061C33.6682 313.837 34.1912 313.389 34.1912 312.542V312.525C34.1912 311.762 33.7429 311.247 32.7385 311.247H30.5969V313.837ZM30.5969 317.805H32.9046C34.0003 317.805 34.5564 317.307 34.5564 316.41V316.394C34.5564 315.447 33.9172 315.032 32.6306 315.032H30.5969V317.805ZM43.0441 319V315.796H41.5251L39.2424 319H37.5407L40.0392 315.53C38.7775 315.173 38.0138 314.244 38.0138 313.023V313.007C38.0138 311.172 39.3254 310.052 41.3757 310.052H44.4885V319H43.0441ZM41.3757 314.601H43.0441V311.247H41.3757C40.197 311.247 39.4914 311.895 39.4914 312.974V312.99C39.4914 313.928 40.2053 314.601 41.3757 314.601ZM51.7686 319V310.052H53.2129V316.726H53.3457L57.77 310.052H59.2144V319H57.77V312.326H57.6372L53.2129 319H51.7686ZM63.3359 319H61.8915V310.052H63.643L66.8305 316.991H66.9633L70.1674 310.052H71.8442V319H70.3998V312.633H70.2421L67.4199 318.751H66.3076L63.4936 312.633H63.3359V319ZM81.2327 315.497C81.0418 317.962 80.2781 319.083 78.784 319.083C78.4768 319.083 78.2444 319.033 78.1282 318.992V317.688C78.2029 317.713 78.427 317.747 78.6429 317.747C79.4646 317.747 79.7967 316.709 79.888 315.381L80.2698 310.052H86.1219V319H84.6775V311.247H81.5647L81.2327 315.497ZM91.2561 319.158C89.5544 319.158 88.2678 318.128 88.2678 316.501V316.485C88.2678 314.891 89.4465 313.97 91.53 313.845L94.0949 313.688V312.874C94.0949 311.77 93.4226 311.172 92.0861 311.172C91.0153 311.172 90.3098 311.571 90.0773 312.268L90.069 312.293H88.6247L88.633 312.243C88.8654 310.84 90.2268 309.894 92.1359 309.894C94.319 309.894 95.5393 311.015 95.5393 312.874V319H94.0949V317.68H93.9621C93.3977 318.635 92.4597 319.158 91.2561 319.158ZM89.7453 316.468C89.7453 317.373 90.5173 317.904 91.5549 317.904C93.0241 317.904 94.0949 316.941 94.0949 315.663V314.85L91.7043 314.999C90.343 315.082 89.7453 315.563 89.7453 316.452V316.468ZM101.894 308.807C100.184 308.807 99.0465 307.628 99.0465 306.084H100.341C100.341 306.989 100.931 307.827 101.894 307.827C102.873 307.827 103.446 306.989 103.446 306.084H104.741C104.741 307.628 103.604 308.807 101.894 308.807ZM98.1666 319V310.052H99.611V316.726H99.7438L104.168 310.052H105.612V319H104.168V312.326H104.035L99.611 319H98.1666ZM110.19 314.924H109.734V319H108.29V310.052H109.734V313.795H110.19L113.652 310.052H115.387L111.361 314.269L115.544 319H113.693L110.19 314.924ZM117.367 319V310.052H118.811V316.726H118.944L123.368 310.052H124.812V319H123.368V312.326H123.235L118.811 319H117.367Z" fill="black"/>
<defs>
<filter id="filter0_d_1037_22784" x="0" y="116" width="363" height="86" filterUnits="userSpaceOnUse" color-interpolation-filters="sRGB">
<feFlood flood-opacity="0" result="BackgroundImageFix"/>
<feColorMatrix in="SourceAlpha" type="matrix" values="0 0 0 0 0 0 0 0 0 0 0 0 0 0 0 0 0 0 127 0" result="hardAlpha"/>
<feOffset dy="3"/>
<feGaussianBlur stdDeviation="0.5"/>
<feColorMatrix type="matrix" values="0 0 0 0 0 0 0 0 0 0 0 0 0 0 0 0 0 0 0.06 0"/>
<feBlend mode="normal" in2="BackgroundImageFix" result="effect1_dropShadow_1037_22784"/>
<feBlend mode="normal" in="SourceGraphic" in2="effect1_dropShadow_1037_22784" result="shape"/>
</filter>
<clipPath id="clip0_1037_22784">
<rect width="28" height="28" fill="white" transform="translate(236.9 143)"/>
</clipPath>
<clipPath id="clip1_1037_22784">
<rect width="28" height="28" fill="white" transform="translate(98.1006 214)"/>
</clipPath>
</defs>
</svg>
